M48
;DRILL file {KiCad 4.0.1-stable} date 07-10-2017 22:38:11
;FORMAT={2:4/ absolute / inch / suppress leading zeros}
FMAT,2
INCH,TZ
T1C0.012
T2C0.016
T3C0.020
T4C0.024
T5C0.031
T6C0.035
T7C0.040
T8C0.052
%
G90
G05
M72
T1
X91950Y-69750
X91950Y-70300
X91950Y-70750
X91950Y-71300
X91950Y-71800
X91950Y-72250
X92000Y-69300
X92900Y-73350
X92900Y-87000
X93142Y-66350
X93150Y-73650
X93150Y-87400
X93600Y-66100
X93750Y-73850
X93750Y-87600
X95050Y-67250
X95050Y-72200
X95150Y-71850
X95250Y-71050
X95400Y-69500
X95400Y-70300
X95750Y-70050
X95900Y-70950
X97600Y-59550
X97600Y-60050
X97600Y-73330
X97600Y-73830
X97600Y-87109
X97600Y-87609
X97600Y-100889
X97600Y-101389
X97750Y-59800
X97750Y-73580
X97750Y-87359
X97750Y-101139
X97775Y-63475
X97775Y-77255
X97775Y-91034
X97775Y-104814
X97800Y-63800
X97800Y-77580
X97800Y-91359
X97800Y-105139
X98050Y-62000
X98050Y-75780
X98050Y-89559
X98050Y-103339
X102150Y-60350
X102150Y-60700
X102150Y-61050
X102150Y-74450
X102150Y-74800
X102150Y-88250
X102150Y-88650
X102150Y-101650
X102150Y-102000
X102150Y-102350
X102200Y-74050
X102200Y-87850
X102411Y-59311
X102411Y-73091
X102411Y-86870
X102411Y-100650
X102725Y-59025
X102725Y-72805
X102725Y-86584
X102725Y-100364
X102925Y-57725
X102925Y-71505
X102925Y-85284
X102925Y-99064
T2
X96450Y-58700
X96450Y-72480
X96450Y-86259
X96450Y-100039
T3
X97250Y-74700
X97250Y-88500
X97250Y-102250
X99200Y-59200
X99200Y-59594
X99200Y-59987
X99200Y-60381
X99200Y-60775
X99200Y-72980
X99200Y-73373
X99200Y-73767
X99200Y-74161
X99200Y-74554
X99200Y-86759
X99200Y-87153
X99200Y-87546
X99200Y-87940
X99200Y-88334
X99200Y-100539
X99200Y-100932
X99200Y-101326
X99200Y-101720
X99200Y-102113
X99310Y-57075
X99310Y-57425
X99310Y-57775
X99310Y-62250
X99310Y-62600
X99310Y-62950
X99310Y-70860
X99310Y-71200
X99310Y-71555
X99310Y-76030
X99310Y-76380
X99310Y-76730
X99310Y-84634
X99310Y-84984
X99310Y-85334
X99310Y-89809
X99310Y-90159
X99310Y-90509
X99310Y-98414
X99310Y-98764
X99310Y-99114
X99310Y-103589
X99310Y-103939
X99310Y-104289
X99594Y-59200
X99594Y-59594
X99594Y-59987
X99594Y-60381
X99594Y-60775
X99594Y-72980
X99594Y-73373
X99594Y-73767
X99594Y-74161
X99594Y-74554
X99594Y-86759
X99594Y-87153
X99594Y-87546
X99594Y-87940
X99594Y-88334
X99594Y-100539
X99594Y-100932
X99594Y-101326
X99594Y-101720
X99594Y-102113
X99987Y-59200
X99987Y-59594
X99987Y-59987
X99987Y-60381
X99987Y-60775
X99987Y-72980
X99987Y-73373
X99987Y-73767
X99987Y-74161
X99987Y-74554
X99987Y-86759
X99987Y-87153
X99987Y-87546
X99987Y-87940
X99987Y-88334
X99987Y-100539
X99987Y-100932
X99987Y-101326
X99987Y-101720
X99987Y-102113
X100381Y-59200
X100381Y-59594
X100381Y-59987
X100381Y-60381
X100381Y-60775
X100381Y-72980
X100381Y-73373
X100381Y-73767
X100381Y-74161
X100381Y-74554
X100381Y-86759
X100381Y-87153
X100381Y-87546
X100381Y-87940
X100381Y-88334
X100381Y-100539
X100381Y-100932
X100381Y-101326
X100381Y-101720
X100381Y-102113
X100500Y-62300
X100500Y-76080
X100500Y-89859
X100500Y-103639
X100600Y-57775
X100600Y-71555
X100600Y-85334
X100600Y-99114
X100775Y-59200
X100775Y-59594
X100775Y-59987
X100775Y-60381
X100775Y-60775
X100775Y-72980
X100775Y-73373
X100775Y-73767
X100775Y-74161
X100775Y-74554
X100775Y-86759
X100775Y-87153
X100775Y-87546
X100775Y-87940
X100775Y-88334
X100775Y-100539
X100775Y-100932
X100775Y-101326
X100775Y-101720
X100775Y-102113
X100850Y-62300
X100850Y-76080
X100850Y-89859
X100850Y-103639
X100875Y-57600
X100875Y-71380
X100875Y-85159
X100875Y-98939
X102250Y-55550
X102250Y-55950
X102250Y-56350
X102250Y-63420
X102250Y-63820
X102250Y-64220
X102250Y-69330
X102250Y-69730
X102250Y-70130
X102250Y-77200
X102250Y-77600
X102250Y-78000
X102250Y-83109
X102250Y-83509
X102250Y-83909
X102250Y-90979
X102250Y-91379
X102250Y-91779
X102250Y-96889
X102250Y-97289
X102250Y-97689
X102250Y-104759
X102250Y-105159
X102250Y-105559
X102364Y-54195
X102364Y-67975
X102364Y-81754
X102364Y-95534
X102600Y-55550
X102600Y-55950
X102600Y-56350
X102600Y-63420
X102600Y-63820
X102600Y-64220
X102600Y-69330
X102600Y-69730
X102600Y-70130
X102600Y-77200
X102600Y-77600
X102600Y-78000
X102600Y-83109
X102600Y-83509
X102600Y-83909
X102600Y-90979
X102600Y-91379
X102600Y-91779
X102600Y-96889
X102600Y-97289
X102600Y-97689
X102600Y-104759
X102600Y-105159
X102600Y-105559
X102700Y-61450
X102700Y-75230
X102700Y-89009
X102700Y-102789
X102757Y-54195
X102757Y-67975
X102757Y-81754
X102757Y-95534
X103151Y-54195
X103151Y-67975
X103151Y-81754
X103151Y-95534
X104425Y-54200
X104425Y-67980
X104425Y-81759
X104425Y-95539
X104819Y-54200
X104819Y-67980
X104819Y-81759
X104819Y-95539
X105212Y-54200
X105212Y-67980
X105212Y-81759
X105212Y-95539
T4
X98150Y-61500
X98150Y-75280
X98150Y-89059
X98150Y-102839
T5
X92650Y-66300
X94200Y-66300
X97250Y-60950
X98650Y-63550
X98650Y-77330
X98650Y-91109
X98650Y-104889
T6
X94233Y-47700
X95000Y-51250
X97500Y-48250
T7
X104800Y-58500
X104800Y-59500
X104800Y-60500
X104800Y-61500
X104800Y-72280
X104800Y-73280
X104800Y-74280
X104800Y-75280
X104800Y-86059
X104800Y-87059
X104800Y-88059
X104800Y-89059
X104800Y-99839
X104800Y-100839
X104800Y-101839
X104800Y-102839
T8
X99250Y-49000
X101219Y-49000
T0
M30
