G04 #@! TF.FileFunction,Copper,L2,Inr,Plane*
%FSLAX46Y46*%
G04 Gerber Fmt 4.6, Leading zero omitted, Abs format (unit mm)*
G04 Created by KiCad (PCBNEW 4.0.1-stable) date 07-10-2017 22:38:10*
%MOMM*%
G01*
G04 APERTURE LIST*
%ADD10C,0.100000*%
%ADD11C,0.800000*%
%ADD12R,2.032000X1.727200*%
%ADD13O,2.032000X1.727200*%
%ADD14R,1.980000X3.960000*%
%ADD15O,1.980000X3.960000*%
%ADD16C,0.550000*%
%ADD17C,0.850000*%
%ADD18C,0.750000*%
%ADD19C,1.050000*%
%ADD20C,1.150000*%
%ADD21C,0.650000*%
%ADD22C,0.254000*%
G04 APERTURE END LIST*
D10*
D11*
X255524000Y-216748500D03*
X252247400Y-181748500D03*
X252247400Y-180848000D03*
X252247400Y-179984400D03*
X259715000Y-246097000D03*
X259715000Y-211097000D03*
X259715000Y-176097000D03*
X260604000Y-246097000D03*
X260604000Y-211097000D03*
X260604000Y-176097000D03*
X259715000Y-248129000D03*
X259715000Y-213129000D03*
X259715000Y-178129000D03*
X260604000Y-247113000D03*
X260604000Y-212113000D03*
X260604000Y-177113000D03*
X260604000Y-248129000D03*
X260604000Y-213129000D03*
X260604000Y-178129000D03*
X259715000Y-247113000D03*
X259715000Y-212113000D03*
X259715000Y-177113000D03*
X252247400Y-249970500D03*
X252247400Y-214970500D03*
X252247400Y-250859500D03*
X252247400Y-215859500D03*
X255524000Y-251748500D03*
X255524000Y-181748500D03*
X256222500Y-251304000D03*
X256222500Y-216304000D03*
X256222500Y-181304000D03*
X252247400Y-251748500D03*
X252247400Y-216748500D03*
X261003800Y-242655300D03*
X261003800Y-207655300D03*
X261003800Y-172655300D03*
X267239500Y-242668000D03*
X267239500Y-207668000D03*
X267239500Y-172668000D03*
X265239500Y-242668000D03*
X265239500Y-207668000D03*
X265239500Y-172668000D03*
X262003800Y-242655300D03*
X262003800Y-207655300D03*
X262003800Y-172655300D03*
X260003800Y-242655300D03*
X260003800Y-207655300D03*
X260003800Y-172655300D03*
X266239500Y-242668000D03*
X266239500Y-207668000D03*
X266239500Y-172668000D03*
X252968000Y-258368000D03*
X252968000Y-223368000D03*
X252968000Y-188368000D03*
X251968000Y-258368000D03*
X251968000Y-223368000D03*
X251968000Y-188368000D03*
X251968000Y-259368000D03*
X251968000Y-224368000D03*
X251968000Y-189368000D03*
X252968000Y-259368000D03*
X252968000Y-224368000D03*
X252968000Y-189368000D03*
X259715000Y-267102800D03*
X259715000Y-232102800D03*
X259715000Y-197102800D03*
X260604000Y-267102800D03*
X260604000Y-232102800D03*
X260604000Y-197102800D03*
X259715000Y-266086800D03*
X259715000Y-231086800D03*
X259715000Y-196086800D03*
X260604000Y-266086800D03*
X260604000Y-231086800D03*
X260604000Y-196086800D03*
X259715000Y-268118800D03*
X259715000Y-233118800D03*
X259715000Y-198118800D03*
X260604000Y-268118800D03*
X260604000Y-233118800D03*
X260604000Y-198118800D03*
X252247400Y-264004000D03*
X252247400Y-229004000D03*
X252247400Y-194004000D03*
X252247400Y-264893000D03*
X252247400Y-229893000D03*
X252247400Y-194893000D03*
X252247400Y-263115000D03*
X252247400Y-228115000D03*
X252247400Y-193115000D03*
X253968000Y-255368000D03*
X253968000Y-220368000D03*
X253968000Y-185368000D03*
X253968000Y-257368000D03*
X253968000Y-222368000D03*
X253968000Y-187368000D03*
X254968000Y-256368000D03*
X254968000Y-221368000D03*
X254968000Y-186368000D03*
X254968000Y-255368000D03*
X254968000Y-220368000D03*
X254968000Y-185368000D03*
X253968000Y-256368000D03*
X253968000Y-221368000D03*
X253968000Y-186368000D03*
X254968000Y-257368000D03*
X254968000Y-222368000D03*
X254968000Y-187368000D03*
X255968000Y-258368000D03*
X255968000Y-223368000D03*
X255968000Y-188368000D03*
X254968000Y-259368000D03*
X254968000Y-224368000D03*
X254968000Y-189368000D03*
X255968000Y-259368000D03*
X255968000Y-224368000D03*
X255968000Y-189368000D03*
X254968000Y-258368000D03*
X254968000Y-223368000D03*
X254968000Y-188368000D03*
X253968000Y-258368000D03*
X253968000Y-223368000D03*
X253968000Y-188368000D03*
X253968000Y-259368000D03*
X253968000Y-224368000D03*
X253968000Y-189368000D03*
X251968000Y-255368000D03*
X251968000Y-220368000D03*
X251968000Y-185368000D03*
X252968000Y-255368000D03*
X252968000Y-220368000D03*
X252968000Y-185368000D03*
X251968000Y-256368000D03*
X251968000Y-221368000D03*
X251968000Y-186368000D03*
X252968000Y-256368000D03*
X252968000Y-221368000D03*
X252968000Y-186368000D03*
X252968000Y-257368000D03*
X252968000Y-222368000D03*
X252968000Y-187368000D03*
X251968000Y-257368000D03*
X251968000Y-222368000D03*
X251968000Y-187368000D03*
X255968000Y-256368000D03*
X255968000Y-221368000D03*
X255968000Y-186368000D03*
X255968000Y-257368000D03*
X255968000Y-222368000D03*
X255968000Y-187368000D03*
X255968000Y-255368000D03*
X255968000Y-220368000D03*
X255968000Y-185368000D03*
X256159000Y-263242000D03*
X256159000Y-228242000D03*
X256159000Y-193242000D03*
X255270000Y-263242000D03*
X255270000Y-228242000D03*
X255270000Y-193242000D03*
D12*
X266192000Y-253590000D03*
D13*
X266192000Y-256130000D03*
X266192000Y-258670000D03*
X266192000Y-261210000D03*
D12*
X266192000Y-218590000D03*
D13*
X266192000Y-221130000D03*
X266192000Y-223670000D03*
X266192000Y-226210000D03*
D12*
X266192000Y-183590000D03*
D13*
X266192000Y-186130000D03*
X266192000Y-188670000D03*
X266192000Y-191210000D03*
D11*
X267239500Y-137668000D03*
X266239500Y-137668000D03*
X265239500Y-137668000D03*
X262003800Y-137655300D03*
X261003800Y-137655300D03*
X260003800Y-137655300D03*
X256222500Y-146304000D03*
X255524000Y-146748500D03*
X256159000Y-158242000D03*
X255270000Y-158242000D03*
X252247400Y-159004000D03*
X252247400Y-158115000D03*
X252247400Y-159893000D03*
X260604000Y-163118800D03*
X260604000Y-161086800D03*
X260604000Y-162102800D03*
X259715000Y-163118800D03*
X259715000Y-162102800D03*
X259715000Y-161086800D03*
X252247400Y-145859500D03*
X252247400Y-144970500D03*
X252247400Y-146748500D03*
X259715000Y-142113000D03*
X260604000Y-142113000D03*
X260604000Y-141097000D03*
X259715000Y-141097000D03*
X259715000Y-143129000D03*
X260604000Y-143129000D03*
X255968000Y-154368000D03*
X254968000Y-154368000D03*
X253968000Y-154368000D03*
X252968000Y-154368000D03*
X251968000Y-154368000D03*
X255968000Y-153368000D03*
X254968000Y-153368000D03*
X253968000Y-153368000D03*
X252968000Y-153368000D03*
X251968000Y-153368000D03*
X255968000Y-152368000D03*
X254968000Y-152368000D03*
X253968000Y-152368000D03*
X252968000Y-152368000D03*
X251968000Y-152368000D03*
X255968000Y-151368000D03*
X254968000Y-151368000D03*
X253968000Y-151368000D03*
X252968000Y-151368000D03*
X251968000Y-151368000D03*
X255968000Y-150368000D03*
X254968000Y-150368000D03*
X253968000Y-150368000D03*
X252968000Y-150368000D03*
X251968000Y-150368000D03*
D12*
X266192000Y-148590000D03*
D13*
X266192000Y-151130000D03*
X266192000Y-153670000D03*
X266192000Y-156210000D03*
D14*
X252095000Y-124460000D03*
D15*
X257095000Y-124460000D03*
D16*
X260921500Y-254923500D03*
X260921500Y-219923500D03*
X260921500Y-184923500D03*
X260921500Y-149923500D03*
D17*
X249301000Y-261210000D03*
X249301000Y-226210000D03*
X249301000Y-191210000D03*
D16*
X261429500Y-251621500D03*
X261429500Y-216621500D03*
X261429500Y-181621500D03*
D18*
X260858000Y-261083000D03*
X260858000Y-226083000D03*
X260858000Y-191083000D03*
D17*
X249301000Y-156210000D03*
D19*
X235331000Y-168402000D03*
D20*
X239350800Y-121158000D03*
D16*
X261429500Y-146621500D03*
D18*
X260858000Y-156083000D03*
D21*
X244983000Y-254098000D03*
X244983000Y-219098000D03*
X244983000Y-184098000D03*
D16*
X260124000Y-255650000D03*
X260124000Y-220650000D03*
X260124000Y-185650000D03*
D19*
X239268000Y-168402000D03*
D21*
X244983000Y-149098000D03*
D20*
X241300000Y-130175000D03*
D16*
X260124000Y-150650000D03*
X259461000Y-154178000D03*
X248348500Y-161226500D03*
D18*
X247015000Y-259715000D03*
X247015000Y-224790000D03*
X247015000Y-189738000D03*
D19*
X250571000Y-266417000D03*
X250571000Y-231417000D03*
X250571000Y-196417000D03*
X247015000Y-154813000D03*
X250571000Y-161417000D03*
D20*
X247650000Y-122555000D03*
D16*
X259461000Y-155067000D03*
X249047000Y-157480000D03*
X236579980Y-168529000D03*
X235966000Y-186309000D03*
X235966000Y-220980000D03*
X247904000Y-256257000D03*
X247904000Y-221257000D03*
X247904000Y-186257000D03*
X247904000Y-151257000D03*
X237744000Y-167894000D03*
X236601000Y-187071000D03*
X236601000Y-221996000D03*
X248285000Y-256892000D03*
X248285000Y-221892000D03*
X248285000Y-186892000D03*
X248285000Y-151892000D03*
X238125000Y-187579000D03*
X238125000Y-222504000D03*
X247904000Y-257527000D03*
X247904000Y-222527000D03*
X247904000Y-187527000D03*
X241427000Y-170815000D03*
X247904000Y-152527000D03*
X259461000Y-153289000D03*
X248412000Y-162052000D03*
X259461000Y-259969000D03*
X249047000Y-262480000D03*
X241427000Y-183388000D03*
X233553000Y-183515000D03*
X233553000Y-182372000D03*
X241681000Y-182499000D03*
X259461000Y-258191000D03*
X248412000Y-267052000D03*
X259461000Y-225171000D03*
X241935000Y-180467000D03*
X233553000Y-181102000D03*
X249047000Y-227480000D03*
X233553000Y-179705000D03*
X243586000Y-180213000D03*
X259588000Y-223139000D03*
X248412000Y-232052000D03*
X259461000Y-189992000D03*
X243205000Y-177927000D03*
X249047000Y-192480000D03*
X233553000Y-177165000D03*
X233680000Y-176022000D03*
X242316000Y-176530000D03*
X259588000Y-188087000D03*
X242316000Y-178562000D03*
X233553000Y-178562000D03*
X248412000Y-197052000D03*
X259461000Y-189103000D03*
X248348500Y-196226500D03*
X259461000Y-224155000D03*
X248348500Y-231226500D03*
X259461000Y-259080000D03*
X248348500Y-266226500D03*
D22*
G36*
X269165000Y-271705000D02*
X232485000Y-271705000D01*
X232485000Y-266406716D01*
X247438342Y-266406716D01*
X247566161Y-266716060D01*
X247502158Y-266870196D01*
X247501842Y-267232216D01*
X247640090Y-267566800D01*
X247895853Y-267823011D01*
X248230196Y-267961842D01*
X248592216Y-267962158D01*
X248926800Y-267823910D01*
X249183011Y-267568147D01*
X249321842Y-267233804D01*
X249322158Y-266871784D01*
X249229166Y-266646726D01*
X249410799Y-266646726D01*
X249587026Y-267073229D01*
X249913055Y-267399827D01*
X250339249Y-267576798D01*
X250800726Y-267577201D01*
X251227229Y-267400974D01*
X251553827Y-267074945D01*
X251730798Y-266648751D01*
X251731201Y-266187274D01*
X251554974Y-265760771D01*
X251228945Y-265434173D01*
X250802751Y-265257202D01*
X250341274Y-265256799D01*
X249914771Y-265433026D01*
X249588173Y-265759055D01*
X249411202Y-266185249D01*
X249410799Y-266646726D01*
X249229166Y-266646726D01*
X249194339Y-266562440D01*
X249258342Y-266408304D01*
X249258658Y-266046284D01*
X249120410Y-265711700D01*
X248864647Y-265455489D01*
X248530304Y-265316658D01*
X248168284Y-265316342D01*
X247833700Y-265454590D01*
X247577489Y-265710353D01*
X247438658Y-266044696D01*
X247438342Y-266406716D01*
X232485000Y-266406716D01*
X232485000Y-262660216D01*
X248136842Y-262660216D01*
X248275090Y-262994800D01*
X248530853Y-263251011D01*
X248865196Y-263389842D01*
X249227216Y-263390158D01*
X249397080Y-263319971D01*
X251212221Y-263319971D01*
X251311241Y-263559619D01*
X251212580Y-263797223D01*
X251212221Y-264208971D01*
X251311241Y-264448619D01*
X251212580Y-264686223D01*
X251212221Y-265097971D01*
X251369458Y-265478515D01*
X251660354Y-265769919D01*
X252040623Y-265927820D01*
X252452371Y-265928179D01*
X252832915Y-265770942D01*
X253124319Y-265480046D01*
X253282220Y-265099777D01*
X253282579Y-264688029D01*
X253183559Y-264448381D01*
X253282220Y-264210777D01*
X253282579Y-263799029D01*
X253183559Y-263559381D01*
X253230235Y-263446971D01*
X254234821Y-263446971D01*
X254392058Y-263827515D01*
X254682954Y-264118919D01*
X255063223Y-264276820D01*
X255474971Y-264277179D01*
X255714619Y-264178159D01*
X255952223Y-264276820D01*
X256363971Y-264277179D01*
X256744515Y-264119942D01*
X257035919Y-263829046D01*
X257193820Y-263448777D01*
X257194179Y-263037029D01*
X257036942Y-262656485D01*
X256746046Y-262365081D01*
X256365777Y-262207180D01*
X255954029Y-262206821D01*
X255714381Y-262305841D01*
X255476777Y-262207180D01*
X255065029Y-262206821D01*
X254684485Y-262364058D01*
X254393081Y-262654954D01*
X254235180Y-263035223D01*
X254234821Y-263446971D01*
X253230235Y-263446971D01*
X253282220Y-263321777D01*
X253282579Y-262910029D01*
X253125342Y-262529485D01*
X252834446Y-262238081D01*
X252454177Y-262080180D01*
X252042429Y-262079821D01*
X251661885Y-262237058D01*
X251370481Y-262527954D01*
X251212580Y-262908223D01*
X251212221Y-263319971D01*
X249397080Y-263319971D01*
X249561800Y-263251910D01*
X249818011Y-262996147D01*
X249956842Y-262661804D01*
X249957158Y-262299784D01*
X249818910Y-261965200D01*
X249563147Y-261708989D01*
X249228804Y-261570158D01*
X248866784Y-261569842D01*
X248532200Y-261708090D01*
X248275989Y-261963853D01*
X248137158Y-262298196D01*
X248136842Y-262660216D01*
X232485000Y-262660216D01*
X232485000Y-259915020D01*
X246004825Y-259915020D01*
X246158264Y-260286372D01*
X246442134Y-260570737D01*
X246813217Y-260724824D01*
X247215020Y-260725175D01*
X247586372Y-260571736D01*
X247870737Y-260287866D01*
X248024824Y-259916783D01*
X248025175Y-259514980D01*
X247871736Y-259143628D01*
X247587866Y-258859263D01*
X247216783Y-258705176D01*
X246814980Y-258704825D01*
X246443628Y-258858264D01*
X246159263Y-259142134D01*
X246005176Y-259513217D01*
X246004825Y-259915020D01*
X232485000Y-259915020D01*
X232485000Y-256437216D01*
X246993842Y-256437216D01*
X247132090Y-256771800D01*
X247252065Y-256891985D01*
X247132989Y-257010853D01*
X246994158Y-257345196D01*
X246993842Y-257707216D01*
X247132090Y-258041800D01*
X247387853Y-258298011D01*
X247722196Y-258436842D01*
X248084216Y-258437158D01*
X248243807Y-258371216D01*
X258550842Y-258371216D01*
X258660140Y-258635737D01*
X258551158Y-258898196D01*
X258550842Y-259260216D01*
X258660140Y-259524737D01*
X258551158Y-259787196D01*
X258550842Y-260149216D01*
X258689090Y-260483800D01*
X258944853Y-260740011D01*
X259279196Y-260878842D01*
X259641216Y-260879158D01*
X259975800Y-260740910D01*
X260232011Y-260485147D01*
X260370842Y-260150804D01*
X260371158Y-259788784D01*
X260261860Y-259524263D01*
X260370842Y-259261804D01*
X260371158Y-258899784D01*
X260261860Y-258635263D01*
X260370842Y-258372804D01*
X260371158Y-258010784D01*
X260232910Y-257676200D01*
X259977147Y-257419989D01*
X259642804Y-257281158D01*
X259280784Y-257280842D01*
X258946200Y-257419090D01*
X258689989Y-257674853D01*
X258551158Y-258009196D01*
X258550842Y-258371216D01*
X248243807Y-258371216D01*
X248418800Y-258298910D01*
X248675011Y-258043147D01*
X248813842Y-257708804D01*
X248813893Y-257649841D01*
X249056011Y-257408147D01*
X249194842Y-257073804D01*
X249195158Y-256711784D01*
X249056910Y-256377200D01*
X248814108Y-256133973D01*
X248814158Y-256076784D01*
X248712278Y-255830216D01*
X259213842Y-255830216D01*
X259352090Y-256164800D01*
X259607853Y-256421011D01*
X259942196Y-256559842D01*
X260304216Y-256560158D01*
X260638800Y-256421910D01*
X260895011Y-256166147D01*
X260910020Y-256130000D01*
X264508655Y-256130000D01*
X264622729Y-256703489D01*
X264947585Y-257189670D01*
X265262366Y-257400000D01*
X264947585Y-257610330D01*
X264622729Y-258096511D01*
X264508655Y-258670000D01*
X264622729Y-259243489D01*
X264947585Y-259729670D01*
X265262366Y-259940000D01*
X264947585Y-260150330D01*
X264622729Y-260636511D01*
X264508655Y-261210000D01*
X264622729Y-261783489D01*
X264947585Y-262269670D01*
X265433766Y-262594526D01*
X266007255Y-262708600D01*
X266376745Y-262708600D01*
X266950234Y-262594526D01*
X267436415Y-262269670D01*
X267761271Y-261783489D01*
X267875345Y-261210000D01*
X267761271Y-260636511D01*
X267436415Y-260150330D01*
X267121634Y-259940000D01*
X267436415Y-259729670D01*
X267761271Y-259243489D01*
X267875345Y-258670000D01*
X267761271Y-258096511D01*
X267436415Y-257610330D01*
X267121634Y-257400000D01*
X267436415Y-257189670D01*
X267761271Y-256703489D01*
X267875345Y-256130000D01*
X267761271Y-255556511D01*
X267436415Y-255070330D01*
X267422087Y-255060757D01*
X267443317Y-255056762D01*
X267659441Y-254917690D01*
X267804431Y-254705490D01*
X267855440Y-254453600D01*
X267855440Y-252726400D01*
X267811162Y-252491083D01*
X267672090Y-252274959D01*
X267459890Y-252129969D01*
X267208000Y-252078960D01*
X265176000Y-252078960D01*
X264940683Y-252123238D01*
X264724559Y-252262310D01*
X264579569Y-252474510D01*
X264528560Y-252726400D01*
X264528560Y-254453600D01*
X264572838Y-254688917D01*
X264711910Y-254905041D01*
X264924110Y-255050031D01*
X264965439Y-255058400D01*
X264947585Y-255070330D01*
X264622729Y-255556511D01*
X264508655Y-256130000D01*
X260910020Y-256130000D01*
X261033097Y-255833598D01*
X261101716Y-255833658D01*
X261436300Y-255695410D01*
X261692511Y-255439647D01*
X261831342Y-255105304D01*
X261831658Y-254743284D01*
X261693410Y-254408700D01*
X261437647Y-254152489D01*
X261103304Y-254013658D01*
X260741284Y-254013342D01*
X260406700Y-254151590D01*
X260150489Y-254407353D01*
X260012403Y-254739902D01*
X259943784Y-254739842D01*
X259609200Y-254878090D01*
X259352989Y-255133853D01*
X259214158Y-255468196D01*
X259213842Y-255830216D01*
X248712278Y-255830216D01*
X248675910Y-255742200D01*
X248420147Y-255485989D01*
X248085804Y-255347158D01*
X247723784Y-255346842D01*
X247389200Y-255485090D01*
X247132989Y-255740853D01*
X246994158Y-256075196D01*
X246993842Y-256437216D01*
X232485000Y-256437216D01*
X232485000Y-254288118D01*
X244022833Y-254288118D01*
X244168677Y-254641086D01*
X244438493Y-254911374D01*
X244791206Y-255057833D01*
X245173118Y-255058167D01*
X245526086Y-254912323D01*
X245796374Y-254642507D01*
X245942833Y-254289794D01*
X245943167Y-253907882D01*
X245797323Y-253554914D01*
X245527507Y-253284626D01*
X245174794Y-253138167D01*
X244792882Y-253137833D01*
X244439914Y-253283677D01*
X244169626Y-253553493D01*
X244023167Y-253906206D01*
X244022833Y-254288118D01*
X232485000Y-254288118D01*
X232485000Y-250175471D01*
X251212221Y-250175471D01*
X251311241Y-250415119D01*
X251212580Y-250652723D01*
X251212221Y-251064471D01*
X251311241Y-251304119D01*
X251212580Y-251541723D01*
X251212221Y-251953471D01*
X251369458Y-252334015D01*
X251660354Y-252625419D01*
X252040623Y-252783320D01*
X252452371Y-252783679D01*
X252832915Y-252626442D01*
X253124319Y-252335546D01*
X253282220Y-251955277D01*
X253282221Y-251953471D01*
X254488821Y-251953471D01*
X254646058Y-252334015D01*
X254936954Y-252625419D01*
X255317223Y-252783320D01*
X255728971Y-252783679D01*
X256109515Y-252626442D01*
X256397306Y-252339153D01*
X256427471Y-252339179D01*
X256808015Y-252181942D01*
X257099419Y-251891046D01*
X257257320Y-251510777D01*
X257257679Y-251099029D01*
X257100442Y-250718485D01*
X256809546Y-250427081D01*
X256429277Y-250269180D01*
X256017529Y-250268821D01*
X255636985Y-250426058D01*
X255349194Y-250713347D01*
X255319029Y-250713321D01*
X254938485Y-250870558D01*
X254647081Y-251161454D01*
X254489180Y-251541723D01*
X254488821Y-251953471D01*
X253282221Y-251953471D01*
X253282579Y-251543529D01*
X253183559Y-251303881D01*
X253282220Y-251066277D01*
X253282579Y-250654529D01*
X253183559Y-250414881D01*
X253282220Y-250177277D01*
X253282579Y-249765529D01*
X253125342Y-249384985D01*
X252834446Y-249093581D01*
X252454177Y-248935680D01*
X252042429Y-248935321D01*
X251661885Y-249092558D01*
X251370481Y-249383454D01*
X251212580Y-249763723D01*
X251212221Y-250175471D01*
X232485000Y-250175471D01*
X232485000Y-242872971D01*
X264204321Y-242872971D01*
X264361558Y-243253515D01*
X264652454Y-243544919D01*
X265032723Y-243702820D01*
X265444471Y-243703179D01*
X265739756Y-243581170D01*
X266032723Y-243702820D01*
X266444471Y-243703179D01*
X266739756Y-243581170D01*
X267032723Y-243702820D01*
X267444471Y-243703179D01*
X267825015Y-243545942D01*
X268116419Y-243255046D01*
X268274320Y-242874777D01*
X268274679Y-242463029D01*
X268117442Y-242082485D01*
X267826546Y-241791081D01*
X267446277Y-241633180D01*
X267034529Y-241632821D01*
X266739244Y-241754830D01*
X266446277Y-241633180D01*
X266034529Y-241632821D01*
X265739244Y-241754830D01*
X265446277Y-241633180D01*
X265034529Y-241632821D01*
X264653985Y-241790058D01*
X264362581Y-242080954D01*
X264204680Y-242461223D01*
X264204321Y-242872971D01*
X232485000Y-242872971D01*
X232485000Y-231406716D01*
X247438342Y-231406716D01*
X247566161Y-231716060D01*
X247502158Y-231870196D01*
X247501842Y-232232216D01*
X247640090Y-232566800D01*
X247895853Y-232823011D01*
X248230196Y-232961842D01*
X248592216Y-232962158D01*
X248926800Y-232823910D01*
X249183011Y-232568147D01*
X249321842Y-232233804D01*
X249322158Y-231871784D01*
X249229166Y-231646726D01*
X249410799Y-231646726D01*
X249587026Y-232073229D01*
X249913055Y-232399827D01*
X250339249Y-232576798D01*
X250800726Y-232577201D01*
X251227229Y-232400974D01*
X251553827Y-232074945D01*
X251730798Y-231648751D01*
X251731201Y-231187274D01*
X251554974Y-230760771D01*
X251228945Y-230434173D01*
X250802751Y-230257202D01*
X250341274Y-230256799D01*
X249914771Y-230433026D01*
X249588173Y-230759055D01*
X249411202Y-231185249D01*
X249410799Y-231646726D01*
X249229166Y-231646726D01*
X249194339Y-231562440D01*
X249258342Y-231408304D01*
X249258658Y-231046284D01*
X249120410Y-230711700D01*
X248864647Y-230455489D01*
X248530304Y-230316658D01*
X248168284Y-230316342D01*
X247833700Y-230454590D01*
X247577489Y-230710353D01*
X247438658Y-231044696D01*
X247438342Y-231406716D01*
X232485000Y-231406716D01*
X232485000Y-227660216D01*
X248136842Y-227660216D01*
X248275090Y-227994800D01*
X248530853Y-228251011D01*
X248865196Y-228389842D01*
X249227216Y-228390158D01*
X249397080Y-228319971D01*
X251212221Y-228319971D01*
X251311241Y-228559619D01*
X251212580Y-228797223D01*
X251212221Y-229208971D01*
X251311241Y-229448619D01*
X251212580Y-229686223D01*
X251212221Y-230097971D01*
X251369458Y-230478515D01*
X251660354Y-230769919D01*
X252040623Y-230927820D01*
X252452371Y-230928179D01*
X252832915Y-230770942D01*
X253124319Y-230480046D01*
X253282220Y-230099777D01*
X253282579Y-229688029D01*
X253183559Y-229448381D01*
X253282220Y-229210777D01*
X253282579Y-228799029D01*
X253183559Y-228559381D01*
X253230235Y-228446971D01*
X254234821Y-228446971D01*
X254392058Y-228827515D01*
X254682954Y-229118919D01*
X255063223Y-229276820D01*
X255474971Y-229277179D01*
X255714619Y-229178159D01*
X255952223Y-229276820D01*
X256363971Y-229277179D01*
X256744515Y-229119942D01*
X257035919Y-228829046D01*
X257193820Y-228448777D01*
X257194179Y-228037029D01*
X257036942Y-227656485D01*
X256746046Y-227365081D01*
X256365777Y-227207180D01*
X255954029Y-227206821D01*
X255714381Y-227305841D01*
X255476777Y-227207180D01*
X255065029Y-227206821D01*
X254684485Y-227364058D01*
X254393081Y-227654954D01*
X254235180Y-228035223D01*
X254234821Y-228446971D01*
X253230235Y-228446971D01*
X253282220Y-228321777D01*
X253282579Y-227910029D01*
X253125342Y-227529485D01*
X252834446Y-227238081D01*
X252454177Y-227080180D01*
X252042429Y-227079821D01*
X251661885Y-227237058D01*
X251370481Y-227527954D01*
X251212580Y-227908223D01*
X251212221Y-228319971D01*
X249397080Y-228319971D01*
X249561800Y-228251910D01*
X249818011Y-227996147D01*
X249956842Y-227661804D01*
X249957158Y-227299784D01*
X249818910Y-226965200D01*
X249563147Y-226708989D01*
X249228804Y-226570158D01*
X248866784Y-226569842D01*
X248532200Y-226708090D01*
X248275989Y-226963853D01*
X248137158Y-227298196D01*
X248136842Y-227660216D01*
X232485000Y-227660216D01*
X232485000Y-224990020D01*
X246004825Y-224990020D01*
X246158264Y-225361372D01*
X246442134Y-225645737D01*
X246813217Y-225799824D01*
X247215020Y-225800175D01*
X247586372Y-225646736D01*
X247870737Y-225362866D01*
X248024824Y-224991783D01*
X248025175Y-224589980D01*
X247919910Y-224335216D01*
X258550842Y-224335216D01*
X258686443Y-224663393D01*
X258551158Y-224989196D01*
X258550842Y-225351216D01*
X258689090Y-225685800D01*
X258944853Y-225942011D01*
X259279196Y-226080842D01*
X259641216Y-226081158D01*
X259975800Y-225942910D01*
X260232011Y-225687147D01*
X260370842Y-225352804D01*
X260371158Y-224990784D01*
X260235557Y-224662607D01*
X260370842Y-224336804D01*
X260371158Y-223974784D01*
X260274107Y-223739903D01*
X260359011Y-223655147D01*
X260497842Y-223320804D01*
X260498158Y-222958784D01*
X260359910Y-222624200D01*
X260104147Y-222367989D01*
X259769804Y-222229158D01*
X259407784Y-222228842D01*
X259073200Y-222367090D01*
X258816989Y-222622853D01*
X258678158Y-222957196D01*
X258677842Y-223319216D01*
X258774893Y-223554097D01*
X258689989Y-223638853D01*
X258551158Y-223973196D01*
X258550842Y-224335216D01*
X247919910Y-224335216D01*
X247871736Y-224218628D01*
X247587866Y-223934263D01*
X247216783Y-223780176D01*
X246814980Y-223779825D01*
X246443628Y-223933264D01*
X246159263Y-224217134D01*
X246005176Y-224588217D01*
X246004825Y-224990020D01*
X232485000Y-224990020D01*
X232485000Y-221160216D01*
X235055842Y-221160216D01*
X235194090Y-221494800D01*
X235449853Y-221751011D01*
X235691126Y-221851196D01*
X235690842Y-222176216D01*
X235829090Y-222510800D01*
X236084853Y-222767011D01*
X236419196Y-222905842D01*
X236781216Y-222906158D01*
X237115800Y-222767910D01*
X237214855Y-222669028D01*
X237214842Y-222684216D01*
X237353090Y-223018800D01*
X237608853Y-223275011D01*
X237943196Y-223413842D01*
X238305216Y-223414158D01*
X238639800Y-223275910D01*
X238896011Y-223020147D01*
X239034842Y-222685804D01*
X239035158Y-222323784D01*
X238896910Y-221989200D01*
X238641147Y-221732989D01*
X238306804Y-221594158D01*
X237944784Y-221593842D01*
X237610200Y-221732090D01*
X237511145Y-221830972D01*
X237511158Y-221815784D01*
X237372910Y-221481200D01*
X237329003Y-221437216D01*
X246993842Y-221437216D01*
X247132090Y-221771800D01*
X247252065Y-221891985D01*
X247132989Y-222010853D01*
X246994158Y-222345196D01*
X246993842Y-222707216D01*
X247132090Y-223041800D01*
X247387853Y-223298011D01*
X247722196Y-223436842D01*
X248084216Y-223437158D01*
X248418800Y-223298910D01*
X248675011Y-223043147D01*
X248813842Y-222708804D01*
X248813893Y-222649841D01*
X249056011Y-222408147D01*
X249194842Y-222073804D01*
X249195158Y-221711784D01*
X249056910Y-221377200D01*
X248814108Y-221133973D01*
X248814158Y-221076784D01*
X248712278Y-220830216D01*
X259213842Y-220830216D01*
X259352090Y-221164800D01*
X259607853Y-221421011D01*
X259942196Y-221559842D01*
X260304216Y-221560158D01*
X260638800Y-221421910D01*
X260895011Y-221166147D01*
X260910020Y-221130000D01*
X264508655Y-221130000D01*
X264622729Y-221703489D01*
X264947585Y-222189670D01*
X265262366Y-222400000D01*
X264947585Y-222610330D01*
X264622729Y-223096511D01*
X264508655Y-223670000D01*
X264622729Y-224243489D01*
X264947585Y-224729670D01*
X265262366Y-224940000D01*
X264947585Y-225150330D01*
X264622729Y-225636511D01*
X264508655Y-226210000D01*
X264622729Y-226783489D01*
X264947585Y-227269670D01*
X265433766Y-227594526D01*
X266007255Y-227708600D01*
X266376745Y-227708600D01*
X266950234Y-227594526D01*
X267436415Y-227269670D01*
X267761271Y-226783489D01*
X267875345Y-226210000D01*
X267761271Y-225636511D01*
X267436415Y-225150330D01*
X267121634Y-224940000D01*
X267436415Y-224729670D01*
X267761271Y-224243489D01*
X267875345Y-223670000D01*
X267761271Y-223096511D01*
X267436415Y-222610330D01*
X267121634Y-222400000D01*
X267436415Y-222189670D01*
X267761271Y-221703489D01*
X267875345Y-221130000D01*
X267761271Y-220556511D01*
X267436415Y-220070330D01*
X267422087Y-220060757D01*
X267443317Y-220056762D01*
X267659441Y-219917690D01*
X267804431Y-219705490D01*
X267855440Y-219453600D01*
X267855440Y-217726400D01*
X267811162Y-217491083D01*
X267672090Y-217274959D01*
X267459890Y-217129969D01*
X267208000Y-217078960D01*
X265176000Y-217078960D01*
X264940683Y-217123238D01*
X264724559Y-217262310D01*
X264579569Y-217474510D01*
X264528560Y-217726400D01*
X264528560Y-219453600D01*
X264572838Y-219688917D01*
X264711910Y-219905041D01*
X264924110Y-220050031D01*
X264965439Y-220058400D01*
X264947585Y-220070330D01*
X264622729Y-220556511D01*
X264508655Y-221130000D01*
X260910020Y-221130000D01*
X261033097Y-220833598D01*
X261101716Y-220833658D01*
X261436300Y-220695410D01*
X261692511Y-220439647D01*
X261831342Y-220105304D01*
X261831658Y-219743284D01*
X261693410Y-219408700D01*
X261437647Y-219152489D01*
X261103304Y-219013658D01*
X260741284Y-219013342D01*
X260406700Y-219151590D01*
X260150489Y-219407353D01*
X260012403Y-219739902D01*
X259943784Y-219739842D01*
X259609200Y-219878090D01*
X259352989Y-220133853D01*
X259214158Y-220468196D01*
X259213842Y-220830216D01*
X248712278Y-220830216D01*
X248675910Y-220742200D01*
X248420147Y-220485989D01*
X248085804Y-220347158D01*
X247723784Y-220346842D01*
X247389200Y-220485090D01*
X247132989Y-220740853D01*
X246994158Y-221075196D01*
X246993842Y-221437216D01*
X237329003Y-221437216D01*
X237117147Y-221224989D01*
X236875874Y-221124804D01*
X236876158Y-220799784D01*
X236737910Y-220465200D01*
X236482147Y-220208989D01*
X236147804Y-220070158D01*
X235785784Y-220069842D01*
X235451200Y-220208090D01*
X235194989Y-220463853D01*
X235056158Y-220798196D01*
X235055842Y-221160216D01*
X232485000Y-221160216D01*
X232485000Y-219288118D01*
X244022833Y-219288118D01*
X244168677Y-219641086D01*
X244438493Y-219911374D01*
X244791206Y-220057833D01*
X245173118Y-220058167D01*
X245526086Y-219912323D01*
X245796374Y-219642507D01*
X245942833Y-219289794D01*
X245943167Y-218907882D01*
X245797323Y-218554914D01*
X245527507Y-218284626D01*
X245174794Y-218138167D01*
X244792882Y-218137833D01*
X244439914Y-218283677D01*
X244169626Y-218553493D01*
X244023167Y-218906206D01*
X244022833Y-219288118D01*
X232485000Y-219288118D01*
X232485000Y-215175471D01*
X251212221Y-215175471D01*
X251311241Y-215415119D01*
X251212580Y-215652723D01*
X251212221Y-216064471D01*
X251311241Y-216304119D01*
X251212580Y-216541723D01*
X251212221Y-216953471D01*
X251369458Y-217334015D01*
X251660354Y-217625419D01*
X252040623Y-217783320D01*
X252452371Y-217783679D01*
X252832915Y-217626442D01*
X253124319Y-217335546D01*
X253282220Y-216955277D01*
X253282221Y-216953471D01*
X254488821Y-216953471D01*
X254646058Y-217334015D01*
X254936954Y-217625419D01*
X255317223Y-217783320D01*
X255728971Y-217783679D01*
X256109515Y-217626442D01*
X256397306Y-217339153D01*
X256427471Y-217339179D01*
X256808015Y-217181942D01*
X257099419Y-216891046D01*
X257257320Y-216510777D01*
X257257679Y-216099029D01*
X257100442Y-215718485D01*
X256809546Y-215427081D01*
X256429277Y-215269180D01*
X256017529Y-215268821D01*
X255636985Y-215426058D01*
X255349194Y-215713347D01*
X255319029Y-215713321D01*
X254938485Y-215870558D01*
X254647081Y-216161454D01*
X254489180Y-216541723D01*
X254488821Y-216953471D01*
X253282221Y-216953471D01*
X253282579Y-216543529D01*
X253183559Y-216303881D01*
X253282220Y-216066277D01*
X253282579Y-215654529D01*
X253183559Y-215414881D01*
X253282220Y-215177277D01*
X253282579Y-214765529D01*
X253125342Y-214384985D01*
X252834446Y-214093581D01*
X252454177Y-213935680D01*
X252042429Y-213935321D01*
X251661885Y-214092558D01*
X251370481Y-214383454D01*
X251212580Y-214763723D01*
X251212221Y-215175471D01*
X232485000Y-215175471D01*
X232485000Y-207872971D01*
X264204321Y-207872971D01*
X264361558Y-208253515D01*
X264652454Y-208544919D01*
X265032723Y-208702820D01*
X265444471Y-208703179D01*
X265739756Y-208581170D01*
X266032723Y-208702820D01*
X266444471Y-208703179D01*
X266739756Y-208581170D01*
X267032723Y-208702820D01*
X267444471Y-208703179D01*
X267825015Y-208545942D01*
X268116419Y-208255046D01*
X268274320Y-207874777D01*
X268274679Y-207463029D01*
X268117442Y-207082485D01*
X267826546Y-206791081D01*
X267446277Y-206633180D01*
X267034529Y-206632821D01*
X266739244Y-206754830D01*
X266446277Y-206633180D01*
X266034529Y-206632821D01*
X265739244Y-206754830D01*
X265446277Y-206633180D01*
X265034529Y-206632821D01*
X264653985Y-206790058D01*
X264362581Y-207080954D01*
X264204680Y-207461223D01*
X264204321Y-207872971D01*
X232485000Y-207872971D01*
X232485000Y-196406716D01*
X247438342Y-196406716D01*
X247566161Y-196716060D01*
X247502158Y-196870196D01*
X247501842Y-197232216D01*
X247640090Y-197566800D01*
X247895853Y-197823011D01*
X248230196Y-197961842D01*
X248592216Y-197962158D01*
X248926800Y-197823910D01*
X249183011Y-197568147D01*
X249321842Y-197233804D01*
X249322158Y-196871784D01*
X249229166Y-196646726D01*
X249410799Y-196646726D01*
X249587026Y-197073229D01*
X249913055Y-197399827D01*
X250339249Y-197576798D01*
X250800726Y-197577201D01*
X251227229Y-197400974D01*
X251553827Y-197074945D01*
X251730798Y-196648751D01*
X251731201Y-196187274D01*
X251554974Y-195760771D01*
X251228945Y-195434173D01*
X250802751Y-195257202D01*
X250341274Y-195256799D01*
X249914771Y-195433026D01*
X249588173Y-195759055D01*
X249411202Y-196185249D01*
X249410799Y-196646726D01*
X249229166Y-196646726D01*
X249194339Y-196562440D01*
X249258342Y-196408304D01*
X249258658Y-196046284D01*
X249120410Y-195711700D01*
X248864647Y-195455489D01*
X248530304Y-195316658D01*
X248168284Y-195316342D01*
X247833700Y-195454590D01*
X247577489Y-195710353D01*
X247438658Y-196044696D01*
X247438342Y-196406716D01*
X232485000Y-196406716D01*
X232485000Y-192660216D01*
X248136842Y-192660216D01*
X248275090Y-192994800D01*
X248530853Y-193251011D01*
X248865196Y-193389842D01*
X249227216Y-193390158D01*
X249397080Y-193319971D01*
X251212221Y-193319971D01*
X251311241Y-193559619D01*
X251212580Y-193797223D01*
X251212221Y-194208971D01*
X251311241Y-194448619D01*
X251212580Y-194686223D01*
X251212221Y-195097971D01*
X251369458Y-195478515D01*
X251660354Y-195769919D01*
X252040623Y-195927820D01*
X252452371Y-195928179D01*
X252832915Y-195770942D01*
X253124319Y-195480046D01*
X253282220Y-195099777D01*
X253282579Y-194688029D01*
X253183559Y-194448381D01*
X253282220Y-194210777D01*
X253282579Y-193799029D01*
X253183559Y-193559381D01*
X253230235Y-193446971D01*
X254234821Y-193446971D01*
X254392058Y-193827515D01*
X254682954Y-194118919D01*
X255063223Y-194276820D01*
X255474971Y-194277179D01*
X255714619Y-194178159D01*
X255952223Y-194276820D01*
X256363971Y-194277179D01*
X256744515Y-194119942D01*
X257035919Y-193829046D01*
X257193820Y-193448777D01*
X257194179Y-193037029D01*
X257036942Y-192656485D01*
X256746046Y-192365081D01*
X256365777Y-192207180D01*
X255954029Y-192206821D01*
X255714381Y-192305841D01*
X255476777Y-192207180D01*
X255065029Y-192206821D01*
X254684485Y-192364058D01*
X254393081Y-192654954D01*
X254235180Y-193035223D01*
X254234821Y-193446971D01*
X253230235Y-193446971D01*
X253282220Y-193321777D01*
X253282579Y-192910029D01*
X253125342Y-192529485D01*
X252834446Y-192238081D01*
X252454177Y-192080180D01*
X252042429Y-192079821D01*
X251661885Y-192237058D01*
X251370481Y-192527954D01*
X251212580Y-192908223D01*
X251212221Y-193319971D01*
X249397080Y-193319971D01*
X249561800Y-193251910D01*
X249818011Y-192996147D01*
X249956842Y-192661804D01*
X249957158Y-192299784D01*
X249818910Y-191965200D01*
X249563147Y-191708989D01*
X249228804Y-191570158D01*
X248866784Y-191569842D01*
X248532200Y-191708090D01*
X248275989Y-191963853D01*
X248137158Y-192298196D01*
X248136842Y-192660216D01*
X232485000Y-192660216D01*
X232485000Y-189938020D01*
X246004825Y-189938020D01*
X246158264Y-190309372D01*
X246442134Y-190593737D01*
X246813217Y-190747824D01*
X247215020Y-190748175D01*
X247586372Y-190594736D01*
X247870737Y-190310866D01*
X248024824Y-189939783D01*
X248025175Y-189537980D01*
X247919910Y-189283216D01*
X258550842Y-189283216D01*
X258660140Y-189547737D01*
X258551158Y-189810196D01*
X258550842Y-190172216D01*
X258689090Y-190506800D01*
X258944853Y-190763011D01*
X259279196Y-190901842D01*
X259641216Y-190902158D01*
X259975800Y-190763910D01*
X260232011Y-190508147D01*
X260370842Y-190173804D01*
X260371158Y-189811784D01*
X260261860Y-189547263D01*
X260370842Y-189284804D01*
X260371158Y-188922784D01*
X260274107Y-188687903D01*
X260359011Y-188603147D01*
X260497842Y-188268804D01*
X260498158Y-187906784D01*
X260359910Y-187572200D01*
X260104147Y-187315989D01*
X259769804Y-187177158D01*
X259407784Y-187176842D01*
X259073200Y-187315090D01*
X258816989Y-187570853D01*
X258678158Y-187905196D01*
X258677842Y-188267216D01*
X258774893Y-188502097D01*
X258689989Y-188586853D01*
X258551158Y-188921196D01*
X258550842Y-189283216D01*
X247919910Y-189283216D01*
X247871736Y-189166628D01*
X247587866Y-188882263D01*
X247216783Y-188728176D01*
X246814980Y-188727825D01*
X246443628Y-188881264D01*
X246159263Y-189165134D01*
X246005176Y-189536217D01*
X246004825Y-189938020D01*
X232485000Y-189938020D01*
X232485000Y-186489216D01*
X235055842Y-186489216D01*
X235194090Y-186823800D01*
X235449853Y-187080011D01*
X235690904Y-187180104D01*
X235690842Y-187251216D01*
X235829090Y-187585800D01*
X236084853Y-187842011D01*
X236419196Y-187980842D01*
X236781216Y-187981158D01*
X237115800Y-187842910D01*
X237214855Y-187744028D01*
X237214842Y-187759216D01*
X237353090Y-188093800D01*
X237608853Y-188350011D01*
X237943196Y-188488842D01*
X238305216Y-188489158D01*
X238639800Y-188350910D01*
X238896011Y-188095147D01*
X239034842Y-187760804D01*
X239035158Y-187398784D01*
X238896910Y-187064200D01*
X238641147Y-186807989D01*
X238306804Y-186669158D01*
X237944784Y-186668842D01*
X237610200Y-186807090D01*
X237511145Y-186905972D01*
X237511158Y-186890784D01*
X237372910Y-186556200D01*
X237254135Y-186437216D01*
X246993842Y-186437216D01*
X247132090Y-186771800D01*
X247252065Y-186891985D01*
X247132989Y-187010853D01*
X246994158Y-187345196D01*
X246993842Y-187707216D01*
X247132090Y-188041800D01*
X247387853Y-188298011D01*
X247722196Y-188436842D01*
X248084216Y-188437158D01*
X248418800Y-188298910D01*
X248675011Y-188043147D01*
X248813842Y-187708804D01*
X248813893Y-187649841D01*
X249056011Y-187408147D01*
X249194842Y-187073804D01*
X249195158Y-186711784D01*
X249056910Y-186377200D01*
X248814108Y-186133973D01*
X248814158Y-186076784D01*
X248712278Y-185830216D01*
X259213842Y-185830216D01*
X259352090Y-186164800D01*
X259607853Y-186421011D01*
X259942196Y-186559842D01*
X260304216Y-186560158D01*
X260638800Y-186421910D01*
X260895011Y-186166147D01*
X260910020Y-186130000D01*
X264508655Y-186130000D01*
X264622729Y-186703489D01*
X264947585Y-187189670D01*
X265262366Y-187400000D01*
X264947585Y-187610330D01*
X264622729Y-188096511D01*
X264508655Y-188670000D01*
X264622729Y-189243489D01*
X264947585Y-189729670D01*
X265262366Y-189940000D01*
X264947585Y-190150330D01*
X264622729Y-190636511D01*
X264508655Y-191210000D01*
X264622729Y-191783489D01*
X264947585Y-192269670D01*
X265433766Y-192594526D01*
X266007255Y-192708600D01*
X266376745Y-192708600D01*
X266950234Y-192594526D01*
X267436415Y-192269670D01*
X267761271Y-191783489D01*
X267875345Y-191210000D01*
X267761271Y-190636511D01*
X267436415Y-190150330D01*
X267121634Y-189940000D01*
X267436415Y-189729670D01*
X267761271Y-189243489D01*
X267875345Y-188670000D01*
X267761271Y-188096511D01*
X267436415Y-187610330D01*
X267121634Y-187400000D01*
X267436415Y-187189670D01*
X267761271Y-186703489D01*
X267875345Y-186130000D01*
X267761271Y-185556511D01*
X267436415Y-185070330D01*
X267422087Y-185060757D01*
X267443317Y-185056762D01*
X267659441Y-184917690D01*
X267804431Y-184705490D01*
X267855440Y-184453600D01*
X267855440Y-182726400D01*
X267811162Y-182491083D01*
X267672090Y-182274959D01*
X267459890Y-182129969D01*
X267208000Y-182078960D01*
X265176000Y-182078960D01*
X264940683Y-182123238D01*
X264724559Y-182262310D01*
X264579569Y-182474510D01*
X264528560Y-182726400D01*
X264528560Y-184453600D01*
X264572838Y-184688917D01*
X264711910Y-184905041D01*
X264924110Y-185050031D01*
X264965439Y-185058400D01*
X264947585Y-185070330D01*
X264622729Y-185556511D01*
X264508655Y-186130000D01*
X260910020Y-186130000D01*
X261033097Y-185833598D01*
X261101716Y-185833658D01*
X261436300Y-185695410D01*
X261692511Y-185439647D01*
X261831342Y-185105304D01*
X261831658Y-184743284D01*
X261693410Y-184408700D01*
X261437647Y-184152489D01*
X261103304Y-184013658D01*
X260741284Y-184013342D01*
X260406700Y-184151590D01*
X260150489Y-184407353D01*
X260012403Y-184739902D01*
X259943784Y-184739842D01*
X259609200Y-184878090D01*
X259352989Y-185133853D01*
X259214158Y-185468196D01*
X259213842Y-185830216D01*
X248712278Y-185830216D01*
X248675910Y-185742200D01*
X248420147Y-185485989D01*
X248085804Y-185347158D01*
X247723784Y-185346842D01*
X247389200Y-185485090D01*
X247132989Y-185740853D01*
X246994158Y-186075196D01*
X246993842Y-186437216D01*
X237254135Y-186437216D01*
X237117147Y-186299989D01*
X236876096Y-186199896D01*
X236876158Y-186128784D01*
X236737910Y-185794200D01*
X236482147Y-185537989D01*
X236147804Y-185399158D01*
X235785784Y-185398842D01*
X235451200Y-185537090D01*
X235194989Y-185792853D01*
X235056158Y-186127196D01*
X235055842Y-186489216D01*
X232485000Y-186489216D01*
X232485000Y-177345216D01*
X232642842Y-177345216D01*
X232781090Y-177679800D01*
X232964565Y-177863596D01*
X232781989Y-178045853D01*
X232643158Y-178380196D01*
X232642842Y-178742216D01*
X232781090Y-179076800D01*
X232837565Y-179133374D01*
X232781989Y-179188853D01*
X232643158Y-179523196D01*
X232642842Y-179885216D01*
X232781090Y-180219800D01*
X232964565Y-180403596D01*
X232781989Y-180585853D01*
X232643158Y-180920196D01*
X232642842Y-181282216D01*
X232781090Y-181616800D01*
X232901065Y-181736985D01*
X232781989Y-181855853D01*
X232643158Y-182190196D01*
X232642842Y-182552216D01*
X232781090Y-182886800D01*
X232837565Y-182943374D01*
X232781989Y-182998853D01*
X232643158Y-183333196D01*
X232642842Y-183695216D01*
X232781090Y-184029800D01*
X233036853Y-184286011D01*
X233371196Y-184424842D01*
X233733216Y-184425158D01*
X234067800Y-184286910D01*
X234324011Y-184031147D01*
X234462842Y-183696804D01*
X234462954Y-183568216D01*
X240516842Y-183568216D01*
X240655090Y-183902800D01*
X240910853Y-184159011D01*
X241245196Y-184297842D01*
X241607216Y-184298158D01*
X241631514Y-184288118D01*
X244022833Y-184288118D01*
X244168677Y-184641086D01*
X244438493Y-184911374D01*
X244791206Y-185057833D01*
X245173118Y-185058167D01*
X245526086Y-184912323D01*
X245796374Y-184642507D01*
X245942833Y-184289794D01*
X245943167Y-183907882D01*
X245797323Y-183554914D01*
X245527507Y-183284626D01*
X245174794Y-183138167D01*
X244792882Y-183137833D01*
X244439914Y-183283677D01*
X244169626Y-183553493D01*
X244023167Y-183906206D01*
X244022833Y-184288118D01*
X241631514Y-184288118D01*
X241941800Y-184159910D01*
X242198011Y-183904147D01*
X242336842Y-183569804D01*
X242337158Y-183207784D01*
X242314345Y-183152572D01*
X242452011Y-183015147D01*
X242590842Y-182680804D01*
X242591158Y-182318784D01*
X242452910Y-181984200D01*
X242197147Y-181727989D01*
X241862804Y-181589158D01*
X241500784Y-181588842D01*
X241166200Y-181727090D01*
X240909989Y-181982853D01*
X240771158Y-182317196D01*
X240770842Y-182679216D01*
X240793655Y-182734428D01*
X240655989Y-182871853D01*
X240517158Y-183206196D01*
X240516842Y-183568216D01*
X234462954Y-183568216D01*
X234463158Y-183334784D01*
X234324910Y-183000200D01*
X234268435Y-182943626D01*
X234324011Y-182888147D01*
X234462842Y-182553804D01*
X234463158Y-182191784D01*
X234324910Y-181857200D01*
X234204935Y-181737015D01*
X234324011Y-181618147D01*
X234462842Y-181283804D01*
X234463158Y-180921784D01*
X234349709Y-180647216D01*
X241024842Y-180647216D01*
X241163090Y-180981800D01*
X241418853Y-181238011D01*
X241753196Y-181376842D01*
X242115216Y-181377158D01*
X242449800Y-181238910D01*
X242706011Y-180983147D01*
X242813068Y-180725326D01*
X242814090Y-180727800D01*
X243069853Y-180984011D01*
X243404196Y-181122842D01*
X243766216Y-181123158D01*
X244100800Y-180984910D01*
X244357011Y-180729147D01*
X244495842Y-180394804D01*
X244496021Y-180189371D01*
X251212221Y-180189371D01*
X251305981Y-180416288D01*
X251212580Y-180641223D01*
X251212221Y-181052971D01*
X251313623Y-181298384D01*
X251212580Y-181541723D01*
X251212221Y-181953471D01*
X251369458Y-182334015D01*
X251660354Y-182625419D01*
X252040623Y-182783320D01*
X252452371Y-182783679D01*
X252832915Y-182626442D01*
X253124319Y-182335546D01*
X253282220Y-181955277D01*
X253282221Y-181953471D01*
X254488821Y-181953471D01*
X254646058Y-182334015D01*
X254936954Y-182625419D01*
X255317223Y-182783320D01*
X255728971Y-182783679D01*
X256109515Y-182626442D01*
X256397306Y-182339153D01*
X256427471Y-182339179D01*
X256808015Y-182181942D01*
X257099419Y-181891046D01*
X257257320Y-181510777D01*
X257257679Y-181099029D01*
X257100442Y-180718485D01*
X256809546Y-180427081D01*
X256429277Y-180269180D01*
X256017529Y-180268821D01*
X255636985Y-180426058D01*
X255349194Y-180713347D01*
X255319029Y-180713321D01*
X254938485Y-180870558D01*
X254647081Y-181161454D01*
X254489180Y-181541723D01*
X254488821Y-181953471D01*
X253282221Y-181953471D01*
X253282579Y-181543529D01*
X253181177Y-181298116D01*
X253282220Y-181054777D01*
X253282579Y-180643029D01*
X253188819Y-180416112D01*
X253282220Y-180191177D01*
X253282579Y-179779429D01*
X253125342Y-179398885D01*
X252834446Y-179107481D01*
X252454177Y-178949580D01*
X252042429Y-178949221D01*
X251661885Y-179106458D01*
X251370481Y-179397354D01*
X251212580Y-179777623D01*
X251212221Y-180189371D01*
X244496021Y-180189371D01*
X244496158Y-180032784D01*
X244357910Y-179698200D01*
X244102147Y-179441989D01*
X243767804Y-179303158D01*
X243405784Y-179302842D01*
X243071200Y-179441090D01*
X242814989Y-179696853D01*
X242707932Y-179954674D01*
X242706910Y-179952200D01*
X242451147Y-179695989D01*
X242116804Y-179557158D01*
X241754784Y-179556842D01*
X241420200Y-179695090D01*
X241163989Y-179950853D01*
X241025158Y-180285196D01*
X241024842Y-180647216D01*
X234349709Y-180647216D01*
X234324910Y-180587200D01*
X234141435Y-180403404D01*
X234324011Y-180221147D01*
X234462842Y-179886804D01*
X234463158Y-179524784D01*
X234324910Y-179190200D01*
X234268435Y-179133626D01*
X234324011Y-179078147D01*
X234462842Y-178743804D01*
X234463158Y-178381784D01*
X234324910Y-178047200D01*
X234141435Y-177863404D01*
X234324011Y-177681147D01*
X234462842Y-177346804D01*
X234463158Y-176984784D01*
X234349709Y-176710216D01*
X241405842Y-176710216D01*
X241544090Y-177044800D01*
X241799853Y-177301011D01*
X242134196Y-177439842D01*
X242421847Y-177440093D01*
X242333850Y-177652015D01*
X242135784Y-177651842D01*
X241801200Y-177790090D01*
X241544989Y-178045853D01*
X241406158Y-178380196D01*
X241405842Y-178742216D01*
X241544090Y-179076800D01*
X241799853Y-179333011D01*
X242134196Y-179471842D01*
X242496216Y-179472158D01*
X242830800Y-179333910D01*
X243087011Y-179078147D01*
X243187150Y-178836985D01*
X243385216Y-178837158D01*
X243719800Y-178698910D01*
X243976011Y-178443147D01*
X244114842Y-178108804D01*
X244115158Y-177746784D01*
X243976910Y-177412200D01*
X243721147Y-177155989D01*
X243386804Y-177017158D01*
X243099153Y-177016907D01*
X243225842Y-176711804D01*
X243226158Y-176349784D01*
X243087910Y-176015200D01*
X242832147Y-175758989D01*
X242497804Y-175620158D01*
X242135784Y-175619842D01*
X241801200Y-175758090D01*
X241544989Y-176013853D01*
X241406158Y-176348196D01*
X241405842Y-176710216D01*
X234349709Y-176710216D01*
X234328955Y-176659990D01*
X234451011Y-176538147D01*
X234589842Y-176203804D01*
X234590158Y-175841784D01*
X234451910Y-175507200D01*
X234196147Y-175250989D01*
X233861804Y-175112158D01*
X233499784Y-175111842D01*
X233165200Y-175250090D01*
X232908989Y-175505853D01*
X232770158Y-175840196D01*
X232769842Y-176202216D01*
X232904045Y-176527010D01*
X232781989Y-176648853D01*
X232643158Y-176983196D01*
X232642842Y-177345216D01*
X232485000Y-177345216D01*
X232485000Y-172872971D01*
X264204321Y-172872971D01*
X264361558Y-173253515D01*
X264652454Y-173544919D01*
X265032723Y-173702820D01*
X265444471Y-173703179D01*
X265739756Y-173581170D01*
X266032723Y-173702820D01*
X266444471Y-173703179D01*
X266739756Y-173581170D01*
X267032723Y-173702820D01*
X267444471Y-173703179D01*
X267825015Y-173545942D01*
X268116419Y-173255046D01*
X268274320Y-172874777D01*
X268274679Y-172463029D01*
X268117442Y-172082485D01*
X267826546Y-171791081D01*
X267446277Y-171633180D01*
X267034529Y-171632821D01*
X266739244Y-171754830D01*
X266446277Y-171633180D01*
X266034529Y-171632821D01*
X265739244Y-171754830D01*
X265446277Y-171633180D01*
X265034529Y-171632821D01*
X264653985Y-171790058D01*
X264362581Y-172080954D01*
X264204680Y-172461223D01*
X264204321Y-172872971D01*
X232485000Y-172872971D01*
X232485000Y-170995216D01*
X240516842Y-170995216D01*
X240655090Y-171329800D01*
X240910853Y-171586011D01*
X241245196Y-171724842D01*
X241607216Y-171725158D01*
X241941800Y-171586910D01*
X242198011Y-171331147D01*
X242336842Y-170996804D01*
X242337158Y-170634784D01*
X242198910Y-170300200D01*
X241943147Y-170043989D01*
X241608804Y-169905158D01*
X241246784Y-169904842D01*
X240912200Y-170043090D01*
X240655989Y-170298853D01*
X240517158Y-170633196D01*
X240516842Y-170995216D01*
X232485000Y-170995216D01*
X232485000Y-168709216D01*
X235669822Y-168709216D01*
X235808070Y-169043800D01*
X236063833Y-169300011D01*
X236398176Y-169438842D01*
X236760196Y-169439158D01*
X237094780Y-169300910D01*
X237350991Y-169045147D01*
X237467514Y-168764527D01*
X237562196Y-168803842D01*
X237924216Y-168804158D01*
X238141884Y-168714219D01*
X238284026Y-169058229D01*
X238610055Y-169384827D01*
X239036249Y-169561798D01*
X239497726Y-169562201D01*
X239924229Y-169385974D01*
X240250827Y-169059945D01*
X240427798Y-168633751D01*
X240428201Y-168172274D01*
X240251974Y-167745771D01*
X239925945Y-167419173D01*
X239499751Y-167242202D01*
X239038274Y-167241799D01*
X238611771Y-167418026D01*
X238555261Y-167474437D01*
X238515910Y-167379200D01*
X238260147Y-167122989D01*
X237925804Y-166984158D01*
X237563784Y-166983842D01*
X237229200Y-167122090D01*
X236972989Y-167377853D01*
X236856466Y-167658473D01*
X236761784Y-167619158D01*
X236399764Y-167618842D01*
X236065180Y-167757090D01*
X235808969Y-168012853D01*
X235670138Y-168347196D01*
X235669822Y-168709216D01*
X232485000Y-168709216D01*
X232485000Y-161406716D01*
X247438342Y-161406716D01*
X247566161Y-161716060D01*
X247502158Y-161870196D01*
X247501842Y-162232216D01*
X247640090Y-162566800D01*
X247895853Y-162823011D01*
X248230196Y-162961842D01*
X248592216Y-162962158D01*
X248926800Y-162823910D01*
X249183011Y-162568147D01*
X249321842Y-162233804D01*
X249322158Y-161871784D01*
X249229166Y-161646726D01*
X249410799Y-161646726D01*
X249587026Y-162073229D01*
X249913055Y-162399827D01*
X250339249Y-162576798D01*
X250800726Y-162577201D01*
X251227229Y-162400974D01*
X251553827Y-162074945D01*
X251730798Y-161648751D01*
X251731201Y-161187274D01*
X251554974Y-160760771D01*
X251228945Y-160434173D01*
X250802751Y-160257202D01*
X250341274Y-160256799D01*
X249914771Y-160433026D01*
X249588173Y-160759055D01*
X249411202Y-161185249D01*
X249410799Y-161646726D01*
X249229166Y-161646726D01*
X249194339Y-161562440D01*
X249258342Y-161408304D01*
X249258658Y-161046284D01*
X249120410Y-160711700D01*
X248864647Y-160455489D01*
X248530304Y-160316658D01*
X248168284Y-160316342D01*
X247833700Y-160454590D01*
X247577489Y-160710353D01*
X247438658Y-161044696D01*
X247438342Y-161406716D01*
X232485000Y-161406716D01*
X232485000Y-157660216D01*
X248136842Y-157660216D01*
X248275090Y-157994800D01*
X248530853Y-158251011D01*
X248865196Y-158389842D01*
X249227216Y-158390158D01*
X249397080Y-158319971D01*
X251212221Y-158319971D01*
X251311241Y-158559619D01*
X251212580Y-158797223D01*
X251212221Y-159208971D01*
X251311241Y-159448619D01*
X251212580Y-159686223D01*
X251212221Y-160097971D01*
X251369458Y-160478515D01*
X251660354Y-160769919D01*
X252040623Y-160927820D01*
X252452371Y-160928179D01*
X252832915Y-160770942D01*
X253124319Y-160480046D01*
X253282220Y-160099777D01*
X253282579Y-159688029D01*
X253183559Y-159448381D01*
X253282220Y-159210777D01*
X253282579Y-158799029D01*
X253183559Y-158559381D01*
X253230235Y-158446971D01*
X254234821Y-158446971D01*
X254392058Y-158827515D01*
X254682954Y-159118919D01*
X255063223Y-159276820D01*
X255474971Y-159277179D01*
X255714619Y-159178159D01*
X255952223Y-159276820D01*
X256363971Y-159277179D01*
X256744515Y-159119942D01*
X257035919Y-158829046D01*
X257193820Y-158448777D01*
X257194179Y-158037029D01*
X257036942Y-157656485D01*
X256746046Y-157365081D01*
X256365777Y-157207180D01*
X255954029Y-157206821D01*
X255714381Y-157305841D01*
X255476777Y-157207180D01*
X255065029Y-157206821D01*
X254684485Y-157364058D01*
X254393081Y-157654954D01*
X254235180Y-158035223D01*
X254234821Y-158446971D01*
X253230235Y-158446971D01*
X253282220Y-158321777D01*
X253282579Y-157910029D01*
X253125342Y-157529485D01*
X252834446Y-157238081D01*
X252454177Y-157080180D01*
X252042429Y-157079821D01*
X251661885Y-157237058D01*
X251370481Y-157527954D01*
X251212580Y-157908223D01*
X251212221Y-158319971D01*
X249397080Y-158319971D01*
X249561800Y-158251910D01*
X249818011Y-157996147D01*
X249956842Y-157661804D01*
X249957158Y-157299784D01*
X249818910Y-156965200D01*
X249563147Y-156708989D01*
X249228804Y-156570158D01*
X248866784Y-156569842D01*
X248532200Y-156708090D01*
X248275989Y-156963853D01*
X248137158Y-157298196D01*
X248136842Y-157660216D01*
X232485000Y-157660216D01*
X232485000Y-155042726D01*
X245854799Y-155042726D01*
X246031026Y-155469229D01*
X246357055Y-155795827D01*
X246783249Y-155972798D01*
X247244726Y-155973201D01*
X247671229Y-155796974D01*
X247997827Y-155470945D01*
X248174798Y-155044751D01*
X248175201Y-154583274D01*
X247998974Y-154156771D01*
X247672945Y-153830173D01*
X247246751Y-153653202D01*
X246785274Y-153652799D01*
X246358771Y-153829026D01*
X246032173Y-154155055D01*
X245855202Y-154581249D01*
X245854799Y-155042726D01*
X232485000Y-155042726D01*
X232485000Y-153469216D01*
X258550842Y-153469216D01*
X258660140Y-153733737D01*
X258551158Y-153996196D01*
X258550842Y-154358216D01*
X258660140Y-154622737D01*
X258551158Y-154885196D01*
X258550842Y-155247216D01*
X258689090Y-155581800D01*
X258944853Y-155838011D01*
X259279196Y-155976842D01*
X259641216Y-155977158D01*
X259975800Y-155838910D01*
X260232011Y-155583147D01*
X260370842Y-155248804D01*
X260371158Y-154886784D01*
X260261860Y-154622263D01*
X260370842Y-154359804D01*
X260371158Y-153997784D01*
X260261860Y-153733263D01*
X260370842Y-153470804D01*
X260371158Y-153108784D01*
X260232910Y-152774200D01*
X259977147Y-152517989D01*
X259642804Y-152379158D01*
X259280784Y-152378842D01*
X258946200Y-152517090D01*
X258689989Y-152772853D01*
X258551158Y-153107196D01*
X258550842Y-153469216D01*
X232485000Y-153469216D01*
X232485000Y-151437216D01*
X246993842Y-151437216D01*
X247132090Y-151771800D01*
X247252065Y-151891985D01*
X247132989Y-152010853D01*
X246994158Y-152345196D01*
X246993842Y-152707216D01*
X247132090Y-153041800D01*
X247387853Y-153298011D01*
X247722196Y-153436842D01*
X248084216Y-153437158D01*
X248418800Y-153298910D01*
X248675011Y-153043147D01*
X248813842Y-152708804D01*
X248813893Y-152649841D01*
X249056011Y-152408147D01*
X249194842Y-152073804D01*
X249195158Y-151711784D01*
X249056910Y-151377200D01*
X248814108Y-151133973D01*
X248814158Y-151076784D01*
X248712278Y-150830216D01*
X259213842Y-150830216D01*
X259352090Y-151164800D01*
X259607853Y-151421011D01*
X259942196Y-151559842D01*
X260304216Y-151560158D01*
X260638800Y-151421910D01*
X260895011Y-151166147D01*
X260910020Y-151130000D01*
X264508655Y-151130000D01*
X264622729Y-151703489D01*
X264947585Y-152189670D01*
X265262366Y-152400000D01*
X264947585Y-152610330D01*
X264622729Y-153096511D01*
X264508655Y-153670000D01*
X264622729Y-154243489D01*
X264947585Y-154729670D01*
X265262366Y-154940000D01*
X264947585Y-155150330D01*
X264622729Y-155636511D01*
X264508655Y-156210000D01*
X264622729Y-156783489D01*
X264947585Y-157269670D01*
X265433766Y-157594526D01*
X266007255Y-157708600D01*
X266376745Y-157708600D01*
X266950234Y-157594526D01*
X267436415Y-157269670D01*
X267761271Y-156783489D01*
X267875345Y-156210000D01*
X267761271Y-155636511D01*
X267436415Y-155150330D01*
X267121634Y-154940000D01*
X267436415Y-154729670D01*
X267761271Y-154243489D01*
X267875345Y-153670000D01*
X267761271Y-153096511D01*
X267436415Y-152610330D01*
X267121634Y-152400000D01*
X267436415Y-152189670D01*
X267761271Y-151703489D01*
X267875345Y-151130000D01*
X267761271Y-150556511D01*
X267436415Y-150070330D01*
X267422087Y-150060757D01*
X267443317Y-150056762D01*
X267659441Y-149917690D01*
X267804431Y-149705490D01*
X267855440Y-149453600D01*
X267855440Y-147726400D01*
X267811162Y-147491083D01*
X267672090Y-147274959D01*
X267459890Y-147129969D01*
X267208000Y-147078960D01*
X265176000Y-147078960D01*
X264940683Y-147123238D01*
X264724559Y-147262310D01*
X264579569Y-147474510D01*
X264528560Y-147726400D01*
X264528560Y-149453600D01*
X264572838Y-149688917D01*
X264711910Y-149905041D01*
X264924110Y-150050031D01*
X264965439Y-150058400D01*
X264947585Y-150070330D01*
X264622729Y-150556511D01*
X264508655Y-151130000D01*
X260910020Y-151130000D01*
X261033097Y-150833598D01*
X261101716Y-150833658D01*
X261436300Y-150695410D01*
X261692511Y-150439647D01*
X261831342Y-150105304D01*
X261831658Y-149743284D01*
X261693410Y-149408700D01*
X261437647Y-149152489D01*
X261103304Y-149013658D01*
X260741284Y-149013342D01*
X260406700Y-149151590D01*
X260150489Y-149407353D01*
X260012403Y-149739902D01*
X259943784Y-149739842D01*
X259609200Y-149878090D01*
X259352989Y-150133853D01*
X259214158Y-150468196D01*
X259213842Y-150830216D01*
X248712278Y-150830216D01*
X248675910Y-150742200D01*
X248420147Y-150485989D01*
X248085804Y-150347158D01*
X247723784Y-150346842D01*
X247389200Y-150485090D01*
X247132989Y-150740853D01*
X246994158Y-151075196D01*
X246993842Y-151437216D01*
X232485000Y-151437216D01*
X232485000Y-149288118D01*
X244022833Y-149288118D01*
X244168677Y-149641086D01*
X244438493Y-149911374D01*
X244791206Y-150057833D01*
X245173118Y-150058167D01*
X245526086Y-149912323D01*
X245796374Y-149642507D01*
X245942833Y-149289794D01*
X245943167Y-148907882D01*
X245797323Y-148554914D01*
X245527507Y-148284626D01*
X245174794Y-148138167D01*
X244792882Y-148137833D01*
X244439914Y-148283677D01*
X244169626Y-148553493D01*
X244023167Y-148906206D01*
X244022833Y-149288118D01*
X232485000Y-149288118D01*
X232485000Y-145175471D01*
X251212221Y-145175471D01*
X251311241Y-145415119D01*
X251212580Y-145652723D01*
X251212221Y-146064471D01*
X251311241Y-146304119D01*
X251212580Y-146541723D01*
X251212221Y-146953471D01*
X251369458Y-147334015D01*
X251660354Y-147625419D01*
X252040623Y-147783320D01*
X252452371Y-147783679D01*
X252832915Y-147626442D01*
X253124319Y-147335546D01*
X253282220Y-146955277D01*
X253282221Y-146953471D01*
X254488821Y-146953471D01*
X254646058Y-147334015D01*
X254936954Y-147625419D01*
X255317223Y-147783320D01*
X255728971Y-147783679D01*
X256109515Y-147626442D01*
X256397306Y-147339153D01*
X256427471Y-147339179D01*
X256808015Y-147181942D01*
X257099419Y-146891046D01*
X257257320Y-146510777D01*
X257257679Y-146099029D01*
X257100442Y-145718485D01*
X256809546Y-145427081D01*
X256429277Y-145269180D01*
X256017529Y-145268821D01*
X255636985Y-145426058D01*
X255349194Y-145713347D01*
X255319029Y-145713321D01*
X254938485Y-145870558D01*
X254647081Y-146161454D01*
X254489180Y-146541723D01*
X254488821Y-146953471D01*
X253282221Y-146953471D01*
X253282579Y-146543529D01*
X253183559Y-146303881D01*
X253282220Y-146066277D01*
X253282579Y-145654529D01*
X253183559Y-145414881D01*
X253282220Y-145177277D01*
X253282579Y-144765529D01*
X253125342Y-144384985D01*
X252834446Y-144093581D01*
X252454177Y-143935680D01*
X252042429Y-143935321D01*
X251661885Y-144092558D01*
X251370481Y-144383454D01*
X251212580Y-144763723D01*
X251212221Y-145175471D01*
X232485000Y-145175471D01*
X232485000Y-137872971D01*
X264204321Y-137872971D01*
X264361558Y-138253515D01*
X264652454Y-138544919D01*
X265032723Y-138702820D01*
X265444471Y-138703179D01*
X265739756Y-138581170D01*
X266032723Y-138702820D01*
X266444471Y-138703179D01*
X266739756Y-138581170D01*
X267032723Y-138702820D01*
X267444471Y-138703179D01*
X267825015Y-138545942D01*
X268116419Y-138255046D01*
X268274320Y-137874777D01*
X268274679Y-137463029D01*
X268117442Y-137082485D01*
X267826546Y-136791081D01*
X267446277Y-136633180D01*
X267034529Y-136632821D01*
X266739244Y-136754830D01*
X266446277Y-136633180D01*
X266034529Y-136632821D01*
X265739244Y-136754830D01*
X265446277Y-136633180D01*
X265034529Y-136632821D01*
X264653985Y-136790058D01*
X264362581Y-137080954D01*
X264204680Y-137461223D01*
X264204321Y-137872971D01*
X232485000Y-137872971D01*
X232485000Y-130414628D01*
X240089791Y-130414628D01*
X240273614Y-130859514D01*
X240613695Y-131200190D01*
X241058260Y-131384789D01*
X241539628Y-131385209D01*
X241984514Y-131201386D01*
X242325190Y-130861305D01*
X242509789Y-130416740D01*
X242510209Y-129935372D01*
X242326386Y-129490486D01*
X241986305Y-129149810D01*
X241541740Y-128965211D01*
X241060372Y-128964791D01*
X240615486Y-129148614D01*
X240274810Y-129488695D01*
X240090211Y-129933260D01*
X240089791Y-130414628D01*
X232485000Y-130414628D01*
X232485000Y-122794628D01*
X246439791Y-122794628D01*
X246623614Y-123239514D01*
X246963695Y-123580190D01*
X247408260Y-123764789D01*
X247889628Y-123765209D01*
X248334514Y-123581386D01*
X248497415Y-123418769D01*
X255470000Y-123418769D01*
X255470000Y-125501231D01*
X255593696Y-126123092D01*
X255945951Y-126650280D01*
X256473139Y-127002535D01*
X257095000Y-127126231D01*
X257716861Y-127002535D01*
X258244049Y-126650280D01*
X258596304Y-126123092D01*
X258720000Y-125501231D01*
X258720000Y-123418769D01*
X258596304Y-122796908D01*
X258244049Y-122269720D01*
X257716861Y-121917465D01*
X257095000Y-121793769D01*
X256473139Y-121917465D01*
X255945951Y-122269720D01*
X255593696Y-122796908D01*
X255470000Y-123418769D01*
X248497415Y-123418769D01*
X248675190Y-123241305D01*
X248859789Y-122796740D01*
X248860209Y-122315372D01*
X248676386Y-121870486D01*
X248336305Y-121529810D01*
X247891740Y-121345211D01*
X247410372Y-121344791D01*
X246965486Y-121528614D01*
X246624810Y-121868695D01*
X246440211Y-122313260D01*
X246439791Y-122794628D01*
X232485000Y-122794628D01*
X232485000Y-116915000D01*
X269165000Y-116915000D01*
X269165000Y-271705000D01*
X269165000Y-271705000D01*
G37*
X269165000Y-271705000D02*
X232485000Y-271705000D01*
X232485000Y-266406716D01*
X247438342Y-266406716D01*
X247566161Y-266716060D01*
X247502158Y-266870196D01*
X247501842Y-267232216D01*
X247640090Y-267566800D01*
X247895853Y-267823011D01*
X248230196Y-267961842D01*
X248592216Y-267962158D01*
X248926800Y-267823910D01*
X249183011Y-267568147D01*
X249321842Y-267233804D01*
X249322158Y-266871784D01*
X249229166Y-266646726D01*
X249410799Y-266646726D01*
X249587026Y-267073229D01*
X249913055Y-267399827D01*
X250339249Y-267576798D01*
X250800726Y-267577201D01*
X251227229Y-267400974D01*
X251553827Y-267074945D01*
X251730798Y-266648751D01*
X251731201Y-266187274D01*
X251554974Y-265760771D01*
X251228945Y-265434173D01*
X250802751Y-265257202D01*
X250341274Y-265256799D01*
X249914771Y-265433026D01*
X249588173Y-265759055D01*
X249411202Y-266185249D01*
X249410799Y-266646726D01*
X249229166Y-266646726D01*
X249194339Y-266562440D01*
X249258342Y-266408304D01*
X249258658Y-266046284D01*
X249120410Y-265711700D01*
X248864647Y-265455489D01*
X248530304Y-265316658D01*
X248168284Y-265316342D01*
X247833700Y-265454590D01*
X247577489Y-265710353D01*
X247438658Y-266044696D01*
X247438342Y-266406716D01*
X232485000Y-266406716D01*
X232485000Y-262660216D01*
X248136842Y-262660216D01*
X248275090Y-262994800D01*
X248530853Y-263251011D01*
X248865196Y-263389842D01*
X249227216Y-263390158D01*
X249397080Y-263319971D01*
X251212221Y-263319971D01*
X251311241Y-263559619D01*
X251212580Y-263797223D01*
X251212221Y-264208971D01*
X251311241Y-264448619D01*
X251212580Y-264686223D01*
X251212221Y-265097971D01*
X251369458Y-265478515D01*
X251660354Y-265769919D01*
X252040623Y-265927820D01*
X252452371Y-265928179D01*
X252832915Y-265770942D01*
X253124319Y-265480046D01*
X253282220Y-265099777D01*
X253282579Y-264688029D01*
X253183559Y-264448381D01*
X253282220Y-264210777D01*
X253282579Y-263799029D01*
X253183559Y-263559381D01*
X253230235Y-263446971D01*
X254234821Y-263446971D01*
X254392058Y-263827515D01*
X254682954Y-264118919D01*
X255063223Y-264276820D01*
X255474971Y-264277179D01*
X255714619Y-264178159D01*
X255952223Y-264276820D01*
X256363971Y-264277179D01*
X256744515Y-264119942D01*
X257035919Y-263829046D01*
X257193820Y-263448777D01*
X257194179Y-263037029D01*
X257036942Y-262656485D01*
X256746046Y-262365081D01*
X256365777Y-262207180D01*
X255954029Y-262206821D01*
X255714381Y-262305841D01*
X255476777Y-262207180D01*
X255065029Y-262206821D01*
X254684485Y-262364058D01*
X254393081Y-262654954D01*
X254235180Y-263035223D01*
X254234821Y-263446971D01*
X253230235Y-263446971D01*
X253282220Y-263321777D01*
X253282579Y-262910029D01*
X253125342Y-262529485D01*
X252834446Y-262238081D01*
X252454177Y-262080180D01*
X252042429Y-262079821D01*
X251661885Y-262237058D01*
X251370481Y-262527954D01*
X251212580Y-262908223D01*
X251212221Y-263319971D01*
X249397080Y-263319971D01*
X249561800Y-263251910D01*
X249818011Y-262996147D01*
X249956842Y-262661804D01*
X249957158Y-262299784D01*
X249818910Y-261965200D01*
X249563147Y-261708989D01*
X249228804Y-261570158D01*
X248866784Y-261569842D01*
X248532200Y-261708090D01*
X248275989Y-261963853D01*
X248137158Y-262298196D01*
X248136842Y-262660216D01*
X232485000Y-262660216D01*
X232485000Y-259915020D01*
X246004825Y-259915020D01*
X246158264Y-260286372D01*
X246442134Y-260570737D01*
X246813217Y-260724824D01*
X247215020Y-260725175D01*
X247586372Y-260571736D01*
X247870737Y-260287866D01*
X248024824Y-259916783D01*
X248025175Y-259514980D01*
X247871736Y-259143628D01*
X247587866Y-258859263D01*
X247216783Y-258705176D01*
X246814980Y-258704825D01*
X246443628Y-258858264D01*
X246159263Y-259142134D01*
X246005176Y-259513217D01*
X246004825Y-259915020D01*
X232485000Y-259915020D01*
X232485000Y-256437216D01*
X246993842Y-256437216D01*
X247132090Y-256771800D01*
X247252065Y-256891985D01*
X247132989Y-257010853D01*
X246994158Y-257345196D01*
X246993842Y-257707216D01*
X247132090Y-258041800D01*
X247387853Y-258298011D01*
X247722196Y-258436842D01*
X248084216Y-258437158D01*
X248243807Y-258371216D01*
X258550842Y-258371216D01*
X258660140Y-258635737D01*
X258551158Y-258898196D01*
X258550842Y-259260216D01*
X258660140Y-259524737D01*
X258551158Y-259787196D01*
X258550842Y-260149216D01*
X258689090Y-260483800D01*
X258944853Y-260740011D01*
X259279196Y-260878842D01*
X259641216Y-260879158D01*
X259975800Y-260740910D01*
X260232011Y-260485147D01*
X260370842Y-260150804D01*
X260371158Y-259788784D01*
X260261860Y-259524263D01*
X260370842Y-259261804D01*
X260371158Y-258899784D01*
X260261860Y-258635263D01*
X260370842Y-258372804D01*
X260371158Y-258010784D01*
X260232910Y-257676200D01*
X259977147Y-257419989D01*
X259642804Y-257281158D01*
X259280784Y-257280842D01*
X258946200Y-257419090D01*
X258689989Y-257674853D01*
X258551158Y-258009196D01*
X258550842Y-258371216D01*
X248243807Y-258371216D01*
X248418800Y-258298910D01*
X248675011Y-258043147D01*
X248813842Y-257708804D01*
X248813893Y-257649841D01*
X249056011Y-257408147D01*
X249194842Y-257073804D01*
X249195158Y-256711784D01*
X249056910Y-256377200D01*
X248814108Y-256133973D01*
X248814158Y-256076784D01*
X248712278Y-255830216D01*
X259213842Y-255830216D01*
X259352090Y-256164800D01*
X259607853Y-256421011D01*
X259942196Y-256559842D01*
X260304216Y-256560158D01*
X260638800Y-256421910D01*
X260895011Y-256166147D01*
X260910020Y-256130000D01*
X264508655Y-256130000D01*
X264622729Y-256703489D01*
X264947585Y-257189670D01*
X265262366Y-257400000D01*
X264947585Y-257610330D01*
X264622729Y-258096511D01*
X264508655Y-258670000D01*
X264622729Y-259243489D01*
X264947585Y-259729670D01*
X265262366Y-259940000D01*
X264947585Y-260150330D01*
X264622729Y-260636511D01*
X264508655Y-261210000D01*
X264622729Y-261783489D01*
X264947585Y-262269670D01*
X265433766Y-262594526D01*
X266007255Y-262708600D01*
X266376745Y-262708600D01*
X266950234Y-262594526D01*
X267436415Y-262269670D01*
X267761271Y-261783489D01*
X267875345Y-261210000D01*
X267761271Y-260636511D01*
X267436415Y-260150330D01*
X267121634Y-259940000D01*
X267436415Y-259729670D01*
X267761271Y-259243489D01*
X267875345Y-258670000D01*
X267761271Y-258096511D01*
X267436415Y-257610330D01*
X267121634Y-257400000D01*
X267436415Y-257189670D01*
X267761271Y-256703489D01*
X267875345Y-256130000D01*
X267761271Y-255556511D01*
X267436415Y-255070330D01*
X267422087Y-255060757D01*
X267443317Y-255056762D01*
X267659441Y-254917690D01*
X267804431Y-254705490D01*
X267855440Y-254453600D01*
X267855440Y-252726400D01*
X267811162Y-252491083D01*
X267672090Y-252274959D01*
X267459890Y-252129969D01*
X267208000Y-252078960D01*
X265176000Y-252078960D01*
X264940683Y-252123238D01*
X264724559Y-252262310D01*
X264579569Y-252474510D01*
X264528560Y-252726400D01*
X264528560Y-254453600D01*
X264572838Y-254688917D01*
X264711910Y-254905041D01*
X264924110Y-255050031D01*
X264965439Y-255058400D01*
X264947585Y-255070330D01*
X264622729Y-255556511D01*
X264508655Y-256130000D01*
X260910020Y-256130000D01*
X261033097Y-255833598D01*
X261101716Y-255833658D01*
X261436300Y-255695410D01*
X261692511Y-255439647D01*
X261831342Y-255105304D01*
X261831658Y-254743284D01*
X261693410Y-254408700D01*
X261437647Y-254152489D01*
X261103304Y-254013658D01*
X260741284Y-254013342D01*
X260406700Y-254151590D01*
X260150489Y-254407353D01*
X260012403Y-254739902D01*
X259943784Y-254739842D01*
X259609200Y-254878090D01*
X259352989Y-255133853D01*
X259214158Y-255468196D01*
X259213842Y-255830216D01*
X248712278Y-255830216D01*
X248675910Y-255742200D01*
X248420147Y-255485989D01*
X248085804Y-255347158D01*
X247723784Y-255346842D01*
X247389200Y-255485090D01*
X247132989Y-255740853D01*
X246994158Y-256075196D01*
X246993842Y-256437216D01*
X232485000Y-256437216D01*
X232485000Y-254288118D01*
X244022833Y-254288118D01*
X244168677Y-254641086D01*
X244438493Y-254911374D01*
X244791206Y-255057833D01*
X245173118Y-255058167D01*
X245526086Y-254912323D01*
X245796374Y-254642507D01*
X245942833Y-254289794D01*
X245943167Y-253907882D01*
X245797323Y-253554914D01*
X245527507Y-253284626D01*
X245174794Y-253138167D01*
X244792882Y-253137833D01*
X244439914Y-253283677D01*
X244169626Y-253553493D01*
X244023167Y-253906206D01*
X244022833Y-254288118D01*
X232485000Y-254288118D01*
X232485000Y-250175471D01*
X251212221Y-250175471D01*
X251311241Y-250415119D01*
X251212580Y-250652723D01*
X251212221Y-251064471D01*
X251311241Y-251304119D01*
X251212580Y-251541723D01*
X251212221Y-251953471D01*
X251369458Y-252334015D01*
X251660354Y-252625419D01*
X252040623Y-252783320D01*
X252452371Y-252783679D01*
X252832915Y-252626442D01*
X253124319Y-252335546D01*
X253282220Y-251955277D01*
X253282221Y-251953471D01*
X254488821Y-251953471D01*
X254646058Y-252334015D01*
X254936954Y-252625419D01*
X255317223Y-252783320D01*
X255728971Y-252783679D01*
X256109515Y-252626442D01*
X256397306Y-252339153D01*
X256427471Y-252339179D01*
X256808015Y-252181942D01*
X257099419Y-251891046D01*
X257257320Y-251510777D01*
X257257679Y-251099029D01*
X257100442Y-250718485D01*
X256809546Y-250427081D01*
X256429277Y-250269180D01*
X256017529Y-250268821D01*
X255636985Y-250426058D01*
X255349194Y-250713347D01*
X255319029Y-250713321D01*
X254938485Y-250870558D01*
X254647081Y-251161454D01*
X254489180Y-251541723D01*
X254488821Y-251953471D01*
X253282221Y-251953471D01*
X253282579Y-251543529D01*
X253183559Y-251303881D01*
X253282220Y-251066277D01*
X253282579Y-250654529D01*
X253183559Y-250414881D01*
X253282220Y-250177277D01*
X253282579Y-249765529D01*
X253125342Y-249384985D01*
X252834446Y-249093581D01*
X252454177Y-248935680D01*
X252042429Y-248935321D01*
X251661885Y-249092558D01*
X251370481Y-249383454D01*
X251212580Y-249763723D01*
X251212221Y-250175471D01*
X232485000Y-250175471D01*
X232485000Y-242872971D01*
X264204321Y-242872971D01*
X264361558Y-243253515D01*
X264652454Y-243544919D01*
X265032723Y-243702820D01*
X265444471Y-243703179D01*
X265739756Y-243581170D01*
X266032723Y-243702820D01*
X266444471Y-243703179D01*
X266739756Y-243581170D01*
X267032723Y-243702820D01*
X267444471Y-243703179D01*
X267825015Y-243545942D01*
X268116419Y-243255046D01*
X268274320Y-242874777D01*
X268274679Y-242463029D01*
X268117442Y-242082485D01*
X267826546Y-241791081D01*
X267446277Y-241633180D01*
X267034529Y-241632821D01*
X266739244Y-241754830D01*
X266446277Y-241633180D01*
X266034529Y-241632821D01*
X265739244Y-241754830D01*
X265446277Y-241633180D01*
X265034529Y-241632821D01*
X264653985Y-241790058D01*
X264362581Y-242080954D01*
X264204680Y-242461223D01*
X264204321Y-242872971D01*
X232485000Y-242872971D01*
X232485000Y-231406716D01*
X247438342Y-231406716D01*
X247566161Y-231716060D01*
X247502158Y-231870196D01*
X247501842Y-232232216D01*
X247640090Y-232566800D01*
X247895853Y-232823011D01*
X248230196Y-232961842D01*
X248592216Y-232962158D01*
X248926800Y-232823910D01*
X249183011Y-232568147D01*
X249321842Y-232233804D01*
X249322158Y-231871784D01*
X249229166Y-231646726D01*
X249410799Y-231646726D01*
X249587026Y-232073229D01*
X249913055Y-232399827D01*
X250339249Y-232576798D01*
X250800726Y-232577201D01*
X251227229Y-232400974D01*
X251553827Y-232074945D01*
X251730798Y-231648751D01*
X251731201Y-231187274D01*
X251554974Y-230760771D01*
X251228945Y-230434173D01*
X250802751Y-230257202D01*
X250341274Y-230256799D01*
X249914771Y-230433026D01*
X249588173Y-230759055D01*
X249411202Y-231185249D01*
X249410799Y-231646726D01*
X249229166Y-231646726D01*
X249194339Y-231562440D01*
X249258342Y-231408304D01*
X249258658Y-231046284D01*
X249120410Y-230711700D01*
X248864647Y-230455489D01*
X248530304Y-230316658D01*
X248168284Y-230316342D01*
X247833700Y-230454590D01*
X247577489Y-230710353D01*
X247438658Y-231044696D01*
X247438342Y-231406716D01*
X232485000Y-231406716D01*
X232485000Y-227660216D01*
X248136842Y-227660216D01*
X248275090Y-227994800D01*
X248530853Y-228251011D01*
X248865196Y-228389842D01*
X249227216Y-228390158D01*
X249397080Y-228319971D01*
X251212221Y-228319971D01*
X251311241Y-228559619D01*
X251212580Y-228797223D01*
X251212221Y-229208971D01*
X251311241Y-229448619D01*
X251212580Y-229686223D01*
X251212221Y-230097971D01*
X251369458Y-230478515D01*
X251660354Y-230769919D01*
X252040623Y-230927820D01*
X252452371Y-230928179D01*
X252832915Y-230770942D01*
X253124319Y-230480046D01*
X253282220Y-230099777D01*
X253282579Y-229688029D01*
X253183559Y-229448381D01*
X253282220Y-229210777D01*
X253282579Y-228799029D01*
X253183559Y-228559381D01*
X253230235Y-228446971D01*
X254234821Y-228446971D01*
X254392058Y-228827515D01*
X254682954Y-229118919D01*
X255063223Y-229276820D01*
X255474971Y-229277179D01*
X255714619Y-229178159D01*
X255952223Y-229276820D01*
X256363971Y-229277179D01*
X256744515Y-229119942D01*
X257035919Y-228829046D01*
X257193820Y-228448777D01*
X257194179Y-228037029D01*
X257036942Y-227656485D01*
X256746046Y-227365081D01*
X256365777Y-227207180D01*
X255954029Y-227206821D01*
X255714381Y-227305841D01*
X255476777Y-227207180D01*
X255065029Y-227206821D01*
X254684485Y-227364058D01*
X254393081Y-227654954D01*
X254235180Y-228035223D01*
X254234821Y-228446971D01*
X253230235Y-228446971D01*
X253282220Y-228321777D01*
X253282579Y-227910029D01*
X253125342Y-227529485D01*
X252834446Y-227238081D01*
X252454177Y-227080180D01*
X252042429Y-227079821D01*
X251661885Y-227237058D01*
X251370481Y-227527954D01*
X251212580Y-227908223D01*
X251212221Y-228319971D01*
X249397080Y-228319971D01*
X249561800Y-228251910D01*
X249818011Y-227996147D01*
X249956842Y-227661804D01*
X249957158Y-227299784D01*
X249818910Y-226965200D01*
X249563147Y-226708989D01*
X249228804Y-226570158D01*
X248866784Y-226569842D01*
X248532200Y-226708090D01*
X248275989Y-226963853D01*
X248137158Y-227298196D01*
X248136842Y-227660216D01*
X232485000Y-227660216D01*
X232485000Y-224990020D01*
X246004825Y-224990020D01*
X246158264Y-225361372D01*
X246442134Y-225645737D01*
X246813217Y-225799824D01*
X247215020Y-225800175D01*
X247586372Y-225646736D01*
X247870737Y-225362866D01*
X248024824Y-224991783D01*
X248025175Y-224589980D01*
X247919910Y-224335216D01*
X258550842Y-224335216D01*
X258686443Y-224663393D01*
X258551158Y-224989196D01*
X258550842Y-225351216D01*
X258689090Y-225685800D01*
X258944853Y-225942011D01*
X259279196Y-226080842D01*
X259641216Y-226081158D01*
X259975800Y-225942910D01*
X260232011Y-225687147D01*
X260370842Y-225352804D01*
X260371158Y-224990784D01*
X260235557Y-224662607D01*
X260370842Y-224336804D01*
X260371158Y-223974784D01*
X260274107Y-223739903D01*
X260359011Y-223655147D01*
X260497842Y-223320804D01*
X260498158Y-222958784D01*
X260359910Y-222624200D01*
X260104147Y-222367989D01*
X259769804Y-222229158D01*
X259407784Y-222228842D01*
X259073200Y-222367090D01*
X258816989Y-222622853D01*
X258678158Y-222957196D01*
X258677842Y-223319216D01*
X258774893Y-223554097D01*
X258689989Y-223638853D01*
X258551158Y-223973196D01*
X258550842Y-224335216D01*
X247919910Y-224335216D01*
X247871736Y-224218628D01*
X247587866Y-223934263D01*
X247216783Y-223780176D01*
X246814980Y-223779825D01*
X246443628Y-223933264D01*
X246159263Y-224217134D01*
X246005176Y-224588217D01*
X246004825Y-224990020D01*
X232485000Y-224990020D01*
X232485000Y-221160216D01*
X235055842Y-221160216D01*
X235194090Y-221494800D01*
X235449853Y-221751011D01*
X235691126Y-221851196D01*
X235690842Y-222176216D01*
X235829090Y-222510800D01*
X236084853Y-222767011D01*
X236419196Y-222905842D01*
X236781216Y-222906158D01*
X237115800Y-222767910D01*
X237214855Y-222669028D01*
X237214842Y-222684216D01*
X237353090Y-223018800D01*
X237608853Y-223275011D01*
X237943196Y-223413842D01*
X238305216Y-223414158D01*
X238639800Y-223275910D01*
X238896011Y-223020147D01*
X239034842Y-222685804D01*
X239035158Y-222323784D01*
X238896910Y-221989200D01*
X238641147Y-221732989D01*
X238306804Y-221594158D01*
X237944784Y-221593842D01*
X237610200Y-221732090D01*
X237511145Y-221830972D01*
X237511158Y-221815784D01*
X237372910Y-221481200D01*
X237329003Y-221437216D01*
X246993842Y-221437216D01*
X247132090Y-221771800D01*
X247252065Y-221891985D01*
X247132989Y-222010853D01*
X246994158Y-222345196D01*
X246993842Y-222707216D01*
X247132090Y-223041800D01*
X247387853Y-223298011D01*
X247722196Y-223436842D01*
X248084216Y-223437158D01*
X248418800Y-223298910D01*
X248675011Y-223043147D01*
X248813842Y-222708804D01*
X248813893Y-222649841D01*
X249056011Y-222408147D01*
X249194842Y-222073804D01*
X249195158Y-221711784D01*
X249056910Y-221377200D01*
X248814108Y-221133973D01*
X248814158Y-221076784D01*
X248712278Y-220830216D01*
X259213842Y-220830216D01*
X259352090Y-221164800D01*
X259607853Y-221421011D01*
X259942196Y-221559842D01*
X260304216Y-221560158D01*
X260638800Y-221421910D01*
X260895011Y-221166147D01*
X260910020Y-221130000D01*
X264508655Y-221130000D01*
X264622729Y-221703489D01*
X264947585Y-222189670D01*
X265262366Y-222400000D01*
X264947585Y-222610330D01*
X264622729Y-223096511D01*
X264508655Y-223670000D01*
X264622729Y-224243489D01*
X264947585Y-224729670D01*
X265262366Y-224940000D01*
X264947585Y-225150330D01*
X264622729Y-225636511D01*
X264508655Y-226210000D01*
X264622729Y-226783489D01*
X264947585Y-227269670D01*
X265433766Y-227594526D01*
X266007255Y-227708600D01*
X266376745Y-227708600D01*
X266950234Y-227594526D01*
X267436415Y-227269670D01*
X267761271Y-226783489D01*
X267875345Y-226210000D01*
X267761271Y-225636511D01*
X267436415Y-225150330D01*
X267121634Y-224940000D01*
X267436415Y-224729670D01*
X267761271Y-224243489D01*
X267875345Y-223670000D01*
X267761271Y-223096511D01*
X267436415Y-222610330D01*
X267121634Y-222400000D01*
X267436415Y-222189670D01*
X267761271Y-221703489D01*
X267875345Y-221130000D01*
X267761271Y-220556511D01*
X267436415Y-220070330D01*
X267422087Y-220060757D01*
X267443317Y-220056762D01*
X267659441Y-219917690D01*
X267804431Y-219705490D01*
X267855440Y-219453600D01*
X267855440Y-217726400D01*
X267811162Y-217491083D01*
X267672090Y-217274959D01*
X267459890Y-217129969D01*
X267208000Y-217078960D01*
X265176000Y-217078960D01*
X264940683Y-217123238D01*
X264724559Y-217262310D01*
X264579569Y-217474510D01*
X264528560Y-217726400D01*
X264528560Y-219453600D01*
X264572838Y-219688917D01*
X264711910Y-219905041D01*
X264924110Y-220050031D01*
X264965439Y-220058400D01*
X264947585Y-220070330D01*
X264622729Y-220556511D01*
X264508655Y-221130000D01*
X260910020Y-221130000D01*
X261033097Y-220833598D01*
X261101716Y-220833658D01*
X261436300Y-220695410D01*
X261692511Y-220439647D01*
X261831342Y-220105304D01*
X261831658Y-219743284D01*
X261693410Y-219408700D01*
X261437647Y-219152489D01*
X261103304Y-219013658D01*
X260741284Y-219013342D01*
X260406700Y-219151590D01*
X260150489Y-219407353D01*
X260012403Y-219739902D01*
X259943784Y-219739842D01*
X259609200Y-219878090D01*
X259352989Y-220133853D01*
X259214158Y-220468196D01*
X259213842Y-220830216D01*
X248712278Y-220830216D01*
X248675910Y-220742200D01*
X248420147Y-220485989D01*
X248085804Y-220347158D01*
X247723784Y-220346842D01*
X247389200Y-220485090D01*
X247132989Y-220740853D01*
X246994158Y-221075196D01*
X246993842Y-221437216D01*
X237329003Y-221437216D01*
X237117147Y-221224989D01*
X236875874Y-221124804D01*
X236876158Y-220799784D01*
X236737910Y-220465200D01*
X236482147Y-220208989D01*
X236147804Y-220070158D01*
X235785784Y-220069842D01*
X235451200Y-220208090D01*
X235194989Y-220463853D01*
X235056158Y-220798196D01*
X235055842Y-221160216D01*
X232485000Y-221160216D01*
X232485000Y-219288118D01*
X244022833Y-219288118D01*
X244168677Y-219641086D01*
X244438493Y-219911374D01*
X244791206Y-220057833D01*
X245173118Y-220058167D01*
X245526086Y-219912323D01*
X245796374Y-219642507D01*
X245942833Y-219289794D01*
X245943167Y-218907882D01*
X245797323Y-218554914D01*
X245527507Y-218284626D01*
X245174794Y-218138167D01*
X244792882Y-218137833D01*
X244439914Y-218283677D01*
X244169626Y-218553493D01*
X244023167Y-218906206D01*
X244022833Y-219288118D01*
X232485000Y-219288118D01*
X232485000Y-215175471D01*
X251212221Y-215175471D01*
X251311241Y-215415119D01*
X251212580Y-215652723D01*
X251212221Y-216064471D01*
X251311241Y-216304119D01*
X251212580Y-216541723D01*
X251212221Y-216953471D01*
X251369458Y-217334015D01*
X251660354Y-217625419D01*
X252040623Y-217783320D01*
X252452371Y-217783679D01*
X252832915Y-217626442D01*
X253124319Y-217335546D01*
X253282220Y-216955277D01*
X253282221Y-216953471D01*
X254488821Y-216953471D01*
X254646058Y-217334015D01*
X254936954Y-217625419D01*
X255317223Y-217783320D01*
X255728971Y-217783679D01*
X256109515Y-217626442D01*
X256397306Y-217339153D01*
X256427471Y-217339179D01*
X256808015Y-217181942D01*
X257099419Y-216891046D01*
X257257320Y-216510777D01*
X257257679Y-216099029D01*
X257100442Y-215718485D01*
X256809546Y-215427081D01*
X256429277Y-215269180D01*
X256017529Y-215268821D01*
X255636985Y-215426058D01*
X255349194Y-215713347D01*
X255319029Y-215713321D01*
X254938485Y-215870558D01*
X254647081Y-216161454D01*
X254489180Y-216541723D01*
X254488821Y-216953471D01*
X253282221Y-216953471D01*
X253282579Y-216543529D01*
X253183559Y-216303881D01*
X253282220Y-216066277D01*
X253282579Y-215654529D01*
X253183559Y-215414881D01*
X253282220Y-215177277D01*
X253282579Y-214765529D01*
X253125342Y-214384985D01*
X252834446Y-214093581D01*
X252454177Y-213935680D01*
X252042429Y-213935321D01*
X251661885Y-214092558D01*
X251370481Y-214383454D01*
X251212580Y-214763723D01*
X251212221Y-215175471D01*
X232485000Y-215175471D01*
X232485000Y-207872971D01*
X264204321Y-207872971D01*
X264361558Y-208253515D01*
X264652454Y-208544919D01*
X265032723Y-208702820D01*
X265444471Y-208703179D01*
X265739756Y-208581170D01*
X266032723Y-208702820D01*
X266444471Y-208703179D01*
X266739756Y-208581170D01*
X267032723Y-208702820D01*
X267444471Y-208703179D01*
X267825015Y-208545942D01*
X268116419Y-208255046D01*
X268274320Y-207874777D01*
X268274679Y-207463029D01*
X268117442Y-207082485D01*
X267826546Y-206791081D01*
X267446277Y-206633180D01*
X267034529Y-206632821D01*
X266739244Y-206754830D01*
X266446277Y-206633180D01*
X266034529Y-206632821D01*
X265739244Y-206754830D01*
X265446277Y-206633180D01*
X265034529Y-206632821D01*
X264653985Y-206790058D01*
X264362581Y-207080954D01*
X264204680Y-207461223D01*
X264204321Y-207872971D01*
X232485000Y-207872971D01*
X232485000Y-196406716D01*
X247438342Y-196406716D01*
X247566161Y-196716060D01*
X247502158Y-196870196D01*
X247501842Y-197232216D01*
X247640090Y-197566800D01*
X247895853Y-197823011D01*
X248230196Y-197961842D01*
X248592216Y-197962158D01*
X248926800Y-197823910D01*
X249183011Y-197568147D01*
X249321842Y-197233804D01*
X249322158Y-196871784D01*
X249229166Y-196646726D01*
X249410799Y-196646726D01*
X249587026Y-197073229D01*
X249913055Y-197399827D01*
X250339249Y-197576798D01*
X250800726Y-197577201D01*
X251227229Y-197400974D01*
X251553827Y-197074945D01*
X251730798Y-196648751D01*
X251731201Y-196187274D01*
X251554974Y-195760771D01*
X251228945Y-195434173D01*
X250802751Y-195257202D01*
X250341274Y-195256799D01*
X249914771Y-195433026D01*
X249588173Y-195759055D01*
X249411202Y-196185249D01*
X249410799Y-196646726D01*
X249229166Y-196646726D01*
X249194339Y-196562440D01*
X249258342Y-196408304D01*
X249258658Y-196046284D01*
X249120410Y-195711700D01*
X248864647Y-195455489D01*
X248530304Y-195316658D01*
X248168284Y-195316342D01*
X247833700Y-195454590D01*
X247577489Y-195710353D01*
X247438658Y-196044696D01*
X247438342Y-196406716D01*
X232485000Y-196406716D01*
X232485000Y-192660216D01*
X248136842Y-192660216D01*
X248275090Y-192994800D01*
X248530853Y-193251011D01*
X248865196Y-193389842D01*
X249227216Y-193390158D01*
X249397080Y-193319971D01*
X251212221Y-193319971D01*
X251311241Y-193559619D01*
X251212580Y-193797223D01*
X251212221Y-194208971D01*
X251311241Y-194448619D01*
X251212580Y-194686223D01*
X251212221Y-195097971D01*
X251369458Y-195478515D01*
X251660354Y-195769919D01*
X252040623Y-195927820D01*
X252452371Y-195928179D01*
X252832915Y-195770942D01*
X253124319Y-195480046D01*
X253282220Y-195099777D01*
X253282579Y-194688029D01*
X253183559Y-194448381D01*
X253282220Y-194210777D01*
X253282579Y-193799029D01*
X253183559Y-193559381D01*
X253230235Y-193446971D01*
X254234821Y-193446971D01*
X254392058Y-193827515D01*
X254682954Y-194118919D01*
X255063223Y-194276820D01*
X255474971Y-194277179D01*
X255714619Y-194178159D01*
X255952223Y-194276820D01*
X256363971Y-194277179D01*
X256744515Y-194119942D01*
X257035919Y-193829046D01*
X257193820Y-193448777D01*
X257194179Y-193037029D01*
X257036942Y-192656485D01*
X256746046Y-192365081D01*
X256365777Y-192207180D01*
X255954029Y-192206821D01*
X255714381Y-192305841D01*
X255476777Y-192207180D01*
X255065029Y-192206821D01*
X254684485Y-192364058D01*
X254393081Y-192654954D01*
X254235180Y-193035223D01*
X254234821Y-193446971D01*
X253230235Y-193446971D01*
X253282220Y-193321777D01*
X253282579Y-192910029D01*
X253125342Y-192529485D01*
X252834446Y-192238081D01*
X252454177Y-192080180D01*
X252042429Y-192079821D01*
X251661885Y-192237058D01*
X251370481Y-192527954D01*
X251212580Y-192908223D01*
X251212221Y-193319971D01*
X249397080Y-193319971D01*
X249561800Y-193251910D01*
X249818011Y-192996147D01*
X249956842Y-192661804D01*
X249957158Y-192299784D01*
X249818910Y-191965200D01*
X249563147Y-191708989D01*
X249228804Y-191570158D01*
X248866784Y-191569842D01*
X248532200Y-191708090D01*
X248275989Y-191963853D01*
X248137158Y-192298196D01*
X248136842Y-192660216D01*
X232485000Y-192660216D01*
X232485000Y-189938020D01*
X246004825Y-189938020D01*
X246158264Y-190309372D01*
X246442134Y-190593737D01*
X246813217Y-190747824D01*
X247215020Y-190748175D01*
X247586372Y-190594736D01*
X247870737Y-190310866D01*
X248024824Y-189939783D01*
X248025175Y-189537980D01*
X247919910Y-189283216D01*
X258550842Y-189283216D01*
X258660140Y-189547737D01*
X258551158Y-189810196D01*
X258550842Y-190172216D01*
X258689090Y-190506800D01*
X258944853Y-190763011D01*
X259279196Y-190901842D01*
X259641216Y-190902158D01*
X259975800Y-190763910D01*
X260232011Y-190508147D01*
X260370842Y-190173804D01*
X260371158Y-189811784D01*
X260261860Y-189547263D01*
X260370842Y-189284804D01*
X260371158Y-188922784D01*
X260274107Y-188687903D01*
X260359011Y-188603147D01*
X260497842Y-188268804D01*
X260498158Y-187906784D01*
X260359910Y-187572200D01*
X260104147Y-187315989D01*
X259769804Y-187177158D01*
X259407784Y-187176842D01*
X259073200Y-187315090D01*
X258816989Y-187570853D01*
X258678158Y-187905196D01*
X258677842Y-188267216D01*
X258774893Y-188502097D01*
X258689989Y-188586853D01*
X258551158Y-188921196D01*
X258550842Y-189283216D01*
X247919910Y-189283216D01*
X247871736Y-189166628D01*
X247587866Y-188882263D01*
X247216783Y-188728176D01*
X246814980Y-188727825D01*
X246443628Y-188881264D01*
X246159263Y-189165134D01*
X246005176Y-189536217D01*
X246004825Y-189938020D01*
X232485000Y-189938020D01*
X232485000Y-186489216D01*
X235055842Y-186489216D01*
X235194090Y-186823800D01*
X235449853Y-187080011D01*
X235690904Y-187180104D01*
X235690842Y-187251216D01*
X235829090Y-187585800D01*
X236084853Y-187842011D01*
X236419196Y-187980842D01*
X236781216Y-187981158D01*
X237115800Y-187842910D01*
X237214855Y-187744028D01*
X237214842Y-187759216D01*
X237353090Y-188093800D01*
X237608853Y-188350011D01*
X237943196Y-188488842D01*
X238305216Y-188489158D01*
X238639800Y-188350910D01*
X238896011Y-188095147D01*
X239034842Y-187760804D01*
X239035158Y-187398784D01*
X238896910Y-187064200D01*
X238641147Y-186807989D01*
X238306804Y-186669158D01*
X237944784Y-186668842D01*
X237610200Y-186807090D01*
X237511145Y-186905972D01*
X237511158Y-186890784D01*
X237372910Y-186556200D01*
X237254135Y-186437216D01*
X246993842Y-186437216D01*
X247132090Y-186771800D01*
X247252065Y-186891985D01*
X247132989Y-187010853D01*
X246994158Y-187345196D01*
X246993842Y-187707216D01*
X247132090Y-188041800D01*
X247387853Y-188298011D01*
X247722196Y-188436842D01*
X248084216Y-188437158D01*
X248418800Y-188298910D01*
X248675011Y-188043147D01*
X248813842Y-187708804D01*
X248813893Y-187649841D01*
X249056011Y-187408147D01*
X249194842Y-187073804D01*
X249195158Y-186711784D01*
X249056910Y-186377200D01*
X248814108Y-186133973D01*
X248814158Y-186076784D01*
X248712278Y-185830216D01*
X259213842Y-185830216D01*
X259352090Y-186164800D01*
X259607853Y-186421011D01*
X259942196Y-186559842D01*
X260304216Y-186560158D01*
X260638800Y-186421910D01*
X260895011Y-186166147D01*
X260910020Y-186130000D01*
X264508655Y-186130000D01*
X264622729Y-186703489D01*
X264947585Y-187189670D01*
X265262366Y-187400000D01*
X264947585Y-187610330D01*
X264622729Y-188096511D01*
X264508655Y-188670000D01*
X264622729Y-189243489D01*
X264947585Y-189729670D01*
X265262366Y-189940000D01*
X264947585Y-190150330D01*
X264622729Y-190636511D01*
X264508655Y-191210000D01*
X264622729Y-191783489D01*
X264947585Y-192269670D01*
X265433766Y-192594526D01*
X266007255Y-192708600D01*
X266376745Y-192708600D01*
X266950234Y-192594526D01*
X267436415Y-192269670D01*
X267761271Y-191783489D01*
X267875345Y-191210000D01*
X267761271Y-190636511D01*
X267436415Y-190150330D01*
X267121634Y-189940000D01*
X267436415Y-189729670D01*
X267761271Y-189243489D01*
X267875345Y-188670000D01*
X267761271Y-188096511D01*
X267436415Y-187610330D01*
X267121634Y-187400000D01*
X267436415Y-187189670D01*
X267761271Y-186703489D01*
X267875345Y-186130000D01*
X267761271Y-185556511D01*
X267436415Y-185070330D01*
X267422087Y-185060757D01*
X267443317Y-185056762D01*
X267659441Y-184917690D01*
X267804431Y-184705490D01*
X267855440Y-184453600D01*
X267855440Y-182726400D01*
X267811162Y-182491083D01*
X267672090Y-182274959D01*
X267459890Y-182129969D01*
X267208000Y-182078960D01*
X265176000Y-182078960D01*
X264940683Y-182123238D01*
X264724559Y-182262310D01*
X264579569Y-182474510D01*
X264528560Y-182726400D01*
X264528560Y-184453600D01*
X264572838Y-184688917D01*
X264711910Y-184905041D01*
X264924110Y-185050031D01*
X264965439Y-185058400D01*
X264947585Y-185070330D01*
X264622729Y-185556511D01*
X264508655Y-186130000D01*
X260910020Y-186130000D01*
X261033097Y-185833598D01*
X261101716Y-185833658D01*
X261436300Y-185695410D01*
X261692511Y-185439647D01*
X261831342Y-185105304D01*
X261831658Y-184743284D01*
X261693410Y-184408700D01*
X261437647Y-184152489D01*
X261103304Y-184013658D01*
X260741284Y-184013342D01*
X260406700Y-184151590D01*
X260150489Y-184407353D01*
X260012403Y-184739902D01*
X259943784Y-184739842D01*
X259609200Y-184878090D01*
X259352989Y-185133853D01*
X259214158Y-185468196D01*
X259213842Y-185830216D01*
X248712278Y-185830216D01*
X248675910Y-185742200D01*
X248420147Y-185485989D01*
X248085804Y-185347158D01*
X247723784Y-185346842D01*
X247389200Y-185485090D01*
X247132989Y-185740853D01*
X246994158Y-186075196D01*
X246993842Y-186437216D01*
X237254135Y-186437216D01*
X237117147Y-186299989D01*
X236876096Y-186199896D01*
X236876158Y-186128784D01*
X236737910Y-185794200D01*
X236482147Y-185537989D01*
X236147804Y-185399158D01*
X235785784Y-185398842D01*
X235451200Y-185537090D01*
X235194989Y-185792853D01*
X235056158Y-186127196D01*
X235055842Y-186489216D01*
X232485000Y-186489216D01*
X232485000Y-177345216D01*
X232642842Y-177345216D01*
X232781090Y-177679800D01*
X232964565Y-177863596D01*
X232781989Y-178045853D01*
X232643158Y-178380196D01*
X232642842Y-178742216D01*
X232781090Y-179076800D01*
X232837565Y-179133374D01*
X232781989Y-179188853D01*
X232643158Y-179523196D01*
X232642842Y-179885216D01*
X232781090Y-180219800D01*
X232964565Y-180403596D01*
X232781989Y-180585853D01*
X232643158Y-180920196D01*
X232642842Y-181282216D01*
X232781090Y-181616800D01*
X232901065Y-181736985D01*
X232781989Y-181855853D01*
X232643158Y-182190196D01*
X232642842Y-182552216D01*
X232781090Y-182886800D01*
X232837565Y-182943374D01*
X232781989Y-182998853D01*
X232643158Y-183333196D01*
X232642842Y-183695216D01*
X232781090Y-184029800D01*
X233036853Y-184286011D01*
X233371196Y-184424842D01*
X233733216Y-184425158D01*
X234067800Y-184286910D01*
X234324011Y-184031147D01*
X234462842Y-183696804D01*
X234462954Y-183568216D01*
X240516842Y-183568216D01*
X240655090Y-183902800D01*
X240910853Y-184159011D01*
X241245196Y-184297842D01*
X241607216Y-184298158D01*
X241631514Y-184288118D01*
X244022833Y-184288118D01*
X244168677Y-184641086D01*
X244438493Y-184911374D01*
X244791206Y-185057833D01*
X245173118Y-185058167D01*
X245526086Y-184912323D01*
X245796374Y-184642507D01*
X245942833Y-184289794D01*
X245943167Y-183907882D01*
X245797323Y-183554914D01*
X245527507Y-183284626D01*
X245174794Y-183138167D01*
X244792882Y-183137833D01*
X244439914Y-183283677D01*
X244169626Y-183553493D01*
X244023167Y-183906206D01*
X244022833Y-184288118D01*
X241631514Y-184288118D01*
X241941800Y-184159910D01*
X242198011Y-183904147D01*
X242336842Y-183569804D01*
X242337158Y-183207784D01*
X242314345Y-183152572D01*
X242452011Y-183015147D01*
X242590842Y-182680804D01*
X242591158Y-182318784D01*
X242452910Y-181984200D01*
X242197147Y-181727989D01*
X241862804Y-181589158D01*
X241500784Y-181588842D01*
X241166200Y-181727090D01*
X240909989Y-181982853D01*
X240771158Y-182317196D01*
X240770842Y-182679216D01*
X240793655Y-182734428D01*
X240655989Y-182871853D01*
X240517158Y-183206196D01*
X240516842Y-183568216D01*
X234462954Y-183568216D01*
X234463158Y-183334784D01*
X234324910Y-183000200D01*
X234268435Y-182943626D01*
X234324011Y-182888147D01*
X234462842Y-182553804D01*
X234463158Y-182191784D01*
X234324910Y-181857200D01*
X234204935Y-181737015D01*
X234324011Y-181618147D01*
X234462842Y-181283804D01*
X234463158Y-180921784D01*
X234349709Y-180647216D01*
X241024842Y-180647216D01*
X241163090Y-180981800D01*
X241418853Y-181238011D01*
X241753196Y-181376842D01*
X242115216Y-181377158D01*
X242449800Y-181238910D01*
X242706011Y-180983147D01*
X242813068Y-180725326D01*
X242814090Y-180727800D01*
X243069853Y-180984011D01*
X243404196Y-181122842D01*
X243766216Y-181123158D01*
X244100800Y-180984910D01*
X244357011Y-180729147D01*
X244495842Y-180394804D01*
X244496021Y-180189371D01*
X251212221Y-180189371D01*
X251305981Y-180416288D01*
X251212580Y-180641223D01*
X251212221Y-181052971D01*
X251313623Y-181298384D01*
X251212580Y-181541723D01*
X251212221Y-181953471D01*
X251369458Y-182334015D01*
X251660354Y-182625419D01*
X252040623Y-182783320D01*
X252452371Y-182783679D01*
X252832915Y-182626442D01*
X253124319Y-182335546D01*
X253282220Y-181955277D01*
X253282221Y-181953471D01*
X254488821Y-181953471D01*
X254646058Y-182334015D01*
X254936954Y-182625419D01*
X255317223Y-182783320D01*
X255728971Y-182783679D01*
X256109515Y-182626442D01*
X256397306Y-182339153D01*
X256427471Y-182339179D01*
X256808015Y-182181942D01*
X257099419Y-181891046D01*
X257257320Y-181510777D01*
X257257679Y-181099029D01*
X257100442Y-180718485D01*
X256809546Y-180427081D01*
X256429277Y-180269180D01*
X256017529Y-180268821D01*
X255636985Y-180426058D01*
X255349194Y-180713347D01*
X255319029Y-180713321D01*
X254938485Y-180870558D01*
X254647081Y-181161454D01*
X254489180Y-181541723D01*
X254488821Y-181953471D01*
X253282221Y-181953471D01*
X253282579Y-181543529D01*
X253181177Y-181298116D01*
X253282220Y-181054777D01*
X253282579Y-180643029D01*
X253188819Y-180416112D01*
X253282220Y-180191177D01*
X253282579Y-179779429D01*
X253125342Y-179398885D01*
X252834446Y-179107481D01*
X252454177Y-178949580D01*
X252042429Y-178949221D01*
X251661885Y-179106458D01*
X251370481Y-179397354D01*
X251212580Y-179777623D01*
X251212221Y-180189371D01*
X244496021Y-180189371D01*
X244496158Y-180032784D01*
X244357910Y-179698200D01*
X244102147Y-179441989D01*
X243767804Y-179303158D01*
X243405784Y-179302842D01*
X243071200Y-179441090D01*
X242814989Y-179696853D01*
X242707932Y-179954674D01*
X242706910Y-179952200D01*
X242451147Y-179695989D01*
X242116804Y-179557158D01*
X241754784Y-179556842D01*
X241420200Y-179695090D01*
X241163989Y-179950853D01*
X241025158Y-180285196D01*
X241024842Y-180647216D01*
X234349709Y-180647216D01*
X234324910Y-180587200D01*
X234141435Y-180403404D01*
X234324011Y-180221147D01*
X234462842Y-179886804D01*
X234463158Y-179524784D01*
X234324910Y-179190200D01*
X234268435Y-179133626D01*
X234324011Y-179078147D01*
X234462842Y-178743804D01*
X234463158Y-178381784D01*
X234324910Y-178047200D01*
X234141435Y-177863404D01*
X234324011Y-177681147D01*
X234462842Y-177346804D01*
X234463158Y-176984784D01*
X234349709Y-176710216D01*
X241405842Y-176710216D01*
X241544090Y-177044800D01*
X241799853Y-177301011D01*
X242134196Y-177439842D01*
X242421847Y-177440093D01*
X242333850Y-177652015D01*
X242135784Y-177651842D01*
X241801200Y-177790090D01*
X241544989Y-178045853D01*
X241406158Y-178380196D01*
X241405842Y-178742216D01*
X241544090Y-179076800D01*
X241799853Y-179333011D01*
X242134196Y-179471842D01*
X242496216Y-179472158D01*
X242830800Y-179333910D01*
X243087011Y-179078147D01*
X243187150Y-178836985D01*
X243385216Y-178837158D01*
X243719800Y-178698910D01*
X243976011Y-178443147D01*
X244114842Y-178108804D01*
X244115158Y-177746784D01*
X243976910Y-177412200D01*
X243721147Y-177155989D01*
X243386804Y-177017158D01*
X243099153Y-177016907D01*
X243225842Y-176711804D01*
X243226158Y-176349784D01*
X243087910Y-176015200D01*
X242832147Y-175758989D01*
X242497804Y-175620158D01*
X242135784Y-175619842D01*
X241801200Y-175758090D01*
X241544989Y-176013853D01*
X241406158Y-176348196D01*
X241405842Y-176710216D01*
X234349709Y-176710216D01*
X234328955Y-176659990D01*
X234451011Y-176538147D01*
X234589842Y-176203804D01*
X234590158Y-175841784D01*
X234451910Y-175507200D01*
X234196147Y-175250989D01*
X233861804Y-175112158D01*
X233499784Y-175111842D01*
X233165200Y-175250090D01*
X232908989Y-175505853D01*
X232770158Y-175840196D01*
X232769842Y-176202216D01*
X232904045Y-176527010D01*
X232781989Y-176648853D01*
X232643158Y-176983196D01*
X232642842Y-177345216D01*
X232485000Y-177345216D01*
X232485000Y-172872971D01*
X264204321Y-172872971D01*
X264361558Y-173253515D01*
X264652454Y-173544919D01*
X265032723Y-173702820D01*
X265444471Y-173703179D01*
X265739756Y-173581170D01*
X266032723Y-173702820D01*
X266444471Y-173703179D01*
X266739756Y-173581170D01*
X267032723Y-173702820D01*
X267444471Y-173703179D01*
X267825015Y-173545942D01*
X268116419Y-173255046D01*
X268274320Y-172874777D01*
X268274679Y-172463029D01*
X268117442Y-172082485D01*
X267826546Y-171791081D01*
X267446277Y-171633180D01*
X267034529Y-171632821D01*
X266739244Y-171754830D01*
X266446277Y-171633180D01*
X266034529Y-171632821D01*
X265739244Y-171754830D01*
X265446277Y-171633180D01*
X265034529Y-171632821D01*
X264653985Y-171790058D01*
X264362581Y-172080954D01*
X264204680Y-172461223D01*
X264204321Y-172872971D01*
X232485000Y-172872971D01*
X232485000Y-170995216D01*
X240516842Y-170995216D01*
X240655090Y-171329800D01*
X240910853Y-171586011D01*
X241245196Y-171724842D01*
X241607216Y-171725158D01*
X241941800Y-171586910D01*
X242198011Y-171331147D01*
X242336842Y-170996804D01*
X242337158Y-170634784D01*
X242198910Y-170300200D01*
X241943147Y-170043989D01*
X241608804Y-169905158D01*
X241246784Y-169904842D01*
X240912200Y-170043090D01*
X240655989Y-170298853D01*
X240517158Y-170633196D01*
X240516842Y-170995216D01*
X232485000Y-170995216D01*
X232485000Y-168709216D01*
X235669822Y-168709216D01*
X235808070Y-169043800D01*
X236063833Y-169300011D01*
X236398176Y-169438842D01*
X236760196Y-169439158D01*
X237094780Y-169300910D01*
X237350991Y-169045147D01*
X237467514Y-168764527D01*
X237562196Y-168803842D01*
X237924216Y-168804158D01*
X238141884Y-168714219D01*
X238284026Y-169058229D01*
X238610055Y-169384827D01*
X239036249Y-169561798D01*
X239497726Y-169562201D01*
X239924229Y-169385974D01*
X240250827Y-169059945D01*
X240427798Y-168633751D01*
X240428201Y-168172274D01*
X240251974Y-167745771D01*
X239925945Y-167419173D01*
X239499751Y-167242202D01*
X239038274Y-167241799D01*
X238611771Y-167418026D01*
X238555261Y-167474437D01*
X238515910Y-167379200D01*
X238260147Y-167122989D01*
X237925804Y-166984158D01*
X237563784Y-166983842D01*
X237229200Y-167122090D01*
X236972989Y-167377853D01*
X236856466Y-167658473D01*
X236761784Y-167619158D01*
X236399764Y-167618842D01*
X236065180Y-167757090D01*
X235808969Y-168012853D01*
X235670138Y-168347196D01*
X235669822Y-168709216D01*
X232485000Y-168709216D01*
X232485000Y-161406716D01*
X247438342Y-161406716D01*
X247566161Y-161716060D01*
X247502158Y-161870196D01*
X247501842Y-162232216D01*
X247640090Y-162566800D01*
X247895853Y-162823011D01*
X248230196Y-162961842D01*
X248592216Y-162962158D01*
X248926800Y-162823910D01*
X249183011Y-162568147D01*
X249321842Y-162233804D01*
X249322158Y-161871784D01*
X249229166Y-161646726D01*
X249410799Y-161646726D01*
X249587026Y-162073229D01*
X249913055Y-162399827D01*
X250339249Y-162576798D01*
X250800726Y-162577201D01*
X251227229Y-162400974D01*
X251553827Y-162074945D01*
X251730798Y-161648751D01*
X251731201Y-161187274D01*
X251554974Y-160760771D01*
X251228945Y-160434173D01*
X250802751Y-160257202D01*
X250341274Y-160256799D01*
X249914771Y-160433026D01*
X249588173Y-160759055D01*
X249411202Y-161185249D01*
X249410799Y-161646726D01*
X249229166Y-161646726D01*
X249194339Y-161562440D01*
X249258342Y-161408304D01*
X249258658Y-161046284D01*
X249120410Y-160711700D01*
X248864647Y-160455489D01*
X248530304Y-160316658D01*
X248168284Y-160316342D01*
X247833700Y-160454590D01*
X247577489Y-160710353D01*
X247438658Y-161044696D01*
X247438342Y-161406716D01*
X232485000Y-161406716D01*
X232485000Y-157660216D01*
X248136842Y-157660216D01*
X248275090Y-157994800D01*
X248530853Y-158251011D01*
X248865196Y-158389842D01*
X249227216Y-158390158D01*
X249397080Y-158319971D01*
X251212221Y-158319971D01*
X251311241Y-158559619D01*
X251212580Y-158797223D01*
X251212221Y-159208971D01*
X251311241Y-159448619D01*
X251212580Y-159686223D01*
X251212221Y-160097971D01*
X251369458Y-160478515D01*
X251660354Y-160769919D01*
X252040623Y-160927820D01*
X252452371Y-160928179D01*
X252832915Y-160770942D01*
X253124319Y-160480046D01*
X253282220Y-160099777D01*
X253282579Y-159688029D01*
X253183559Y-159448381D01*
X253282220Y-159210777D01*
X253282579Y-158799029D01*
X253183559Y-158559381D01*
X253230235Y-158446971D01*
X254234821Y-158446971D01*
X254392058Y-158827515D01*
X254682954Y-159118919D01*
X255063223Y-159276820D01*
X255474971Y-159277179D01*
X255714619Y-159178159D01*
X255952223Y-159276820D01*
X256363971Y-159277179D01*
X256744515Y-159119942D01*
X257035919Y-158829046D01*
X257193820Y-158448777D01*
X257194179Y-158037029D01*
X257036942Y-157656485D01*
X256746046Y-157365081D01*
X256365777Y-157207180D01*
X255954029Y-157206821D01*
X255714381Y-157305841D01*
X255476777Y-157207180D01*
X255065029Y-157206821D01*
X254684485Y-157364058D01*
X254393081Y-157654954D01*
X254235180Y-158035223D01*
X254234821Y-158446971D01*
X253230235Y-158446971D01*
X253282220Y-158321777D01*
X253282579Y-157910029D01*
X253125342Y-157529485D01*
X252834446Y-157238081D01*
X252454177Y-157080180D01*
X252042429Y-157079821D01*
X251661885Y-157237058D01*
X251370481Y-157527954D01*
X251212580Y-157908223D01*
X251212221Y-158319971D01*
X249397080Y-158319971D01*
X249561800Y-158251910D01*
X249818011Y-157996147D01*
X249956842Y-157661804D01*
X249957158Y-157299784D01*
X249818910Y-156965200D01*
X249563147Y-156708989D01*
X249228804Y-156570158D01*
X248866784Y-156569842D01*
X248532200Y-156708090D01*
X248275989Y-156963853D01*
X248137158Y-157298196D01*
X248136842Y-157660216D01*
X232485000Y-157660216D01*
X232485000Y-155042726D01*
X245854799Y-155042726D01*
X246031026Y-155469229D01*
X246357055Y-155795827D01*
X246783249Y-155972798D01*
X247244726Y-155973201D01*
X247671229Y-155796974D01*
X247997827Y-155470945D01*
X248174798Y-155044751D01*
X248175201Y-154583274D01*
X247998974Y-154156771D01*
X247672945Y-153830173D01*
X247246751Y-153653202D01*
X246785274Y-153652799D01*
X246358771Y-153829026D01*
X246032173Y-154155055D01*
X245855202Y-154581249D01*
X245854799Y-155042726D01*
X232485000Y-155042726D01*
X232485000Y-153469216D01*
X258550842Y-153469216D01*
X258660140Y-153733737D01*
X258551158Y-153996196D01*
X258550842Y-154358216D01*
X258660140Y-154622737D01*
X258551158Y-154885196D01*
X258550842Y-155247216D01*
X258689090Y-155581800D01*
X258944853Y-155838011D01*
X259279196Y-155976842D01*
X259641216Y-155977158D01*
X259975800Y-155838910D01*
X260232011Y-155583147D01*
X260370842Y-155248804D01*
X260371158Y-154886784D01*
X260261860Y-154622263D01*
X260370842Y-154359804D01*
X260371158Y-153997784D01*
X260261860Y-153733263D01*
X260370842Y-153470804D01*
X260371158Y-153108784D01*
X260232910Y-152774200D01*
X259977147Y-152517989D01*
X259642804Y-152379158D01*
X259280784Y-152378842D01*
X258946200Y-152517090D01*
X258689989Y-152772853D01*
X258551158Y-153107196D01*
X258550842Y-153469216D01*
X232485000Y-153469216D01*
X232485000Y-151437216D01*
X246993842Y-151437216D01*
X247132090Y-151771800D01*
X247252065Y-151891985D01*
X247132989Y-152010853D01*
X246994158Y-152345196D01*
X246993842Y-152707216D01*
X247132090Y-153041800D01*
X247387853Y-153298011D01*
X247722196Y-153436842D01*
X248084216Y-153437158D01*
X248418800Y-153298910D01*
X248675011Y-153043147D01*
X248813842Y-152708804D01*
X248813893Y-152649841D01*
X249056011Y-152408147D01*
X249194842Y-152073804D01*
X249195158Y-151711784D01*
X249056910Y-151377200D01*
X248814108Y-151133973D01*
X248814158Y-151076784D01*
X248712278Y-150830216D01*
X259213842Y-150830216D01*
X259352090Y-151164800D01*
X259607853Y-151421011D01*
X259942196Y-151559842D01*
X260304216Y-151560158D01*
X260638800Y-151421910D01*
X260895011Y-151166147D01*
X260910020Y-151130000D01*
X264508655Y-151130000D01*
X264622729Y-151703489D01*
X264947585Y-152189670D01*
X265262366Y-152400000D01*
X264947585Y-152610330D01*
X264622729Y-153096511D01*
X264508655Y-153670000D01*
X264622729Y-154243489D01*
X264947585Y-154729670D01*
X265262366Y-154940000D01*
X264947585Y-155150330D01*
X264622729Y-155636511D01*
X264508655Y-156210000D01*
X264622729Y-156783489D01*
X264947585Y-157269670D01*
X265433766Y-157594526D01*
X266007255Y-157708600D01*
X266376745Y-157708600D01*
X266950234Y-157594526D01*
X267436415Y-157269670D01*
X267761271Y-156783489D01*
X267875345Y-156210000D01*
X267761271Y-155636511D01*
X267436415Y-155150330D01*
X267121634Y-154940000D01*
X267436415Y-154729670D01*
X267761271Y-154243489D01*
X267875345Y-153670000D01*
X267761271Y-153096511D01*
X267436415Y-152610330D01*
X267121634Y-152400000D01*
X267436415Y-152189670D01*
X267761271Y-151703489D01*
X267875345Y-151130000D01*
X267761271Y-150556511D01*
X267436415Y-150070330D01*
X267422087Y-150060757D01*
X267443317Y-150056762D01*
X267659441Y-149917690D01*
X267804431Y-149705490D01*
X267855440Y-149453600D01*
X267855440Y-147726400D01*
X267811162Y-147491083D01*
X267672090Y-147274959D01*
X267459890Y-147129969D01*
X267208000Y-147078960D01*
X265176000Y-147078960D01*
X264940683Y-147123238D01*
X264724559Y-147262310D01*
X264579569Y-147474510D01*
X264528560Y-147726400D01*
X264528560Y-149453600D01*
X264572838Y-149688917D01*
X264711910Y-149905041D01*
X264924110Y-150050031D01*
X264965439Y-150058400D01*
X264947585Y-150070330D01*
X264622729Y-150556511D01*
X264508655Y-151130000D01*
X260910020Y-151130000D01*
X261033097Y-150833598D01*
X261101716Y-150833658D01*
X261436300Y-150695410D01*
X261692511Y-150439647D01*
X261831342Y-150105304D01*
X261831658Y-149743284D01*
X261693410Y-149408700D01*
X261437647Y-149152489D01*
X261103304Y-149013658D01*
X260741284Y-149013342D01*
X260406700Y-149151590D01*
X260150489Y-149407353D01*
X260012403Y-149739902D01*
X259943784Y-149739842D01*
X259609200Y-149878090D01*
X259352989Y-150133853D01*
X259214158Y-150468196D01*
X259213842Y-150830216D01*
X248712278Y-150830216D01*
X248675910Y-150742200D01*
X248420147Y-150485989D01*
X248085804Y-150347158D01*
X247723784Y-150346842D01*
X247389200Y-150485090D01*
X247132989Y-150740853D01*
X246994158Y-151075196D01*
X246993842Y-151437216D01*
X232485000Y-151437216D01*
X232485000Y-149288118D01*
X244022833Y-149288118D01*
X244168677Y-149641086D01*
X244438493Y-149911374D01*
X244791206Y-150057833D01*
X245173118Y-150058167D01*
X245526086Y-149912323D01*
X245796374Y-149642507D01*
X245942833Y-149289794D01*
X245943167Y-148907882D01*
X245797323Y-148554914D01*
X245527507Y-148284626D01*
X245174794Y-148138167D01*
X244792882Y-148137833D01*
X244439914Y-148283677D01*
X244169626Y-148553493D01*
X244023167Y-148906206D01*
X244022833Y-149288118D01*
X232485000Y-149288118D01*
X232485000Y-145175471D01*
X251212221Y-145175471D01*
X251311241Y-145415119D01*
X251212580Y-145652723D01*
X251212221Y-146064471D01*
X251311241Y-146304119D01*
X251212580Y-146541723D01*
X251212221Y-146953471D01*
X251369458Y-147334015D01*
X251660354Y-147625419D01*
X252040623Y-147783320D01*
X252452371Y-147783679D01*
X252832915Y-147626442D01*
X253124319Y-147335546D01*
X253282220Y-146955277D01*
X253282221Y-146953471D01*
X254488821Y-146953471D01*
X254646058Y-147334015D01*
X254936954Y-147625419D01*
X255317223Y-147783320D01*
X255728971Y-147783679D01*
X256109515Y-147626442D01*
X256397306Y-147339153D01*
X256427471Y-147339179D01*
X256808015Y-147181942D01*
X257099419Y-146891046D01*
X257257320Y-146510777D01*
X257257679Y-146099029D01*
X257100442Y-145718485D01*
X256809546Y-145427081D01*
X256429277Y-145269180D01*
X256017529Y-145268821D01*
X255636985Y-145426058D01*
X255349194Y-145713347D01*
X255319029Y-145713321D01*
X254938485Y-145870558D01*
X254647081Y-146161454D01*
X254489180Y-146541723D01*
X254488821Y-146953471D01*
X253282221Y-146953471D01*
X253282579Y-146543529D01*
X253183559Y-146303881D01*
X253282220Y-146066277D01*
X253282579Y-145654529D01*
X253183559Y-145414881D01*
X253282220Y-145177277D01*
X253282579Y-144765529D01*
X253125342Y-144384985D01*
X252834446Y-144093581D01*
X252454177Y-143935680D01*
X252042429Y-143935321D01*
X251661885Y-144092558D01*
X251370481Y-144383454D01*
X251212580Y-144763723D01*
X251212221Y-145175471D01*
X232485000Y-145175471D01*
X232485000Y-137872971D01*
X264204321Y-137872971D01*
X264361558Y-138253515D01*
X264652454Y-138544919D01*
X265032723Y-138702820D01*
X265444471Y-138703179D01*
X265739756Y-138581170D01*
X266032723Y-138702820D01*
X266444471Y-138703179D01*
X266739756Y-138581170D01*
X267032723Y-138702820D01*
X267444471Y-138703179D01*
X267825015Y-138545942D01*
X268116419Y-138255046D01*
X268274320Y-137874777D01*
X268274679Y-137463029D01*
X268117442Y-137082485D01*
X267826546Y-136791081D01*
X267446277Y-136633180D01*
X267034529Y-136632821D01*
X266739244Y-136754830D01*
X266446277Y-136633180D01*
X266034529Y-136632821D01*
X265739244Y-136754830D01*
X265446277Y-136633180D01*
X265034529Y-136632821D01*
X264653985Y-136790058D01*
X264362581Y-137080954D01*
X264204680Y-137461223D01*
X264204321Y-137872971D01*
X232485000Y-137872971D01*
X232485000Y-130414628D01*
X240089791Y-130414628D01*
X240273614Y-130859514D01*
X240613695Y-131200190D01*
X241058260Y-131384789D01*
X241539628Y-131385209D01*
X241984514Y-131201386D01*
X242325190Y-130861305D01*
X242509789Y-130416740D01*
X242510209Y-129935372D01*
X242326386Y-129490486D01*
X241986305Y-129149810D01*
X241541740Y-128965211D01*
X241060372Y-128964791D01*
X240615486Y-129148614D01*
X240274810Y-129488695D01*
X240090211Y-129933260D01*
X240089791Y-130414628D01*
X232485000Y-130414628D01*
X232485000Y-122794628D01*
X246439791Y-122794628D01*
X246623614Y-123239514D01*
X246963695Y-123580190D01*
X247408260Y-123764789D01*
X247889628Y-123765209D01*
X248334514Y-123581386D01*
X248497415Y-123418769D01*
X255470000Y-123418769D01*
X255470000Y-125501231D01*
X255593696Y-126123092D01*
X255945951Y-126650280D01*
X256473139Y-127002535D01*
X257095000Y-127126231D01*
X257716861Y-127002535D01*
X258244049Y-126650280D01*
X258596304Y-126123092D01*
X258720000Y-125501231D01*
X258720000Y-123418769D01*
X258596304Y-122796908D01*
X258244049Y-122269720D01*
X257716861Y-121917465D01*
X257095000Y-121793769D01*
X256473139Y-121917465D01*
X255945951Y-122269720D01*
X255593696Y-122796908D01*
X255470000Y-123418769D01*
X248497415Y-123418769D01*
X248675190Y-123241305D01*
X248859789Y-122796740D01*
X248860209Y-122315372D01*
X248676386Y-121870486D01*
X248336305Y-121529810D01*
X247891740Y-121345211D01*
X247410372Y-121344791D01*
X246965486Y-121528614D01*
X246624810Y-121868695D01*
X246440211Y-122313260D01*
X246439791Y-122794628D01*
X232485000Y-122794628D01*
X232485000Y-116915000D01*
X269165000Y-116915000D01*
X269165000Y-271705000D01*
M02*
