G04 #@! TF.FileFunction,Copper,L3,Inr,Plane*
%FSLAX46Y46*%
G04 Gerber Fmt 4.6, Leading zero omitted, Abs format (unit mm)*
G04 Created by KiCad (PCBNEW 4.0.1-stable) date 07-10-2017 22:38:10*
%MOMM*%
G01*
G04 APERTURE LIST*
%ADD10C,0.100000*%
%ADD11C,0.800000*%
%ADD12R,2.032000X1.727200*%
%ADD13O,2.032000X1.727200*%
%ADD14R,1.980000X3.960000*%
%ADD15O,1.980000X3.960000*%
%ADD16C,0.550000*%
%ADD17C,0.850000*%
%ADD18C,0.750000*%
%ADD19C,1.050000*%
%ADD20C,1.150000*%
%ADD21C,0.650000*%
%ADD22C,0.203200*%
%ADD23C,0.254000*%
G04 APERTURE END LIST*
D10*
D11*
X255524000Y-216748500D03*
X252247400Y-181748500D03*
X252247400Y-180848000D03*
X252247400Y-179984400D03*
X259715000Y-246097000D03*
X259715000Y-211097000D03*
X259715000Y-176097000D03*
X260604000Y-246097000D03*
X260604000Y-211097000D03*
X260604000Y-176097000D03*
X259715000Y-248129000D03*
X259715000Y-213129000D03*
X259715000Y-178129000D03*
X260604000Y-247113000D03*
X260604000Y-212113000D03*
X260604000Y-177113000D03*
X260604000Y-248129000D03*
X260604000Y-213129000D03*
X260604000Y-178129000D03*
X259715000Y-247113000D03*
X259715000Y-212113000D03*
X259715000Y-177113000D03*
X252247400Y-249970500D03*
X252247400Y-214970500D03*
X252247400Y-250859500D03*
X252247400Y-215859500D03*
X255524000Y-251748500D03*
X255524000Y-181748500D03*
X256222500Y-251304000D03*
X256222500Y-216304000D03*
X256222500Y-181304000D03*
X252247400Y-251748500D03*
X252247400Y-216748500D03*
X261003800Y-242655300D03*
X261003800Y-207655300D03*
X261003800Y-172655300D03*
X267239500Y-242668000D03*
X267239500Y-207668000D03*
X267239500Y-172668000D03*
X265239500Y-242668000D03*
X265239500Y-207668000D03*
X265239500Y-172668000D03*
X262003800Y-242655300D03*
X262003800Y-207655300D03*
X262003800Y-172655300D03*
X260003800Y-242655300D03*
X260003800Y-207655300D03*
X260003800Y-172655300D03*
X266239500Y-242668000D03*
X266239500Y-207668000D03*
X266239500Y-172668000D03*
X252968000Y-258368000D03*
X252968000Y-223368000D03*
X252968000Y-188368000D03*
X251968000Y-258368000D03*
X251968000Y-223368000D03*
X251968000Y-188368000D03*
X251968000Y-259368000D03*
X251968000Y-224368000D03*
X251968000Y-189368000D03*
X252968000Y-259368000D03*
X252968000Y-224368000D03*
X252968000Y-189368000D03*
X259715000Y-267102800D03*
X259715000Y-232102800D03*
X259715000Y-197102800D03*
X260604000Y-267102800D03*
X260604000Y-232102800D03*
X260604000Y-197102800D03*
X259715000Y-266086800D03*
X259715000Y-231086800D03*
X259715000Y-196086800D03*
X260604000Y-266086800D03*
X260604000Y-231086800D03*
X260604000Y-196086800D03*
X259715000Y-268118800D03*
X259715000Y-233118800D03*
X259715000Y-198118800D03*
X260604000Y-268118800D03*
X260604000Y-233118800D03*
X260604000Y-198118800D03*
X252247400Y-264004000D03*
X252247400Y-229004000D03*
X252247400Y-194004000D03*
X252247400Y-264893000D03*
X252247400Y-229893000D03*
X252247400Y-194893000D03*
X252247400Y-263115000D03*
X252247400Y-228115000D03*
X252247400Y-193115000D03*
X253968000Y-255368000D03*
X253968000Y-220368000D03*
X253968000Y-185368000D03*
X253968000Y-257368000D03*
X253968000Y-222368000D03*
X253968000Y-187368000D03*
X254968000Y-256368000D03*
X254968000Y-221368000D03*
X254968000Y-186368000D03*
X254968000Y-255368000D03*
X254968000Y-220368000D03*
X254968000Y-185368000D03*
X253968000Y-256368000D03*
X253968000Y-221368000D03*
X253968000Y-186368000D03*
X254968000Y-257368000D03*
X254968000Y-222368000D03*
X254968000Y-187368000D03*
X255968000Y-258368000D03*
X255968000Y-223368000D03*
X255968000Y-188368000D03*
X254968000Y-259368000D03*
X254968000Y-224368000D03*
X254968000Y-189368000D03*
X255968000Y-259368000D03*
X255968000Y-224368000D03*
X255968000Y-189368000D03*
X254968000Y-258368000D03*
X254968000Y-223368000D03*
X254968000Y-188368000D03*
X253968000Y-258368000D03*
X253968000Y-223368000D03*
X253968000Y-188368000D03*
X253968000Y-259368000D03*
X253968000Y-224368000D03*
X253968000Y-189368000D03*
X251968000Y-255368000D03*
X251968000Y-220368000D03*
X251968000Y-185368000D03*
X252968000Y-255368000D03*
X252968000Y-220368000D03*
X252968000Y-185368000D03*
X251968000Y-256368000D03*
X251968000Y-221368000D03*
X251968000Y-186368000D03*
X252968000Y-256368000D03*
X252968000Y-221368000D03*
X252968000Y-186368000D03*
X252968000Y-257368000D03*
X252968000Y-222368000D03*
X252968000Y-187368000D03*
X251968000Y-257368000D03*
X251968000Y-222368000D03*
X251968000Y-187368000D03*
X255968000Y-256368000D03*
X255968000Y-221368000D03*
X255968000Y-186368000D03*
X255968000Y-257368000D03*
X255968000Y-222368000D03*
X255968000Y-187368000D03*
X255968000Y-255368000D03*
X255968000Y-220368000D03*
X255968000Y-185368000D03*
X256159000Y-263242000D03*
X256159000Y-228242000D03*
X256159000Y-193242000D03*
X255270000Y-263242000D03*
X255270000Y-228242000D03*
X255270000Y-193242000D03*
D12*
X266192000Y-253590000D03*
D13*
X266192000Y-256130000D03*
X266192000Y-258670000D03*
X266192000Y-261210000D03*
D12*
X266192000Y-218590000D03*
D13*
X266192000Y-221130000D03*
X266192000Y-223670000D03*
X266192000Y-226210000D03*
D12*
X266192000Y-183590000D03*
D13*
X266192000Y-186130000D03*
X266192000Y-188670000D03*
X266192000Y-191210000D03*
D11*
X267239500Y-137668000D03*
X266239500Y-137668000D03*
X265239500Y-137668000D03*
X262003800Y-137655300D03*
X261003800Y-137655300D03*
X260003800Y-137655300D03*
X256222500Y-146304000D03*
X255524000Y-146748500D03*
X256159000Y-158242000D03*
X255270000Y-158242000D03*
X252247400Y-159004000D03*
X252247400Y-158115000D03*
X252247400Y-159893000D03*
X260604000Y-163118800D03*
X260604000Y-161086800D03*
X260604000Y-162102800D03*
X259715000Y-163118800D03*
X259715000Y-162102800D03*
X259715000Y-161086800D03*
X252247400Y-145859500D03*
X252247400Y-144970500D03*
X252247400Y-146748500D03*
X259715000Y-142113000D03*
X260604000Y-142113000D03*
X260604000Y-141097000D03*
X259715000Y-141097000D03*
X259715000Y-143129000D03*
X260604000Y-143129000D03*
X255968000Y-154368000D03*
X254968000Y-154368000D03*
X253968000Y-154368000D03*
X252968000Y-154368000D03*
X251968000Y-154368000D03*
X255968000Y-153368000D03*
X254968000Y-153368000D03*
X253968000Y-153368000D03*
X252968000Y-153368000D03*
X251968000Y-153368000D03*
X255968000Y-152368000D03*
X254968000Y-152368000D03*
X253968000Y-152368000D03*
X252968000Y-152368000D03*
X251968000Y-152368000D03*
X255968000Y-151368000D03*
X254968000Y-151368000D03*
X253968000Y-151368000D03*
X252968000Y-151368000D03*
X251968000Y-151368000D03*
X255968000Y-150368000D03*
X254968000Y-150368000D03*
X253968000Y-150368000D03*
X252968000Y-150368000D03*
X251968000Y-150368000D03*
D12*
X266192000Y-148590000D03*
D13*
X266192000Y-151130000D03*
X266192000Y-153670000D03*
X266192000Y-156210000D03*
D14*
X252095000Y-124460000D03*
D15*
X257095000Y-124460000D03*
D16*
X260921500Y-254923500D03*
X260921500Y-219923500D03*
X260921500Y-184923500D03*
X260921500Y-149923500D03*
D17*
X249301000Y-261210000D03*
X249301000Y-226210000D03*
X249301000Y-191210000D03*
D16*
X261429500Y-251621500D03*
X261429500Y-216621500D03*
X261429500Y-181621500D03*
D18*
X260858000Y-261083000D03*
X260858000Y-226083000D03*
X260858000Y-191083000D03*
D17*
X249301000Y-156210000D03*
D19*
X235331000Y-168402000D03*
D20*
X239350800Y-121158000D03*
D16*
X261429500Y-146621500D03*
D18*
X260858000Y-156083000D03*
D21*
X244983000Y-254098000D03*
X244983000Y-219098000D03*
X244983000Y-184098000D03*
D16*
X260124000Y-255650000D03*
X260124000Y-220650000D03*
X260124000Y-185650000D03*
D19*
X239268000Y-168402000D03*
D21*
X244983000Y-149098000D03*
D20*
X241300000Y-130175000D03*
D16*
X260124000Y-150650000D03*
X259461000Y-154178000D03*
X248348500Y-161226500D03*
D18*
X247015000Y-259715000D03*
X247015000Y-224790000D03*
X247015000Y-189738000D03*
D19*
X250571000Y-266417000D03*
X250571000Y-231417000D03*
X250571000Y-196417000D03*
X247015000Y-154813000D03*
X250571000Y-161417000D03*
D20*
X247650000Y-122555000D03*
D16*
X259461000Y-155067000D03*
X249047000Y-157480000D03*
X236579980Y-168529000D03*
X235966000Y-186309000D03*
X235966000Y-220980000D03*
X247904000Y-256257000D03*
X247904000Y-221257000D03*
X247904000Y-186257000D03*
X247904000Y-151257000D03*
X237744000Y-167894000D03*
X236601000Y-187071000D03*
X236601000Y-221996000D03*
X248285000Y-256892000D03*
X248285000Y-221892000D03*
X248285000Y-186892000D03*
X248285000Y-151892000D03*
X238125000Y-187579000D03*
X238125000Y-222504000D03*
X247904000Y-257527000D03*
X247904000Y-222527000D03*
X247904000Y-187527000D03*
X241427000Y-170815000D03*
X247904000Y-152527000D03*
X259461000Y-153289000D03*
X248412000Y-162052000D03*
X259461000Y-259969000D03*
X249047000Y-262480000D03*
X241427000Y-183388000D03*
X233553000Y-183515000D03*
X233553000Y-182372000D03*
X241681000Y-182499000D03*
X259461000Y-258191000D03*
X248412000Y-267052000D03*
X259461000Y-225171000D03*
X241935000Y-180467000D03*
X233553000Y-181102000D03*
X249047000Y-227480000D03*
X233553000Y-179705000D03*
X243586000Y-180213000D03*
X259588000Y-223139000D03*
X248412000Y-232052000D03*
X259461000Y-189992000D03*
X243205000Y-177927000D03*
X249047000Y-192480000D03*
X233553000Y-177165000D03*
X233680000Y-176022000D03*
X242316000Y-176530000D03*
X259588000Y-188087000D03*
X242316000Y-178562000D03*
X233553000Y-178562000D03*
X248412000Y-197052000D03*
X259461000Y-189103000D03*
X248348500Y-196226500D03*
X259461000Y-224155000D03*
X248348500Y-231226500D03*
X259461000Y-259080000D03*
X248348500Y-266226500D03*
D22*
X235966000Y-169142980D02*
X236304981Y-168803999D01*
X235966000Y-186817000D02*
X235966000Y-169142980D01*
X236304981Y-168803999D02*
X236579980Y-168529000D01*
X235966000Y-186817000D02*
X235966000Y-186309000D01*
X236601000Y-188341000D02*
X236601000Y-220853000D01*
X235966000Y-186817000D02*
X235966000Y-187706000D01*
X235966000Y-187706000D02*
X236601000Y-188341000D01*
X247904000Y-256257000D02*
X248764000Y-256257000D01*
X248764000Y-256257000D02*
X249047000Y-256540000D01*
X249047000Y-256540000D02*
X249047000Y-258191000D01*
X235966000Y-221742000D02*
X236601000Y-221107000D01*
X249047000Y-258191000D02*
X248539000Y-258699000D01*
X248539000Y-258699000D02*
X238633000Y-258699000D01*
X236601000Y-222885000D02*
X235966000Y-222250000D01*
X238633000Y-258699000D02*
X236601000Y-256667000D01*
X235966000Y-222250000D02*
X235966000Y-221742000D01*
X236601000Y-256667000D02*
X236601000Y-222885000D01*
X236601000Y-221107000D02*
X236474000Y-220980000D01*
X236474000Y-220980000D02*
X235966000Y-220980000D01*
X236601000Y-221107000D02*
X236601000Y-220853000D01*
X237109000Y-169545000D02*
X237744000Y-168910000D01*
X237744000Y-168910000D02*
X237744000Y-167894000D01*
X237109000Y-169672000D02*
X237109000Y-186817000D01*
X237109000Y-169672000D02*
X237109000Y-169545000D01*
X237109000Y-187071000D02*
X237109000Y-221996000D01*
X237109000Y-186817000D02*
X237109000Y-187071000D01*
X237109000Y-187071000D02*
X236601000Y-187071000D01*
X237109000Y-221996000D02*
X236601000Y-221996000D01*
X237109000Y-221996000D02*
X237109000Y-256625988D01*
X237109000Y-256625988D02*
X238801012Y-258318000D01*
X238801012Y-258318000D02*
X248285000Y-258318000D01*
X248285000Y-258318000D02*
X248559999Y-258043001D01*
X248559999Y-258043001D02*
X248559999Y-257166999D01*
X248559999Y-257166999D02*
X248285000Y-256892000D01*
X247494000Y-257937000D02*
X247904000Y-257527000D01*
X237617000Y-187452000D02*
X237617000Y-222504000D01*
X237617000Y-171323000D02*
X237617000Y-187452000D01*
X237617000Y-187452000D02*
X237998000Y-187452000D01*
X237998000Y-187452000D02*
X238125000Y-187579000D01*
X237617000Y-222504000D02*
X237617000Y-256540000D01*
X237617000Y-222504000D02*
X238125000Y-222504000D01*
X241427000Y-170815000D02*
X238125000Y-170815000D01*
X238125000Y-170815000D02*
X237617000Y-171323000D01*
X237617000Y-256540000D02*
X239014000Y-257937000D01*
X239014000Y-257937000D02*
X247494000Y-257937000D01*
D23*
G36*
X269165000Y-271705000D02*
X254762000Y-271705000D01*
X254762000Y-266291771D01*
X258679821Y-266291771D01*
X258805144Y-266595076D01*
X258680180Y-266896023D01*
X258679821Y-267307771D01*
X258805144Y-267611076D01*
X258680180Y-267912023D01*
X258679821Y-268323771D01*
X258837058Y-268704315D01*
X259127954Y-268995719D01*
X259508223Y-269153620D01*
X259919971Y-269153979D01*
X260159619Y-269054959D01*
X260397223Y-269153620D01*
X260808971Y-269153979D01*
X261189515Y-268996742D01*
X261480919Y-268705846D01*
X261638820Y-268325577D01*
X261639179Y-267913829D01*
X261513856Y-267610524D01*
X261638820Y-267309577D01*
X261639179Y-266897829D01*
X261513856Y-266594524D01*
X261638820Y-266293577D01*
X261639179Y-265881829D01*
X261481942Y-265501285D01*
X261191046Y-265209881D01*
X260810777Y-265051980D01*
X260399029Y-265051621D01*
X260159381Y-265150641D01*
X259921777Y-265051980D01*
X259510029Y-265051621D01*
X259129485Y-265208858D01*
X258838081Y-265499754D01*
X258680180Y-265880023D01*
X258679821Y-266291771D01*
X254762000Y-266291771D01*
X254762000Y-260402821D01*
X255172971Y-260403179D01*
X255468256Y-260281170D01*
X255761223Y-260402820D01*
X256172971Y-260403179D01*
X256553515Y-260245942D01*
X256844919Y-259955046D01*
X257002820Y-259574777D01*
X257003179Y-259163029D01*
X256881170Y-258867744D01*
X257002820Y-258574777D01*
X257002997Y-258371216D01*
X258550842Y-258371216D01*
X258660140Y-258635737D01*
X258551158Y-258898196D01*
X258550842Y-259260216D01*
X258660140Y-259524737D01*
X258551158Y-259787196D01*
X258550842Y-260149216D01*
X258689090Y-260483800D01*
X258944853Y-260740011D01*
X259279196Y-260878842D01*
X259641216Y-260879158D01*
X259892071Y-260775506D01*
X259848176Y-260881217D01*
X259847825Y-261283020D01*
X260001264Y-261654372D01*
X260285134Y-261938737D01*
X260656217Y-262092824D01*
X261058020Y-262093175D01*
X261429372Y-261939736D01*
X261713737Y-261655866D01*
X261867824Y-261284783D01*
X261868175Y-260882980D01*
X261714736Y-260511628D01*
X261430866Y-260227263D01*
X261059783Y-260073176D01*
X260657980Y-260072825D01*
X260350460Y-260199889D01*
X260370842Y-260150804D01*
X260371158Y-259788784D01*
X260261860Y-259524263D01*
X260370842Y-259261804D01*
X260371158Y-258899784D01*
X260261860Y-258635263D01*
X260370842Y-258372804D01*
X260371158Y-258010784D01*
X260232910Y-257676200D01*
X259977147Y-257419989D01*
X259642804Y-257281158D01*
X259280784Y-257280842D01*
X258946200Y-257419090D01*
X258689989Y-257674853D01*
X258551158Y-258009196D01*
X258550842Y-258371216D01*
X257002997Y-258371216D01*
X257003179Y-258163029D01*
X256881170Y-257867744D01*
X257002820Y-257574777D01*
X257003179Y-257163029D01*
X256881170Y-256867744D01*
X257002820Y-256574777D01*
X257003179Y-256163029D01*
X256881170Y-255867744D01*
X256896752Y-255830216D01*
X259213842Y-255830216D01*
X259352090Y-256164800D01*
X259607853Y-256421011D01*
X259942196Y-256559842D01*
X260304216Y-256560158D01*
X260638800Y-256421910D01*
X260895011Y-256166147D01*
X260910020Y-256130000D01*
X264508655Y-256130000D01*
X264622729Y-256703489D01*
X264947585Y-257189670D01*
X265262366Y-257400000D01*
X264947585Y-257610330D01*
X264622729Y-258096511D01*
X264508655Y-258670000D01*
X264622729Y-259243489D01*
X264947585Y-259729670D01*
X265262366Y-259940000D01*
X264947585Y-260150330D01*
X264622729Y-260636511D01*
X264508655Y-261210000D01*
X264622729Y-261783489D01*
X264947585Y-262269670D01*
X265433766Y-262594526D01*
X266007255Y-262708600D01*
X266376745Y-262708600D01*
X266950234Y-262594526D01*
X267436415Y-262269670D01*
X267761271Y-261783489D01*
X267875345Y-261210000D01*
X267761271Y-260636511D01*
X267436415Y-260150330D01*
X267121634Y-259940000D01*
X267436415Y-259729670D01*
X267761271Y-259243489D01*
X267875345Y-258670000D01*
X267761271Y-258096511D01*
X267436415Y-257610330D01*
X267121634Y-257400000D01*
X267436415Y-257189670D01*
X267761271Y-256703489D01*
X267875345Y-256130000D01*
X267761271Y-255556511D01*
X267436415Y-255070330D01*
X267422087Y-255060757D01*
X267443317Y-255056762D01*
X267659441Y-254917690D01*
X267804431Y-254705490D01*
X267855440Y-254453600D01*
X267855440Y-252726400D01*
X267811162Y-252491083D01*
X267672090Y-252274959D01*
X267459890Y-252129969D01*
X267208000Y-252078960D01*
X265176000Y-252078960D01*
X264940683Y-252123238D01*
X264724559Y-252262310D01*
X264579569Y-252474510D01*
X264528560Y-252726400D01*
X264528560Y-254453600D01*
X264572838Y-254688917D01*
X264711910Y-254905041D01*
X264924110Y-255050031D01*
X264965439Y-255058400D01*
X264947585Y-255070330D01*
X264622729Y-255556511D01*
X264508655Y-256130000D01*
X260910020Y-256130000D01*
X261033842Y-255831804D01*
X261034158Y-255469784D01*
X260895910Y-255135200D01*
X260640147Y-254878989D01*
X260305804Y-254740158D01*
X259943784Y-254739842D01*
X259609200Y-254878090D01*
X259352989Y-255133853D01*
X259214158Y-255468196D01*
X259213842Y-255830216D01*
X256896752Y-255830216D01*
X257002820Y-255574777D01*
X257003179Y-255163029D01*
X256845942Y-254782485D01*
X256555046Y-254491081D01*
X256174777Y-254333180D01*
X255763029Y-254332821D01*
X255467744Y-254454830D01*
X255174777Y-254333180D01*
X254763029Y-254332821D01*
X254762000Y-254333246D01*
X254762000Y-251801716D01*
X260519342Y-251801716D01*
X260657590Y-252136300D01*
X260913353Y-252392511D01*
X261247696Y-252531342D01*
X261609716Y-252531658D01*
X261944300Y-252393410D01*
X262200511Y-252137647D01*
X262339342Y-251803304D01*
X262339658Y-251441284D01*
X262201410Y-251106700D01*
X261945647Y-250850489D01*
X261611304Y-250711658D01*
X261249284Y-250711342D01*
X260914700Y-250849590D01*
X260658489Y-251105353D01*
X260519658Y-251439696D01*
X260519342Y-251801716D01*
X254762000Y-251801716D01*
X254762000Y-246301971D01*
X258679821Y-246301971D01*
X258805144Y-246605276D01*
X258680180Y-246906223D01*
X258679821Y-247317971D01*
X258805144Y-247621276D01*
X258680180Y-247922223D01*
X258679821Y-248333971D01*
X258837058Y-248714515D01*
X259127954Y-249005919D01*
X259508223Y-249163820D01*
X259919971Y-249164179D01*
X260159619Y-249065159D01*
X260397223Y-249163820D01*
X260808971Y-249164179D01*
X261189515Y-249006942D01*
X261480919Y-248716046D01*
X261638820Y-248335777D01*
X261639179Y-247924029D01*
X261513856Y-247620724D01*
X261638820Y-247319777D01*
X261639179Y-246908029D01*
X261513856Y-246604724D01*
X261638820Y-246303777D01*
X261639179Y-245892029D01*
X261481942Y-245511485D01*
X261191046Y-245220081D01*
X260810777Y-245062180D01*
X260399029Y-245061821D01*
X260159381Y-245160841D01*
X259921777Y-245062180D01*
X259510029Y-245061821D01*
X259129485Y-245219058D01*
X258838081Y-245509954D01*
X258680180Y-245890223D01*
X258679821Y-246301971D01*
X254762000Y-246301971D01*
X254762000Y-242860271D01*
X258968621Y-242860271D01*
X259125858Y-243240815D01*
X259416754Y-243532219D01*
X259797023Y-243690120D01*
X260208771Y-243690479D01*
X260504056Y-243568470D01*
X260797023Y-243690120D01*
X261208771Y-243690479D01*
X261504056Y-243568470D01*
X261797023Y-243690120D01*
X262208771Y-243690479D01*
X262589315Y-243533242D01*
X262880719Y-243242346D01*
X263038620Y-242862077D01*
X263038979Y-242450329D01*
X262881742Y-242069785D01*
X262590846Y-241778381D01*
X262210577Y-241620480D01*
X261798829Y-241620121D01*
X261503544Y-241742130D01*
X261210577Y-241620480D01*
X260798829Y-241620121D01*
X260503544Y-241742130D01*
X260210577Y-241620480D01*
X259798829Y-241620121D01*
X259418285Y-241777358D01*
X259126881Y-242068254D01*
X258968980Y-242448523D01*
X258968621Y-242860271D01*
X254762000Y-242860271D01*
X254762000Y-231291771D01*
X258679821Y-231291771D01*
X258805144Y-231595076D01*
X258680180Y-231896023D01*
X258679821Y-232307771D01*
X258805144Y-232611076D01*
X258680180Y-232912023D01*
X258679821Y-233323771D01*
X258837058Y-233704315D01*
X259127954Y-233995719D01*
X259508223Y-234153620D01*
X259919971Y-234153979D01*
X260159619Y-234054959D01*
X260397223Y-234153620D01*
X260808971Y-234153979D01*
X261189515Y-233996742D01*
X261480919Y-233705846D01*
X261638820Y-233325577D01*
X261639179Y-232913829D01*
X261513856Y-232610524D01*
X261638820Y-232309577D01*
X261639179Y-231897829D01*
X261513856Y-231594524D01*
X261638820Y-231293577D01*
X261639179Y-230881829D01*
X261481942Y-230501285D01*
X261191046Y-230209881D01*
X260810777Y-230051980D01*
X260399029Y-230051621D01*
X260159381Y-230150641D01*
X259921777Y-230051980D01*
X259510029Y-230051621D01*
X259129485Y-230208858D01*
X258838081Y-230499754D01*
X258680180Y-230880023D01*
X258679821Y-231291771D01*
X254762000Y-231291771D01*
X254762000Y-225402821D01*
X255172971Y-225403179D01*
X255468256Y-225281170D01*
X255761223Y-225402820D01*
X256172971Y-225403179D01*
X256553515Y-225245942D01*
X256844919Y-224955046D01*
X257002820Y-224574777D01*
X257003028Y-224335216D01*
X258550842Y-224335216D01*
X258686443Y-224663393D01*
X258551158Y-224989196D01*
X258550842Y-225351216D01*
X258689090Y-225685800D01*
X258944853Y-225942011D01*
X259279196Y-226080842D01*
X259641216Y-226081158D01*
X259848076Y-225995685D01*
X259847825Y-226283020D01*
X260001264Y-226654372D01*
X260285134Y-226938737D01*
X260656217Y-227092824D01*
X261058020Y-227093175D01*
X261429372Y-226939736D01*
X261713737Y-226655866D01*
X261867824Y-226284783D01*
X261868175Y-225882980D01*
X261714736Y-225511628D01*
X261430866Y-225227263D01*
X261059783Y-225073176D01*
X260657980Y-225072825D01*
X260370983Y-225191409D01*
X260371158Y-224990784D01*
X260235557Y-224662607D01*
X260370842Y-224336804D01*
X260371158Y-223974784D01*
X260274107Y-223739903D01*
X260359011Y-223655147D01*
X260497842Y-223320804D01*
X260498158Y-222958784D01*
X260359910Y-222624200D01*
X260104147Y-222367989D01*
X259769804Y-222229158D01*
X259407784Y-222228842D01*
X259073200Y-222367090D01*
X258816989Y-222622853D01*
X258678158Y-222957196D01*
X258677842Y-223319216D01*
X258774893Y-223554097D01*
X258689989Y-223638853D01*
X258551158Y-223973196D01*
X258550842Y-224335216D01*
X257003028Y-224335216D01*
X257003179Y-224163029D01*
X256881170Y-223867744D01*
X257002820Y-223574777D01*
X257003179Y-223163029D01*
X256881170Y-222867744D01*
X257002820Y-222574777D01*
X257003179Y-222163029D01*
X256881170Y-221867744D01*
X257002820Y-221574777D01*
X257003179Y-221163029D01*
X256881170Y-220867744D01*
X256896752Y-220830216D01*
X259213842Y-220830216D01*
X259352090Y-221164800D01*
X259607853Y-221421011D01*
X259942196Y-221559842D01*
X260304216Y-221560158D01*
X260638800Y-221421910D01*
X260895011Y-221166147D01*
X260910020Y-221130000D01*
X264508655Y-221130000D01*
X264622729Y-221703489D01*
X264947585Y-222189670D01*
X265262366Y-222400000D01*
X264947585Y-222610330D01*
X264622729Y-223096511D01*
X264508655Y-223670000D01*
X264622729Y-224243489D01*
X264947585Y-224729670D01*
X265262366Y-224940000D01*
X264947585Y-225150330D01*
X264622729Y-225636511D01*
X264508655Y-226210000D01*
X264622729Y-226783489D01*
X264947585Y-227269670D01*
X265433766Y-227594526D01*
X266007255Y-227708600D01*
X266376745Y-227708600D01*
X266950234Y-227594526D01*
X267436415Y-227269670D01*
X267761271Y-226783489D01*
X267875345Y-226210000D01*
X267761271Y-225636511D01*
X267436415Y-225150330D01*
X267121634Y-224940000D01*
X267436415Y-224729670D01*
X267761271Y-224243489D01*
X267875345Y-223670000D01*
X267761271Y-223096511D01*
X267436415Y-222610330D01*
X267121634Y-222400000D01*
X267436415Y-222189670D01*
X267761271Y-221703489D01*
X267875345Y-221130000D01*
X267761271Y-220556511D01*
X267436415Y-220070330D01*
X267422087Y-220060757D01*
X267443317Y-220056762D01*
X267659441Y-219917690D01*
X267804431Y-219705490D01*
X267855440Y-219453600D01*
X267855440Y-217726400D01*
X267811162Y-217491083D01*
X267672090Y-217274959D01*
X267459890Y-217129969D01*
X267208000Y-217078960D01*
X265176000Y-217078960D01*
X264940683Y-217123238D01*
X264724559Y-217262310D01*
X264579569Y-217474510D01*
X264528560Y-217726400D01*
X264528560Y-219453600D01*
X264572838Y-219688917D01*
X264711910Y-219905041D01*
X264924110Y-220050031D01*
X264965439Y-220058400D01*
X264947585Y-220070330D01*
X264622729Y-220556511D01*
X264508655Y-221130000D01*
X260910020Y-221130000D01*
X261033842Y-220831804D01*
X261034158Y-220469784D01*
X260895910Y-220135200D01*
X260640147Y-219878989D01*
X260305804Y-219740158D01*
X259943784Y-219739842D01*
X259609200Y-219878090D01*
X259352989Y-220133853D01*
X259214158Y-220468196D01*
X259213842Y-220830216D01*
X256896752Y-220830216D01*
X257002820Y-220574777D01*
X257003179Y-220163029D01*
X256845942Y-219782485D01*
X256555046Y-219491081D01*
X256174777Y-219333180D01*
X255763029Y-219332821D01*
X255467744Y-219454830D01*
X255174777Y-219333180D01*
X254763029Y-219332821D01*
X254762000Y-219333246D01*
X254762000Y-216801716D01*
X260519342Y-216801716D01*
X260657590Y-217136300D01*
X260913353Y-217392511D01*
X261247696Y-217531342D01*
X261609716Y-217531658D01*
X261944300Y-217393410D01*
X262200511Y-217137647D01*
X262339342Y-216803304D01*
X262339658Y-216441284D01*
X262201410Y-216106700D01*
X261945647Y-215850489D01*
X261611304Y-215711658D01*
X261249284Y-215711342D01*
X260914700Y-215849590D01*
X260658489Y-216105353D01*
X260519658Y-216439696D01*
X260519342Y-216801716D01*
X254762000Y-216801716D01*
X254762000Y-211301971D01*
X258679821Y-211301971D01*
X258805144Y-211605276D01*
X258680180Y-211906223D01*
X258679821Y-212317971D01*
X258805144Y-212621276D01*
X258680180Y-212922223D01*
X258679821Y-213333971D01*
X258837058Y-213714515D01*
X259127954Y-214005919D01*
X259508223Y-214163820D01*
X259919971Y-214164179D01*
X260159619Y-214065159D01*
X260397223Y-214163820D01*
X260808971Y-214164179D01*
X261189515Y-214006942D01*
X261480919Y-213716046D01*
X261638820Y-213335777D01*
X261639179Y-212924029D01*
X261513856Y-212620724D01*
X261638820Y-212319777D01*
X261639179Y-211908029D01*
X261513856Y-211604724D01*
X261638820Y-211303777D01*
X261639179Y-210892029D01*
X261481942Y-210511485D01*
X261191046Y-210220081D01*
X260810777Y-210062180D01*
X260399029Y-210061821D01*
X260159381Y-210160841D01*
X259921777Y-210062180D01*
X259510029Y-210061821D01*
X259129485Y-210219058D01*
X258838081Y-210509954D01*
X258680180Y-210890223D01*
X258679821Y-211301971D01*
X254762000Y-211301971D01*
X254762000Y-207860271D01*
X258968621Y-207860271D01*
X259125858Y-208240815D01*
X259416754Y-208532219D01*
X259797023Y-208690120D01*
X260208771Y-208690479D01*
X260504056Y-208568470D01*
X260797023Y-208690120D01*
X261208771Y-208690479D01*
X261504056Y-208568470D01*
X261797023Y-208690120D01*
X262208771Y-208690479D01*
X262589315Y-208533242D01*
X262880719Y-208242346D01*
X263038620Y-207862077D01*
X263038979Y-207450329D01*
X262881742Y-207069785D01*
X262590846Y-206778381D01*
X262210577Y-206620480D01*
X261798829Y-206620121D01*
X261503544Y-206742130D01*
X261210577Y-206620480D01*
X260798829Y-206620121D01*
X260503544Y-206742130D01*
X260210577Y-206620480D01*
X259798829Y-206620121D01*
X259418285Y-206777358D01*
X259126881Y-207068254D01*
X258968980Y-207448523D01*
X258968621Y-207860271D01*
X254762000Y-207860271D01*
X254762000Y-196291771D01*
X258679821Y-196291771D01*
X258805144Y-196595076D01*
X258680180Y-196896023D01*
X258679821Y-197307771D01*
X258805144Y-197611076D01*
X258680180Y-197912023D01*
X258679821Y-198323771D01*
X258837058Y-198704315D01*
X259127954Y-198995719D01*
X259508223Y-199153620D01*
X259919971Y-199153979D01*
X260159619Y-199054959D01*
X260397223Y-199153620D01*
X260808971Y-199153979D01*
X261189515Y-198996742D01*
X261480919Y-198705846D01*
X261638820Y-198325577D01*
X261639179Y-197913829D01*
X261513856Y-197610524D01*
X261638820Y-197309577D01*
X261639179Y-196897829D01*
X261513856Y-196594524D01*
X261638820Y-196293577D01*
X261639179Y-195881829D01*
X261481942Y-195501285D01*
X261191046Y-195209881D01*
X260810777Y-195051980D01*
X260399029Y-195051621D01*
X260159381Y-195150641D01*
X259921777Y-195051980D01*
X259510029Y-195051621D01*
X259129485Y-195208858D01*
X258838081Y-195499754D01*
X258680180Y-195880023D01*
X258679821Y-196291771D01*
X254762000Y-196291771D01*
X254762000Y-190402821D01*
X255172971Y-190403179D01*
X255468256Y-190281170D01*
X255761223Y-190402820D01*
X256172971Y-190403179D01*
X256553515Y-190245942D01*
X256844919Y-189955046D01*
X257002820Y-189574777D01*
X257003074Y-189283216D01*
X258550842Y-189283216D01*
X258660140Y-189547737D01*
X258551158Y-189810196D01*
X258550842Y-190172216D01*
X258689090Y-190506800D01*
X258944853Y-190763011D01*
X259279196Y-190901842D01*
X259641216Y-190902158D01*
X259880542Y-190803270D01*
X259848176Y-190881217D01*
X259847825Y-191283020D01*
X260001264Y-191654372D01*
X260285134Y-191938737D01*
X260656217Y-192092824D01*
X261058020Y-192093175D01*
X261429372Y-191939736D01*
X261713737Y-191655866D01*
X261867824Y-191284783D01*
X261868175Y-190882980D01*
X261714736Y-190511628D01*
X261430866Y-190227263D01*
X261059783Y-190073176D01*
X260657980Y-190072825D01*
X260361988Y-190195126D01*
X260370842Y-190173804D01*
X260371158Y-189811784D01*
X260261860Y-189547263D01*
X260370842Y-189284804D01*
X260371158Y-188922784D01*
X260274107Y-188687903D01*
X260359011Y-188603147D01*
X260497842Y-188268804D01*
X260498158Y-187906784D01*
X260359910Y-187572200D01*
X260104147Y-187315989D01*
X259769804Y-187177158D01*
X259407784Y-187176842D01*
X259073200Y-187315090D01*
X258816989Y-187570853D01*
X258678158Y-187905196D01*
X258677842Y-188267216D01*
X258774893Y-188502097D01*
X258689989Y-188586853D01*
X258551158Y-188921196D01*
X258550842Y-189283216D01*
X257003074Y-189283216D01*
X257003179Y-189163029D01*
X256881170Y-188867744D01*
X257002820Y-188574777D01*
X257003179Y-188163029D01*
X256881170Y-187867744D01*
X257002820Y-187574777D01*
X257003179Y-187163029D01*
X256881170Y-186867744D01*
X257002820Y-186574777D01*
X257003179Y-186163029D01*
X256881170Y-185867744D01*
X256896752Y-185830216D01*
X259213842Y-185830216D01*
X259352090Y-186164800D01*
X259607853Y-186421011D01*
X259942196Y-186559842D01*
X260304216Y-186560158D01*
X260638800Y-186421910D01*
X260895011Y-186166147D01*
X260910020Y-186130000D01*
X264508655Y-186130000D01*
X264622729Y-186703489D01*
X264947585Y-187189670D01*
X265262366Y-187400000D01*
X264947585Y-187610330D01*
X264622729Y-188096511D01*
X264508655Y-188670000D01*
X264622729Y-189243489D01*
X264947585Y-189729670D01*
X265262366Y-189940000D01*
X264947585Y-190150330D01*
X264622729Y-190636511D01*
X264508655Y-191210000D01*
X264622729Y-191783489D01*
X264947585Y-192269670D01*
X265433766Y-192594526D01*
X266007255Y-192708600D01*
X266376745Y-192708600D01*
X266950234Y-192594526D01*
X267436415Y-192269670D01*
X267761271Y-191783489D01*
X267875345Y-191210000D01*
X267761271Y-190636511D01*
X267436415Y-190150330D01*
X267121634Y-189940000D01*
X267436415Y-189729670D01*
X267761271Y-189243489D01*
X267875345Y-188670000D01*
X267761271Y-188096511D01*
X267436415Y-187610330D01*
X267121634Y-187400000D01*
X267436415Y-187189670D01*
X267761271Y-186703489D01*
X267875345Y-186130000D01*
X267761271Y-185556511D01*
X267436415Y-185070330D01*
X267422087Y-185060757D01*
X267443317Y-185056762D01*
X267659441Y-184917690D01*
X267804431Y-184705490D01*
X267855440Y-184453600D01*
X267855440Y-182726400D01*
X267811162Y-182491083D01*
X267672090Y-182274959D01*
X267459890Y-182129969D01*
X267208000Y-182078960D01*
X265176000Y-182078960D01*
X264940683Y-182123238D01*
X264724559Y-182262310D01*
X264579569Y-182474510D01*
X264528560Y-182726400D01*
X264528560Y-184453600D01*
X264572838Y-184688917D01*
X264711910Y-184905041D01*
X264924110Y-185050031D01*
X264965439Y-185058400D01*
X264947585Y-185070330D01*
X264622729Y-185556511D01*
X264508655Y-186130000D01*
X260910020Y-186130000D01*
X261033842Y-185831804D01*
X261034158Y-185469784D01*
X260895910Y-185135200D01*
X260640147Y-184878989D01*
X260305804Y-184740158D01*
X259943784Y-184739842D01*
X259609200Y-184878090D01*
X259352989Y-185133853D01*
X259214158Y-185468196D01*
X259213842Y-185830216D01*
X256896752Y-185830216D01*
X257002820Y-185574777D01*
X257003179Y-185163029D01*
X256845942Y-184782485D01*
X256555046Y-184491081D01*
X256174777Y-184333180D01*
X255763029Y-184332821D01*
X255467744Y-184454830D01*
X255174777Y-184333180D01*
X254763029Y-184332821D01*
X254762000Y-184333246D01*
X254762000Y-181801716D01*
X260519342Y-181801716D01*
X260657590Y-182136300D01*
X260913353Y-182392511D01*
X261247696Y-182531342D01*
X261609716Y-182531658D01*
X261944300Y-182393410D01*
X262200511Y-182137647D01*
X262339342Y-181803304D01*
X262339658Y-181441284D01*
X262201410Y-181106700D01*
X261945647Y-180850489D01*
X261611304Y-180711658D01*
X261249284Y-180711342D01*
X260914700Y-180849590D01*
X260658489Y-181105353D01*
X260519658Y-181439696D01*
X260519342Y-181801716D01*
X254762000Y-181801716D01*
X254762000Y-176301971D01*
X258679821Y-176301971D01*
X258805144Y-176605276D01*
X258680180Y-176906223D01*
X258679821Y-177317971D01*
X258805144Y-177621276D01*
X258680180Y-177922223D01*
X258679821Y-178333971D01*
X258837058Y-178714515D01*
X259127954Y-179005919D01*
X259508223Y-179163820D01*
X259919971Y-179164179D01*
X260159619Y-179065159D01*
X260397223Y-179163820D01*
X260808971Y-179164179D01*
X261189515Y-179006942D01*
X261480919Y-178716046D01*
X261638820Y-178335777D01*
X261639179Y-177924029D01*
X261513856Y-177620724D01*
X261638820Y-177319777D01*
X261639179Y-176908029D01*
X261513856Y-176604724D01*
X261638820Y-176303777D01*
X261639179Y-175892029D01*
X261481942Y-175511485D01*
X261191046Y-175220081D01*
X260810777Y-175062180D01*
X260399029Y-175061821D01*
X260159381Y-175160841D01*
X259921777Y-175062180D01*
X259510029Y-175061821D01*
X259129485Y-175219058D01*
X258838081Y-175509954D01*
X258680180Y-175890223D01*
X258679821Y-176301971D01*
X254762000Y-176301971D01*
X254762000Y-172860271D01*
X258968621Y-172860271D01*
X259125858Y-173240815D01*
X259416754Y-173532219D01*
X259797023Y-173690120D01*
X260208771Y-173690479D01*
X260504056Y-173568470D01*
X260797023Y-173690120D01*
X261208771Y-173690479D01*
X261504056Y-173568470D01*
X261797023Y-173690120D01*
X262208771Y-173690479D01*
X262589315Y-173533242D01*
X262880719Y-173242346D01*
X263038620Y-172862077D01*
X263038979Y-172450329D01*
X262881742Y-172069785D01*
X262590846Y-171778381D01*
X262210577Y-171620480D01*
X261798829Y-171620121D01*
X261503544Y-171742130D01*
X261210577Y-171620480D01*
X260798829Y-171620121D01*
X260503544Y-171742130D01*
X260210577Y-171620480D01*
X259798829Y-171620121D01*
X259418285Y-171777358D01*
X259126881Y-172068254D01*
X258968980Y-172448523D01*
X258968621Y-172860271D01*
X254762000Y-172860271D01*
X254762000Y-161291771D01*
X258679821Y-161291771D01*
X258805144Y-161595076D01*
X258680180Y-161896023D01*
X258679821Y-162307771D01*
X258805144Y-162611076D01*
X258680180Y-162912023D01*
X258679821Y-163323771D01*
X258837058Y-163704315D01*
X259127954Y-163995719D01*
X259508223Y-164153620D01*
X259919971Y-164153979D01*
X260159619Y-164054959D01*
X260397223Y-164153620D01*
X260808971Y-164153979D01*
X261189515Y-163996742D01*
X261480919Y-163705846D01*
X261638820Y-163325577D01*
X261639179Y-162913829D01*
X261513856Y-162610524D01*
X261638820Y-162309577D01*
X261639179Y-161897829D01*
X261513856Y-161594524D01*
X261638820Y-161293577D01*
X261639179Y-160881829D01*
X261481942Y-160501285D01*
X261191046Y-160209881D01*
X260810777Y-160051980D01*
X260399029Y-160051621D01*
X260159381Y-160150641D01*
X259921777Y-160051980D01*
X259510029Y-160051621D01*
X259129485Y-160208858D01*
X258838081Y-160499754D01*
X258680180Y-160880023D01*
X258679821Y-161291771D01*
X254762000Y-161291771D01*
X254762000Y-155402821D01*
X255172971Y-155403179D01*
X255468256Y-155281170D01*
X255761223Y-155402820D01*
X256172971Y-155403179D01*
X256553515Y-155245942D01*
X256844919Y-154955046D01*
X257002820Y-154574777D01*
X257003179Y-154163029D01*
X256881170Y-153867744D01*
X257002820Y-153574777D01*
X257002912Y-153469216D01*
X258550842Y-153469216D01*
X258660140Y-153733737D01*
X258551158Y-153996196D01*
X258550842Y-154358216D01*
X258660140Y-154622737D01*
X258551158Y-154885196D01*
X258550842Y-155247216D01*
X258689090Y-155581800D01*
X258944853Y-155838011D01*
X259279196Y-155976842D01*
X259641216Y-155977158D01*
X259848167Y-155891647D01*
X259847825Y-156283020D01*
X260001264Y-156654372D01*
X260285134Y-156938737D01*
X260656217Y-157092824D01*
X261058020Y-157093175D01*
X261429372Y-156939736D01*
X261713737Y-156655866D01*
X261867824Y-156284783D01*
X261868175Y-155882980D01*
X261714736Y-155511628D01*
X261430866Y-155227263D01*
X261059783Y-155073176D01*
X260657980Y-155072825D01*
X260370892Y-155191447D01*
X260371158Y-154886784D01*
X260261860Y-154622263D01*
X260370842Y-154359804D01*
X260371158Y-153997784D01*
X260261860Y-153733263D01*
X260370842Y-153470804D01*
X260371158Y-153108784D01*
X260232910Y-152774200D01*
X259977147Y-152517989D01*
X259642804Y-152379158D01*
X259280784Y-152378842D01*
X258946200Y-152517090D01*
X258689989Y-152772853D01*
X258551158Y-153107196D01*
X258550842Y-153469216D01*
X257002912Y-153469216D01*
X257003179Y-153163029D01*
X256881170Y-152867744D01*
X257002820Y-152574777D01*
X257003179Y-152163029D01*
X256881170Y-151867744D01*
X257002820Y-151574777D01*
X257003179Y-151163029D01*
X256881170Y-150867744D01*
X256896752Y-150830216D01*
X259213842Y-150830216D01*
X259352090Y-151164800D01*
X259607853Y-151421011D01*
X259942196Y-151559842D01*
X260304216Y-151560158D01*
X260638800Y-151421910D01*
X260895011Y-151166147D01*
X260910020Y-151130000D01*
X264508655Y-151130000D01*
X264622729Y-151703489D01*
X264947585Y-152189670D01*
X265262366Y-152400000D01*
X264947585Y-152610330D01*
X264622729Y-153096511D01*
X264508655Y-153670000D01*
X264622729Y-154243489D01*
X264947585Y-154729670D01*
X265262366Y-154940000D01*
X264947585Y-155150330D01*
X264622729Y-155636511D01*
X264508655Y-156210000D01*
X264622729Y-156783489D01*
X264947585Y-157269670D01*
X265433766Y-157594526D01*
X266007255Y-157708600D01*
X266376745Y-157708600D01*
X266950234Y-157594526D01*
X267436415Y-157269670D01*
X267761271Y-156783489D01*
X267875345Y-156210000D01*
X267761271Y-155636511D01*
X267436415Y-155150330D01*
X267121634Y-154940000D01*
X267436415Y-154729670D01*
X267761271Y-154243489D01*
X267875345Y-153670000D01*
X267761271Y-153096511D01*
X267436415Y-152610330D01*
X267121634Y-152400000D01*
X267436415Y-152189670D01*
X267761271Y-151703489D01*
X267875345Y-151130000D01*
X267761271Y-150556511D01*
X267436415Y-150070330D01*
X267422087Y-150060757D01*
X267443317Y-150056762D01*
X267659441Y-149917690D01*
X267804431Y-149705490D01*
X267855440Y-149453600D01*
X267855440Y-147726400D01*
X267811162Y-147491083D01*
X267672090Y-147274959D01*
X267459890Y-147129969D01*
X267208000Y-147078960D01*
X265176000Y-147078960D01*
X264940683Y-147123238D01*
X264724559Y-147262310D01*
X264579569Y-147474510D01*
X264528560Y-147726400D01*
X264528560Y-149453600D01*
X264572838Y-149688917D01*
X264711910Y-149905041D01*
X264924110Y-150050031D01*
X264965439Y-150058400D01*
X264947585Y-150070330D01*
X264622729Y-150556511D01*
X264508655Y-151130000D01*
X260910020Y-151130000D01*
X261033842Y-150831804D01*
X261034158Y-150469784D01*
X260895910Y-150135200D01*
X260640147Y-149878989D01*
X260305804Y-149740158D01*
X259943784Y-149739842D01*
X259609200Y-149878090D01*
X259352989Y-150133853D01*
X259214158Y-150468196D01*
X259213842Y-150830216D01*
X256896752Y-150830216D01*
X257002820Y-150574777D01*
X257003179Y-150163029D01*
X256845942Y-149782485D01*
X256555046Y-149491081D01*
X256174777Y-149333180D01*
X255763029Y-149332821D01*
X255467744Y-149454830D01*
X255174777Y-149333180D01*
X254763029Y-149332821D01*
X254762000Y-149333246D01*
X254762000Y-146801716D01*
X260519342Y-146801716D01*
X260657590Y-147136300D01*
X260913353Y-147392511D01*
X261247696Y-147531342D01*
X261609716Y-147531658D01*
X261944300Y-147393410D01*
X262200511Y-147137647D01*
X262339342Y-146803304D01*
X262339658Y-146441284D01*
X262201410Y-146106700D01*
X261945647Y-145850489D01*
X261611304Y-145711658D01*
X261249284Y-145711342D01*
X260914700Y-145849590D01*
X260658489Y-146105353D01*
X260519658Y-146439696D01*
X260519342Y-146801716D01*
X254762000Y-146801716D01*
X254762000Y-141301971D01*
X258679821Y-141301971D01*
X258805144Y-141605276D01*
X258680180Y-141906223D01*
X258679821Y-142317971D01*
X258805144Y-142621276D01*
X258680180Y-142922223D01*
X258679821Y-143333971D01*
X258837058Y-143714515D01*
X259127954Y-144005919D01*
X259508223Y-144163820D01*
X259919971Y-144164179D01*
X260159619Y-144065159D01*
X260397223Y-144163820D01*
X260808971Y-144164179D01*
X261189515Y-144006942D01*
X261480919Y-143716046D01*
X261638820Y-143335777D01*
X261639179Y-142924029D01*
X261513856Y-142620724D01*
X261638820Y-142319777D01*
X261639179Y-141908029D01*
X261513856Y-141604724D01*
X261638820Y-141303777D01*
X261639179Y-140892029D01*
X261481942Y-140511485D01*
X261191046Y-140220081D01*
X260810777Y-140062180D01*
X260399029Y-140061821D01*
X260159381Y-140160841D01*
X259921777Y-140062180D01*
X259510029Y-140061821D01*
X259129485Y-140219058D01*
X258838081Y-140509954D01*
X258680180Y-140890223D01*
X258679821Y-141301971D01*
X254762000Y-141301971D01*
X254762000Y-137860271D01*
X258968621Y-137860271D01*
X259125858Y-138240815D01*
X259416754Y-138532219D01*
X259797023Y-138690120D01*
X260208771Y-138690479D01*
X260504056Y-138568470D01*
X260797023Y-138690120D01*
X261208771Y-138690479D01*
X261504056Y-138568470D01*
X261797023Y-138690120D01*
X262208771Y-138690479D01*
X262589315Y-138533242D01*
X262880719Y-138242346D01*
X263038620Y-137862077D01*
X263038979Y-137450329D01*
X262881742Y-137069785D01*
X262590846Y-136778381D01*
X262210577Y-136620480D01*
X261798829Y-136620121D01*
X261503544Y-136742130D01*
X261210577Y-136620480D01*
X260798829Y-136620121D01*
X260503544Y-136742130D01*
X260210577Y-136620480D01*
X259798829Y-136620121D01*
X259418285Y-136777358D01*
X259126881Y-137068254D01*
X258968980Y-137448523D01*
X258968621Y-137860271D01*
X254762000Y-137860271D01*
X254762000Y-116915000D01*
X269165000Y-116915000D01*
X269165000Y-271705000D01*
X269165000Y-271705000D01*
G37*
X269165000Y-271705000D02*
X254762000Y-271705000D01*
X254762000Y-266291771D01*
X258679821Y-266291771D01*
X258805144Y-266595076D01*
X258680180Y-266896023D01*
X258679821Y-267307771D01*
X258805144Y-267611076D01*
X258680180Y-267912023D01*
X258679821Y-268323771D01*
X258837058Y-268704315D01*
X259127954Y-268995719D01*
X259508223Y-269153620D01*
X259919971Y-269153979D01*
X260159619Y-269054959D01*
X260397223Y-269153620D01*
X260808971Y-269153979D01*
X261189515Y-268996742D01*
X261480919Y-268705846D01*
X261638820Y-268325577D01*
X261639179Y-267913829D01*
X261513856Y-267610524D01*
X261638820Y-267309577D01*
X261639179Y-266897829D01*
X261513856Y-266594524D01*
X261638820Y-266293577D01*
X261639179Y-265881829D01*
X261481942Y-265501285D01*
X261191046Y-265209881D01*
X260810777Y-265051980D01*
X260399029Y-265051621D01*
X260159381Y-265150641D01*
X259921777Y-265051980D01*
X259510029Y-265051621D01*
X259129485Y-265208858D01*
X258838081Y-265499754D01*
X258680180Y-265880023D01*
X258679821Y-266291771D01*
X254762000Y-266291771D01*
X254762000Y-260402821D01*
X255172971Y-260403179D01*
X255468256Y-260281170D01*
X255761223Y-260402820D01*
X256172971Y-260403179D01*
X256553515Y-260245942D01*
X256844919Y-259955046D01*
X257002820Y-259574777D01*
X257003179Y-259163029D01*
X256881170Y-258867744D01*
X257002820Y-258574777D01*
X257002997Y-258371216D01*
X258550842Y-258371216D01*
X258660140Y-258635737D01*
X258551158Y-258898196D01*
X258550842Y-259260216D01*
X258660140Y-259524737D01*
X258551158Y-259787196D01*
X258550842Y-260149216D01*
X258689090Y-260483800D01*
X258944853Y-260740011D01*
X259279196Y-260878842D01*
X259641216Y-260879158D01*
X259892071Y-260775506D01*
X259848176Y-260881217D01*
X259847825Y-261283020D01*
X260001264Y-261654372D01*
X260285134Y-261938737D01*
X260656217Y-262092824D01*
X261058020Y-262093175D01*
X261429372Y-261939736D01*
X261713737Y-261655866D01*
X261867824Y-261284783D01*
X261868175Y-260882980D01*
X261714736Y-260511628D01*
X261430866Y-260227263D01*
X261059783Y-260073176D01*
X260657980Y-260072825D01*
X260350460Y-260199889D01*
X260370842Y-260150804D01*
X260371158Y-259788784D01*
X260261860Y-259524263D01*
X260370842Y-259261804D01*
X260371158Y-258899784D01*
X260261860Y-258635263D01*
X260370842Y-258372804D01*
X260371158Y-258010784D01*
X260232910Y-257676200D01*
X259977147Y-257419989D01*
X259642804Y-257281158D01*
X259280784Y-257280842D01*
X258946200Y-257419090D01*
X258689989Y-257674853D01*
X258551158Y-258009196D01*
X258550842Y-258371216D01*
X257002997Y-258371216D01*
X257003179Y-258163029D01*
X256881170Y-257867744D01*
X257002820Y-257574777D01*
X257003179Y-257163029D01*
X256881170Y-256867744D01*
X257002820Y-256574777D01*
X257003179Y-256163029D01*
X256881170Y-255867744D01*
X256896752Y-255830216D01*
X259213842Y-255830216D01*
X259352090Y-256164800D01*
X259607853Y-256421011D01*
X259942196Y-256559842D01*
X260304216Y-256560158D01*
X260638800Y-256421910D01*
X260895011Y-256166147D01*
X260910020Y-256130000D01*
X264508655Y-256130000D01*
X264622729Y-256703489D01*
X264947585Y-257189670D01*
X265262366Y-257400000D01*
X264947585Y-257610330D01*
X264622729Y-258096511D01*
X264508655Y-258670000D01*
X264622729Y-259243489D01*
X264947585Y-259729670D01*
X265262366Y-259940000D01*
X264947585Y-260150330D01*
X264622729Y-260636511D01*
X264508655Y-261210000D01*
X264622729Y-261783489D01*
X264947585Y-262269670D01*
X265433766Y-262594526D01*
X266007255Y-262708600D01*
X266376745Y-262708600D01*
X266950234Y-262594526D01*
X267436415Y-262269670D01*
X267761271Y-261783489D01*
X267875345Y-261210000D01*
X267761271Y-260636511D01*
X267436415Y-260150330D01*
X267121634Y-259940000D01*
X267436415Y-259729670D01*
X267761271Y-259243489D01*
X267875345Y-258670000D01*
X267761271Y-258096511D01*
X267436415Y-257610330D01*
X267121634Y-257400000D01*
X267436415Y-257189670D01*
X267761271Y-256703489D01*
X267875345Y-256130000D01*
X267761271Y-255556511D01*
X267436415Y-255070330D01*
X267422087Y-255060757D01*
X267443317Y-255056762D01*
X267659441Y-254917690D01*
X267804431Y-254705490D01*
X267855440Y-254453600D01*
X267855440Y-252726400D01*
X267811162Y-252491083D01*
X267672090Y-252274959D01*
X267459890Y-252129969D01*
X267208000Y-252078960D01*
X265176000Y-252078960D01*
X264940683Y-252123238D01*
X264724559Y-252262310D01*
X264579569Y-252474510D01*
X264528560Y-252726400D01*
X264528560Y-254453600D01*
X264572838Y-254688917D01*
X264711910Y-254905041D01*
X264924110Y-255050031D01*
X264965439Y-255058400D01*
X264947585Y-255070330D01*
X264622729Y-255556511D01*
X264508655Y-256130000D01*
X260910020Y-256130000D01*
X261033842Y-255831804D01*
X261034158Y-255469784D01*
X260895910Y-255135200D01*
X260640147Y-254878989D01*
X260305804Y-254740158D01*
X259943784Y-254739842D01*
X259609200Y-254878090D01*
X259352989Y-255133853D01*
X259214158Y-255468196D01*
X259213842Y-255830216D01*
X256896752Y-255830216D01*
X257002820Y-255574777D01*
X257003179Y-255163029D01*
X256845942Y-254782485D01*
X256555046Y-254491081D01*
X256174777Y-254333180D01*
X255763029Y-254332821D01*
X255467744Y-254454830D01*
X255174777Y-254333180D01*
X254763029Y-254332821D01*
X254762000Y-254333246D01*
X254762000Y-251801716D01*
X260519342Y-251801716D01*
X260657590Y-252136300D01*
X260913353Y-252392511D01*
X261247696Y-252531342D01*
X261609716Y-252531658D01*
X261944300Y-252393410D01*
X262200511Y-252137647D01*
X262339342Y-251803304D01*
X262339658Y-251441284D01*
X262201410Y-251106700D01*
X261945647Y-250850489D01*
X261611304Y-250711658D01*
X261249284Y-250711342D01*
X260914700Y-250849590D01*
X260658489Y-251105353D01*
X260519658Y-251439696D01*
X260519342Y-251801716D01*
X254762000Y-251801716D01*
X254762000Y-246301971D01*
X258679821Y-246301971D01*
X258805144Y-246605276D01*
X258680180Y-246906223D01*
X258679821Y-247317971D01*
X258805144Y-247621276D01*
X258680180Y-247922223D01*
X258679821Y-248333971D01*
X258837058Y-248714515D01*
X259127954Y-249005919D01*
X259508223Y-249163820D01*
X259919971Y-249164179D01*
X260159619Y-249065159D01*
X260397223Y-249163820D01*
X260808971Y-249164179D01*
X261189515Y-249006942D01*
X261480919Y-248716046D01*
X261638820Y-248335777D01*
X261639179Y-247924029D01*
X261513856Y-247620724D01*
X261638820Y-247319777D01*
X261639179Y-246908029D01*
X261513856Y-246604724D01*
X261638820Y-246303777D01*
X261639179Y-245892029D01*
X261481942Y-245511485D01*
X261191046Y-245220081D01*
X260810777Y-245062180D01*
X260399029Y-245061821D01*
X260159381Y-245160841D01*
X259921777Y-245062180D01*
X259510029Y-245061821D01*
X259129485Y-245219058D01*
X258838081Y-245509954D01*
X258680180Y-245890223D01*
X258679821Y-246301971D01*
X254762000Y-246301971D01*
X254762000Y-242860271D01*
X258968621Y-242860271D01*
X259125858Y-243240815D01*
X259416754Y-243532219D01*
X259797023Y-243690120D01*
X260208771Y-243690479D01*
X260504056Y-243568470D01*
X260797023Y-243690120D01*
X261208771Y-243690479D01*
X261504056Y-243568470D01*
X261797023Y-243690120D01*
X262208771Y-243690479D01*
X262589315Y-243533242D01*
X262880719Y-243242346D01*
X263038620Y-242862077D01*
X263038979Y-242450329D01*
X262881742Y-242069785D01*
X262590846Y-241778381D01*
X262210577Y-241620480D01*
X261798829Y-241620121D01*
X261503544Y-241742130D01*
X261210577Y-241620480D01*
X260798829Y-241620121D01*
X260503544Y-241742130D01*
X260210577Y-241620480D01*
X259798829Y-241620121D01*
X259418285Y-241777358D01*
X259126881Y-242068254D01*
X258968980Y-242448523D01*
X258968621Y-242860271D01*
X254762000Y-242860271D01*
X254762000Y-231291771D01*
X258679821Y-231291771D01*
X258805144Y-231595076D01*
X258680180Y-231896023D01*
X258679821Y-232307771D01*
X258805144Y-232611076D01*
X258680180Y-232912023D01*
X258679821Y-233323771D01*
X258837058Y-233704315D01*
X259127954Y-233995719D01*
X259508223Y-234153620D01*
X259919971Y-234153979D01*
X260159619Y-234054959D01*
X260397223Y-234153620D01*
X260808971Y-234153979D01*
X261189515Y-233996742D01*
X261480919Y-233705846D01*
X261638820Y-233325577D01*
X261639179Y-232913829D01*
X261513856Y-232610524D01*
X261638820Y-232309577D01*
X261639179Y-231897829D01*
X261513856Y-231594524D01*
X261638820Y-231293577D01*
X261639179Y-230881829D01*
X261481942Y-230501285D01*
X261191046Y-230209881D01*
X260810777Y-230051980D01*
X260399029Y-230051621D01*
X260159381Y-230150641D01*
X259921777Y-230051980D01*
X259510029Y-230051621D01*
X259129485Y-230208858D01*
X258838081Y-230499754D01*
X258680180Y-230880023D01*
X258679821Y-231291771D01*
X254762000Y-231291771D01*
X254762000Y-225402821D01*
X255172971Y-225403179D01*
X255468256Y-225281170D01*
X255761223Y-225402820D01*
X256172971Y-225403179D01*
X256553515Y-225245942D01*
X256844919Y-224955046D01*
X257002820Y-224574777D01*
X257003028Y-224335216D01*
X258550842Y-224335216D01*
X258686443Y-224663393D01*
X258551158Y-224989196D01*
X258550842Y-225351216D01*
X258689090Y-225685800D01*
X258944853Y-225942011D01*
X259279196Y-226080842D01*
X259641216Y-226081158D01*
X259848076Y-225995685D01*
X259847825Y-226283020D01*
X260001264Y-226654372D01*
X260285134Y-226938737D01*
X260656217Y-227092824D01*
X261058020Y-227093175D01*
X261429372Y-226939736D01*
X261713737Y-226655866D01*
X261867824Y-226284783D01*
X261868175Y-225882980D01*
X261714736Y-225511628D01*
X261430866Y-225227263D01*
X261059783Y-225073176D01*
X260657980Y-225072825D01*
X260370983Y-225191409D01*
X260371158Y-224990784D01*
X260235557Y-224662607D01*
X260370842Y-224336804D01*
X260371158Y-223974784D01*
X260274107Y-223739903D01*
X260359011Y-223655147D01*
X260497842Y-223320804D01*
X260498158Y-222958784D01*
X260359910Y-222624200D01*
X260104147Y-222367989D01*
X259769804Y-222229158D01*
X259407784Y-222228842D01*
X259073200Y-222367090D01*
X258816989Y-222622853D01*
X258678158Y-222957196D01*
X258677842Y-223319216D01*
X258774893Y-223554097D01*
X258689989Y-223638853D01*
X258551158Y-223973196D01*
X258550842Y-224335216D01*
X257003028Y-224335216D01*
X257003179Y-224163029D01*
X256881170Y-223867744D01*
X257002820Y-223574777D01*
X257003179Y-223163029D01*
X256881170Y-222867744D01*
X257002820Y-222574777D01*
X257003179Y-222163029D01*
X256881170Y-221867744D01*
X257002820Y-221574777D01*
X257003179Y-221163029D01*
X256881170Y-220867744D01*
X256896752Y-220830216D01*
X259213842Y-220830216D01*
X259352090Y-221164800D01*
X259607853Y-221421011D01*
X259942196Y-221559842D01*
X260304216Y-221560158D01*
X260638800Y-221421910D01*
X260895011Y-221166147D01*
X260910020Y-221130000D01*
X264508655Y-221130000D01*
X264622729Y-221703489D01*
X264947585Y-222189670D01*
X265262366Y-222400000D01*
X264947585Y-222610330D01*
X264622729Y-223096511D01*
X264508655Y-223670000D01*
X264622729Y-224243489D01*
X264947585Y-224729670D01*
X265262366Y-224940000D01*
X264947585Y-225150330D01*
X264622729Y-225636511D01*
X264508655Y-226210000D01*
X264622729Y-226783489D01*
X264947585Y-227269670D01*
X265433766Y-227594526D01*
X266007255Y-227708600D01*
X266376745Y-227708600D01*
X266950234Y-227594526D01*
X267436415Y-227269670D01*
X267761271Y-226783489D01*
X267875345Y-226210000D01*
X267761271Y-225636511D01*
X267436415Y-225150330D01*
X267121634Y-224940000D01*
X267436415Y-224729670D01*
X267761271Y-224243489D01*
X267875345Y-223670000D01*
X267761271Y-223096511D01*
X267436415Y-222610330D01*
X267121634Y-222400000D01*
X267436415Y-222189670D01*
X267761271Y-221703489D01*
X267875345Y-221130000D01*
X267761271Y-220556511D01*
X267436415Y-220070330D01*
X267422087Y-220060757D01*
X267443317Y-220056762D01*
X267659441Y-219917690D01*
X267804431Y-219705490D01*
X267855440Y-219453600D01*
X267855440Y-217726400D01*
X267811162Y-217491083D01*
X267672090Y-217274959D01*
X267459890Y-217129969D01*
X267208000Y-217078960D01*
X265176000Y-217078960D01*
X264940683Y-217123238D01*
X264724559Y-217262310D01*
X264579569Y-217474510D01*
X264528560Y-217726400D01*
X264528560Y-219453600D01*
X264572838Y-219688917D01*
X264711910Y-219905041D01*
X264924110Y-220050031D01*
X264965439Y-220058400D01*
X264947585Y-220070330D01*
X264622729Y-220556511D01*
X264508655Y-221130000D01*
X260910020Y-221130000D01*
X261033842Y-220831804D01*
X261034158Y-220469784D01*
X260895910Y-220135200D01*
X260640147Y-219878989D01*
X260305804Y-219740158D01*
X259943784Y-219739842D01*
X259609200Y-219878090D01*
X259352989Y-220133853D01*
X259214158Y-220468196D01*
X259213842Y-220830216D01*
X256896752Y-220830216D01*
X257002820Y-220574777D01*
X257003179Y-220163029D01*
X256845942Y-219782485D01*
X256555046Y-219491081D01*
X256174777Y-219333180D01*
X255763029Y-219332821D01*
X255467744Y-219454830D01*
X255174777Y-219333180D01*
X254763029Y-219332821D01*
X254762000Y-219333246D01*
X254762000Y-216801716D01*
X260519342Y-216801716D01*
X260657590Y-217136300D01*
X260913353Y-217392511D01*
X261247696Y-217531342D01*
X261609716Y-217531658D01*
X261944300Y-217393410D01*
X262200511Y-217137647D01*
X262339342Y-216803304D01*
X262339658Y-216441284D01*
X262201410Y-216106700D01*
X261945647Y-215850489D01*
X261611304Y-215711658D01*
X261249284Y-215711342D01*
X260914700Y-215849590D01*
X260658489Y-216105353D01*
X260519658Y-216439696D01*
X260519342Y-216801716D01*
X254762000Y-216801716D01*
X254762000Y-211301971D01*
X258679821Y-211301971D01*
X258805144Y-211605276D01*
X258680180Y-211906223D01*
X258679821Y-212317971D01*
X258805144Y-212621276D01*
X258680180Y-212922223D01*
X258679821Y-213333971D01*
X258837058Y-213714515D01*
X259127954Y-214005919D01*
X259508223Y-214163820D01*
X259919971Y-214164179D01*
X260159619Y-214065159D01*
X260397223Y-214163820D01*
X260808971Y-214164179D01*
X261189515Y-214006942D01*
X261480919Y-213716046D01*
X261638820Y-213335777D01*
X261639179Y-212924029D01*
X261513856Y-212620724D01*
X261638820Y-212319777D01*
X261639179Y-211908029D01*
X261513856Y-211604724D01*
X261638820Y-211303777D01*
X261639179Y-210892029D01*
X261481942Y-210511485D01*
X261191046Y-210220081D01*
X260810777Y-210062180D01*
X260399029Y-210061821D01*
X260159381Y-210160841D01*
X259921777Y-210062180D01*
X259510029Y-210061821D01*
X259129485Y-210219058D01*
X258838081Y-210509954D01*
X258680180Y-210890223D01*
X258679821Y-211301971D01*
X254762000Y-211301971D01*
X254762000Y-207860271D01*
X258968621Y-207860271D01*
X259125858Y-208240815D01*
X259416754Y-208532219D01*
X259797023Y-208690120D01*
X260208771Y-208690479D01*
X260504056Y-208568470D01*
X260797023Y-208690120D01*
X261208771Y-208690479D01*
X261504056Y-208568470D01*
X261797023Y-208690120D01*
X262208771Y-208690479D01*
X262589315Y-208533242D01*
X262880719Y-208242346D01*
X263038620Y-207862077D01*
X263038979Y-207450329D01*
X262881742Y-207069785D01*
X262590846Y-206778381D01*
X262210577Y-206620480D01*
X261798829Y-206620121D01*
X261503544Y-206742130D01*
X261210577Y-206620480D01*
X260798829Y-206620121D01*
X260503544Y-206742130D01*
X260210577Y-206620480D01*
X259798829Y-206620121D01*
X259418285Y-206777358D01*
X259126881Y-207068254D01*
X258968980Y-207448523D01*
X258968621Y-207860271D01*
X254762000Y-207860271D01*
X254762000Y-196291771D01*
X258679821Y-196291771D01*
X258805144Y-196595076D01*
X258680180Y-196896023D01*
X258679821Y-197307771D01*
X258805144Y-197611076D01*
X258680180Y-197912023D01*
X258679821Y-198323771D01*
X258837058Y-198704315D01*
X259127954Y-198995719D01*
X259508223Y-199153620D01*
X259919971Y-199153979D01*
X260159619Y-199054959D01*
X260397223Y-199153620D01*
X260808971Y-199153979D01*
X261189515Y-198996742D01*
X261480919Y-198705846D01*
X261638820Y-198325577D01*
X261639179Y-197913829D01*
X261513856Y-197610524D01*
X261638820Y-197309577D01*
X261639179Y-196897829D01*
X261513856Y-196594524D01*
X261638820Y-196293577D01*
X261639179Y-195881829D01*
X261481942Y-195501285D01*
X261191046Y-195209881D01*
X260810777Y-195051980D01*
X260399029Y-195051621D01*
X260159381Y-195150641D01*
X259921777Y-195051980D01*
X259510029Y-195051621D01*
X259129485Y-195208858D01*
X258838081Y-195499754D01*
X258680180Y-195880023D01*
X258679821Y-196291771D01*
X254762000Y-196291771D01*
X254762000Y-190402821D01*
X255172971Y-190403179D01*
X255468256Y-190281170D01*
X255761223Y-190402820D01*
X256172971Y-190403179D01*
X256553515Y-190245942D01*
X256844919Y-189955046D01*
X257002820Y-189574777D01*
X257003074Y-189283216D01*
X258550842Y-189283216D01*
X258660140Y-189547737D01*
X258551158Y-189810196D01*
X258550842Y-190172216D01*
X258689090Y-190506800D01*
X258944853Y-190763011D01*
X259279196Y-190901842D01*
X259641216Y-190902158D01*
X259880542Y-190803270D01*
X259848176Y-190881217D01*
X259847825Y-191283020D01*
X260001264Y-191654372D01*
X260285134Y-191938737D01*
X260656217Y-192092824D01*
X261058020Y-192093175D01*
X261429372Y-191939736D01*
X261713737Y-191655866D01*
X261867824Y-191284783D01*
X261868175Y-190882980D01*
X261714736Y-190511628D01*
X261430866Y-190227263D01*
X261059783Y-190073176D01*
X260657980Y-190072825D01*
X260361988Y-190195126D01*
X260370842Y-190173804D01*
X260371158Y-189811784D01*
X260261860Y-189547263D01*
X260370842Y-189284804D01*
X260371158Y-188922784D01*
X260274107Y-188687903D01*
X260359011Y-188603147D01*
X260497842Y-188268804D01*
X260498158Y-187906784D01*
X260359910Y-187572200D01*
X260104147Y-187315989D01*
X259769804Y-187177158D01*
X259407784Y-187176842D01*
X259073200Y-187315090D01*
X258816989Y-187570853D01*
X258678158Y-187905196D01*
X258677842Y-188267216D01*
X258774893Y-188502097D01*
X258689989Y-188586853D01*
X258551158Y-188921196D01*
X258550842Y-189283216D01*
X257003074Y-189283216D01*
X257003179Y-189163029D01*
X256881170Y-188867744D01*
X257002820Y-188574777D01*
X257003179Y-188163029D01*
X256881170Y-187867744D01*
X257002820Y-187574777D01*
X257003179Y-187163029D01*
X256881170Y-186867744D01*
X257002820Y-186574777D01*
X257003179Y-186163029D01*
X256881170Y-185867744D01*
X256896752Y-185830216D01*
X259213842Y-185830216D01*
X259352090Y-186164800D01*
X259607853Y-186421011D01*
X259942196Y-186559842D01*
X260304216Y-186560158D01*
X260638800Y-186421910D01*
X260895011Y-186166147D01*
X260910020Y-186130000D01*
X264508655Y-186130000D01*
X264622729Y-186703489D01*
X264947585Y-187189670D01*
X265262366Y-187400000D01*
X264947585Y-187610330D01*
X264622729Y-188096511D01*
X264508655Y-188670000D01*
X264622729Y-189243489D01*
X264947585Y-189729670D01*
X265262366Y-189940000D01*
X264947585Y-190150330D01*
X264622729Y-190636511D01*
X264508655Y-191210000D01*
X264622729Y-191783489D01*
X264947585Y-192269670D01*
X265433766Y-192594526D01*
X266007255Y-192708600D01*
X266376745Y-192708600D01*
X266950234Y-192594526D01*
X267436415Y-192269670D01*
X267761271Y-191783489D01*
X267875345Y-191210000D01*
X267761271Y-190636511D01*
X267436415Y-190150330D01*
X267121634Y-189940000D01*
X267436415Y-189729670D01*
X267761271Y-189243489D01*
X267875345Y-188670000D01*
X267761271Y-188096511D01*
X267436415Y-187610330D01*
X267121634Y-187400000D01*
X267436415Y-187189670D01*
X267761271Y-186703489D01*
X267875345Y-186130000D01*
X267761271Y-185556511D01*
X267436415Y-185070330D01*
X267422087Y-185060757D01*
X267443317Y-185056762D01*
X267659441Y-184917690D01*
X267804431Y-184705490D01*
X267855440Y-184453600D01*
X267855440Y-182726400D01*
X267811162Y-182491083D01*
X267672090Y-182274959D01*
X267459890Y-182129969D01*
X267208000Y-182078960D01*
X265176000Y-182078960D01*
X264940683Y-182123238D01*
X264724559Y-182262310D01*
X264579569Y-182474510D01*
X264528560Y-182726400D01*
X264528560Y-184453600D01*
X264572838Y-184688917D01*
X264711910Y-184905041D01*
X264924110Y-185050031D01*
X264965439Y-185058400D01*
X264947585Y-185070330D01*
X264622729Y-185556511D01*
X264508655Y-186130000D01*
X260910020Y-186130000D01*
X261033842Y-185831804D01*
X261034158Y-185469784D01*
X260895910Y-185135200D01*
X260640147Y-184878989D01*
X260305804Y-184740158D01*
X259943784Y-184739842D01*
X259609200Y-184878090D01*
X259352989Y-185133853D01*
X259214158Y-185468196D01*
X259213842Y-185830216D01*
X256896752Y-185830216D01*
X257002820Y-185574777D01*
X257003179Y-185163029D01*
X256845942Y-184782485D01*
X256555046Y-184491081D01*
X256174777Y-184333180D01*
X255763029Y-184332821D01*
X255467744Y-184454830D01*
X255174777Y-184333180D01*
X254763029Y-184332821D01*
X254762000Y-184333246D01*
X254762000Y-181801716D01*
X260519342Y-181801716D01*
X260657590Y-182136300D01*
X260913353Y-182392511D01*
X261247696Y-182531342D01*
X261609716Y-182531658D01*
X261944300Y-182393410D01*
X262200511Y-182137647D01*
X262339342Y-181803304D01*
X262339658Y-181441284D01*
X262201410Y-181106700D01*
X261945647Y-180850489D01*
X261611304Y-180711658D01*
X261249284Y-180711342D01*
X260914700Y-180849590D01*
X260658489Y-181105353D01*
X260519658Y-181439696D01*
X260519342Y-181801716D01*
X254762000Y-181801716D01*
X254762000Y-176301971D01*
X258679821Y-176301971D01*
X258805144Y-176605276D01*
X258680180Y-176906223D01*
X258679821Y-177317971D01*
X258805144Y-177621276D01*
X258680180Y-177922223D01*
X258679821Y-178333971D01*
X258837058Y-178714515D01*
X259127954Y-179005919D01*
X259508223Y-179163820D01*
X259919971Y-179164179D01*
X260159619Y-179065159D01*
X260397223Y-179163820D01*
X260808971Y-179164179D01*
X261189515Y-179006942D01*
X261480919Y-178716046D01*
X261638820Y-178335777D01*
X261639179Y-177924029D01*
X261513856Y-177620724D01*
X261638820Y-177319777D01*
X261639179Y-176908029D01*
X261513856Y-176604724D01*
X261638820Y-176303777D01*
X261639179Y-175892029D01*
X261481942Y-175511485D01*
X261191046Y-175220081D01*
X260810777Y-175062180D01*
X260399029Y-175061821D01*
X260159381Y-175160841D01*
X259921777Y-175062180D01*
X259510029Y-175061821D01*
X259129485Y-175219058D01*
X258838081Y-175509954D01*
X258680180Y-175890223D01*
X258679821Y-176301971D01*
X254762000Y-176301971D01*
X254762000Y-172860271D01*
X258968621Y-172860271D01*
X259125858Y-173240815D01*
X259416754Y-173532219D01*
X259797023Y-173690120D01*
X260208771Y-173690479D01*
X260504056Y-173568470D01*
X260797023Y-173690120D01*
X261208771Y-173690479D01*
X261504056Y-173568470D01*
X261797023Y-173690120D01*
X262208771Y-173690479D01*
X262589315Y-173533242D01*
X262880719Y-173242346D01*
X263038620Y-172862077D01*
X263038979Y-172450329D01*
X262881742Y-172069785D01*
X262590846Y-171778381D01*
X262210577Y-171620480D01*
X261798829Y-171620121D01*
X261503544Y-171742130D01*
X261210577Y-171620480D01*
X260798829Y-171620121D01*
X260503544Y-171742130D01*
X260210577Y-171620480D01*
X259798829Y-171620121D01*
X259418285Y-171777358D01*
X259126881Y-172068254D01*
X258968980Y-172448523D01*
X258968621Y-172860271D01*
X254762000Y-172860271D01*
X254762000Y-161291771D01*
X258679821Y-161291771D01*
X258805144Y-161595076D01*
X258680180Y-161896023D01*
X258679821Y-162307771D01*
X258805144Y-162611076D01*
X258680180Y-162912023D01*
X258679821Y-163323771D01*
X258837058Y-163704315D01*
X259127954Y-163995719D01*
X259508223Y-164153620D01*
X259919971Y-164153979D01*
X260159619Y-164054959D01*
X260397223Y-164153620D01*
X260808971Y-164153979D01*
X261189515Y-163996742D01*
X261480919Y-163705846D01*
X261638820Y-163325577D01*
X261639179Y-162913829D01*
X261513856Y-162610524D01*
X261638820Y-162309577D01*
X261639179Y-161897829D01*
X261513856Y-161594524D01*
X261638820Y-161293577D01*
X261639179Y-160881829D01*
X261481942Y-160501285D01*
X261191046Y-160209881D01*
X260810777Y-160051980D01*
X260399029Y-160051621D01*
X260159381Y-160150641D01*
X259921777Y-160051980D01*
X259510029Y-160051621D01*
X259129485Y-160208858D01*
X258838081Y-160499754D01*
X258680180Y-160880023D01*
X258679821Y-161291771D01*
X254762000Y-161291771D01*
X254762000Y-155402821D01*
X255172971Y-155403179D01*
X255468256Y-155281170D01*
X255761223Y-155402820D01*
X256172971Y-155403179D01*
X256553515Y-155245942D01*
X256844919Y-154955046D01*
X257002820Y-154574777D01*
X257003179Y-154163029D01*
X256881170Y-153867744D01*
X257002820Y-153574777D01*
X257002912Y-153469216D01*
X258550842Y-153469216D01*
X258660140Y-153733737D01*
X258551158Y-153996196D01*
X258550842Y-154358216D01*
X258660140Y-154622737D01*
X258551158Y-154885196D01*
X258550842Y-155247216D01*
X258689090Y-155581800D01*
X258944853Y-155838011D01*
X259279196Y-155976842D01*
X259641216Y-155977158D01*
X259848167Y-155891647D01*
X259847825Y-156283020D01*
X260001264Y-156654372D01*
X260285134Y-156938737D01*
X260656217Y-157092824D01*
X261058020Y-157093175D01*
X261429372Y-156939736D01*
X261713737Y-156655866D01*
X261867824Y-156284783D01*
X261868175Y-155882980D01*
X261714736Y-155511628D01*
X261430866Y-155227263D01*
X261059783Y-155073176D01*
X260657980Y-155072825D01*
X260370892Y-155191447D01*
X260371158Y-154886784D01*
X260261860Y-154622263D01*
X260370842Y-154359804D01*
X260371158Y-153997784D01*
X260261860Y-153733263D01*
X260370842Y-153470804D01*
X260371158Y-153108784D01*
X260232910Y-152774200D01*
X259977147Y-152517989D01*
X259642804Y-152379158D01*
X259280784Y-152378842D01*
X258946200Y-152517090D01*
X258689989Y-152772853D01*
X258551158Y-153107196D01*
X258550842Y-153469216D01*
X257002912Y-153469216D01*
X257003179Y-153163029D01*
X256881170Y-152867744D01*
X257002820Y-152574777D01*
X257003179Y-152163029D01*
X256881170Y-151867744D01*
X257002820Y-151574777D01*
X257003179Y-151163029D01*
X256881170Y-150867744D01*
X256896752Y-150830216D01*
X259213842Y-150830216D01*
X259352090Y-151164800D01*
X259607853Y-151421011D01*
X259942196Y-151559842D01*
X260304216Y-151560158D01*
X260638800Y-151421910D01*
X260895011Y-151166147D01*
X260910020Y-151130000D01*
X264508655Y-151130000D01*
X264622729Y-151703489D01*
X264947585Y-152189670D01*
X265262366Y-152400000D01*
X264947585Y-152610330D01*
X264622729Y-153096511D01*
X264508655Y-153670000D01*
X264622729Y-154243489D01*
X264947585Y-154729670D01*
X265262366Y-154940000D01*
X264947585Y-155150330D01*
X264622729Y-155636511D01*
X264508655Y-156210000D01*
X264622729Y-156783489D01*
X264947585Y-157269670D01*
X265433766Y-157594526D01*
X266007255Y-157708600D01*
X266376745Y-157708600D01*
X266950234Y-157594526D01*
X267436415Y-157269670D01*
X267761271Y-156783489D01*
X267875345Y-156210000D01*
X267761271Y-155636511D01*
X267436415Y-155150330D01*
X267121634Y-154940000D01*
X267436415Y-154729670D01*
X267761271Y-154243489D01*
X267875345Y-153670000D01*
X267761271Y-153096511D01*
X267436415Y-152610330D01*
X267121634Y-152400000D01*
X267436415Y-152189670D01*
X267761271Y-151703489D01*
X267875345Y-151130000D01*
X267761271Y-150556511D01*
X267436415Y-150070330D01*
X267422087Y-150060757D01*
X267443317Y-150056762D01*
X267659441Y-149917690D01*
X267804431Y-149705490D01*
X267855440Y-149453600D01*
X267855440Y-147726400D01*
X267811162Y-147491083D01*
X267672090Y-147274959D01*
X267459890Y-147129969D01*
X267208000Y-147078960D01*
X265176000Y-147078960D01*
X264940683Y-147123238D01*
X264724559Y-147262310D01*
X264579569Y-147474510D01*
X264528560Y-147726400D01*
X264528560Y-149453600D01*
X264572838Y-149688917D01*
X264711910Y-149905041D01*
X264924110Y-150050031D01*
X264965439Y-150058400D01*
X264947585Y-150070330D01*
X264622729Y-150556511D01*
X264508655Y-151130000D01*
X260910020Y-151130000D01*
X261033842Y-150831804D01*
X261034158Y-150469784D01*
X260895910Y-150135200D01*
X260640147Y-149878989D01*
X260305804Y-149740158D01*
X259943784Y-149739842D01*
X259609200Y-149878090D01*
X259352989Y-150133853D01*
X259214158Y-150468196D01*
X259213842Y-150830216D01*
X256896752Y-150830216D01*
X257002820Y-150574777D01*
X257003179Y-150163029D01*
X256845942Y-149782485D01*
X256555046Y-149491081D01*
X256174777Y-149333180D01*
X255763029Y-149332821D01*
X255467744Y-149454830D01*
X255174777Y-149333180D01*
X254763029Y-149332821D01*
X254762000Y-149333246D01*
X254762000Y-146801716D01*
X260519342Y-146801716D01*
X260657590Y-147136300D01*
X260913353Y-147392511D01*
X261247696Y-147531342D01*
X261609716Y-147531658D01*
X261944300Y-147393410D01*
X262200511Y-147137647D01*
X262339342Y-146803304D01*
X262339658Y-146441284D01*
X262201410Y-146106700D01*
X261945647Y-145850489D01*
X261611304Y-145711658D01*
X261249284Y-145711342D01*
X260914700Y-145849590D01*
X260658489Y-146105353D01*
X260519658Y-146439696D01*
X260519342Y-146801716D01*
X254762000Y-146801716D01*
X254762000Y-141301971D01*
X258679821Y-141301971D01*
X258805144Y-141605276D01*
X258680180Y-141906223D01*
X258679821Y-142317971D01*
X258805144Y-142621276D01*
X258680180Y-142922223D01*
X258679821Y-143333971D01*
X258837058Y-143714515D01*
X259127954Y-144005919D01*
X259508223Y-144163820D01*
X259919971Y-144164179D01*
X260159619Y-144065159D01*
X260397223Y-144163820D01*
X260808971Y-144164179D01*
X261189515Y-144006942D01*
X261480919Y-143716046D01*
X261638820Y-143335777D01*
X261639179Y-142924029D01*
X261513856Y-142620724D01*
X261638820Y-142319777D01*
X261639179Y-141908029D01*
X261513856Y-141604724D01*
X261638820Y-141303777D01*
X261639179Y-140892029D01*
X261481942Y-140511485D01*
X261191046Y-140220081D01*
X260810777Y-140062180D01*
X260399029Y-140061821D01*
X260159381Y-140160841D01*
X259921777Y-140062180D01*
X259510029Y-140061821D01*
X259129485Y-140219058D01*
X258838081Y-140509954D01*
X258680180Y-140890223D01*
X258679821Y-141301971D01*
X254762000Y-141301971D01*
X254762000Y-137860271D01*
X258968621Y-137860271D01*
X259125858Y-138240815D01*
X259416754Y-138532219D01*
X259797023Y-138690120D01*
X260208771Y-138690479D01*
X260504056Y-138568470D01*
X260797023Y-138690120D01*
X261208771Y-138690479D01*
X261504056Y-138568470D01*
X261797023Y-138690120D01*
X262208771Y-138690479D01*
X262589315Y-138533242D01*
X262880719Y-138242346D01*
X263038620Y-137862077D01*
X263038979Y-137450329D01*
X262881742Y-137069785D01*
X262590846Y-136778381D01*
X262210577Y-136620480D01*
X261798829Y-136620121D01*
X261503544Y-136742130D01*
X261210577Y-136620480D01*
X260798829Y-136620121D01*
X260503544Y-136742130D01*
X260210577Y-136620480D01*
X259798829Y-136620121D01*
X259418285Y-136777358D01*
X259126881Y-137068254D01*
X258968980Y-137448523D01*
X258968621Y-137860271D01*
X254762000Y-137860271D01*
X254762000Y-116915000D01*
X269165000Y-116915000D01*
X269165000Y-271705000D01*
G36*
X251968000Y-121832560D02*
X251105000Y-121832560D01*
X250869683Y-121876838D01*
X250653559Y-122015910D01*
X250508569Y-122228110D01*
X250457560Y-122480000D01*
X250457560Y-126440000D01*
X250501838Y-126675317D01*
X250640910Y-126891441D01*
X250853110Y-127036431D01*
X251105000Y-127087440D01*
X251968000Y-127087440D01*
X251968000Y-143966074D01*
X251661885Y-144092558D01*
X251370481Y-144383454D01*
X251212580Y-144763723D01*
X251212221Y-145175471D01*
X251311241Y-145415119D01*
X251212580Y-145652723D01*
X251212221Y-146064471D01*
X251311241Y-146304119D01*
X251212580Y-146541723D01*
X251212221Y-146953471D01*
X251369458Y-147334015D01*
X251660354Y-147625419D01*
X251968000Y-147753164D01*
X251968000Y-149333000D01*
X251763029Y-149332821D01*
X251382485Y-149490058D01*
X251091081Y-149780954D01*
X250933180Y-150161223D01*
X250932821Y-150572971D01*
X251054830Y-150868256D01*
X250933180Y-151161223D01*
X250932821Y-151572971D01*
X251054830Y-151868256D01*
X250933180Y-152161223D01*
X250932821Y-152572971D01*
X251054830Y-152868256D01*
X250933180Y-153161223D01*
X250932821Y-153572971D01*
X251054830Y-153868256D01*
X250933180Y-154161223D01*
X250932821Y-154572971D01*
X251090058Y-154953515D01*
X251380954Y-155244919D01*
X251761223Y-155402820D01*
X251968000Y-155403000D01*
X251968000Y-157110574D01*
X251661885Y-157237058D01*
X251370481Y-157527954D01*
X251212580Y-157908223D01*
X251212221Y-158319971D01*
X251311241Y-158559619D01*
X251212580Y-158797223D01*
X251212221Y-159208971D01*
X251311241Y-159448619D01*
X251212580Y-159686223D01*
X251212221Y-160097971D01*
X251369458Y-160478515D01*
X251660354Y-160769919D01*
X251968000Y-160897664D01*
X251968000Y-178979974D01*
X251661885Y-179106458D01*
X251370481Y-179397354D01*
X251212580Y-179777623D01*
X251212221Y-180189371D01*
X251305981Y-180416288D01*
X251212580Y-180641223D01*
X251212221Y-181052971D01*
X251313623Y-181298384D01*
X251212580Y-181541723D01*
X251212221Y-181953471D01*
X251369458Y-182334015D01*
X251660354Y-182625419D01*
X251968000Y-182753164D01*
X251968000Y-184333000D01*
X251763029Y-184332821D01*
X251382485Y-184490058D01*
X251091081Y-184780954D01*
X250933180Y-185161223D01*
X250932821Y-185572971D01*
X251054830Y-185868256D01*
X250933180Y-186161223D01*
X250932821Y-186572971D01*
X251054830Y-186868256D01*
X250933180Y-187161223D01*
X250932821Y-187572971D01*
X251054830Y-187868256D01*
X250933180Y-188161223D01*
X250932821Y-188572971D01*
X251054830Y-188868256D01*
X250933180Y-189161223D01*
X250932821Y-189572971D01*
X251090058Y-189953515D01*
X251380954Y-190244919D01*
X251761223Y-190402820D01*
X251968000Y-190403000D01*
X251968000Y-192110574D01*
X251661885Y-192237058D01*
X251370481Y-192527954D01*
X251212580Y-192908223D01*
X251212221Y-193319971D01*
X251311241Y-193559619D01*
X251212580Y-193797223D01*
X251212221Y-194208971D01*
X251311241Y-194448619D01*
X251212580Y-194686223D01*
X251212221Y-195097971D01*
X251369458Y-195478515D01*
X251660354Y-195769919D01*
X251968000Y-195897664D01*
X251968000Y-213966074D01*
X251661885Y-214092558D01*
X251370481Y-214383454D01*
X251212580Y-214763723D01*
X251212221Y-215175471D01*
X251311241Y-215415119D01*
X251212580Y-215652723D01*
X251212221Y-216064471D01*
X251311241Y-216304119D01*
X251212580Y-216541723D01*
X251212221Y-216953471D01*
X251369458Y-217334015D01*
X251660354Y-217625419D01*
X251968000Y-217753164D01*
X251968000Y-219333000D01*
X251763029Y-219332821D01*
X251382485Y-219490058D01*
X251091081Y-219780954D01*
X250933180Y-220161223D01*
X250932821Y-220572971D01*
X251054830Y-220868256D01*
X250933180Y-221161223D01*
X250932821Y-221572971D01*
X251054830Y-221868256D01*
X250933180Y-222161223D01*
X250932821Y-222572971D01*
X251054830Y-222868256D01*
X250933180Y-223161223D01*
X250932821Y-223572971D01*
X251054830Y-223868256D01*
X250933180Y-224161223D01*
X250932821Y-224572971D01*
X251090058Y-224953515D01*
X251380954Y-225244919D01*
X251761223Y-225402820D01*
X251968000Y-225403000D01*
X251968000Y-227110574D01*
X251661885Y-227237058D01*
X251370481Y-227527954D01*
X251212580Y-227908223D01*
X251212221Y-228319971D01*
X251311241Y-228559619D01*
X251212580Y-228797223D01*
X251212221Y-229208971D01*
X251311241Y-229448619D01*
X251212580Y-229686223D01*
X251212221Y-230097971D01*
X251369458Y-230478515D01*
X251660354Y-230769919D01*
X251968000Y-230897664D01*
X251968000Y-248966074D01*
X251661885Y-249092558D01*
X251370481Y-249383454D01*
X251212580Y-249763723D01*
X251212221Y-250175471D01*
X251311241Y-250415119D01*
X251212580Y-250652723D01*
X251212221Y-251064471D01*
X251311241Y-251304119D01*
X251212580Y-251541723D01*
X251212221Y-251953471D01*
X251369458Y-252334015D01*
X251660354Y-252625419D01*
X251968000Y-252753164D01*
X251968000Y-254333000D01*
X251763029Y-254332821D01*
X251382485Y-254490058D01*
X251091081Y-254780954D01*
X250933180Y-255161223D01*
X250932821Y-255572971D01*
X251054830Y-255868256D01*
X250933180Y-256161223D01*
X250932821Y-256572971D01*
X251054830Y-256868256D01*
X250933180Y-257161223D01*
X250932821Y-257572971D01*
X251054830Y-257868256D01*
X250933180Y-258161223D01*
X250932821Y-258572971D01*
X251054830Y-258868256D01*
X250933180Y-259161223D01*
X250932821Y-259572971D01*
X251090058Y-259953515D01*
X251380954Y-260244919D01*
X251761223Y-260402820D01*
X251968000Y-260403000D01*
X251968000Y-262110574D01*
X251661885Y-262237058D01*
X251370481Y-262527954D01*
X251212580Y-262908223D01*
X251212221Y-263319971D01*
X251311241Y-263559619D01*
X251212580Y-263797223D01*
X251212221Y-264208971D01*
X251311241Y-264448619D01*
X251212580Y-264686223D01*
X251212221Y-265097971D01*
X251369458Y-265478515D01*
X251660354Y-265769919D01*
X251968000Y-265897664D01*
X251968000Y-271705000D01*
X246507000Y-271705000D01*
X246507000Y-266406716D01*
X247438342Y-266406716D01*
X247566161Y-266716060D01*
X247502158Y-266870196D01*
X247501842Y-267232216D01*
X247640090Y-267566800D01*
X247895853Y-267823011D01*
X248230196Y-267961842D01*
X248592216Y-267962158D01*
X248926800Y-267823910D01*
X249183011Y-267568147D01*
X249321842Y-267233804D01*
X249322158Y-266871784D01*
X249194339Y-266562440D01*
X249258342Y-266408304D01*
X249258658Y-266046284D01*
X249120410Y-265711700D01*
X248864647Y-265455489D01*
X248530304Y-265316658D01*
X248168284Y-265316342D01*
X247833700Y-265454590D01*
X247577489Y-265710353D01*
X247438658Y-266044696D01*
X247438342Y-266406716D01*
X246507000Y-266406716D01*
X246507000Y-262660216D01*
X248136842Y-262660216D01*
X248275090Y-262994800D01*
X248530853Y-263251011D01*
X248865196Y-263389842D01*
X249227216Y-263390158D01*
X249561800Y-263251910D01*
X249818011Y-262996147D01*
X249956842Y-262661804D01*
X249957158Y-262299784D01*
X249881636Y-262117009D01*
X249900658Y-262109149D01*
X250199101Y-261811226D01*
X250360816Y-261421772D01*
X250361184Y-261000078D01*
X250200149Y-260610342D01*
X249902226Y-260311899D01*
X249512772Y-260150184D01*
X249091078Y-260149816D01*
X248701342Y-260310851D01*
X248402899Y-260608774D01*
X248241184Y-260998228D01*
X248240816Y-261419922D01*
X248401851Y-261809658D01*
X248416128Y-261823959D01*
X248275989Y-261963853D01*
X248137158Y-262298196D01*
X248136842Y-262660216D01*
X246507000Y-262660216D01*
X246507000Y-259435600D01*
X248539000Y-259435600D01*
X248820885Y-259379530D01*
X249059855Y-259219855D01*
X249567855Y-258711855D01*
X249727530Y-258472885D01*
X249783600Y-258191000D01*
X249783600Y-256540000D01*
X249727530Y-256258115D01*
X249567855Y-256019145D01*
X249284855Y-255736145D01*
X249045885Y-255576470D01*
X248764000Y-255520400D01*
X248454498Y-255520400D01*
X248420147Y-255485989D01*
X248085804Y-255347158D01*
X247723784Y-255346842D01*
X247389200Y-255485090D01*
X247132989Y-255740853D01*
X246994158Y-256075196D01*
X246993842Y-256437216D01*
X247132090Y-256771800D01*
X247252065Y-256891985D01*
X247132989Y-257010853D01*
X247054282Y-257200400D01*
X246507000Y-257200400D01*
X246507000Y-231406716D01*
X247438342Y-231406716D01*
X247566161Y-231716060D01*
X247502158Y-231870196D01*
X247501842Y-232232216D01*
X247640090Y-232566800D01*
X247895853Y-232823011D01*
X248230196Y-232961842D01*
X248592216Y-232962158D01*
X248926800Y-232823910D01*
X249183011Y-232568147D01*
X249321842Y-232233804D01*
X249322158Y-231871784D01*
X249194339Y-231562440D01*
X249258342Y-231408304D01*
X249258658Y-231046284D01*
X249120410Y-230711700D01*
X248864647Y-230455489D01*
X248530304Y-230316658D01*
X248168284Y-230316342D01*
X247833700Y-230454590D01*
X247577489Y-230710353D01*
X247438658Y-231044696D01*
X247438342Y-231406716D01*
X246507000Y-231406716D01*
X246507000Y-227660216D01*
X248136842Y-227660216D01*
X248275090Y-227994800D01*
X248530853Y-228251011D01*
X248865196Y-228389842D01*
X249227216Y-228390158D01*
X249561800Y-228251910D01*
X249818011Y-227996147D01*
X249956842Y-227661804D01*
X249957158Y-227299784D01*
X249881636Y-227117009D01*
X249900658Y-227109149D01*
X250199101Y-226811226D01*
X250360816Y-226421772D01*
X250361184Y-226000078D01*
X250200149Y-225610342D01*
X249902226Y-225311899D01*
X249512772Y-225150184D01*
X249091078Y-225149816D01*
X248701342Y-225310851D01*
X248402899Y-225608774D01*
X248241184Y-225998228D01*
X248240816Y-226419922D01*
X248401851Y-226809658D01*
X248416128Y-226823959D01*
X248275989Y-226963853D01*
X248137158Y-227298196D01*
X248136842Y-227660216D01*
X246507000Y-227660216D01*
X246507000Y-221437216D01*
X246993842Y-221437216D01*
X247132090Y-221771800D01*
X247252065Y-221891985D01*
X247132989Y-222010853D01*
X246994158Y-222345196D01*
X246993842Y-222707216D01*
X247132090Y-223041800D01*
X247387853Y-223298011D01*
X247722196Y-223436842D01*
X248084216Y-223437158D01*
X248418800Y-223298910D01*
X248675011Y-223043147D01*
X248813842Y-222708804D01*
X248813893Y-222649841D01*
X249056011Y-222408147D01*
X249194842Y-222073804D01*
X249195158Y-221711784D01*
X249056910Y-221377200D01*
X248814108Y-221133973D01*
X248814158Y-221076784D01*
X248675910Y-220742200D01*
X248420147Y-220485989D01*
X248085804Y-220347158D01*
X247723784Y-220346842D01*
X247389200Y-220485090D01*
X247132989Y-220740853D01*
X246994158Y-221075196D01*
X246993842Y-221437216D01*
X246507000Y-221437216D01*
X246507000Y-196406716D01*
X247438342Y-196406716D01*
X247566161Y-196716060D01*
X247502158Y-196870196D01*
X247501842Y-197232216D01*
X247640090Y-197566800D01*
X247895853Y-197823011D01*
X248230196Y-197961842D01*
X248592216Y-197962158D01*
X248926800Y-197823910D01*
X249183011Y-197568147D01*
X249321842Y-197233804D01*
X249322158Y-196871784D01*
X249194339Y-196562440D01*
X249258342Y-196408304D01*
X249258658Y-196046284D01*
X249120410Y-195711700D01*
X248864647Y-195455489D01*
X248530304Y-195316658D01*
X248168284Y-195316342D01*
X247833700Y-195454590D01*
X247577489Y-195710353D01*
X247438658Y-196044696D01*
X247438342Y-196406716D01*
X246507000Y-196406716D01*
X246507000Y-192660216D01*
X248136842Y-192660216D01*
X248275090Y-192994800D01*
X248530853Y-193251011D01*
X248865196Y-193389842D01*
X249227216Y-193390158D01*
X249561800Y-193251910D01*
X249818011Y-192996147D01*
X249956842Y-192661804D01*
X249957158Y-192299784D01*
X249881636Y-192117009D01*
X249900658Y-192109149D01*
X250199101Y-191811226D01*
X250360816Y-191421772D01*
X250361184Y-191000078D01*
X250200149Y-190610342D01*
X249902226Y-190311899D01*
X249512772Y-190150184D01*
X249091078Y-190149816D01*
X248701342Y-190310851D01*
X248402899Y-190608774D01*
X248241184Y-190998228D01*
X248240816Y-191419922D01*
X248401851Y-191809658D01*
X248416128Y-191823959D01*
X248275989Y-191963853D01*
X248137158Y-192298196D01*
X248136842Y-192660216D01*
X246507000Y-192660216D01*
X246507000Y-186437216D01*
X246993842Y-186437216D01*
X247132090Y-186771800D01*
X247252065Y-186891985D01*
X247132989Y-187010853D01*
X246994158Y-187345196D01*
X246993842Y-187707216D01*
X247132090Y-188041800D01*
X247387853Y-188298011D01*
X247722196Y-188436842D01*
X248084216Y-188437158D01*
X248418800Y-188298910D01*
X248675011Y-188043147D01*
X248813842Y-187708804D01*
X248813893Y-187649841D01*
X249056011Y-187408147D01*
X249194842Y-187073804D01*
X249195158Y-186711784D01*
X249056910Y-186377200D01*
X248814108Y-186133973D01*
X248814158Y-186076784D01*
X248675910Y-185742200D01*
X248420147Y-185485989D01*
X248085804Y-185347158D01*
X247723784Y-185346842D01*
X247389200Y-185485090D01*
X247132989Y-185740853D01*
X246994158Y-186075196D01*
X246993842Y-186437216D01*
X246507000Y-186437216D01*
X246507000Y-161406716D01*
X247438342Y-161406716D01*
X247566161Y-161716060D01*
X247502158Y-161870196D01*
X247501842Y-162232216D01*
X247640090Y-162566800D01*
X247895853Y-162823011D01*
X248230196Y-162961842D01*
X248592216Y-162962158D01*
X248926800Y-162823910D01*
X249183011Y-162568147D01*
X249321842Y-162233804D01*
X249322158Y-161871784D01*
X249194339Y-161562440D01*
X249258342Y-161408304D01*
X249258658Y-161046284D01*
X249120410Y-160711700D01*
X248864647Y-160455489D01*
X248530304Y-160316658D01*
X248168284Y-160316342D01*
X247833700Y-160454590D01*
X247577489Y-160710353D01*
X247438658Y-161044696D01*
X247438342Y-161406716D01*
X246507000Y-161406716D01*
X246507000Y-157660216D01*
X248136842Y-157660216D01*
X248275090Y-157994800D01*
X248530853Y-158251011D01*
X248865196Y-158389842D01*
X249227216Y-158390158D01*
X249561800Y-158251910D01*
X249818011Y-157996147D01*
X249956842Y-157661804D01*
X249957158Y-157299784D01*
X249881636Y-157117009D01*
X249900658Y-157109149D01*
X250199101Y-156811226D01*
X250360816Y-156421772D01*
X250361184Y-156000078D01*
X250200149Y-155610342D01*
X249902226Y-155311899D01*
X249512772Y-155150184D01*
X249091078Y-155149816D01*
X248701342Y-155310851D01*
X248402899Y-155608774D01*
X248241184Y-155998228D01*
X248240816Y-156419922D01*
X248401851Y-156809658D01*
X248416128Y-156823959D01*
X248275989Y-156963853D01*
X248137158Y-157298196D01*
X248136842Y-157660216D01*
X246507000Y-157660216D01*
X246507000Y-151437216D01*
X246993842Y-151437216D01*
X247132090Y-151771800D01*
X247252065Y-151891985D01*
X247132989Y-152010853D01*
X246994158Y-152345196D01*
X246993842Y-152707216D01*
X247132090Y-153041800D01*
X247387853Y-153298011D01*
X247722196Y-153436842D01*
X248084216Y-153437158D01*
X248418800Y-153298910D01*
X248675011Y-153043147D01*
X248813842Y-152708804D01*
X248813893Y-152649841D01*
X249056011Y-152408147D01*
X249194842Y-152073804D01*
X249195158Y-151711784D01*
X249056910Y-151377200D01*
X248814108Y-151133973D01*
X248814158Y-151076784D01*
X248675910Y-150742200D01*
X248420147Y-150485989D01*
X248085804Y-150347158D01*
X247723784Y-150346842D01*
X247389200Y-150485090D01*
X247132989Y-150740853D01*
X246994158Y-151075196D01*
X246993842Y-151437216D01*
X246507000Y-151437216D01*
X246507000Y-116915000D01*
X251968000Y-116915000D01*
X251968000Y-121832560D01*
X251968000Y-121832560D01*
G37*
X251968000Y-121832560D02*
X251105000Y-121832560D01*
X250869683Y-121876838D01*
X250653559Y-122015910D01*
X250508569Y-122228110D01*
X250457560Y-122480000D01*
X250457560Y-126440000D01*
X250501838Y-126675317D01*
X250640910Y-126891441D01*
X250853110Y-127036431D01*
X251105000Y-127087440D01*
X251968000Y-127087440D01*
X251968000Y-143966074D01*
X251661885Y-144092558D01*
X251370481Y-144383454D01*
X251212580Y-144763723D01*
X251212221Y-145175471D01*
X251311241Y-145415119D01*
X251212580Y-145652723D01*
X251212221Y-146064471D01*
X251311241Y-146304119D01*
X251212580Y-146541723D01*
X251212221Y-146953471D01*
X251369458Y-147334015D01*
X251660354Y-147625419D01*
X251968000Y-147753164D01*
X251968000Y-149333000D01*
X251763029Y-149332821D01*
X251382485Y-149490058D01*
X251091081Y-149780954D01*
X250933180Y-150161223D01*
X250932821Y-150572971D01*
X251054830Y-150868256D01*
X250933180Y-151161223D01*
X250932821Y-151572971D01*
X251054830Y-151868256D01*
X250933180Y-152161223D01*
X250932821Y-152572971D01*
X251054830Y-152868256D01*
X250933180Y-153161223D01*
X250932821Y-153572971D01*
X251054830Y-153868256D01*
X250933180Y-154161223D01*
X250932821Y-154572971D01*
X251090058Y-154953515D01*
X251380954Y-155244919D01*
X251761223Y-155402820D01*
X251968000Y-155403000D01*
X251968000Y-157110574D01*
X251661885Y-157237058D01*
X251370481Y-157527954D01*
X251212580Y-157908223D01*
X251212221Y-158319971D01*
X251311241Y-158559619D01*
X251212580Y-158797223D01*
X251212221Y-159208971D01*
X251311241Y-159448619D01*
X251212580Y-159686223D01*
X251212221Y-160097971D01*
X251369458Y-160478515D01*
X251660354Y-160769919D01*
X251968000Y-160897664D01*
X251968000Y-178979974D01*
X251661885Y-179106458D01*
X251370481Y-179397354D01*
X251212580Y-179777623D01*
X251212221Y-180189371D01*
X251305981Y-180416288D01*
X251212580Y-180641223D01*
X251212221Y-181052971D01*
X251313623Y-181298384D01*
X251212580Y-181541723D01*
X251212221Y-181953471D01*
X251369458Y-182334015D01*
X251660354Y-182625419D01*
X251968000Y-182753164D01*
X251968000Y-184333000D01*
X251763029Y-184332821D01*
X251382485Y-184490058D01*
X251091081Y-184780954D01*
X250933180Y-185161223D01*
X250932821Y-185572971D01*
X251054830Y-185868256D01*
X250933180Y-186161223D01*
X250932821Y-186572971D01*
X251054830Y-186868256D01*
X250933180Y-187161223D01*
X250932821Y-187572971D01*
X251054830Y-187868256D01*
X250933180Y-188161223D01*
X250932821Y-188572971D01*
X251054830Y-188868256D01*
X250933180Y-189161223D01*
X250932821Y-189572971D01*
X251090058Y-189953515D01*
X251380954Y-190244919D01*
X251761223Y-190402820D01*
X251968000Y-190403000D01*
X251968000Y-192110574D01*
X251661885Y-192237058D01*
X251370481Y-192527954D01*
X251212580Y-192908223D01*
X251212221Y-193319971D01*
X251311241Y-193559619D01*
X251212580Y-193797223D01*
X251212221Y-194208971D01*
X251311241Y-194448619D01*
X251212580Y-194686223D01*
X251212221Y-195097971D01*
X251369458Y-195478515D01*
X251660354Y-195769919D01*
X251968000Y-195897664D01*
X251968000Y-213966074D01*
X251661885Y-214092558D01*
X251370481Y-214383454D01*
X251212580Y-214763723D01*
X251212221Y-215175471D01*
X251311241Y-215415119D01*
X251212580Y-215652723D01*
X251212221Y-216064471D01*
X251311241Y-216304119D01*
X251212580Y-216541723D01*
X251212221Y-216953471D01*
X251369458Y-217334015D01*
X251660354Y-217625419D01*
X251968000Y-217753164D01*
X251968000Y-219333000D01*
X251763029Y-219332821D01*
X251382485Y-219490058D01*
X251091081Y-219780954D01*
X250933180Y-220161223D01*
X250932821Y-220572971D01*
X251054830Y-220868256D01*
X250933180Y-221161223D01*
X250932821Y-221572971D01*
X251054830Y-221868256D01*
X250933180Y-222161223D01*
X250932821Y-222572971D01*
X251054830Y-222868256D01*
X250933180Y-223161223D01*
X250932821Y-223572971D01*
X251054830Y-223868256D01*
X250933180Y-224161223D01*
X250932821Y-224572971D01*
X251090058Y-224953515D01*
X251380954Y-225244919D01*
X251761223Y-225402820D01*
X251968000Y-225403000D01*
X251968000Y-227110574D01*
X251661885Y-227237058D01*
X251370481Y-227527954D01*
X251212580Y-227908223D01*
X251212221Y-228319971D01*
X251311241Y-228559619D01*
X251212580Y-228797223D01*
X251212221Y-229208971D01*
X251311241Y-229448619D01*
X251212580Y-229686223D01*
X251212221Y-230097971D01*
X251369458Y-230478515D01*
X251660354Y-230769919D01*
X251968000Y-230897664D01*
X251968000Y-248966074D01*
X251661885Y-249092558D01*
X251370481Y-249383454D01*
X251212580Y-249763723D01*
X251212221Y-250175471D01*
X251311241Y-250415119D01*
X251212580Y-250652723D01*
X251212221Y-251064471D01*
X251311241Y-251304119D01*
X251212580Y-251541723D01*
X251212221Y-251953471D01*
X251369458Y-252334015D01*
X251660354Y-252625419D01*
X251968000Y-252753164D01*
X251968000Y-254333000D01*
X251763029Y-254332821D01*
X251382485Y-254490058D01*
X251091081Y-254780954D01*
X250933180Y-255161223D01*
X250932821Y-255572971D01*
X251054830Y-255868256D01*
X250933180Y-256161223D01*
X250932821Y-256572971D01*
X251054830Y-256868256D01*
X250933180Y-257161223D01*
X250932821Y-257572971D01*
X251054830Y-257868256D01*
X250933180Y-258161223D01*
X250932821Y-258572971D01*
X251054830Y-258868256D01*
X250933180Y-259161223D01*
X250932821Y-259572971D01*
X251090058Y-259953515D01*
X251380954Y-260244919D01*
X251761223Y-260402820D01*
X251968000Y-260403000D01*
X251968000Y-262110574D01*
X251661885Y-262237058D01*
X251370481Y-262527954D01*
X251212580Y-262908223D01*
X251212221Y-263319971D01*
X251311241Y-263559619D01*
X251212580Y-263797223D01*
X251212221Y-264208971D01*
X251311241Y-264448619D01*
X251212580Y-264686223D01*
X251212221Y-265097971D01*
X251369458Y-265478515D01*
X251660354Y-265769919D01*
X251968000Y-265897664D01*
X251968000Y-271705000D01*
X246507000Y-271705000D01*
X246507000Y-266406716D01*
X247438342Y-266406716D01*
X247566161Y-266716060D01*
X247502158Y-266870196D01*
X247501842Y-267232216D01*
X247640090Y-267566800D01*
X247895853Y-267823011D01*
X248230196Y-267961842D01*
X248592216Y-267962158D01*
X248926800Y-267823910D01*
X249183011Y-267568147D01*
X249321842Y-267233804D01*
X249322158Y-266871784D01*
X249194339Y-266562440D01*
X249258342Y-266408304D01*
X249258658Y-266046284D01*
X249120410Y-265711700D01*
X248864647Y-265455489D01*
X248530304Y-265316658D01*
X248168284Y-265316342D01*
X247833700Y-265454590D01*
X247577489Y-265710353D01*
X247438658Y-266044696D01*
X247438342Y-266406716D01*
X246507000Y-266406716D01*
X246507000Y-262660216D01*
X248136842Y-262660216D01*
X248275090Y-262994800D01*
X248530853Y-263251011D01*
X248865196Y-263389842D01*
X249227216Y-263390158D01*
X249561800Y-263251910D01*
X249818011Y-262996147D01*
X249956842Y-262661804D01*
X249957158Y-262299784D01*
X249881636Y-262117009D01*
X249900658Y-262109149D01*
X250199101Y-261811226D01*
X250360816Y-261421772D01*
X250361184Y-261000078D01*
X250200149Y-260610342D01*
X249902226Y-260311899D01*
X249512772Y-260150184D01*
X249091078Y-260149816D01*
X248701342Y-260310851D01*
X248402899Y-260608774D01*
X248241184Y-260998228D01*
X248240816Y-261419922D01*
X248401851Y-261809658D01*
X248416128Y-261823959D01*
X248275989Y-261963853D01*
X248137158Y-262298196D01*
X248136842Y-262660216D01*
X246507000Y-262660216D01*
X246507000Y-259435600D01*
X248539000Y-259435600D01*
X248820885Y-259379530D01*
X249059855Y-259219855D01*
X249567855Y-258711855D01*
X249727530Y-258472885D01*
X249783600Y-258191000D01*
X249783600Y-256540000D01*
X249727530Y-256258115D01*
X249567855Y-256019145D01*
X249284855Y-255736145D01*
X249045885Y-255576470D01*
X248764000Y-255520400D01*
X248454498Y-255520400D01*
X248420147Y-255485989D01*
X248085804Y-255347158D01*
X247723784Y-255346842D01*
X247389200Y-255485090D01*
X247132989Y-255740853D01*
X246994158Y-256075196D01*
X246993842Y-256437216D01*
X247132090Y-256771800D01*
X247252065Y-256891985D01*
X247132989Y-257010853D01*
X247054282Y-257200400D01*
X246507000Y-257200400D01*
X246507000Y-231406716D01*
X247438342Y-231406716D01*
X247566161Y-231716060D01*
X247502158Y-231870196D01*
X247501842Y-232232216D01*
X247640090Y-232566800D01*
X247895853Y-232823011D01*
X248230196Y-232961842D01*
X248592216Y-232962158D01*
X248926800Y-232823910D01*
X249183011Y-232568147D01*
X249321842Y-232233804D01*
X249322158Y-231871784D01*
X249194339Y-231562440D01*
X249258342Y-231408304D01*
X249258658Y-231046284D01*
X249120410Y-230711700D01*
X248864647Y-230455489D01*
X248530304Y-230316658D01*
X248168284Y-230316342D01*
X247833700Y-230454590D01*
X247577489Y-230710353D01*
X247438658Y-231044696D01*
X247438342Y-231406716D01*
X246507000Y-231406716D01*
X246507000Y-227660216D01*
X248136842Y-227660216D01*
X248275090Y-227994800D01*
X248530853Y-228251011D01*
X248865196Y-228389842D01*
X249227216Y-228390158D01*
X249561800Y-228251910D01*
X249818011Y-227996147D01*
X249956842Y-227661804D01*
X249957158Y-227299784D01*
X249881636Y-227117009D01*
X249900658Y-227109149D01*
X250199101Y-226811226D01*
X250360816Y-226421772D01*
X250361184Y-226000078D01*
X250200149Y-225610342D01*
X249902226Y-225311899D01*
X249512772Y-225150184D01*
X249091078Y-225149816D01*
X248701342Y-225310851D01*
X248402899Y-225608774D01*
X248241184Y-225998228D01*
X248240816Y-226419922D01*
X248401851Y-226809658D01*
X248416128Y-226823959D01*
X248275989Y-226963853D01*
X248137158Y-227298196D01*
X248136842Y-227660216D01*
X246507000Y-227660216D01*
X246507000Y-221437216D01*
X246993842Y-221437216D01*
X247132090Y-221771800D01*
X247252065Y-221891985D01*
X247132989Y-222010853D01*
X246994158Y-222345196D01*
X246993842Y-222707216D01*
X247132090Y-223041800D01*
X247387853Y-223298011D01*
X247722196Y-223436842D01*
X248084216Y-223437158D01*
X248418800Y-223298910D01*
X248675011Y-223043147D01*
X248813842Y-222708804D01*
X248813893Y-222649841D01*
X249056011Y-222408147D01*
X249194842Y-222073804D01*
X249195158Y-221711784D01*
X249056910Y-221377200D01*
X248814108Y-221133973D01*
X248814158Y-221076784D01*
X248675910Y-220742200D01*
X248420147Y-220485989D01*
X248085804Y-220347158D01*
X247723784Y-220346842D01*
X247389200Y-220485090D01*
X247132989Y-220740853D01*
X246994158Y-221075196D01*
X246993842Y-221437216D01*
X246507000Y-221437216D01*
X246507000Y-196406716D01*
X247438342Y-196406716D01*
X247566161Y-196716060D01*
X247502158Y-196870196D01*
X247501842Y-197232216D01*
X247640090Y-197566800D01*
X247895853Y-197823011D01*
X248230196Y-197961842D01*
X248592216Y-197962158D01*
X248926800Y-197823910D01*
X249183011Y-197568147D01*
X249321842Y-197233804D01*
X249322158Y-196871784D01*
X249194339Y-196562440D01*
X249258342Y-196408304D01*
X249258658Y-196046284D01*
X249120410Y-195711700D01*
X248864647Y-195455489D01*
X248530304Y-195316658D01*
X248168284Y-195316342D01*
X247833700Y-195454590D01*
X247577489Y-195710353D01*
X247438658Y-196044696D01*
X247438342Y-196406716D01*
X246507000Y-196406716D01*
X246507000Y-192660216D01*
X248136842Y-192660216D01*
X248275090Y-192994800D01*
X248530853Y-193251011D01*
X248865196Y-193389842D01*
X249227216Y-193390158D01*
X249561800Y-193251910D01*
X249818011Y-192996147D01*
X249956842Y-192661804D01*
X249957158Y-192299784D01*
X249881636Y-192117009D01*
X249900658Y-192109149D01*
X250199101Y-191811226D01*
X250360816Y-191421772D01*
X250361184Y-191000078D01*
X250200149Y-190610342D01*
X249902226Y-190311899D01*
X249512772Y-190150184D01*
X249091078Y-190149816D01*
X248701342Y-190310851D01*
X248402899Y-190608774D01*
X248241184Y-190998228D01*
X248240816Y-191419922D01*
X248401851Y-191809658D01*
X248416128Y-191823959D01*
X248275989Y-191963853D01*
X248137158Y-192298196D01*
X248136842Y-192660216D01*
X246507000Y-192660216D01*
X246507000Y-186437216D01*
X246993842Y-186437216D01*
X247132090Y-186771800D01*
X247252065Y-186891985D01*
X247132989Y-187010853D01*
X246994158Y-187345196D01*
X246993842Y-187707216D01*
X247132090Y-188041800D01*
X247387853Y-188298011D01*
X247722196Y-188436842D01*
X248084216Y-188437158D01*
X248418800Y-188298910D01*
X248675011Y-188043147D01*
X248813842Y-187708804D01*
X248813893Y-187649841D01*
X249056011Y-187408147D01*
X249194842Y-187073804D01*
X249195158Y-186711784D01*
X249056910Y-186377200D01*
X248814108Y-186133973D01*
X248814158Y-186076784D01*
X248675910Y-185742200D01*
X248420147Y-185485989D01*
X248085804Y-185347158D01*
X247723784Y-185346842D01*
X247389200Y-185485090D01*
X247132989Y-185740853D01*
X246994158Y-186075196D01*
X246993842Y-186437216D01*
X246507000Y-186437216D01*
X246507000Y-161406716D01*
X247438342Y-161406716D01*
X247566161Y-161716060D01*
X247502158Y-161870196D01*
X247501842Y-162232216D01*
X247640090Y-162566800D01*
X247895853Y-162823011D01*
X248230196Y-162961842D01*
X248592216Y-162962158D01*
X248926800Y-162823910D01*
X249183011Y-162568147D01*
X249321842Y-162233804D01*
X249322158Y-161871784D01*
X249194339Y-161562440D01*
X249258342Y-161408304D01*
X249258658Y-161046284D01*
X249120410Y-160711700D01*
X248864647Y-160455489D01*
X248530304Y-160316658D01*
X248168284Y-160316342D01*
X247833700Y-160454590D01*
X247577489Y-160710353D01*
X247438658Y-161044696D01*
X247438342Y-161406716D01*
X246507000Y-161406716D01*
X246507000Y-157660216D01*
X248136842Y-157660216D01*
X248275090Y-157994800D01*
X248530853Y-158251011D01*
X248865196Y-158389842D01*
X249227216Y-158390158D01*
X249561800Y-158251910D01*
X249818011Y-157996147D01*
X249956842Y-157661804D01*
X249957158Y-157299784D01*
X249881636Y-157117009D01*
X249900658Y-157109149D01*
X250199101Y-156811226D01*
X250360816Y-156421772D01*
X250361184Y-156000078D01*
X250200149Y-155610342D01*
X249902226Y-155311899D01*
X249512772Y-155150184D01*
X249091078Y-155149816D01*
X248701342Y-155310851D01*
X248402899Y-155608774D01*
X248241184Y-155998228D01*
X248240816Y-156419922D01*
X248401851Y-156809658D01*
X248416128Y-156823959D01*
X248275989Y-156963853D01*
X248137158Y-157298196D01*
X248136842Y-157660216D01*
X246507000Y-157660216D01*
X246507000Y-151437216D01*
X246993842Y-151437216D01*
X247132090Y-151771800D01*
X247252065Y-151891985D01*
X247132989Y-152010853D01*
X246994158Y-152345196D01*
X246993842Y-152707216D01*
X247132090Y-153041800D01*
X247387853Y-153298011D01*
X247722196Y-153436842D01*
X248084216Y-153437158D01*
X248418800Y-153298910D01*
X248675011Y-153043147D01*
X248813842Y-152708804D01*
X248813893Y-152649841D01*
X249056011Y-152408147D01*
X249194842Y-152073804D01*
X249195158Y-151711784D01*
X249056910Y-151377200D01*
X248814108Y-151133973D01*
X248814158Y-151076784D01*
X248675910Y-150742200D01*
X248420147Y-150485989D01*
X248085804Y-150347158D01*
X247723784Y-150346842D01*
X247389200Y-150485090D01*
X247132989Y-150740853D01*
X246994158Y-151075196D01*
X246993842Y-151437216D01*
X246507000Y-151437216D01*
X246507000Y-116915000D01*
X251968000Y-116915000D01*
X251968000Y-121832560D01*
G36*
X245618000Y-257200400D02*
X239319110Y-257200400D01*
X238353600Y-256234890D01*
X238353600Y-223394166D01*
X238639800Y-223275910D01*
X238896011Y-223020147D01*
X239034842Y-222685804D01*
X239035158Y-222323784D01*
X238896910Y-221989200D01*
X238641147Y-221732989D01*
X238353600Y-221613589D01*
X238353600Y-188469166D01*
X238639800Y-188350910D01*
X238896011Y-188095147D01*
X239034842Y-187760804D01*
X239035158Y-187398784D01*
X238896910Y-187064200D01*
X238641147Y-186807989D01*
X238353600Y-186688589D01*
X238353600Y-183568216D01*
X240516842Y-183568216D01*
X240655090Y-183902800D01*
X240910853Y-184159011D01*
X241245196Y-184297842D01*
X241607216Y-184298158D01*
X241941800Y-184159910D01*
X242198011Y-183904147D01*
X242336842Y-183569804D01*
X242337158Y-183207784D01*
X242314345Y-183152572D01*
X242452011Y-183015147D01*
X242590842Y-182680804D01*
X242591158Y-182318784D01*
X242452910Y-181984200D01*
X242197147Y-181727989D01*
X241862804Y-181589158D01*
X241500784Y-181588842D01*
X241166200Y-181727090D01*
X240909989Y-181982853D01*
X240771158Y-182317196D01*
X240770842Y-182679216D01*
X240793655Y-182734428D01*
X240655989Y-182871853D01*
X240517158Y-183206196D01*
X240516842Y-183568216D01*
X238353600Y-183568216D01*
X238353600Y-180647216D01*
X241024842Y-180647216D01*
X241163090Y-180981800D01*
X241418853Y-181238011D01*
X241753196Y-181376842D01*
X242115216Y-181377158D01*
X242449800Y-181238910D01*
X242706011Y-180983147D01*
X242813068Y-180725326D01*
X242814090Y-180727800D01*
X243069853Y-180984011D01*
X243404196Y-181122842D01*
X243766216Y-181123158D01*
X244100800Y-180984910D01*
X244357011Y-180729147D01*
X244495842Y-180394804D01*
X244496158Y-180032784D01*
X244357910Y-179698200D01*
X244102147Y-179441989D01*
X243767804Y-179303158D01*
X243405784Y-179302842D01*
X243071200Y-179441090D01*
X242814989Y-179696853D01*
X242707932Y-179954674D01*
X242706910Y-179952200D01*
X242451147Y-179695989D01*
X242116804Y-179557158D01*
X241754784Y-179556842D01*
X241420200Y-179695090D01*
X241163989Y-179950853D01*
X241025158Y-180285196D01*
X241024842Y-180647216D01*
X238353600Y-180647216D01*
X238353600Y-176710216D01*
X241405842Y-176710216D01*
X241544090Y-177044800D01*
X241799853Y-177301011D01*
X242134196Y-177439842D01*
X242421847Y-177440093D01*
X242333850Y-177652015D01*
X242135784Y-177651842D01*
X241801200Y-177790090D01*
X241544989Y-178045853D01*
X241406158Y-178380196D01*
X241405842Y-178742216D01*
X241544090Y-179076800D01*
X241799853Y-179333011D01*
X242134196Y-179471842D01*
X242496216Y-179472158D01*
X242830800Y-179333910D01*
X243087011Y-179078147D01*
X243187150Y-178836985D01*
X243385216Y-178837158D01*
X243719800Y-178698910D01*
X243976011Y-178443147D01*
X244114842Y-178108804D01*
X244115158Y-177746784D01*
X243976910Y-177412200D01*
X243721147Y-177155989D01*
X243386804Y-177017158D01*
X243099153Y-177016907D01*
X243225842Y-176711804D01*
X243226158Y-176349784D01*
X243087910Y-176015200D01*
X242832147Y-175758989D01*
X242497804Y-175620158D01*
X242135784Y-175619842D01*
X241801200Y-175758090D01*
X241544989Y-176013853D01*
X241406158Y-176348196D01*
X241405842Y-176710216D01*
X238353600Y-176710216D01*
X238353600Y-171628110D01*
X238430110Y-171551600D01*
X240876502Y-171551600D01*
X240910853Y-171586011D01*
X241245196Y-171724842D01*
X241607216Y-171725158D01*
X241941800Y-171586910D01*
X242198011Y-171331147D01*
X242336842Y-170996804D01*
X242337158Y-170634784D01*
X242198910Y-170300200D01*
X241943147Y-170043989D01*
X241608804Y-169905158D01*
X241246784Y-169904842D01*
X240912200Y-170043090D01*
X240876828Y-170078400D01*
X238125000Y-170078400D01*
X237845600Y-170133976D01*
X237845600Y-169850110D01*
X238264855Y-169430855D01*
X238292077Y-169390115D01*
X238424530Y-169191885D01*
X238480600Y-168910000D01*
X238480600Y-168444498D01*
X238515011Y-168410147D01*
X238653842Y-168075804D01*
X238654158Y-167713784D01*
X238515910Y-167379200D01*
X238260147Y-167122989D01*
X237925804Y-166984158D01*
X237563784Y-166983842D01*
X237229200Y-167122090D01*
X236972989Y-167377853D01*
X236856466Y-167658473D01*
X236761784Y-167619158D01*
X236399764Y-167618842D01*
X236250028Y-167680712D01*
X235988945Y-167419173D01*
X235562751Y-167242202D01*
X235101274Y-167241799D01*
X234674771Y-167418026D01*
X234348173Y-167744055D01*
X234171202Y-168170249D01*
X234170799Y-168631726D01*
X234347026Y-169058229D01*
X234673055Y-169384827D01*
X235099249Y-169561798D01*
X235229400Y-169561912D01*
X235229400Y-185758502D01*
X235194989Y-185792853D01*
X235056158Y-186127196D01*
X235055842Y-186489216D01*
X235194090Y-186823800D01*
X235229400Y-186859172D01*
X235229400Y-187706000D01*
X235285470Y-187987885D01*
X235445145Y-188226855D01*
X235864400Y-188646110D01*
X235864400Y-220069911D01*
X235785784Y-220069842D01*
X235451200Y-220208090D01*
X235194989Y-220463853D01*
X235056158Y-220798196D01*
X235055842Y-221160216D01*
X235194090Y-221494800D01*
X235264534Y-221565368D01*
X235229400Y-221742000D01*
X235229400Y-222250000D01*
X235285470Y-222531885D01*
X235445145Y-222770855D01*
X235864400Y-223190110D01*
X235864400Y-256667000D01*
X235920470Y-256948885D01*
X236080145Y-257187855D01*
X238112145Y-259219855D01*
X238351115Y-259379530D01*
X238633000Y-259435600D01*
X245618000Y-259435600D01*
X245618000Y-271705000D01*
X232485000Y-271705000D01*
X232485000Y-177345216D01*
X232642842Y-177345216D01*
X232781090Y-177679800D01*
X232964565Y-177863596D01*
X232781989Y-178045853D01*
X232643158Y-178380196D01*
X232642842Y-178742216D01*
X232781090Y-179076800D01*
X232837565Y-179133374D01*
X232781989Y-179188853D01*
X232643158Y-179523196D01*
X232642842Y-179885216D01*
X232781090Y-180219800D01*
X232964565Y-180403596D01*
X232781989Y-180585853D01*
X232643158Y-180920196D01*
X232642842Y-181282216D01*
X232781090Y-181616800D01*
X232901065Y-181736985D01*
X232781989Y-181855853D01*
X232643158Y-182190196D01*
X232642842Y-182552216D01*
X232781090Y-182886800D01*
X232837565Y-182943374D01*
X232781989Y-182998853D01*
X232643158Y-183333196D01*
X232642842Y-183695216D01*
X232781090Y-184029800D01*
X233036853Y-184286011D01*
X233371196Y-184424842D01*
X233733216Y-184425158D01*
X234067800Y-184286910D01*
X234324011Y-184031147D01*
X234462842Y-183696804D01*
X234463158Y-183334784D01*
X234324910Y-183000200D01*
X234268435Y-182943626D01*
X234324011Y-182888147D01*
X234462842Y-182553804D01*
X234463158Y-182191784D01*
X234324910Y-181857200D01*
X234204935Y-181737015D01*
X234324011Y-181618147D01*
X234462842Y-181283804D01*
X234463158Y-180921784D01*
X234324910Y-180587200D01*
X234141435Y-180403404D01*
X234324011Y-180221147D01*
X234462842Y-179886804D01*
X234463158Y-179524784D01*
X234324910Y-179190200D01*
X234268435Y-179133626D01*
X234324011Y-179078147D01*
X234462842Y-178743804D01*
X234463158Y-178381784D01*
X234324910Y-178047200D01*
X234141435Y-177863404D01*
X234324011Y-177681147D01*
X234462842Y-177346804D01*
X234463158Y-176984784D01*
X234328955Y-176659990D01*
X234451011Y-176538147D01*
X234589842Y-176203804D01*
X234590158Y-175841784D01*
X234451910Y-175507200D01*
X234196147Y-175250989D01*
X233861804Y-175112158D01*
X233499784Y-175111842D01*
X233165200Y-175250090D01*
X232908989Y-175505853D01*
X232770158Y-175840196D01*
X232769842Y-176202216D01*
X232904045Y-176527010D01*
X232781989Y-176648853D01*
X232643158Y-176983196D01*
X232642842Y-177345216D01*
X232485000Y-177345216D01*
X232485000Y-121397628D01*
X238140591Y-121397628D01*
X238324414Y-121842514D01*
X238664495Y-122183190D01*
X239109060Y-122367789D01*
X239590428Y-122368209D01*
X240035314Y-122184386D01*
X240375990Y-121844305D01*
X240560589Y-121399740D01*
X240561009Y-120918372D01*
X240377186Y-120473486D01*
X240037105Y-120132810D01*
X239592540Y-119948211D01*
X239111172Y-119947791D01*
X238666286Y-120131614D01*
X238325610Y-120471695D01*
X238141011Y-120916260D01*
X238140591Y-121397628D01*
X232485000Y-121397628D01*
X232485000Y-116915000D01*
X245618000Y-116915000D01*
X245618000Y-257200400D01*
X245618000Y-257200400D01*
G37*
X245618000Y-257200400D02*
X239319110Y-257200400D01*
X238353600Y-256234890D01*
X238353600Y-223394166D01*
X238639800Y-223275910D01*
X238896011Y-223020147D01*
X239034842Y-222685804D01*
X239035158Y-222323784D01*
X238896910Y-221989200D01*
X238641147Y-221732989D01*
X238353600Y-221613589D01*
X238353600Y-188469166D01*
X238639800Y-188350910D01*
X238896011Y-188095147D01*
X239034842Y-187760804D01*
X239035158Y-187398784D01*
X238896910Y-187064200D01*
X238641147Y-186807989D01*
X238353600Y-186688589D01*
X238353600Y-183568216D01*
X240516842Y-183568216D01*
X240655090Y-183902800D01*
X240910853Y-184159011D01*
X241245196Y-184297842D01*
X241607216Y-184298158D01*
X241941800Y-184159910D01*
X242198011Y-183904147D01*
X242336842Y-183569804D01*
X242337158Y-183207784D01*
X242314345Y-183152572D01*
X242452011Y-183015147D01*
X242590842Y-182680804D01*
X242591158Y-182318784D01*
X242452910Y-181984200D01*
X242197147Y-181727989D01*
X241862804Y-181589158D01*
X241500784Y-181588842D01*
X241166200Y-181727090D01*
X240909989Y-181982853D01*
X240771158Y-182317196D01*
X240770842Y-182679216D01*
X240793655Y-182734428D01*
X240655989Y-182871853D01*
X240517158Y-183206196D01*
X240516842Y-183568216D01*
X238353600Y-183568216D01*
X238353600Y-180647216D01*
X241024842Y-180647216D01*
X241163090Y-180981800D01*
X241418853Y-181238011D01*
X241753196Y-181376842D01*
X242115216Y-181377158D01*
X242449800Y-181238910D01*
X242706011Y-180983147D01*
X242813068Y-180725326D01*
X242814090Y-180727800D01*
X243069853Y-180984011D01*
X243404196Y-181122842D01*
X243766216Y-181123158D01*
X244100800Y-180984910D01*
X244357011Y-180729147D01*
X244495842Y-180394804D01*
X244496158Y-180032784D01*
X244357910Y-179698200D01*
X244102147Y-179441989D01*
X243767804Y-179303158D01*
X243405784Y-179302842D01*
X243071200Y-179441090D01*
X242814989Y-179696853D01*
X242707932Y-179954674D01*
X242706910Y-179952200D01*
X242451147Y-179695989D01*
X242116804Y-179557158D01*
X241754784Y-179556842D01*
X241420200Y-179695090D01*
X241163989Y-179950853D01*
X241025158Y-180285196D01*
X241024842Y-180647216D01*
X238353600Y-180647216D01*
X238353600Y-176710216D01*
X241405842Y-176710216D01*
X241544090Y-177044800D01*
X241799853Y-177301011D01*
X242134196Y-177439842D01*
X242421847Y-177440093D01*
X242333850Y-177652015D01*
X242135784Y-177651842D01*
X241801200Y-177790090D01*
X241544989Y-178045853D01*
X241406158Y-178380196D01*
X241405842Y-178742216D01*
X241544090Y-179076800D01*
X241799853Y-179333011D01*
X242134196Y-179471842D01*
X242496216Y-179472158D01*
X242830800Y-179333910D01*
X243087011Y-179078147D01*
X243187150Y-178836985D01*
X243385216Y-178837158D01*
X243719800Y-178698910D01*
X243976011Y-178443147D01*
X244114842Y-178108804D01*
X244115158Y-177746784D01*
X243976910Y-177412200D01*
X243721147Y-177155989D01*
X243386804Y-177017158D01*
X243099153Y-177016907D01*
X243225842Y-176711804D01*
X243226158Y-176349784D01*
X243087910Y-176015200D01*
X242832147Y-175758989D01*
X242497804Y-175620158D01*
X242135784Y-175619842D01*
X241801200Y-175758090D01*
X241544989Y-176013853D01*
X241406158Y-176348196D01*
X241405842Y-176710216D01*
X238353600Y-176710216D01*
X238353600Y-171628110D01*
X238430110Y-171551600D01*
X240876502Y-171551600D01*
X240910853Y-171586011D01*
X241245196Y-171724842D01*
X241607216Y-171725158D01*
X241941800Y-171586910D01*
X242198011Y-171331147D01*
X242336842Y-170996804D01*
X242337158Y-170634784D01*
X242198910Y-170300200D01*
X241943147Y-170043989D01*
X241608804Y-169905158D01*
X241246784Y-169904842D01*
X240912200Y-170043090D01*
X240876828Y-170078400D01*
X238125000Y-170078400D01*
X237845600Y-170133976D01*
X237845600Y-169850110D01*
X238264855Y-169430855D01*
X238292077Y-169390115D01*
X238424530Y-169191885D01*
X238480600Y-168910000D01*
X238480600Y-168444498D01*
X238515011Y-168410147D01*
X238653842Y-168075804D01*
X238654158Y-167713784D01*
X238515910Y-167379200D01*
X238260147Y-167122989D01*
X237925804Y-166984158D01*
X237563784Y-166983842D01*
X237229200Y-167122090D01*
X236972989Y-167377853D01*
X236856466Y-167658473D01*
X236761784Y-167619158D01*
X236399764Y-167618842D01*
X236250028Y-167680712D01*
X235988945Y-167419173D01*
X235562751Y-167242202D01*
X235101274Y-167241799D01*
X234674771Y-167418026D01*
X234348173Y-167744055D01*
X234171202Y-168170249D01*
X234170799Y-168631726D01*
X234347026Y-169058229D01*
X234673055Y-169384827D01*
X235099249Y-169561798D01*
X235229400Y-169561912D01*
X235229400Y-185758502D01*
X235194989Y-185792853D01*
X235056158Y-186127196D01*
X235055842Y-186489216D01*
X235194090Y-186823800D01*
X235229400Y-186859172D01*
X235229400Y-187706000D01*
X235285470Y-187987885D01*
X235445145Y-188226855D01*
X235864400Y-188646110D01*
X235864400Y-220069911D01*
X235785784Y-220069842D01*
X235451200Y-220208090D01*
X235194989Y-220463853D01*
X235056158Y-220798196D01*
X235055842Y-221160216D01*
X235194090Y-221494800D01*
X235264534Y-221565368D01*
X235229400Y-221742000D01*
X235229400Y-222250000D01*
X235285470Y-222531885D01*
X235445145Y-222770855D01*
X235864400Y-223190110D01*
X235864400Y-256667000D01*
X235920470Y-256948885D01*
X236080145Y-257187855D01*
X238112145Y-259219855D01*
X238351115Y-259379530D01*
X238633000Y-259435600D01*
X245618000Y-259435600D01*
X245618000Y-271705000D01*
X232485000Y-271705000D01*
X232485000Y-177345216D01*
X232642842Y-177345216D01*
X232781090Y-177679800D01*
X232964565Y-177863596D01*
X232781989Y-178045853D01*
X232643158Y-178380196D01*
X232642842Y-178742216D01*
X232781090Y-179076800D01*
X232837565Y-179133374D01*
X232781989Y-179188853D01*
X232643158Y-179523196D01*
X232642842Y-179885216D01*
X232781090Y-180219800D01*
X232964565Y-180403596D01*
X232781989Y-180585853D01*
X232643158Y-180920196D01*
X232642842Y-181282216D01*
X232781090Y-181616800D01*
X232901065Y-181736985D01*
X232781989Y-181855853D01*
X232643158Y-182190196D01*
X232642842Y-182552216D01*
X232781090Y-182886800D01*
X232837565Y-182943374D01*
X232781989Y-182998853D01*
X232643158Y-183333196D01*
X232642842Y-183695216D01*
X232781090Y-184029800D01*
X233036853Y-184286011D01*
X233371196Y-184424842D01*
X233733216Y-184425158D01*
X234067800Y-184286910D01*
X234324011Y-184031147D01*
X234462842Y-183696804D01*
X234463158Y-183334784D01*
X234324910Y-183000200D01*
X234268435Y-182943626D01*
X234324011Y-182888147D01*
X234462842Y-182553804D01*
X234463158Y-182191784D01*
X234324910Y-181857200D01*
X234204935Y-181737015D01*
X234324011Y-181618147D01*
X234462842Y-181283804D01*
X234463158Y-180921784D01*
X234324910Y-180587200D01*
X234141435Y-180403404D01*
X234324011Y-180221147D01*
X234462842Y-179886804D01*
X234463158Y-179524784D01*
X234324910Y-179190200D01*
X234268435Y-179133626D01*
X234324011Y-179078147D01*
X234462842Y-178743804D01*
X234463158Y-178381784D01*
X234324910Y-178047200D01*
X234141435Y-177863404D01*
X234324011Y-177681147D01*
X234462842Y-177346804D01*
X234463158Y-176984784D01*
X234328955Y-176659990D01*
X234451011Y-176538147D01*
X234589842Y-176203804D01*
X234590158Y-175841784D01*
X234451910Y-175507200D01*
X234196147Y-175250989D01*
X233861804Y-175112158D01*
X233499784Y-175111842D01*
X233165200Y-175250090D01*
X232908989Y-175505853D01*
X232770158Y-175840196D01*
X232769842Y-176202216D01*
X232904045Y-176527010D01*
X232781989Y-176648853D01*
X232643158Y-176983196D01*
X232642842Y-177345216D01*
X232485000Y-177345216D01*
X232485000Y-121397628D01*
X238140591Y-121397628D01*
X238324414Y-121842514D01*
X238664495Y-122183190D01*
X239109060Y-122367789D01*
X239590428Y-122368209D01*
X240035314Y-122184386D01*
X240375990Y-121844305D01*
X240560589Y-121399740D01*
X240561009Y-120918372D01*
X240377186Y-120473486D01*
X240037105Y-120132810D01*
X239592540Y-119948211D01*
X239111172Y-119947791D01*
X238666286Y-120131614D01*
X238325610Y-120471695D01*
X238141011Y-120916260D01*
X238140591Y-121397628D01*
X232485000Y-121397628D01*
X232485000Y-116915000D01*
X245618000Y-116915000D01*
X245618000Y-257200400D01*
M02*
