G04 #@! TF.FileFunction,Copper,L4,Bot,Mixed*
%FSLAX46Y46*%
G04 Gerber Fmt 4.6, Leading zero omitted, Abs format (unit mm)*
G04 Created by KiCad (PCBNEW 4.0.1-stable) date 07-10-2017 22:38:10*
%MOMM*%
G01*
G04 APERTURE LIST*
%ADD10C,0.100000*%
%ADD11C,0.800000*%
%ADD12R,2.032000X1.727200*%
%ADD13O,2.032000X1.727200*%
%ADD14R,1.980000X3.960000*%
%ADD15O,1.980000X3.960000*%
%ADD16C,0.550000*%
%ADD17C,0.850000*%
%ADD18C,0.750000*%
%ADD19C,1.050000*%
%ADD20C,1.150000*%
%ADD21C,0.650000*%
%ADD22C,0.406400*%
%ADD23C,0.203200*%
%ADD24C,0.254000*%
G04 APERTURE END LIST*
D10*
D11*
X255524000Y-216748500D03*
X252247400Y-181748500D03*
X252247400Y-180848000D03*
X252247400Y-179984400D03*
X259715000Y-246097000D03*
X259715000Y-211097000D03*
X259715000Y-176097000D03*
X260604000Y-246097000D03*
X260604000Y-211097000D03*
X260604000Y-176097000D03*
X259715000Y-248129000D03*
X259715000Y-213129000D03*
X259715000Y-178129000D03*
X260604000Y-247113000D03*
X260604000Y-212113000D03*
X260604000Y-177113000D03*
X260604000Y-248129000D03*
X260604000Y-213129000D03*
X260604000Y-178129000D03*
X259715000Y-247113000D03*
X259715000Y-212113000D03*
X259715000Y-177113000D03*
X252247400Y-249970500D03*
X252247400Y-214970500D03*
X252247400Y-250859500D03*
X252247400Y-215859500D03*
X255524000Y-251748500D03*
X255524000Y-181748500D03*
X256222500Y-251304000D03*
X256222500Y-216304000D03*
X256222500Y-181304000D03*
X252247400Y-251748500D03*
X252247400Y-216748500D03*
X261003800Y-242655300D03*
X261003800Y-207655300D03*
X261003800Y-172655300D03*
X267239500Y-242668000D03*
X267239500Y-207668000D03*
X267239500Y-172668000D03*
X265239500Y-242668000D03*
X265239500Y-207668000D03*
X265239500Y-172668000D03*
X262003800Y-242655300D03*
X262003800Y-207655300D03*
X262003800Y-172655300D03*
X260003800Y-242655300D03*
X260003800Y-207655300D03*
X260003800Y-172655300D03*
X266239500Y-242668000D03*
X266239500Y-207668000D03*
X266239500Y-172668000D03*
X252968000Y-258368000D03*
X252968000Y-223368000D03*
X252968000Y-188368000D03*
X251968000Y-258368000D03*
X251968000Y-223368000D03*
X251968000Y-188368000D03*
X251968000Y-259368000D03*
X251968000Y-224368000D03*
X251968000Y-189368000D03*
X252968000Y-259368000D03*
X252968000Y-224368000D03*
X252968000Y-189368000D03*
X259715000Y-267102800D03*
X259715000Y-232102800D03*
X259715000Y-197102800D03*
X260604000Y-267102800D03*
X260604000Y-232102800D03*
X260604000Y-197102800D03*
X259715000Y-266086800D03*
X259715000Y-231086800D03*
X259715000Y-196086800D03*
X260604000Y-266086800D03*
X260604000Y-231086800D03*
X260604000Y-196086800D03*
X259715000Y-268118800D03*
X259715000Y-233118800D03*
X259715000Y-198118800D03*
X260604000Y-268118800D03*
X260604000Y-233118800D03*
X260604000Y-198118800D03*
X252247400Y-264004000D03*
X252247400Y-229004000D03*
X252247400Y-194004000D03*
X252247400Y-264893000D03*
X252247400Y-229893000D03*
X252247400Y-194893000D03*
X252247400Y-263115000D03*
X252247400Y-228115000D03*
X252247400Y-193115000D03*
X253968000Y-255368000D03*
X253968000Y-220368000D03*
X253968000Y-185368000D03*
X253968000Y-257368000D03*
X253968000Y-222368000D03*
X253968000Y-187368000D03*
X254968000Y-256368000D03*
X254968000Y-221368000D03*
X254968000Y-186368000D03*
X254968000Y-255368000D03*
X254968000Y-220368000D03*
X254968000Y-185368000D03*
X253968000Y-256368000D03*
X253968000Y-221368000D03*
X253968000Y-186368000D03*
X254968000Y-257368000D03*
X254968000Y-222368000D03*
X254968000Y-187368000D03*
X255968000Y-258368000D03*
X255968000Y-223368000D03*
X255968000Y-188368000D03*
X254968000Y-259368000D03*
X254968000Y-224368000D03*
X254968000Y-189368000D03*
X255968000Y-259368000D03*
X255968000Y-224368000D03*
X255968000Y-189368000D03*
X254968000Y-258368000D03*
X254968000Y-223368000D03*
X254968000Y-188368000D03*
X253968000Y-258368000D03*
X253968000Y-223368000D03*
X253968000Y-188368000D03*
X253968000Y-259368000D03*
X253968000Y-224368000D03*
X253968000Y-189368000D03*
X251968000Y-255368000D03*
X251968000Y-220368000D03*
X251968000Y-185368000D03*
X252968000Y-255368000D03*
X252968000Y-220368000D03*
X252968000Y-185368000D03*
X251968000Y-256368000D03*
X251968000Y-221368000D03*
X251968000Y-186368000D03*
X252968000Y-256368000D03*
X252968000Y-221368000D03*
X252968000Y-186368000D03*
X252968000Y-257368000D03*
X252968000Y-222368000D03*
X252968000Y-187368000D03*
X251968000Y-257368000D03*
X251968000Y-222368000D03*
X251968000Y-187368000D03*
X255968000Y-256368000D03*
X255968000Y-221368000D03*
X255968000Y-186368000D03*
X255968000Y-257368000D03*
X255968000Y-222368000D03*
X255968000Y-187368000D03*
X255968000Y-255368000D03*
X255968000Y-220368000D03*
X255968000Y-185368000D03*
X256159000Y-263242000D03*
X256159000Y-228242000D03*
X256159000Y-193242000D03*
X255270000Y-263242000D03*
X255270000Y-228242000D03*
X255270000Y-193242000D03*
D12*
X266192000Y-253590000D03*
D13*
X266192000Y-256130000D03*
X266192000Y-258670000D03*
X266192000Y-261210000D03*
D12*
X266192000Y-218590000D03*
D13*
X266192000Y-221130000D03*
X266192000Y-223670000D03*
X266192000Y-226210000D03*
D12*
X266192000Y-183590000D03*
D13*
X266192000Y-186130000D03*
X266192000Y-188670000D03*
X266192000Y-191210000D03*
D11*
X267239500Y-137668000D03*
X266239500Y-137668000D03*
X265239500Y-137668000D03*
X262003800Y-137655300D03*
X261003800Y-137655300D03*
X260003800Y-137655300D03*
X256222500Y-146304000D03*
X255524000Y-146748500D03*
X256159000Y-158242000D03*
X255270000Y-158242000D03*
X252247400Y-159004000D03*
X252247400Y-158115000D03*
X252247400Y-159893000D03*
X260604000Y-163118800D03*
X260604000Y-161086800D03*
X260604000Y-162102800D03*
X259715000Y-163118800D03*
X259715000Y-162102800D03*
X259715000Y-161086800D03*
X252247400Y-145859500D03*
X252247400Y-144970500D03*
X252247400Y-146748500D03*
X259715000Y-142113000D03*
X260604000Y-142113000D03*
X260604000Y-141097000D03*
X259715000Y-141097000D03*
X259715000Y-143129000D03*
X260604000Y-143129000D03*
X255968000Y-154368000D03*
X254968000Y-154368000D03*
X253968000Y-154368000D03*
X252968000Y-154368000D03*
X251968000Y-154368000D03*
X255968000Y-153368000D03*
X254968000Y-153368000D03*
X253968000Y-153368000D03*
X252968000Y-153368000D03*
X251968000Y-153368000D03*
X255968000Y-152368000D03*
X254968000Y-152368000D03*
X253968000Y-152368000D03*
X252968000Y-152368000D03*
X251968000Y-152368000D03*
X255968000Y-151368000D03*
X254968000Y-151368000D03*
X253968000Y-151368000D03*
X252968000Y-151368000D03*
X251968000Y-151368000D03*
X255968000Y-150368000D03*
X254968000Y-150368000D03*
X253968000Y-150368000D03*
X252968000Y-150368000D03*
X251968000Y-150368000D03*
D12*
X266192000Y-148590000D03*
D13*
X266192000Y-151130000D03*
X266192000Y-153670000D03*
X266192000Y-156210000D03*
D14*
X252095000Y-124460000D03*
D15*
X257095000Y-124460000D03*
D16*
X260921500Y-254923500D03*
X260921500Y-219923500D03*
X260921500Y-184923500D03*
X260921500Y-149923500D03*
D17*
X249301000Y-261210000D03*
X249301000Y-226210000D03*
X249301000Y-191210000D03*
D16*
X261429500Y-251621500D03*
X261429500Y-216621500D03*
X261429500Y-181621500D03*
D18*
X260858000Y-261083000D03*
X260858000Y-226083000D03*
X260858000Y-191083000D03*
D17*
X249301000Y-156210000D03*
D19*
X235331000Y-168402000D03*
D20*
X239350800Y-121158000D03*
D16*
X261429500Y-146621500D03*
D18*
X260858000Y-156083000D03*
D21*
X244983000Y-254098000D03*
X244983000Y-219098000D03*
X244983000Y-184098000D03*
D16*
X260124000Y-255650000D03*
X260124000Y-220650000D03*
X260124000Y-185650000D03*
D19*
X239268000Y-168402000D03*
D21*
X244983000Y-149098000D03*
D20*
X241300000Y-130175000D03*
D16*
X260124000Y-150650000D03*
X259461000Y-154178000D03*
X248348500Y-161226500D03*
D18*
X247015000Y-259715000D03*
X247015000Y-224790000D03*
X247015000Y-189738000D03*
D19*
X250571000Y-266417000D03*
X250571000Y-231417000D03*
X250571000Y-196417000D03*
X247015000Y-154813000D03*
X250571000Y-161417000D03*
D20*
X247650000Y-122555000D03*
D16*
X259461000Y-155067000D03*
X249047000Y-157480000D03*
X236579980Y-168529000D03*
X235966000Y-186309000D03*
X235966000Y-220980000D03*
X247904000Y-256257000D03*
X247904000Y-221257000D03*
X247904000Y-186257000D03*
X247904000Y-151257000D03*
X237744000Y-167894000D03*
X236601000Y-187071000D03*
X236601000Y-221996000D03*
X248285000Y-256892000D03*
X248285000Y-221892000D03*
X248285000Y-186892000D03*
X248285000Y-151892000D03*
X238125000Y-187579000D03*
X238125000Y-222504000D03*
X247904000Y-257527000D03*
X247904000Y-222527000D03*
X247904000Y-187527000D03*
X241427000Y-170815000D03*
X247904000Y-152527000D03*
X259461000Y-153289000D03*
X248412000Y-162052000D03*
X259461000Y-259969000D03*
X249047000Y-262480000D03*
X241427000Y-183388000D03*
X233553000Y-183515000D03*
X233553000Y-182372000D03*
X241681000Y-182499000D03*
X259461000Y-258191000D03*
X248412000Y-267052000D03*
X259461000Y-225171000D03*
X241935000Y-180467000D03*
X233553000Y-181102000D03*
X249047000Y-227480000D03*
X233553000Y-179705000D03*
X243586000Y-180213000D03*
X259588000Y-223139000D03*
X248412000Y-232052000D03*
X259461000Y-189992000D03*
X243205000Y-177927000D03*
X249047000Y-192480000D03*
X233553000Y-177165000D03*
X233680000Y-176022000D03*
X242316000Y-176530000D03*
X259588000Y-188087000D03*
X242316000Y-178562000D03*
X233553000Y-178562000D03*
X248412000Y-197052000D03*
X259461000Y-189103000D03*
X248348500Y-196226500D03*
X259461000Y-224155000D03*
X248348500Y-231226500D03*
X259461000Y-259080000D03*
X248348500Y-266226500D03*
D22*
X260124000Y-255650000D02*
X259849001Y-255375001D01*
X260124000Y-220650000D02*
X259849001Y-220375001D01*
X260124000Y-185650000D02*
X259849001Y-185375001D01*
X259849001Y-255375001D02*
X258572000Y-254098000D01*
X259849001Y-220375001D02*
X258572000Y-219098000D01*
X259849001Y-185375001D02*
X258572000Y-184098000D01*
X258572000Y-254098000D02*
X244983000Y-254098000D01*
X258572000Y-219098000D02*
X244983000Y-219098000D01*
X258572000Y-184098000D02*
X244983000Y-184098000D01*
X259849001Y-150375001D02*
X258572000Y-149098000D01*
X258572000Y-149098000D02*
X244983000Y-149098000D01*
X260124000Y-150650000D02*
X259849001Y-150375001D01*
D23*
X248348500Y-161226500D02*
X248623499Y-160951501D01*
X248623499Y-160951501D02*
X248623499Y-158856001D01*
X248623499Y-158856001D02*
X251714000Y-155765500D01*
X259651500Y-155765500D02*
X260096000Y-155321000D01*
X251714000Y-155765500D02*
X259651500Y-155765500D01*
X260096000Y-155321000D02*
X260096000Y-154813000D01*
X260096000Y-154813000D02*
X259461000Y-154178000D01*
X257556000Y-154686000D02*
X259080000Y-154686000D01*
X259080000Y-154686000D02*
X259461000Y-155067000D01*
X256984500Y-155257500D02*
X257556000Y-154686000D01*
X256967008Y-155257500D02*
X256984500Y-155257500D01*
X252349000Y-155257500D02*
X251269500Y-155257500D01*
X251269500Y-155257500D02*
X249047000Y-157480000D01*
X256967008Y-155257500D02*
X252349000Y-155257500D01*
X236579980Y-168140092D02*
X236579980Y-168529000D01*
X239903000Y-167005000D02*
X237715072Y-167005000D01*
X241427000Y-165481000D02*
X239903000Y-167005000D01*
X241427000Y-157345092D02*
X241427000Y-165481000D01*
X247515092Y-151257000D02*
X241427000Y-157345092D01*
X247904000Y-151257000D02*
X247515092Y-151257000D01*
X237715072Y-167005000D02*
X236579980Y-168140092D01*
X236272000Y-186257000D02*
X236018000Y-186257000D01*
X236018000Y-186257000D02*
X235966000Y-186309000D01*
X236243000Y-221257000D02*
X235966000Y-220980000D01*
X236855000Y-221257000D02*
X236324000Y-221257000D01*
X242974000Y-221257000D02*
X236855000Y-221257000D01*
X236855000Y-221257000D02*
X236243000Y-221257000D01*
X243153000Y-186257000D02*
X236272000Y-186257000D01*
X247515092Y-186257000D02*
X243153000Y-186257000D01*
X247904000Y-221257000D02*
X242974000Y-221257000D01*
X247904000Y-186257000D02*
X247515092Y-186257000D01*
X240157000Y-167386000D02*
X238506000Y-167386000D01*
X237744000Y-167894000D02*
X238252000Y-167386000D01*
X238252000Y-167386000D02*
X238506000Y-167386000D01*
X237363000Y-186892000D02*
X237184000Y-186892000D01*
X248285000Y-186892000D02*
X237363000Y-186892000D01*
X237363000Y-186892000D02*
X236780000Y-186892000D01*
X236780000Y-186892000D02*
X236601000Y-187071000D01*
X237467000Y-221892000D02*
X236705000Y-221892000D01*
X236705000Y-221892000D02*
X236601000Y-221996000D01*
X248285000Y-221892000D02*
X237467000Y-221892000D01*
X248285000Y-151892000D02*
X247523000Y-151892000D01*
X241935000Y-157480000D02*
X241935000Y-165608000D01*
X247523000Y-151892000D02*
X241935000Y-157480000D01*
X241935000Y-165608000D02*
X240157000Y-167386000D01*
X242518000Y-187527000D02*
X242466000Y-187579000D01*
X242466000Y-187579000D02*
X238125000Y-187579000D01*
X242466000Y-222527000D02*
X238148000Y-222527000D01*
X238148000Y-222527000D02*
X238125000Y-222504000D01*
X247904000Y-187527000D02*
X242518000Y-187527000D01*
X247904000Y-222527000D02*
X242466000Y-222527000D01*
X241427000Y-170815000D02*
X242443000Y-169799000D01*
X242443000Y-169799000D02*
X242443000Y-157988000D01*
X242443000Y-157988000D02*
X247904000Y-152527000D01*
X259461000Y-153289000D02*
X259735999Y-153563999D01*
X259735999Y-153563999D02*
X259862999Y-153563999D01*
X259862999Y-153563999D02*
X260604000Y-154305000D01*
X260604000Y-154305000D02*
X260604000Y-155321000D01*
X251968000Y-156210000D02*
X249174000Y-159004000D01*
X260604000Y-155321000D02*
X259715000Y-156210000D01*
X259715000Y-156210000D02*
X251968000Y-156210000D01*
X249174000Y-159004000D02*
X249174000Y-161290000D01*
X249174000Y-161290000D02*
X248412000Y-162052000D01*
X251269500Y-260257500D02*
X259172500Y-260257500D01*
X259172500Y-260257500D02*
X259461000Y-259969000D01*
X249047000Y-262480000D02*
X251269500Y-260257500D01*
X240517001Y-183240001D02*
X240665000Y-183388000D01*
X240665000Y-183388000D02*
X241427000Y-183388000D01*
X240517001Y-183240001D02*
X240538000Y-183261000D01*
X233553000Y-183515000D02*
X233827999Y-183240001D01*
X233827999Y-183240001D02*
X240517001Y-183240001D01*
X241681000Y-182499000D02*
X241406001Y-182773999D01*
X241406001Y-182773999D02*
X233954999Y-182773999D01*
X233954999Y-182773999D02*
X233827999Y-182646999D01*
X233827999Y-182646999D02*
X233553000Y-182372000D01*
X260477000Y-260350000D02*
X260477000Y-259207000D01*
X260477000Y-259207000D02*
X259461000Y-258191000D01*
X259617000Y-261210000D02*
X260477000Y-260350000D01*
X257556000Y-261210000D02*
X259617000Y-261210000D01*
X249174000Y-264004000D02*
X249174000Y-266290000D01*
X251968000Y-261210000D02*
X249174000Y-264004000D01*
X249174000Y-266290000D02*
X248412000Y-267052000D01*
X257556000Y-261210000D02*
X251968000Y-261210000D01*
X249047000Y-227480000D02*
X251269500Y-225257500D01*
X251269500Y-225257500D02*
X259374500Y-225257500D01*
X259374500Y-225257500D02*
X259461000Y-225171000D01*
X241554000Y-180340000D02*
X234315000Y-180340000D01*
X241681000Y-180467000D02*
X241554000Y-180340000D01*
X241935000Y-180467000D02*
X241681000Y-180467000D01*
X234315000Y-180340000D02*
X233553000Y-181102000D01*
X242570000Y-179197000D02*
X234061000Y-179197000D01*
X234061000Y-179197000D02*
X233553000Y-179705000D01*
X243311001Y-179938001D02*
X242570000Y-179197000D01*
X243586000Y-180213000D02*
X243311001Y-179938001D01*
X260350000Y-225679000D02*
X260350000Y-223901000D01*
X260350000Y-223901000D02*
X259588000Y-223139000D01*
X259819000Y-226210000D02*
X260350000Y-225679000D01*
X257556000Y-226210000D02*
X259819000Y-226210000D01*
X249174000Y-229004000D02*
X249174000Y-231290000D01*
X251968000Y-226210000D02*
X249174000Y-229004000D01*
X249174000Y-231290000D02*
X248412000Y-232052000D01*
X257556000Y-226210000D02*
X251968000Y-226210000D01*
X249047000Y-192480000D02*
X251269500Y-190257500D01*
X251269500Y-190257500D02*
X259195500Y-190257500D01*
X259195500Y-190257500D02*
X259461000Y-189992000D01*
X242316000Y-177800000D02*
X243078000Y-177800000D01*
X243078000Y-177800000D02*
X243205000Y-177927000D01*
X238272999Y-177439999D02*
X238633000Y-177800000D01*
X238633000Y-177800000D02*
X242316000Y-177800000D01*
X233553000Y-177165000D02*
X233827999Y-177439999D01*
X233827999Y-177439999D02*
X238272999Y-177439999D01*
X242316000Y-176530000D02*
X234188000Y-176530000D01*
X234188000Y-176530000D02*
X233680000Y-176022000D01*
X260477000Y-190373000D02*
X260477000Y-188976000D01*
X260477000Y-188976000D02*
X259588000Y-188087000D01*
X259640000Y-191210000D02*
X260477000Y-190373000D01*
X257556000Y-191210000D02*
X259640000Y-191210000D01*
X233553000Y-178562000D02*
X242316000Y-178562000D01*
X249174000Y-194004000D02*
X249174000Y-196290000D01*
X251968000Y-191210000D02*
X249174000Y-194004000D01*
X249174000Y-196290000D02*
X248412000Y-197052000D01*
X257556000Y-191210000D02*
X251968000Y-191210000D01*
X259461000Y-189103000D02*
X260096000Y-189738000D01*
X260096000Y-189738000D02*
X260096000Y-190119000D01*
X248623499Y-193856001D02*
X248623499Y-195951501D01*
X260096000Y-190119000D02*
X259449500Y-190765500D01*
X259449500Y-190765500D02*
X251714000Y-190765500D01*
X251714000Y-190765500D02*
X248623499Y-193856001D01*
X248623499Y-195951501D02*
X248348500Y-196226500D01*
X248348500Y-230837592D02*
X248348500Y-231226500D01*
X251714000Y-225765500D02*
X248348500Y-229131000D01*
X259994389Y-225526611D02*
X259755500Y-225765500D01*
X248348500Y-229131000D02*
X248348500Y-230837592D01*
X259994389Y-224688389D02*
X259994389Y-225526611D01*
X259755500Y-225765500D02*
X251714000Y-225765500D01*
X259461000Y-224155000D02*
X259994389Y-224688389D01*
X259461000Y-259080000D02*
X260096000Y-259715000D01*
X260096000Y-259715000D02*
X260096000Y-260130500D01*
X260096000Y-260130500D02*
X259461000Y-260765500D01*
X259461000Y-260765500D02*
X251714000Y-260765500D01*
X251714000Y-260765500D02*
X248623499Y-263856001D01*
X248623499Y-263856001D02*
X248623499Y-265951501D01*
X248623499Y-265951501D02*
X248348500Y-266226500D01*
D24*
G36*
X267335000Y-153278106D02*
X267335000Y-154061894D01*
X266710894Y-154686000D01*
X265493500Y-154686000D01*
X265444090Y-154696006D01*
X265403697Y-154723197D01*
X264387697Y-155739197D01*
X264359834Y-155781211D01*
X264350500Y-155829000D01*
X264350500Y-158697394D01*
X262837394Y-160210500D01*
X252084106Y-160210500D01*
X251841000Y-159967394D01*
X251841000Y-158405779D01*
X254442857Y-158405779D01*
X254568495Y-158709846D01*
X254800930Y-158942688D01*
X255104778Y-159068856D01*
X255433779Y-159069143D01*
X255714815Y-158953021D01*
X255993778Y-159068856D01*
X256322779Y-159069143D01*
X256626846Y-158943505D01*
X256859688Y-158711070D01*
X256985856Y-158407222D01*
X256986143Y-158078221D01*
X256860505Y-157774154D01*
X256628070Y-157541312D01*
X256324222Y-157415144D01*
X255995221Y-157414857D01*
X255714185Y-157530979D01*
X255435222Y-157415144D01*
X255106221Y-157414857D01*
X254802154Y-157540495D01*
X254569312Y-157772930D01*
X254443144Y-158076778D01*
X254442857Y-158405779D01*
X251841000Y-158405779D01*
X251841000Y-158104106D01*
X253206506Y-156738600D01*
X259714995Y-156738600D01*
X259715000Y-156738601D01*
X259917287Y-156698363D01*
X260088777Y-156583777D01*
X260165465Y-156507089D01*
X260177701Y-156536703D01*
X260403110Y-156762506D01*
X260697772Y-156884860D01*
X261016828Y-156885139D01*
X261311703Y-156763299D01*
X261537506Y-156537890D01*
X261659860Y-156243228D01*
X261659889Y-156210000D01*
X261747000Y-156210000D01*
X261796410Y-156199994D01*
X261836803Y-156172803D01*
X265292106Y-152717500D01*
X266774394Y-152717500D01*
X267335000Y-153278106D01*
X267335000Y-153278106D01*
G37*
X267335000Y-153278106D02*
X267335000Y-154061894D01*
X266710894Y-154686000D01*
X265493500Y-154686000D01*
X265444090Y-154696006D01*
X265403697Y-154723197D01*
X264387697Y-155739197D01*
X264359834Y-155781211D01*
X264350500Y-155829000D01*
X264350500Y-158697394D01*
X262837394Y-160210500D01*
X252084106Y-160210500D01*
X251841000Y-159967394D01*
X251841000Y-158405779D01*
X254442857Y-158405779D01*
X254568495Y-158709846D01*
X254800930Y-158942688D01*
X255104778Y-159068856D01*
X255433779Y-159069143D01*
X255714815Y-158953021D01*
X255993778Y-159068856D01*
X256322779Y-159069143D01*
X256626846Y-158943505D01*
X256859688Y-158711070D01*
X256985856Y-158407222D01*
X256986143Y-158078221D01*
X256860505Y-157774154D01*
X256628070Y-157541312D01*
X256324222Y-157415144D01*
X255995221Y-157414857D01*
X255714185Y-157530979D01*
X255435222Y-157415144D01*
X255106221Y-157414857D01*
X254802154Y-157540495D01*
X254569312Y-157772930D01*
X254443144Y-158076778D01*
X254442857Y-158405779D01*
X251841000Y-158405779D01*
X251841000Y-158104106D01*
X253206506Y-156738600D01*
X259714995Y-156738600D01*
X259715000Y-156738601D01*
X259917287Y-156698363D01*
X260088777Y-156583777D01*
X260165465Y-156507089D01*
X260177701Y-156536703D01*
X260403110Y-156762506D01*
X260697772Y-156884860D01*
X261016828Y-156885139D01*
X261311703Y-156763299D01*
X261537506Y-156537890D01*
X261659860Y-156243228D01*
X261659889Y-156210000D01*
X261747000Y-156210000D01*
X261796410Y-156199994D01*
X261836803Y-156172803D01*
X265292106Y-152717500D01*
X266774394Y-152717500D01*
X267335000Y-153278106D01*
G36*
X264096500Y-145594606D02*
X264096500Y-149415500D01*
X264106506Y-149464910D01*
X264133697Y-149505303D01*
X264768697Y-150140303D01*
X264810711Y-150168166D01*
X264858500Y-150177500D01*
X267028394Y-150177500D01*
X267335000Y-150484106D01*
X267335000Y-151775894D01*
X267028394Y-152082500D01*
X261228106Y-152082500D01*
X260429105Y-151283499D01*
X260521132Y-151245474D01*
X260718780Y-151048170D01*
X260825878Y-150790249D01*
X260826022Y-150625417D01*
X261060524Y-150625622D01*
X261318632Y-150518974D01*
X261516280Y-150321670D01*
X261623378Y-150063749D01*
X261623622Y-149784476D01*
X261516974Y-149526368D01*
X261319670Y-149328720D01*
X261061749Y-149221622D01*
X260782476Y-149221378D01*
X260524368Y-149328026D01*
X260326720Y-149525330D01*
X260219622Y-149783251D01*
X260219560Y-149854322D01*
X259017619Y-148652381D01*
X258813167Y-148515771D01*
X258572000Y-148467800D01*
X253549406Y-148467800D01*
X251993885Y-146912279D01*
X254696857Y-146912279D01*
X254822495Y-147216346D01*
X255054930Y-147449188D01*
X255358778Y-147575356D01*
X255687779Y-147575643D01*
X255991846Y-147450005D01*
X256224688Y-147217570D01*
X256260621Y-147131033D01*
X256386279Y-147131143D01*
X256690346Y-147005505D01*
X256923188Y-146773070D01*
X256928397Y-146760524D01*
X260727378Y-146760524D01*
X260834026Y-147018632D01*
X261031330Y-147216280D01*
X261289251Y-147323378D01*
X261568524Y-147323622D01*
X261826632Y-147216974D01*
X262024280Y-147019670D01*
X262131378Y-146761749D01*
X262131622Y-146482476D01*
X262024974Y-146224368D01*
X261827670Y-146026720D01*
X261569749Y-145919622D01*
X261290476Y-145919378D01*
X261032368Y-146026026D01*
X260834720Y-146223330D01*
X260727622Y-146481251D01*
X260727378Y-146760524D01*
X256928397Y-146760524D01*
X257049356Y-146469222D01*
X257049643Y-146140221D01*
X256924005Y-145836154D01*
X256691570Y-145603312D01*
X256387722Y-145477144D01*
X256058721Y-145476857D01*
X255754654Y-145602495D01*
X255521812Y-145834930D01*
X255485879Y-145921467D01*
X255360221Y-145921357D01*
X255056154Y-146046995D01*
X254823312Y-146279430D01*
X254697144Y-146583278D01*
X254696857Y-146912279D01*
X251993885Y-146912279D01*
X251841000Y-146759394D01*
X251841000Y-144896106D01*
X252592106Y-144145000D01*
X262646894Y-144145000D01*
X264096500Y-145594606D01*
X264096500Y-145594606D01*
G37*
X264096500Y-145594606D02*
X264096500Y-149415500D01*
X264106506Y-149464910D01*
X264133697Y-149505303D01*
X264768697Y-150140303D01*
X264810711Y-150168166D01*
X264858500Y-150177500D01*
X267028394Y-150177500D01*
X267335000Y-150484106D01*
X267335000Y-151775894D01*
X267028394Y-152082500D01*
X261228106Y-152082500D01*
X260429105Y-151283499D01*
X260521132Y-151245474D01*
X260718780Y-151048170D01*
X260825878Y-150790249D01*
X260826022Y-150625417D01*
X261060524Y-150625622D01*
X261318632Y-150518974D01*
X261516280Y-150321670D01*
X261623378Y-150063749D01*
X261623622Y-149784476D01*
X261516974Y-149526368D01*
X261319670Y-149328720D01*
X261061749Y-149221622D01*
X260782476Y-149221378D01*
X260524368Y-149328026D01*
X260326720Y-149525330D01*
X260219622Y-149783251D01*
X260219560Y-149854322D01*
X259017619Y-148652381D01*
X258813167Y-148515771D01*
X258572000Y-148467800D01*
X253549406Y-148467800D01*
X251993885Y-146912279D01*
X254696857Y-146912279D01*
X254822495Y-147216346D01*
X255054930Y-147449188D01*
X255358778Y-147575356D01*
X255687779Y-147575643D01*
X255991846Y-147450005D01*
X256224688Y-147217570D01*
X256260621Y-147131033D01*
X256386279Y-147131143D01*
X256690346Y-147005505D01*
X256923188Y-146773070D01*
X256928397Y-146760524D01*
X260727378Y-146760524D01*
X260834026Y-147018632D01*
X261031330Y-147216280D01*
X261289251Y-147323378D01*
X261568524Y-147323622D01*
X261826632Y-147216974D01*
X262024280Y-147019670D01*
X262131378Y-146761749D01*
X262131622Y-146482476D01*
X262024974Y-146224368D01*
X261827670Y-146026720D01*
X261569749Y-145919622D01*
X261290476Y-145919378D01*
X261032368Y-146026026D01*
X260834720Y-146223330D01*
X260727622Y-146481251D01*
X260727378Y-146760524D01*
X256928397Y-146760524D01*
X257049356Y-146469222D01*
X257049643Y-146140221D01*
X256924005Y-145836154D01*
X256691570Y-145603312D01*
X256387722Y-145477144D01*
X256058721Y-145476857D01*
X255754654Y-145602495D01*
X255521812Y-145834930D01*
X255485879Y-145921467D01*
X255360221Y-145921357D01*
X255056154Y-146046995D01*
X254823312Y-146279430D01*
X254697144Y-146583278D01*
X254696857Y-146912279D01*
X251993885Y-146912279D01*
X251841000Y-146759394D01*
X251841000Y-144896106D01*
X252592106Y-144145000D01*
X262646894Y-144145000D01*
X264096500Y-145594606D01*
G36*
X264096500Y-180594606D02*
X264096500Y-184415500D01*
X264106506Y-184464910D01*
X264133697Y-184505303D01*
X264768697Y-185140303D01*
X264810711Y-185168166D01*
X264858500Y-185177500D01*
X267028394Y-185177500D01*
X267335000Y-185484106D01*
X267335000Y-186775894D01*
X267028394Y-187082500D01*
X261228106Y-187082500D01*
X260429105Y-186283499D01*
X260521132Y-186245474D01*
X260718780Y-186048170D01*
X260825878Y-185790249D01*
X260826022Y-185625417D01*
X261060524Y-185625622D01*
X261318632Y-185518974D01*
X261516280Y-185321670D01*
X261623378Y-185063749D01*
X261623622Y-184784476D01*
X261516974Y-184526368D01*
X261319670Y-184328720D01*
X261061749Y-184221622D01*
X260782476Y-184221378D01*
X260524368Y-184328026D01*
X260326720Y-184525330D01*
X260219622Y-184783251D01*
X260219560Y-184854322D01*
X259017619Y-183652381D01*
X258813167Y-183515771D01*
X258572000Y-183467800D01*
X253549406Y-183467800D01*
X251993885Y-181912279D01*
X254696857Y-181912279D01*
X254822495Y-182216346D01*
X255054930Y-182449188D01*
X255358778Y-182575356D01*
X255687779Y-182575643D01*
X255991846Y-182450005D01*
X256224688Y-182217570D01*
X256260621Y-182131033D01*
X256386279Y-182131143D01*
X256690346Y-182005505D01*
X256923188Y-181773070D01*
X256928397Y-181760524D01*
X260727378Y-181760524D01*
X260834026Y-182018632D01*
X261031330Y-182216280D01*
X261289251Y-182323378D01*
X261568524Y-182323622D01*
X261826632Y-182216974D01*
X262024280Y-182019670D01*
X262131378Y-181761749D01*
X262131622Y-181482476D01*
X262024974Y-181224368D01*
X261827670Y-181026720D01*
X261569749Y-180919622D01*
X261290476Y-180919378D01*
X261032368Y-181026026D01*
X260834720Y-181223330D01*
X260727622Y-181481251D01*
X260727378Y-181760524D01*
X256928397Y-181760524D01*
X257049356Y-181469222D01*
X257049643Y-181140221D01*
X256924005Y-180836154D01*
X256691570Y-180603312D01*
X256387722Y-180477144D01*
X256058721Y-180476857D01*
X255754654Y-180602495D01*
X255521812Y-180834930D01*
X255485879Y-180921467D01*
X255360221Y-180921357D01*
X255056154Y-181046995D01*
X254823312Y-181279430D01*
X254697144Y-181583278D01*
X254696857Y-181912279D01*
X251993885Y-181912279D01*
X251841000Y-181759394D01*
X251841000Y-179896106D01*
X252592106Y-179145000D01*
X262646894Y-179145000D01*
X264096500Y-180594606D01*
X264096500Y-180594606D01*
G37*
X264096500Y-180594606D02*
X264096500Y-184415500D01*
X264106506Y-184464910D01*
X264133697Y-184505303D01*
X264768697Y-185140303D01*
X264810711Y-185168166D01*
X264858500Y-185177500D01*
X267028394Y-185177500D01*
X267335000Y-185484106D01*
X267335000Y-186775894D01*
X267028394Y-187082500D01*
X261228106Y-187082500D01*
X260429105Y-186283499D01*
X260521132Y-186245474D01*
X260718780Y-186048170D01*
X260825878Y-185790249D01*
X260826022Y-185625417D01*
X261060524Y-185625622D01*
X261318632Y-185518974D01*
X261516280Y-185321670D01*
X261623378Y-185063749D01*
X261623622Y-184784476D01*
X261516974Y-184526368D01*
X261319670Y-184328720D01*
X261061749Y-184221622D01*
X260782476Y-184221378D01*
X260524368Y-184328026D01*
X260326720Y-184525330D01*
X260219622Y-184783251D01*
X260219560Y-184854322D01*
X259017619Y-183652381D01*
X258813167Y-183515771D01*
X258572000Y-183467800D01*
X253549406Y-183467800D01*
X251993885Y-181912279D01*
X254696857Y-181912279D01*
X254822495Y-182216346D01*
X255054930Y-182449188D01*
X255358778Y-182575356D01*
X255687779Y-182575643D01*
X255991846Y-182450005D01*
X256224688Y-182217570D01*
X256260621Y-182131033D01*
X256386279Y-182131143D01*
X256690346Y-182005505D01*
X256923188Y-181773070D01*
X256928397Y-181760524D01*
X260727378Y-181760524D01*
X260834026Y-182018632D01*
X261031330Y-182216280D01*
X261289251Y-182323378D01*
X261568524Y-182323622D01*
X261826632Y-182216974D01*
X262024280Y-182019670D01*
X262131378Y-181761749D01*
X262131622Y-181482476D01*
X262024974Y-181224368D01*
X261827670Y-181026720D01*
X261569749Y-180919622D01*
X261290476Y-180919378D01*
X261032368Y-181026026D01*
X260834720Y-181223330D01*
X260727622Y-181481251D01*
X260727378Y-181760524D01*
X256928397Y-181760524D01*
X257049356Y-181469222D01*
X257049643Y-181140221D01*
X256924005Y-180836154D01*
X256691570Y-180603312D01*
X256387722Y-180477144D01*
X256058721Y-180476857D01*
X255754654Y-180602495D01*
X255521812Y-180834930D01*
X255485879Y-180921467D01*
X255360221Y-180921357D01*
X255056154Y-181046995D01*
X254823312Y-181279430D01*
X254697144Y-181583278D01*
X254696857Y-181912279D01*
X251993885Y-181912279D01*
X251841000Y-181759394D01*
X251841000Y-179896106D01*
X252592106Y-179145000D01*
X262646894Y-179145000D01*
X264096500Y-180594606D01*
G36*
X264096500Y-215594606D02*
X264096500Y-219415500D01*
X264106506Y-219464910D01*
X264133697Y-219505303D01*
X264768697Y-220140303D01*
X264810711Y-220168166D01*
X264858500Y-220177500D01*
X267028394Y-220177500D01*
X267335000Y-220484106D01*
X267335000Y-221775894D01*
X267028394Y-222082500D01*
X261228106Y-222082500D01*
X260429105Y-221283499D01*
X260521132Y-221245474D01*
X260718780Y-221048170D01*
X260825878Y-220790249D01*
X260826022Y-220625417D01*
X261060524Y-220625622D01*
X261318632Y-220518974D01*
X261516280Y-220321670D01*
X261623378Y-220063749D01*
X261623622Y-219784476D01*
X261516974Y-219526368D01*
X261319670Y-219328720D01*
X261061749Y-219221622D01*
X260782476Y-219221378D01*
X260524368Y-219328026D01*
X260326720Y-219525330D01*
X260219622Y-219783251D01*
X260219560Y-219854322D01*
X259017619Y-218652381D01*
X258813167Y-218515771D01*
X258572000Y-218467800D01*
X253549406Y-218467800D01*
X251993885Y-216912279D01*
X254696857Y-216912279D01*
X254822495Y-217216346D01*
X255054930Y-217449188D01*
X255358778Y-217575356D01*
X255687779Y-217575643D01*
X255991846Y-217450005D01*
X256224688Y-217217570D01*
X256260621Y-217131033D01*
X256386279Y-217131143D01*
X256690346Y-217005505D01*
X256923188Y-216773070D01*
X256928397Y-216760524D01*
X260727378Y-216760524D01*
X260834026Y-217018632D01*
X261031330Y-217216280D01*
X261289251Y-217323378D01*
X261568524Y-217323622D01*
X261826632Y-217216974D01*
X262024280Y-217019670D01*
X262131378Y-216761749D01*
X262131622Y-216482476D01*
X262024974Y-216224368D01*
X261827670Y-216026720D01*
X261569749Y-215919622D01*
X261290476Y-215919378D01*
X261032368Y-216026026D01*
X260834720Y-216223330D01*
X260727622Y-216481251D01*
X260727378Y-216760524D01*
X256928397Y-216760524D01*
X257049356Y-216469222D01*
X257049643Y-216140221D01*
X256924005Y-215836154D01*
X256691570Y-215603312D01*
X256387722Y-215477144D01*
X256058721Y-215476857D01*
X255754654Y-215602495D01*
X255521812Y-215834930D01*
X255485879Y-215921467D01*
X255360221Y-215921357D01*
X255056154Y-216046995D01*
X254823312Y-216279430D01*
X254697144Y-216583278D01*
X254696857Y-216912279D01*
X251993885Y-216912279D01*
X251841000Y-216759394D01*
X251841000Y-214896106D01*
X252592106Y-214145000D01*
X262646894Y-214145000D01*
X264096500Y-215594606D01*
X264096500Y-215594606D01*
G37*
X264096500Y-215594606D02*
X264096500Y-219415500D01*
X264106506Y-219464910D01*
X264133697Y-219505303D01*
X264768697Y-220140303D01*
X264810711Y-220168166D01*
X264858500Y-220177500D01*
X267028394Y-220177500D01*
X267335000Y-220484106D01*
X267335000Y-221775894D01*
X267028394Y-222082500D01*
X261228106Y-222082500D01*
X260429105Y-221283499D01*
X260521132Y-221245474D01*
X260718780Y-221048170D01*
X260825878Y-220790249D01*
X260826022Y-220625417D01*
X261060524Y-220625622D01*
X261318632Y-220518974D01*
X261516280Y-220321670D01*
X261623378Y-220063749D01*
X261623622Y-219784476D01*
X261516974Y-219526368D01*
X261319670Y-219328720D01*
X261061749Y-219221622D01*
X260782476Y-219221378D01*
X260524368Y-219328026D01*
X260326720Y-219525330D01*
X260219622Y-219783251D01*
X260219560Y-219854322D01*
X259017619Y-218652381D01*
X258813167Y-218515771D01*
X258572000Y-218467800D01*
X253549406Y-218467800D01*
X251993885Y-216912279D01*
X254696857Y-216912279D01*
X254822495Y-217216346D01*
X255054930Y-217449188D01*
X255358778Y-217575356D01*
X255687779Y-217575643D01*
X255991846Y-217450005D01*
X256224688Y-217217570D01*
X256260621Y-217131033D01*
X256386279Y-217131143D01*
X256690346Y-217005505D01*
X256923188Y-216773070D01*
X256928397Y-216760524D01*
X260727378Y-216760524D01*
X260834026Y-217018632D01*
X261031330Y-217216280D01*
X261289251Y-217323378D01*
X261568524Y-217323622D01*
X261826632Y-217216974D01*
X262024280Y-217019670D01*
X262131378Y-216761749D01*
X262131622Y-216482476D01*
X262024974Y-216224368D01*
X261827670Y-216026720D01*
X261569749Y-215919622D01*
X261290476Y-215919378D01*
X261032368Y-216026026D01*
X260834720Y-216223330D01*
X260727622Y-216481251D01*
X260727378Y-216760524D01*
X256928397Y-216760524D01*
X257049356Y-216469222D01*
X257049643Y-216140221D01*
X256924005Y-215836154D01*
X256691570Y-215603312D01*
X256387722Y-215477144D01*
X256058721Y-215476857D01*
X255754654Y-215602495D01*
X255521812Y-215834930D01*
X255485879Y-215921467D01*
X255360221Y-215921357D01*
X255056154Y-216046995D01*
X254823312Y-216279430D01*
X254697144Y-216583278D01*
X254696857Y-216912279D01*
X251993885Y-216912279D01*
X251841000Y-216759394D01*
X251841000Y-214896106D01*
X252592106Y-214145000D01*
X262646894Y-214145000D01*
X264096500Y-215594606D01*
G36*
X264096500Y-250594606D02*
X264096500Y-254415500D01*
X264106506Y-254464910D01*
X264133697Y-254505303D01*
X264768697Y-255140303D01*
X264810711Y-255168166D01*
X264858500Y-255177500D01*
X267028394Y-255177500D01*
X267335000Y-255484106D01*
X267335000Y-256775894D01*
X267028394Y-257082500D01*
X261228106Y-257082500D01*
X260429105Y-256283499D01*
X260521132Y-256245474D01*
X260718780Y-256048170D01*
X260825878Y-255790249D01*
X260826022Y-255625417D01*
X261060524Y-255625622D01*
X261318632Y-255518974D01*
X261516280Y-255321670D01*
X261623378Y-255063749D01*
X261623622Y-254784476D01*
X261516974Y-254526368D01*
X261319670Y-254328720D01*
X261061749Y-254221622D01*
X260782476Y-254221378D01*
X260524368Y-254328026D01*
X260326720Y-254525330D01*
X260219622Y-254783251D01*
X260219560Y-254854322D01*
X259017619Y-253652381D01*
X258813167Y-253515771D01*
X258572000Y-253467800D01*
X253549406Y-253467800D01*
X251993885Y-251912279D01*
X254696857Y-251912279D01*
X254822495Y-252216346D01*
X255054930Y-252449188D01*
X255358778Y-252575356D01*
X255687779Y-252575643D01*
X255991846Y-252450005D01*
X256224688Y-252217570D01*
X256260621Y-252131033D01*
X256386279Y-252131143D01*
X256690346Y-252005505D01*
X256923188Y-251773070D01*
X256928397Y-251760524D01*
X260727378Y-251760524D01*
X260834026Y-252018632D01*
X261031330Y-252216280D01*
X261289251Y-252323378D01*
X261568524Y-252323622D01*
X261826632Y-252216974D01*
X262024280Y-252019670D01*
X262131378Y-251761749D01*
X262131622Y-251482476D01*
X262024974Y-251224368D01*
X261827670Y-251026720D01*
X261569749Y-250919622D01*
X261290476Y-250919378D01*
X261032368Y-251026026D01*
X260834720Y-251223330D01*
X260727622Y-251481251D01*
X260727378Y-251760524D01*
X256928397Y-251760524D01*
X257049356Y-251469222D01*
X257049643Y-251140221D01*
X256924005Y-250836154D01*
X256691570Y-250603312D01*
X256387722Y-250477144D01*
X256058721Y-250476857D01*
X255754654Y-250602495D01*
X255521812Y-250834930D01*
X255485879Y-250921467D01*
X255360221Y-250921357D01*
X255056154Y-251046995D01*
X254823312Y-251279430D01*
X254697144Y-251583278D01*
X254696857Y-251912279D01*
X251993885Y-251912279D01*
X251841000Y-251759394D01*
X251841000Y-249896106D01*
X252592106Y-249145000D01*
X262646894Y-249145000D01*
X264096500Y-250594606D01*
X264096500Y-250594606D01*
G37*
X264096500Y-250594606D02*
X264096500Y-254415500D01*
X264106506Y-254464910D01*
X264133697Y-254505303D01*
X264768697Y-255140303D01*
X264810711Y-255168166D01*
X264858500Y-255177500D01*
X267028394Y-255177500D01*
X267335000Y-255484106D01*
X267335000Y-256775894D01*
X267028394Y-257082500D01*
X261228106Y-257082500D01*
X260429105Y-256283499D01*
X260521132Y-256245474D01*
X260718780Y-256048170D01*
X260825878Y-255790249D01*
X260826022Y-255625417D01*
X261060524Y-255625622D01*
X261318632Y-255518974D01*
X261516280Y-255321670D01*
X261623378Y-255063749D01*
X261623622Y-254784476D01*
X261516974Y-254526368D01*
X261319670Y-254328720D01*
X261061749Y-254221622D01*
X260782476Y-254221378D01*
X260524368Y-254328026D01*
X260326720Y-254525330D01*
X260219622Y-254783251D01*
X260219560Y-254854322D01*
X259017619Y-253652381D01*
X258813167Y-253515771D01*
X258572000Y-253467800D01*
X253549406Y-253467800D01*
X251993885Y-251912279D01*
X254696857Y-251912279D01*
X254822495Y-252216346D01*
X255054930Y-252449188D01*
X255358778Y-252575356D01*
X255687779Y-252575643D01*
X255991846Y-252450005D01*
X256224688Y-252217570D01*
X256260621Y-252131033D01*
X256386279Y-252131143D01*
X256690346Y-252005505D01*
X256923188Y-251773070D01*
X256928397Y-251760524D01*
X260727378Y-251760524D01*
X260834026Y-252018632D01*
X261031330Y-252216280D01*
X261289251Y-252323378D01*
X261568524Y-252323622D01*
X261826632Y-252216974D01*
X262024280Y-252019670D01*
X262131378Y-251761749D01*
X262131622Y-251482476D01*
X262024974Y-251224368D01*
X261827670Y-251026720D01*
X261569749Y-250919622D01*
X261290476Y-250919378D01*
X261032368Y-251026026D01*
X260834720Y-251223330D01*
X260727622Y-251481251D01*
X260727378Y-251760524D01*
X256928397Y-251760524D01*
X257049356Y-251469222D01*
X257049643Y-251140221D01*
X256924005Y-250836154D01*
X256691570Y-250603312D01*
X256387722Y-250477144D01*
X256058721Y-250476857D01*
X255754654Y-250602495D01*
X255521812Y-250834930D01*
X255485879Y-250921467D01*
X255360221Y-250921357D01*
X255056154Y-251046995D01*
X254823312Y-251279430D01*
X254697144Y-251583278D01*
X254696857Y-251912279D01*
X251993885Y-251912279D01*
X251841000Y-251759394D01*
X251841000Y-249896106D01*
X252592106Y-249145000D01*
X262646894Y-249145000D01*
X264096500Y-250594606D01*
G36*
X267335000Y-188278106D02*
X267335000Y-189061894D01*
X266710894Y-189686000D01*
X265493500Y-189686000D01*
X265444090Y-189696006D01*
X265403697Y-189723197D01*
X264387697Y-190739197D01*
X264359834Y-190781211D01*
X264350500Y-190829000D01*
X264350500Y-193697394D01*
X262837394Y-195210500D01*
X252084106Y-195210500D01*
X251841000Y-194967394D01*
X251841000Y-193405779D01*
X254442857Y-193405779D01*
X254568495Y-193709846D01*
X254800930Y-193942688D01*
X255104778Y-194068856D01*
X255433779Y-194069143D01*
X255714815Y-193953021D01*
X255993778Y-194068856D01*
X256322779Y-194069143D01*
X256626846Y-193943505D01*
X256859688Y-193711070D01*
X256985856Y-193407222D01*
X256986143Y-193078221D01*
X256860505Y-192774154D01*
X256628070Y-192541312D01*
X256324222Y-192415144D01*
X255995221Y-192414857D01*
X255714185Y-192530979D01*
X255435222Y-192415144D01*
X255106221Y-192414857D01*
X254802154Y-192540495D01*
X254569312Y-192772930D01*
X254443144Y-193076778D01*
X254442857Y-193405779D01*
X251841000Y-193405779D01*
X251841000Y-193104106D01*
X253206506Y-191738600D01*
X259639995Y-191738600D01*
X259640000Y-191738601D01*
X259842287Y-191698363D01*
X260013777Y-191583777D01*
X260143536Y-191454018D01*
X260177701Y-191536703D01*
X260403110Y-191762506D01*
X260697772Y-191884860D01*
X261016828Y-191885139D01*
X261311703Y-191763299D01*
X261537506Y-191537890D01*
X261659860Y-191243228D01*
X261659889Y-191210000D01*
X261747000Y-191210000D01*
X261796410Y-191199994D01*
X261836803Y-191172803D01*
X265292106Y-187717500D01*
X266774394Y-187717500D01*
X267335000Y-188278106D01*
X267335000Y-188278106D01*
G37*
X267335000Y-188278106D02*
X267335000Y-189061894D01*
X266710894Y-189686000D01*
X265493500Y-189686000D01*
X265444090Y-189696006D01*
X265403697Y-189723197D01*
X264387697Y-190739197D01*
X264359834Y-190781211D01*
X264350500Y-190829000D01*
X264350500Y-193697394D01*
X262837394Y-195210500D01*
X252084106Y-195210500D01*
X251841000Y-194967394D01*
X251841000Y-193405779D01*
X254442857Y-193405779D01*
X254568495Y-193709846D01*
X254800930Y-193942688D01*
X255104778Y-194068856D01*
X255433779Y-194069143D01*
X255714815Y-193953021D01*
X255993778Y-194068856D01*
X256322779Y-194069143D01*
X256626846Y-193943505D01*
X256859688Y-193711070D01*
X256985856Y-193407222D01*
X256986143Y-193078221D01*
X256860505Y-192774154D01*
X256628070Y-192541312D01*
X256324222Y-192415144D01*
X255995221Y-192414857D01*
X255714185Y-192530979D01*
X255435222Y-192415144D01*
X255106221Y-192414857D01*
X254802154Y-192540495D01*
X254569312Y-192772930D01*
X254443144Y-193076778D01*
X254442857Y-193405779D01*
X251841000Y-193405779D01*
X251841000Y-193104106D01*
X253206506Y-191738600D01*
X259639995Y-191738600D01*
X259640000Y-191738601D01*
X259842287Y-191698363D01*
X260013777Y-191583777D01*
X260143536Y-191454018D01*
X260177701Y-191536703D01*
X260403110Y-191762506D01*
X260697772Y-191884860D01*
X261016828Y-191885139D01*
X261311703Y-191763299D01*
X261537506Y-191537890D01*
X261659860Y-191243228D01*
X261659889Y-191210000D01*
X261747000Y-191210000D01*
X261796410Y-191199994D01*
X261836803Y-191172803D01*
X265292106Y-187717500D01*
X266774394Y-187717500D01*
X267335000Y-188278106D01*
G36*
X267335000Y-223278106D02*
X267335000Y-224061894D01*
X266710894Y-224686000D01*
X265493500Y-224686000D01*
X265444090Y-224696006D01*
X265403697Y-224723197D01*
X264387697Y-225739197D01*
X264359834Y-225781211D01*
X264350500Y-225829000D01*
X264350500Y-228697394D01*
X262837394Y-230210500D01*
X252084106Y-230210500D01*
X251841000Y-229967394D01*
X251841000Y-228405779D01*
X254442857Y-228405779D01*
X254568495Y-228709846D01*
X254800930Y-228942688D01*
X255104778Y-229068856D01*
X255433779Y-229069143D01*
X255714815Y-228953021D01*
X255993778Y-229068856D01*
X256322779Y-229069143D01*
X256626846Y-228943505D01*
X256859688Y-228711070D01*
X256985856Y-228407222D01*
X256986143Y-228078221D01*
X256860505Y-227774154D01*
X256628070Y-227541312D01*
X256324222Y-227415144D01*
X255995221Y-227414857D01*
X255714185Y-227530979D01*
X255435222Y-227415144D01*
X255106221Y-227414857D01*
X254802154Y-227540495D01*
X254569312Y-227772930D01*
X254443144Y-228076778D01*
X254442857Y-228405779D01*
X251841000Y-228405779D01*
X251841000Y-228104106D01*
X253206506Y-226738600D01*
X259818995Y-226738600D01*
X259819000Y-226738601D01*
X260021287Y-226698363D01*
X260192777Y-226583777D01*
X260208749Y-226567805D01*
X260403110Y-226762506D01*
X260697772Y-226884860D01*
X261016828Y-226885139D01*
X261311703Y-226763299D01*
X261537506Y-226537890D01*
X261659860Y-226243228D01*
X261659889Y-226210000D01*
X261747000Y-226210000D01*
X261796410Y-226199994D01*
X261836803Y-226172803D01*
X265292106Y-222717500D01*
X266774394Y-222717500D01*
X267335000Y-223278106D01*
X267335000Y-223278106D01*
G37*
X267335000Y-223278106D02*
X267335000Y-224061894D01*
X266710894Y-224686000D01*
X265493500Y-224686000D01*
X265444090Y-224696006D01*
X265403697Y-224723197D01*
X264387697Y-225739197D01*
X264359834Y-225781211D01*
X264350500Y-225829000D01*
X264350500Y-228697394D01*
X262837394Y-230210500D01*
X252084106Y-230210500D01*
X251841000Y-229967394D01*
X251841000Y-228405779D01*
X254442857Y-228405779D01*
X254568495Y-228709846D01*
X254800930Y-228942688D01*
X255104778Y-229068856D01*
X255433779Y-229069143D01*
X255714815Y-228953021D01*
X255993778Y-229068856D01*
X256322779Y-229069143D01*
X256626846Y-228943505D01*
X256859688Y-228711070D01*
X256985856Y-228407222D01*
X256986143Y-228078221D01*
X256860505Y-227774154D01*
X256628070Y-227541312D01*
X256324222Y-227415144D01*
X255995221Y-227414857D01*
X255714185Y-227530979D01*
X255435222Y-227415144D01*
X255106221Y-227414857D01*
X254802154Y-227540495D01*
X254569312Y-227772930D01*
X254443144Y-228076778D01*
X254442857Y-228405779D01*
X251841000Y-228405779D01*
X251841000Y-228104106D01*
X253206506Y-226738600D01*
X259818995Y-226738600D01*
X259819000Y-226738601D01*
X260021287Y-226698363D01*
X260192777Y-226583777D01*
X260208749Y-226567805D01*
X260403110Y-226762506D01*
X260697772Y-226884860D01*
X261016828Y-226885139D01*
X261311703Y-226763299D01*
X261537506Y-226537890D01*
X261659860Y-226243228D01*
X261659889Y-226210000D01*
X261747000Y-226210000D01*
X261796410Y-226199994D01*
X261836803Y-226172803D01*
X265292106Y-222717500D01*
X266774394Y-222717500D01*
X267335000Y-223278106D01*
G36*
X267335000Y-258278106D02*
X267335000Y-259061894D01*
X266710894Y-259686000D01*
X265493500Y-259686000D01*
X265444090Y-259696006D01*
X265403697Y-259723197D01*
X264387697Y-260739197D01*
X264359834Y-260781211D01*
X264350500Y-260829000D01*
X264350500Y-263697394D01*
X262837394Y-265210500D01*
X252084106Y-265210500D01*
X251841000Y-264967394D01*
X251841000Y-263405779D01*
X254442857Y-263405779D01*
X254568495Y-263709846D01*
X254800930Y-263942688D01*
X255104778Y-264068856D01*
X255433779Y-264069143D01*
X255714815Y-263953021D01*
X255993778Y-264068856D01*
X256322779Y-264069143D01*
X256626846Y-263943505D01*
X256859688Y-263711070D01*
X256985856Y-263407222D01*
X256986143Y-263078221D01*
X256860505Y-262774154D01*
X256628070Y-262541312D01*
X256324222Y-262415144D01*
X255995221Y-262414857D01*
X255714185Y-262530979D01*
X255435222Y-262415144D01*
X255106221Y-262414857D01*
X254802154Y-262540495D01*
X254569312Y-262772930D01*
X254443144Y-263076778D01*
X254442857Y-263405779D01*
X251841000Y-263405779D01*
X251841000Y-263104106D01*
X253206506Y-261738600D01*
X259616995Y-261738600D01*
X259617000Y-261738601D01*
X259819287Y-261698363D01*
X259990777Y-261583777D01*
X260136811Y-261437743D01*
X260177701Y-261536703D01*
X260403110Y-261762506D01*
X260697772Y-261884860D01*
X261016828Y-261885139D01*
X261311703Y-261763299D01*
X261537506Y-261537890D01*
X261659860Y-261243228D01*
X261659889Y-261210000D01*
X261747000Y-261210000D01*
X261796410Y-261199994D01*
X261836803Y-261172803D01*
X265292106Y-257717500D01*
X266774394Y-257717500D01*
X267335000Y-258278106D01*
X267335000Y-258278106D01*
G37*
X267335000Y-258278106D02*
X267335000Y-259061894D01*
X266710894Y-259686000D01*
X265493500Y-259686000D01*
X265444090Y-259696006D01*
X265403697Y-259723197D01*
X264387697Y-260739197D01*
X264359834Y-260781211D01*
X264350500Y-260829000D01*
X264350500Y-263697394D01*
X262837394Y-265210500D01*
X252084106Y-265210500D01*
X251841000Y-264967394D01*
X251841000Y-263405779D01*
X254442857Y-263405779D01*
X254568495Y-263709846D01*
X254800930Y-263942688D01*
X255104778Y-264068856D01*
X255433779Y-264069143D01*
X255714815Y-263953021D01*
X255993778Y-264068856D01*
X256322779Y-264069143D01*
X256626846Y-263943505D01*
X256859688Y-263711070D01*
X256985856Y-263407222D01*
X256986143Y-263078221D01*
X256860505Y-262774154D01*
X256628070Y-262541312D01*
X256324222Y-262415144D01*
X255995221Y-262414857D01*
X255714185Y-262530979D01*
X255435222Y-262415144D01*
X255106221Y-262414857D01*
X254802154Y-262540495D01*
X254569312Y-262772930D01*
X254443144Y-263076778D01*
X254442857Y-263405779D01*
X251841000Y-263405779D01*
X251841000Y-263104106D01*
X253206506Y-261738600D01*
X259616995Y-261738600D01*
X259617000Y-261738601D01*
X259819287Y-261698363D01*
X259990777Y-261583777D01*
X260136811Y-261437743D01*
X260177701Y-261536703D01*
X260403110Y-261762506D01*
X260697772Y-261884860D01*
X261016828Y-261885139D01*
X261311703Y-261763299D01*
X261537506Y-261537890D01*
X261659860Y-261243228D01*
X261659889Y-261210000D01*
X261747000Y-261210000D01*
X261796410Y-261199994D01*
X261836803Y-261172803D01*
X265292106Y-257717500D01*
X266774394Y-257717500D01*
X267335000Y-258278106D01*
G36*
X269373000Y-271913000D02*
X232277000Y-271913000D01*
X232277000Y-259873828D01*
X246212861Y-259873828D01*
X246334701Y-260168703D01*
X246560110Y-260394506D01*
X246854772Y-260516860D01*
X247173828Y-260517139D01*
X247468703Y-260395299D01*
X247694506Y-260169890D01*
X247816860Y-259875228D01*
X247817139Y-259556172D01*
X247695299Y-259261297D01*
X247469890Y-259035494D01*
X247175228Y-258913140D01*
X246856172Y-258912861D01*
X246561297Y-259034701D01*
X246335494Y-259260110D01*
X246213140Y-259554772D01*
X246212861Y-259873828D01*
X232277000Y-259873828D01*
X232277000Y-256396024D01*
X247201878Y-256396024D01*
X247308526Y-256654132D01*
X247505830Y-256851780D01*
X247583007Y-256883826D01*
X247582992Y-256900072D01*
X247506868Y-256931526D01*
X247309220Y-257128830D01*
X247202122Y-257386751D01*
X247201878Y-257666024D01*
X247308526Y-257924132D01*
X247505830Y-258121780D01*
X247763751Y-258228878D01*
X248043024Y-258229122D01*
X248301132Y-258122474D01*
X248498780Y-257925170D01*
X248605878Y-257667249D01*
X248606008Y-257518928D01*
X248682132Y-257487474D01*
X248879780Y-257290170D01*
X248986878Y-257032249D01*
X248987122Y-256752976D01*
X248880474Y-256494868D01*
X248683170Y-256297220D01*
X248605993Y-256265174D01*
X248606122Y-256117976D01*
X248499474Y-255859868D01*
X248302170Y-255662220D01*
X248044249Y-255555122D01*
X247764976Y-255554878D01*
X247506868Y-255661526D01*
X247309220Y-255858830D01*
X247202122Y-256116751D01*
X247201878Y-256396024D01*
X232277000Y-256396024D01*
X232277000Y-254246926D01*
X244230869Y-254246926D01*
X244345113Y-254523418D01*
X244556470Y-254735143D01*
X244832762Y-254849870D01*
X245131926Y-254850131D01*
X245408418Y-254735887D01*
X245416118Y-254728200D01*
X258090330Y-254728200D01*
X260873565Y-257511435D01*
X261009373Y-257602858D01*
X261175500Y-257636500D01*
X264589630Y-257636500D01*
X261570130Y-260656000D01*
X260896064Y-260656000D01*
X260920878Y-260618863D01*
X260965363Y-260552287D01*
X261005601Y-260350000D01*
X261005600Y-260349995D01*
X261005600Y-259207005D01*
X261005601Y-259207000D01*
X260965363Y-259004713D01*
X260850777Y-258833223D01*
X260163040Y-258145486D01*
X260163122Y-258051976D01*
X260056474Y-257793868D01*
X259859170Y-257596220D01*
X259601249Y-257489122D01*
X259321976Y-257488878D01*
X259063868Y-257595526D01*
X258866220Y-257792830D01*
X258759122Y-258050751D01*
X258758878Y-258330024D01*
X258865526Y-258588132D01*
X258912721Y-258635410D01*
X258866220Y-258681830D01*
X258759122Y-258939751D01*
X258758878Y-259219024D01*
X258865526Y-259477132D01*
X258912721Y-259524410D01*
X258866220Y-259570830D01*
X258800584Y-259728900D01*
X251269505Y-259728900D01*
X251269500Y-259728899D01*
X251067213Y-259769137D01*
X251047780Y-259782122D01*
X250895723Y-259883723D01*
X250895721Y-259883726D01*
X249001486Y-261777960D01*
X248907976Y-261777878D01*
X248649868Y-261884526D01*
X248452220Y-262081830D01*
X248345122Y-262339751D01*
X248344878Y-262619024D01*
X248451526Y-262877132D01*
X248648830Y-263074780D01*
X248654720Y-263077226D01*
X248249722Y-263482224D01*
X248135136Y-263653714D01*
X248094898Y-263856001D01*
X248094899Y-263856006D01*
X248094899Y-265571720D01*
X247951368Y-265631026D01*
X247753720Y-265828330D01*
X247646622Y-266086251D01*
X247646378Y-266365524D01*
X247753026Y-266623632D01*
X247807218Y-266677918D01*
X247710122Y-266911751D01*
X247709878Y-267191024D01*
X247816526Y-267449132D01*
X248013830Y-267646780D01*
X248271751Y-267753878D01*
X248551024Y-267754122D01*
X248809132Y-267647474D01*
X249006780Y-267450170D01*
X249113878Y-267192249D01*
X249113961Y-267097593D01*
X249547774Y-266663779D01*
X249547777Y-266663777D01*
X249605070Y-266578032D01*
X249618877Y-266557368D01*
X249618835Y-266605534D01*
X249763463Y-266955560D01*
X250031031Y-267223596D01*
X250380805Y-267368835D01*
X250759534Y-267369165D01*
X251109560Y-267224537D01*
X251377596Y-266956969D01*
X251522835Y-266607195D01*
X251523165Y-266228466D01*
X251378537Y-265878440D01*
X251110969Y-265610404D01*
X250761195Y-265465165D01*
X250382466Y-265464835D01*
X250032440Y-265609463D01*
X249764404Y-265877031D01*
X249702600Y-266025871D01*
X249702600Y-264222954D01*
X252186953Y-261738600D01*
X252423030Y-261738600D01*
X251412065Y-262749565D01*
X251320642Y-262885373D01*
X251287000Y-263051500D01*
X251287000Y-265020000D01*
X251318384Y-265180677D01*
X251412065Y-265321935D01*
X251729565Y-265639435D01*
X251865373Y-265730858D01*
X252031500Y-265764500D01*
X262890000Y-265764500D01*
X263050677Y-265733116D01*
X263191935Y-265639435D01*
X264779435Y-264051935D01*
X264870858Y-263916127D01*
X264904500Y-263750000D01*
X264904500Y-261831894D01*
X265098738Y-262122592D01*
X265517439Y-262402359D01*
X266011330Y-262500600D01*
X266372670Y-262500600D01*
X266866561Y-262402359D01*
X267285262Y-262122592D01*
X267565029Y-261703891D01*
X267663270Y-261210000D01*
X267565029Y-260716109D01*
X267285262Y-260297408D01*
X267038704Y-260132663D01*
X267065435Y-260114935D01*
X267763935Y-259416435D01*
X267855358Y-259280627D01*
X267889000Y-259114500D01*
X267889000Y-258225500D01*
X267857616Y-258064823D01*
X267763935Y-257923565D01*
X267364218Y-257523848D01*
X267382935Y-257511435D01*
X267763935Y-257130435D01*
X267855358Y-256994627D01*
X267889000Y-256828500D01*
X267889000Y-255431500D01*
X267857616Y-255270823D01*
X267763935Y-255129565D01*
X267443709Y-254809339D01*
X267511567Y-254765673D01*
X267609064Y-254622981D01*
X267643365Y-254453600D01*
X267643365Y-252726400D01*
X267613591Y-252568163D01*
X267520073Y-252422833D01*
X267377381Y-252325336D01*
X267208000Y-252291035D01*
X265176000Y-252291035D01*
X265017763Y-252320809D01*
X264872433Y-252414327D01*
X264774936Y-252557019D01*
X264740635Y-252726400D01*
X264740635Y-254328765D01*
X264650500Y-254238630D01*
X264650500Y-250542000D01*
X264619116Y-250381323D01*
X264525435Y-250240065D01*
X263001435Y-248716065D01*
X262865627Y-248624642D01*
X262699500Y-248591000D01*
X252539500Y-248591000D01*
X252378823Y-248622384D01*
X252237565Y-248716065D01*
X251412065Y-249541565D01*
X251320642Y-249677373D01*
X251287000Y-249843500D01*
X251287000Y-251812000D01*
X251318384Y-251972677D01*
X251412065Y-252113935D01*
X252765930Y-253467800D01*
X245416461Y-253467800D01*
X245409530Y-253460857D01*
X245133238Y-253346130D01*
X244834074Y-253345869D01*
X244557582Y-253460113D01*
X244345857Y-253671470D01*
X244231130Y-253947762D01*
X244230869Y-254246926D01*
X232277000Y-254246926D01*
X232277000Y-242831779D01*
X264412357Y-242831779D01*
X264537995Y-243135846D01*
X264770430Y-243368688D01*
X265074278Y-243494856D01*
X265403279Y-243495143D01*
X265707346Y-243369505D01*
X265739352Y-243337555D01*
X265770430Y-243368688D01*
X266074278Y-243494856D01*
X266403279Y-243495143D01*
X266707346Y-243369505D01*
X266739352Y-243337555D01*
X266770430Y-243368688D01*
X267074278Y-243494856D01*
X267403279Y-243495143D01*
X267707346Y-243369505D01*
X267940188Y-243137070D01*
X268066356Y-242833222D01*
X268066643Y-242504221D01*
X267941005Y-242200154D01*
X267708570Y-241967312D01*
X267404722Y-241841144D01*
X267075721Y-241840857D01*
X266771654Y-241966495D01*
X266739648Y-241998445D01*
X266708570Y-241967312D01*
X266404722Y-241841144D01*
X266075721Y-241840857D01*
X265771654Y-241966495D01*
X265739648Y-241998445D01*
X265708570Y-241967312D01*
X265404722Y-241841144D01*
X265075721Y-241840857D01*
X264771654Y-241966495D01*
X264538812Y-242198930D01*
X264412644Y-242502778D01*
X264412357Y-242831779D01*
X232277000Y-242831779D01*
X232277000Y-224948828D01*
X246212861Y-224948828D01*
X246334701Y-225243703D01*
X246560110Y-225469506D01*
X246854772Y-225591860D01*
X247173828Y-225592139D01*
X247468703Y-225470299D01*
X247694506Y-225244890D01*
X247816860Y-224950228D01*
X247817139Y-224631172D01*
X247695299Y-224336297D01*
X247469890Y-224110494D01*
X247175228Y-223988140D01*
X246856172Y-223987861D01*
X246561297Y-224109701D01*
X246335494Y-224335110D01*
X246213140Y-224629772D01*
X246212861Y-224948828D01*
X232277000Y-224948828D01*
X232277000Y-221119024D01*
X235263878Y-221119024D01*
X235370526Y-221377132D01*
X235567830Y-221574780D01*
X235825751Y-221681878D01*
X235945859Y-221681983D01*
X235965756Y-221695278D01*
X235899122Y-221855751D01*
X235898878Y-222135024D01*
X236005526Y-222393132D01*
X236202830Y-222590780D01*
X236460751Y-222697878D01*
X236740024Y-222698122D01*
X236998132Y-222591474D01*
X237169304Y-222420600D01*
X237423072Y-222420600D01*
X237422878Y-222643024D01*
X237529526Y-222901132D01*
X237726830Y-223098780D01*
X237984751Y-223205878D01*
X238264024Y-223206122D01*
X238522132Y-223099474D01*
X238566082Y-223055600D01*
X247439765Y-223055600D01*
X247505830Y-223121780D01*
X247763751Y-223228878D01*
X248043024Y-223229122D01*
X248301132Y-223122474D01*
X248498780Y-222925170D01*
X248605878Y-222667249D01*
X248606008Y-222518928D01*
X248682132Y-222487474D01*
X248879780Y-222290170D01*
X248986878Y-222032249D01*
X248987122Y-221752976D01*
X248880474Y-221494868D01*
X248683170Y-221297220D01*
X248605993Y-221265174D01*
X248606122Y-221117976D01*
X248499474Y-220859868D01*
X248302170Y-220662220D01*
X248044249Y-220555122D01*
X247764976Y-220554878D01*
X247506868Y-220661526D01*
X247439877Y-220728400D01*
X236621607Y-220728400D01*
X236561474Y-220582868D01*
X236364170Y-220385220D01*
X236106249Y-220278122D01*
X235826976Y-220277878D01*
X235568868Y-220384526D01*
X235371220Y-220581830D01*
X235264122Y-220839751D01*
X235263878Y-221119024D01*
X232277000Y-221119024D01*
X232277000Y-219246926D01*
X244230869Y-219246926D01*
X244345113Y-219523418D01*
X244556470Y-219735143D01*
X244832762Y-219849870D01*
X245131926Y-219850131D01*
X245408418Y-219735887D01*
X245416118Y-219728200D01*
X258090330Y-219728200D01*
X260873565Y-222511435D01*
X261009373Y-222602858D01*
X261175500Y-222636500D01*
X264589630Y-222636500D01*
X261570130Y-225656000D01*
X260878600Y-225656000D01*
X260878600Y-223901005D01*
X260878601Y-223901000D01*
X260838363Y-223698713D01*
X260723777Y-223527223D01*
X260723774Y-223527221D01*
X260290040Y-223093487D01*
X260290122Y-222999976D01*
X260183474Y-222741868D01*
X259986170Y-222544220D01*
X259728249Y-222437122D01*
X259448976Y-222436878D01*
X259190868Y-222543526D01*
X258993220Y-222740830D01*
X258886122Y-222998751D01*
X258885878Y-223278024D01*
X258992526Y-223536132D01*
X259039832Y-223583520D01*
X258866220Y-223756830D01*
X258759122Y-224014751D01*
X258758878Y-224294024D01*
X258865526Y-224552132D01*
X258976221Y-224663020D01*
X258910227Y-224728900D01*
X251269505Y-224728900D01*
X251269500Y-224728899D01*
X251067213Y-224769137D01*
X250981469Y-224826430D01*
X250895723Y-224883723D01*
X250895721Y-224883726D01*
X249001486Y-226777960D01*
X248907976Y-226777878D01*
X248649868Y-226884526D01*
X248452220Y-227081830D01*
X248345122Y-227339751D01*
X248344878Y-227619024D01*
X248451526Y-227877132D01*
X248648830Y-228074780D01*
X248654720Y-228077226D01*
X247974723Y-228757223D01*
X247860137Y-228928713D01*
X247819899Y-229131000D01*
X247819900Y-229131005D01*
X247819900Y-230762265D01*
X247753720Y-230828330D01*
X247646622Y-231086251D01*
X247646378Y-231365524D01*
X247753026Y-231623632D01*
X247807218Y-231677918D01*
X247710122Y-231911751D01*
X247709878Y-232191024D01*
X247816526Y-232449132D01*
X248013830Y-232646780D01*
X248271751Y-232753878D01*
X248551024Y-232754122D01*
X248809132Y-232647474D01*
X249006780Y-232450170D01*
X249113878Y-232192249D01*
X249113961Y-232097593D01*
X249547774Y-231663779D01*
X249547777Y-231663777D01*
X249605070Y-231578031D01*
X249618877Y-231557368D01*
X249618835Y-231605534D01*
X249763463Y-231955560D01*
X250031031Y-232223596D01*
X250380805Y-232368835D01*
X250759534Y-232369165D01*
X251109560Y-232224537D01*
X251377596Y-231956969D01*
X251522835Y-231607195D01*
X251523165Y-231228466D01*
X251378537Y-230878440D01*
X251110969Y-230610404D01*
X250761195Y-230465165D01*
X250382466Y-230464835D01*
X250032440Y-230609463D01*
X249764404Y-230877031D01*
X249702600Y-231025871D01*
X249702600Y-229222954D01*
X252186953Y-226738600D01*
X252423030Y-226738600D01*
X251412065Y-227749565D01*
X251320642Y-227885373D01*
X251287000Y-228051500D01*
X251287000Y-230020000D01*
X251318384Y-230180677D01*
X251412065Y-230321935D01*
X251729565Y-230639435D01*
X251865373Y-230730858D01*
X252031500Y-230764500D01*
X262890000Y-230764500D01*
X263050677Y-230733116D01*
X263191935Y-230639435D01*
X264779435Y-229051935D01*
X264870858Y-228916127D01*
X264904500Y-228750000D01*
X264904500Y-226831894D01*
X265098738Y-227122592D01*
X265517439Y-227402359D01*
X266011330Y-227500600D01*
X266372670Y-227500600D01*
X266866561Y-227402359D01*
X267285262Y-227122592D01*
X267565029Y-226703891D01*
X267663270Y-226210000D01*
X267565029Y-225716109D01*
X267285262Y-225297408D01*
X267038704Y-225132663D01*
X267065435Y-225114935D01*
X267763935Y-224416435D01*
X267855358Y-224280627D01*
X267889000Y-224114500D01*
X267889000Y-223225500D01*
X267857616Y-223064823D01*
X267763935Y-222923565D01*
X267364218Y-222523848D01*
X267382935Y-222511435D01*
X267763935Y-222130435D01*
X267855358Y-221994627D01*
X267889000Y-221828500D01*
X267889000Y-220431500D01*
X267857616Y-220270823D01*
X267763935Y-220129565D01*
X267443709Y-219809339D01*
X267511567Y-219765673D01*
X267609064Y-219622981D01*
X267643365Y-219453600D01*
X267643365Y-217726400D01*
X267613591Y-217568163D01*
X267520073Y-217422833D01*
X267377381Y-217325336D01*
X267208000Y-217291035D01*
X265176000Y-217291035D01*
X265017763Y-217320809D01*
X264872433Y-217414327D01*
X264774936Y-217557019D01*
X264740635Y-217726400D01*
X264740635Y-219328765D01*
X264650500Y-219238630D01*
X264650500Y-215542000D01*
X264619116Y-215381323D01*
X264525435Y-215240065D01*
X263001435Y-213716065D01*
X262865627Y-213624642D01*
X262699500Y-213591000D01*
X252539500Y-213591000D01*
X252378823Y-213622384D01*
X252237565Y-213716065D01*
X251412065Y-214541565D01*
X251320642Y-214677373D01*
X251287000Y-214843500D01*
X251287000Y-216812000D01*
X251318384Y-216972677D01*
X251412065Y-217113935D01*
X252765930Y-218467800D01*
X245416461Y-218467800D01*
X245409530Y-218460857D01*
X245133238Y-218346130D01*
X244834074Y-218345869D01*
X244557582Y-218460113D01*
X244345857Y-218671470D01*
X244231130Y-218947762D01*
X244230869Y-219246926D01*
X232277000Y-219246926D01*
X232277000Y-207831779D01*
X264412357Y-207831779D01*
X264537995Y-208135846D01*
X264770430Y-208368688D01*
X265074278Y-208494856D01*
X265403279Y-208495143D01*
X265707346Y-208369505D01*
X265739352Y-208337555D01*
X265770430Y-208368688D01*
X266074278Y-208494856D01*
X266403279Y-208495143D01*
X266707346Y-208369505D01*
X266739352Y-208337555D01*
X266770430Y-208368688D01*
X267074278Y-208494856D01*
X267403279Y-208495143D01*
X267707346Y-208369505D01*
X267940188Y-208137070D01*
X268066356Y-207833222D01*
X268066643Y-207504221D01*
X267941005Y-207200154D01*
X267708570Y-206967312D01*
X267404722Y-206841144D01*
X267075721Y-206840857D01*
X266771654Y-206966495D01*
X266739648Y-206998445D01*
X266708570Y-206967312D01*
X266404722Y-206841144D01*
X266075721Y-206840857D01*
X265771654Y-206966495D01*
X265739648Y-206998445D01*
X265708570Y-206967312D01*
X265404722Y-206841144D01*
X265075721Y-206840857D01*
X264771654Y-206966495D01*
X264538812Y-207198930D01*
X264412644Y-207502778D01*
X264412357Y-207831779D01*
X232277000Y-207831779D01*
X232277000Y-189896828D01*
X246212861Y-189896828D01*
X246334701Y-190191703D01*
X246560110Y-190417506D01*
X246854772Y-190539860D01*
X247173828Y-190540139D01*
X247468703Y-190418299D01*
X247694506Y-190192890D01*
X247816860Y-189898228D01*
X247817139Y-189579172D01*
X247695299Y-189284297D01*
X247469890Y-189058494D01*
X247175228Y-188936140D01*
X246856172Y-188935861D01*
X246561297Y-189057701D01*
X246335494Y-189283110D01*
X246213140Y-189577772D01*
X246212861Y-189896828D01*
X232277000Y-189896828D01*
X232277000Y-186448024D01*
X235263878Y-186448024D01*
X235370526Y-186706132D01*
X235567830Y-186903780D01*
X235825751Y-187010878D01*
X235899052Y-187010942D01*
X235898878Y-187210024D01*
X236005526Y-187468132D01*
X236202830Y-187665780D01*
X236460751Y-187772878D01*
X236740024Y-187773122D01*
X236998132Y-187666474D01*
X237195780Y-187469170D01*
X237215948Y-187420600D01*
X237430659Y-187420600D01*
X237423122Y-187438751D01*
X237422878Y-187718024D01*
X237529526Y-187976132D01*
X237726830Y-188173780D01*
X237984751Y-188280878D01*
X238264024Y-188281122D01*
X238522132Y-188174474D01*
X238589123Y-188107600D01*
X242465995Y-188107600D01*
X242466000Y-188107601D01*
X242668287Y-188067363D01*
X242685892Y-188055600D01*
X247439765Y-188055600D01*
X247505830Y-188121780D01*
X247763751Y-188228878D01*
X248043024Y-188229122D01*
X248301132Y-188122474D01*
X248498780Y-187925170D01*
X248605878Y-187667249D01*
X248606008Y-187518928D01*
X248682132Y-187487474D01*
X248879780Y-187290170D01*
X248986878Y-187032249D01*
X248987122Y-186752976D01*
X248880474Y-186494868D01*
X248683170Y-186297220D01*
X248605993Y-186265174D01*
X248606122Y-186117976D01*
X248499474Y-185859868D01*
X248302170Y-185662220D01*
X248044249Y-185555122D01*
X247764976Y-185554878D01*
X247506868Y-185661526D01*
X247439877Y-185728400D01*
X236378325Y-185728400D01*
X236364170Y-185714220D01*
X236106249Y-185607122D01*
X235826976Y-185606878D01*
X235568868Y-185713526D01*
X235371220Y-185910830D01*
X235264122Y-186168751D01*
X235263878Y-186448024D01*
X232277000Y-186448024D01*
X232277000Y-184246926D01*
X244230869Y-184246926D01*
X244345113Y-184523418D01*
X244556470Y-184735143D01*
X244832762Y-184849870D01*
X245131926Y-184850131D01*
X245408418Y-184735887D01*
X245416118Y-184728200D01*
X258090330Y-184728200D01*
X260873565Y-187511435D01*
X261009373Y-187602858D01*
X261175500Y-187636500D01*
X264589630Y-187636500D01*
X261570130Y-190656000D01*
X260911432Y-190656000D01*
X260943930Y-190607363D01*
X260965363Y-190575287D01*
X261005601Y-190373000D01*
X261005600Y-190372995D01*
X261005600Y-188976005D01*
X261005601Y-188976000D01*
X260965363Y-188773713D01*
X260850777Y-188602223D01*
X260290040Y-188041486D01*
X260290122Y-187947976D01*
X260183474Y-187689868D01*
X259986170Y-187492220D01*
X259728249Y-187385122D01*
X259448976Y-187384878D01*
X259190868Y-187491526D01*
X258993220Y-187688830D01*
X258886122Y-187946751D01*
X258885878Y-188226024D01*
X258992526Y-188484132D01*
X259039832Y-188531520D01*
X258866220Y-188704830D01*
X258759122Y-188962751D01*
X258758878Y-189242024D01*
X258865526Y-189500132D01*
X258912721Y-189547410D01*
X258866220Y-189593830D01*
X258810134Y-189728900D01*
X251269505Y-189728900D01*
X251269500Y-189728899D01*
X251067213Y-189769137D01*
X251013358Y-189805122D01*
X250895723Y-189883723D01*
X250895721Y-189883726D01*
X249001486Y-191777960D01*
X248907976Y-191777878D01*
X248649868Y-191884526D01*
X248452220Y-192081830D01*
X248345122Y-192339751D01*
X248344878Y-192619024D01*
X248451526Y-192877132D01*
X248648830Y-193074780D01*
X248654720Y-193077226D01*
X248249722Y-193482224D01*
X248135136Y-193653714D01*
X248094898Y-193856001D01*
X248094899Y-193856006D01*
X248094899Y-195571720D01*
X247951368Y-195631026D01*
X247753720Y-195828330D01*
X247646622Y-196086251D01*
X247646378Y-196365524D01*
X247753026Y-196623632D01*
X247807218Y-196677918D01*
X247710122Y-196911751D01*
X247709878Y-197191024D01*
X247816526Y-197449132D01*
X248013830Y-197646780D01*
X248271751Y-197753878D01*
X248551024Y-197754122D01*
X248809132Y-197647474D01*
X249006780Y-197450170D01*
X249113878Y-197192249D01*
X249113961Y-197097593D01*
X249547774Y-196663779D01*
X249547777Y-196663777D01*
X249605070Y-196578031D01*
X249618877Y-196557368D01*
X249618835Y-196605534D01*
X249763463Y-196955560D01*
X250031031Y-197223596D01*
X250380805Y-197368835D01*
X250759534Y-197369165D01*
X251109560Y-197224537D01*
X251377596Y-196956969D01*
X251522835Y-196607195D01*
X251523165Y-196228466D01*
X251378537Y-195878440D01*
X251110969Y-195610404D01*
X250761195Y-195465165D01*
X250382466Y-195464835D01*
X250032440Y-195609463D01*
X249764404Y-195877031D01*
X249702600Y-196025871D01*
X249702600Y-194222954D01*
X252186953Y-191738600D01*
X252423030Y-191738600D01*
X251412065Y-192749565D01*
X251320642Y-192885373D01*
X251287000Y-193051500D01*
X251287000Y-195020000D01*
X251318384Y-195180677D01*
X251412065Y-195321935D01*
X251729565Y-195639435D01*
X251865373Y-195730858D01*
X252031500Y-195764500D01*
X262890000Y-195764500D01*
X263050677Y-195733116D01*
X263191935Y-195639435D01*
X264779435Y-194051935D01*
X264870858Y-193916127D01*
X264904500Y-193750000D01*
X264904500Y-191831894D01*
X265098738Y-192122592D01*
X265517439Y-192402359D01*
X266011330Y-192500600D01*
X266372670Y-192500600D01*
X266866561Y-192402359D01*
X267285262Y-192122592D01*
X267565029Y-191703891D01*
X267663270Y-191210000D01*
X267565029Y-190716109D01*
X267285262Y-190297408D01*
X267038704Y-190132663D01*
X267065435Y-190114935D01*
X267763935Y-189416435D01*
X267855358Y-189280627D01*
X267889000Y-189114500D01*
X267889000Y-188225500D01*
X267857616Y-188064823D01*
X267763935Y-187923565D01*
X267364218Y-187523848D01*
X267382935Y-187511435D01*
X267763935Y-187130435D01*
X267855358Y-186994627D01*
X267889000Y-186828500D01*
X267889000Y-185431500D01*
X267857616Y-185270823D01*
X267763935Y-185129565D01*
X267443709Y-184809339D01*
X267511567Y-184765673D01*
X267609064Y-184622981D01*
X267643365Y-184453600D01*
X267643365Y-182726400D01*
X267613591Y-182568163D01*
X267520073Y-182422833D01*
X267377381Y-182325336D01*
X267208000Y-182291035D01*
X265176000Y-182291035D01*
X265017763Y-182320809D01*
X264872433Y-182414327D01*
X264774936Y-182557019D01*
X264740635Y-182726400D01*
X264740635Y-184328765D01*
X264650500Y-184238630D01*
X264650500Y-180542000D01*
X264619116Y-180381323D01*
X264525435Y-180240065D01*
X263001435Y-178716065D01*
X262865627Y-178624642D01*
X262699500Y-178591000D01*
X252539500Y-178591000D01*
X252378823Y-178622384D01*
X252237565Y-178716065D01*
X251412065Y-179541565D01*
X251320642Y-179677373D01*
X251287000Y-179843500D01*
X251287000Y-181812000D01*
X251318384Y-181972677D01*
X251412065Y-182113935D01*
X252765930Y-183467800D01*
X245416461Y-183467800D01*
X245409530Y-183460857D01*
X245133238Y-183346130D01*
X244834074Y-183345869D01*
X244557582Y-183460113D01*
X244345857Y-183671470D01*
X244231130Y-183947762D01*
X244230869Y-184246926D01*
X232277000Y-184246926D01*
X232277000Y-177304024D01*
X232850878Y-177304024D01*
X232957526Y-177562132D01*
X233154830Y-177759780D01*
X233404912Y-177863623D01*
X233155868Y-177966526D01*
X232958220Y-178163830D01*
X232851122Y-178421751D01*
X232850878Y-178701024D01*
X232957526Y-178959132D01*
X233131721Y-179133631D01*
X232958220Y-179306830D01*
X232851122Y-179564751D01*
X232850878Y-179844024D01*
X232957526Y-180102132D01*
X233154830Y-180299780D01*
X233404912Y-180403623D01*
X233155868Y-180506526D01*
X232958220Y-180703830D01*
X232851122Y-180961751D01*
X232850878Y-181241024D01*
X232957526Y-181499132D01*
X233154830Y-181696780D01*
X233251610Y-181736966D01*
X233155868Y-181776526D01*
X232958220Y-181973830D01*
X232851122Y-182231751D01*
X232850878Y-182511024D01*
X232957526Y-182769132D01*
X233131721Y-182943631D01*
X232958220Y-183116830D01*
X232851122Y-183374751D01*
X232850878Y-183654024D01*
X232957526Y-183912132D01*
X233154830Y-184109780D01*
X233412751Y-184216878D01*
X233692024Y-184217122D01*
X233950132Y-184110474D01*
X234147780Y-183913170D01*
X234207810Y-183768601D01*
X240301436Y-183768601D01*
X240462714Y-183876363D01*
X240665000Y-183916600D01*
X240962765Y-183916600D01*
X241028830Y-183982780D01*
X241286751Y-184089878D01*
X241566024Y-184090122D01*
X241824132Y-183983474D01*
X242021780Y-183786170D01*
X242128878Y-183528249D01*
X242129122Y-183248976D01*
X242067157Y-183099009D01*
X242078132Y-183094474D01*
X242275780Y-182897170D01*
X242382878Y-182639249D01*
X242383122Y-182359976D01*
X242276474Y-182101868D01*
X242079170Y-181904220D01*
X241821249Y-181797122D01*
X241541976Y-181796878D01*
X241283868Y-181903526D01*
X241086220Y-182100830D01*
X241026190Y-182245399D01*
X234255111Y-182245399D01*
X234255122Y-182232976D01*
X234148474Y-181974868D01*
X233951170Y-181777220D01*
X233854390Y-181737034D01*
X233950132Y-181697474D01*
X234147780Y-181500170D01*
X234254878Y-181242249D01*
X234254961Y-181147593D01*
X234533953Y-180868600D01*
X241343986Y-180868600D01*
X241536830Y-181061780D01*
X241794751Y-181168878D01*
X242074024Y-181169122D01*
X242332132Y-181062474D01*
X242529780Y-180865170D01*
X242636878Y-180607249D01*
X242637122Y-180327976D01*
X242530474Y-180069868D01*
X242333170Y-179872220D01*
X242075249Y-179765122D01*
X241795976Y-179764878D01*
X241641340Y-179828772D01*
X241554000Y-179811399D01*
X241553995Y-179811400D01*
X234315005Y-179811400D01*
X234315000Y-179811399D01*
X234254897Y-179823354D01*
X234254961Y-179750593D01*
X234279953Y-179725600D01*
X242351046Y-179725600D01*
X242883960Y-180258513D01*
X242883878Y-180352024D01*
X242990526Y-180610132D01*
X243187830Y-180807780D01*
X243445751Y-180914878D01*
X243725024Y-180915122D01*
X243983132Y-180808474D01*
X244180780Y-180611170D01*
X244287878Y-180353249D01*
X244288122Y-180073976D01*
X244181474Y-179815868D01*
X243984170Y-179618220D01*
X243726249Y-179511122D01*
X243631592Y-179511039D01*
X242960642Y-178840088D01*
X243017878Y-178702249D01*
X243017959Y-178609448D01*
X243064751Y-178628878D01*
X243344024Y-178629122D01*
X243602132Y-178522474D01*
X243799780Y-178325170D01*
X243906878Y-178067249D01*
X243907122Y-177787976D01*
X243800474Y-177529868D01*
X243603170Y-177332220D01*
X243345249Y-177225122D01*
X243065976Y-177224878D01*
X242953384Y-177271400D01*
X238851953Y-177271400D01*
X238646776Y-177066222D01*
X238635369Y-177058600D01*
X241851765Y-177058600D01*
X241917830Y-177124780D01*
X242175751Y-177231878D01*
X242455024Y-177232122D01*
X242713132Y-177125474D01*
X242910780Y-176928170D01*
X243017878Y-176670249D01*
X243018122Y-176390976D01*
X242911474Y-176132868D01*
X242714170Y-175935220D01*
X242456249Y-175828122D01*
X242176976Y-175827878D01*
X241918868Y-175934526D01*
X241851877Y-176001400D01*
X234406953Y-176001400D01*
X234382040Y-175976487D01*
X234382122Y-175882976D01*
X234275474Y-175624868D01*
X234078170Y-175427220D01*
X233820249Y-175320122D01*
X233540976Y-175319878D01*
X233282868Y-175426526D01*
X233085220Y-175623830D01*
X232978122Y-175881751D01*
X232977878Y-176161024D01*
X233084526Y-176419132D01*
X233211650Y-176546477D01*
X233155868Y-176569526D01*
X232958220Y-176766830D01*
X232851122Y-177024751D01*
X232850878Y-177304024D01*
X232277000Y-177304024D01*
X232277000Y-172831779D01*
X264412357Y-172831779D01*
X264537995Y-173135846D01*
X264770430Y-173368688D01*
X265074278Y-173494856D01*
X265403279Y-173495143D01*
X265707346Y-173369505D01*
X265739352Y-173337555D01*
X265770430Y-173368688D01*
X266074278Y-173494856D01*
X266403279Y-173495143D01*
X266707346Y-173369505D01*
X266739352Y-173337555D01*
X266770430Y-173368688D01*
X267074278Y-173494856D01*
X267403279Y-173495143D01*
X267707346Y-173369505D01*
X267940188Y-173137070D01*
X268066356Y-172833222D01*
X268066643Y-172504221D01*
X267941005Y-172200154D01*
X267708570Y-171967312D01*
X267404722Y-171841144D01*
X267075721Y-171840857D01*
X266771654Y-171966495D01*
X266739648Y-171998445D01*
X266708570Y-171967312D01*
X266404722Y-171841144D01*
X266075721Y-171840857D01*
X265771654Y-171966495D01*
X265739648Y-171998445D01*
X265708570Y-171967312D01*
X265404722Y-171841144D01*
X265075721Y-171840857D01*
X264771654Y-171966495D01*
X264538812Y-172198930D01*
X264412644Y-172502778D01*
X264412357Y-172831779D01*
X232277000Y-172831779D01*
X232277000Y-168668024D01*
X235877858Y-168668024D01*
X235984506Y-168926132D01*
X236181810Y-169123780D01*
X236439731Y-169230878D01*
X236719004Y-169231122D01*
X236977112Y-169124474D01*
X237174760Y-168927170D01*
X237281858Y-168669249D01*
X237282071Y-168424910D01*
X237345830Y-168488780D01*
X237603751Y-168595878D01*
X237883024Y-168596122D01*
X238141132Y-168489474D01*
X238316075Y-168314835D01*
X238315835Y-168590534D01*
X238460463Y-168940560D01*
X238728031Y-169208596D01*
X239077805Y-169353835D01*
X239456534Y-169354165D01*
X239806560Y-169209537D01*
X240074596Y-168941969D01*
X240219835Y-168592195D01*
X240220165Y-168213466D01*
X240096676Y-167914600D01*
X240156995Y-167914600D01*
X240157000Y-167914601D01*
X240359287Y-167874363D01*
X240530777Y-167759777D01*
X241914400Y-166376153D01*
X241914400Y-169580046D01*
X241381486Y-170112960D01*
X241287976Y-170112878D01*
X241029868Y-170219526D01*
X240832220Y-170416830D01*
X240725122Y-170674751D01*
X240724878Y-170954024D01*
X240831526Y-171212132D01*
X241028830Y-171409780D01*
X241286751Y-171516878D01*
X241566024Y-171517122D01*
X241824132Y-171410474D01*
X242021780Y-171213170D01*
X242128878Y-170955249D01*
X242128961Y-170860593D01*
X242816777Y-170172777D01*
X242931363Y-170001287D01*
X242971601Y-169799000D01*
X242971600Y-169798995D01*
X242971600Y-158206954D01*
X246096220Y-155082333D01*
X246207463Y-155351560D01*
X246475031Y-155619596D01*
X246824805Y-155764835D01*
X247203534Y-155765165D01*
X247553560Y-155620537D01*
X247821596Y-155352969D01*
X247966835Y-155003195D01*
X247967165Y-154624466D01*
X247822537Y-154274440D01*
X247554969Y-154006404D01*
X247284470Y-153894083D01*
X247949513Y-153229040D01*
X248043024Y-153229122D01*
X248301132Y-153122474D01*
X248498780Y-152925170D01*
X248605878Y-152667249D01*
X248606008Y-152518928D01*
X248682132Y-152487474D01*
X248879780Y-152290170D01*
X248986878Y-152032249D01*
X248987122Y-151752976D01*
X248880474Y-151494868D01*
X248683170Y-151297220D01*
X248605993Y-151265174D01*
X248606122Y-151117976D01*
X248499474Y-150859868D01*
X248302170Y-150662220D01*
X248044249Y-150555122D01*
X247764976Y-150554878D01*
X247506868Y-150661526D01*
X247421161Y-150747084D01*
X247312806Y-150768637D01*
X247141315Y-150883223D01*
X247141313Y-150883226D01*
X241053223Y-156971315D01*
X240938637Y-157142805D01*
X240898399Y-157345092D01*
X240898400Y-157345097D01*
X240898400Y-165262047D01*
X239684046Y-166476400D01*
X237715077Y-166476400D01*
X237715072Y-166476399D01*
X237512785Y-166516637D01*
X237427041Y-166573930D01*
X237341295Y-166631223D01*
X237341293Y-166631226D01*
X236206203Y-167766315D01*
X236091617Y-167937805D01*
X236070075Y-168046103D01*
X235985200Y-168130830D01*
X235878102Y-168388751D01*
X235877858Y-168668024D01*
X232277000Y-168668024D01*
X232277000Y-149246926D01*
X244230869Y-149246926D01*
X244345113Y-149523418D01*
X244556470Y-149735143D01*
X244832762Y-149849870D01*
X245131926Y-149850131D01*
X245408418Y-149735887D01*
X245416118Y-149728200D01*
X258090330Y-149728200D01*
X260873565Y-152511435D01*
X261009373Y-152602858D01*
X261175500Y-152636500D01*
X264589630Y-152636500D01*
X261570130Y-155656000D01*
X261003687Y-155656000D01*
X261092363Y-155523287D01*
X261132601Y-155321000D01*
X261132600Y-155320995D01*
X261132600Y-154305005D01*
X261132601Y-154305000D01*
X261092363Y-154102713D01*
X261007504Y-153975713D01*
X260977777Y-153931223D01*
X260977774Y-153931221D01*
X260236776Y-153190222D01*
X260158003Y-153137588D01*
X260056474Y-152891868D01*
X259859170Y-152694220D01*
X259601249Y-152587122D01*
X259321976Y-152586878D01*
X259063868Y-152693526D01*
X258866220Y-152890830D01*
X258759122Y-153148751D01*
X258758878Y-153428024D01*
X258865526Y-153686132D01*
X258912721Y-153733410D01*
X258866220Y-153779830D01*
X258759122Y-154037751D01*
X258759017Y-154157400D01*
X257556000Y-154157400D01*
X257353713Y-154197637D01*
X257182223Y-154312223D01*
X256765546Y-154728900D01*
X251269505Y-154728900D01*
X251269500Y-154728899D01*
X251067213Y-154769137D01*
X251001568Y-154813000D01*
X250895723Y-154883723D01*
X250895721Y-154883726D01*
X249001486Y-156777960D01*
X248907976Y-156777878D01*
X248649868Y-156884526D01*
X248452220Y-157081830D01*
X248345122Y-157339751D01*
X248344878Y-157619024D01*
X248451526Y-157877132D01*
X248648830Y-158074780D01*
X248654720Y-158077226D01*
X248249722Y-158482224D01*
X248135136Y-158653714D01*
X248094898Y-158856001D01*
X248094899Y-158856006D01*
X248094899Y-160571720D01*
X247951368Y-160631026D01*
X247753720Y-160828330D01*
X247646622Y-161086251D01*
X247646378Y-161365524D01*
X247753026Y-161623632D01*
X247807218Y-161677918D01*
X247710122Y-161911751D01*
X247709878Y-162191024D01*
X247816526Y-162449132D01*
X248013830Y-162646780D01*
X248271751Y-162753878D01*
X248551024Y-162754122D01*
X248809132Y-162647474D01*
X249006780Y-162450170D01*
X249113878Y-162192249D01*
X249113961Y-162097593D01*
X249547774Y-161663779D01*
X249547777Y-161663777D01*
X249605070Y-161578032D01*
X249618877Y-161557368D01*
X249618835Y-161605534D01*
X249763463Y-161955560D01*
X250031031Y-162223596D01*
X250380805Y-162368835D01*
X250759534Y-162369165D01*
X251109560Y-162224537D01*
X251377596Y-161956969D01*
X251522835Y-161607195D01*
X251523165Y-161228466D01*
X251378537Y-160878440D01*
X251110969Y-160610404D01*
X250761195Y-160465165D01*
X250382466Y-160464835D01*
X250032440Y-160609463D01*
X249764404Y-160877031D01*
X249702600Y-161025871D01*
X249702600Y-159222954D01*
X252186953Y-156738600D01*
X252423030Y-156738600D01*
X251412065Y-157749565D01*
X251320642Y-157885373D01*
X251287000Y-158051500D01*
X251287000Y-160020000D01*
X251318384Y-160180677D01*
X251412065Y-160321935D01*
X251729565Y-160639435D01*
X251865373Y-160730858D01*
X252031500Y-160764500D01*
X262890000Y-160764500D01*
X263050677Y-160733116D01*
X263191935Y-160639435D01*
X264779435Y-159051935D01*
X264870858Y-158916127D01*
X264904500Y-158750000D01*
X264904500Y-156831894D01*
X265098738Y-157122592D01*
X265517439Y-157402359D01*
X266011330Y-157500600D01*
X266372670Y-157500600D01*
X266866561Y-157402359D01*
X267285262Y-157122592D01*
X267565029Y-156703891D01*
X267663270Y-156210000D01*
X267565029Y-155716109D01*
X267285262Y-155297408D01*
X267038704Y-155132663D01*
X267065435Y-155114935D01*
X267763935Y-154416435D01*
X267855358Y-154280627D01*
X267889000Y-154114500D01*
X267889000Y-153225500D01*
X267857616Y-153064823D01*
X267763935Y-152923565D01*
X267364218Y-152523848D01*
X267382935Y-152511435D01*
X267763935Y-152130435D01*
X267855358Y-151994627D01*
X267889000Y-151828500D01*
X267889000Y-150431500D01*
X267857616Y-150270823D01*
X267763935Y-150129565D01*
X267443709Y-149809339D01*
X267511567Y-149765673D01*
X267609064Y-149622981D01*
X267643365Y-149453600D01*
X267643365Y-147726400D01*
X267613591Y-147568163D01*
X267520073Y-147422833D01*
X267377381Y-147325336D01*
X267208000Y-147291035D01*
X265176000Y-147291035D01*
X265017763Y-147320809D01*
X264872433Y-147414327D01*
X264774936Y-147557019D01*
X264740635Y-147726400D01*
X264740635Y-149328765D01*
X264650500Y-149238630D01*
X264650500Y-145542000D01*
X264619116Y-145381323D01*
X264525435Y-145240065D01*
X263001435Y-143716065D01*
X262865627Y-143624642D01*
X262699500Y-143591000D01*
X252539500Y-143591000D01*
X252378823Y-143622384D01*
X252237565Y-143716065D01*
X251412065Y-144541565D01*
X251320642Y-144677373D01*
X251287000Y-144843500D01*
X251287000Y-146812000D01*
X251318384Y-146972677D01*
X251412065Y-147113935D01*
X252765930Y-148467800D01*
X245416461Y-148467800D01*
X245409530Y-148460857D01*
X245133238Y-148346130D01*
X244834074Y-148345869D01*
X244557582Y-148460113D01*
X244345857Y-148671470D01*
X244231130Y-148947762D01*
X244230869Y-149246926D01*
X232277000Y-149246926D01*
X232277000Y-137831779D01*
X264412357Y-137831779D01*
X264537995Y-138135846D01*
X264770430Y-138368688D01*
X265074278Y-138494856D01*
X265403279Y-138495143D01*
X265707346Y-138369505D01*
X265739352Y-138337555D01*
X265770430Y-138368688D01*
X266074278Y-138494856D01*
X266403279Y-138495143D01*
X266707346Y-138369505D01*
X266739352Y-138337555D01*
X266770430Y-138368688D01*
X267074278Y-138494856D01*
X267403279Y-138495143D01*
X267707346Y-138369505D01*
X267940188Y-138137070D01*
X268066356Y-137833222D01*
X268066643Y-137504221D01*
X267941005Y-137200154D01*
X267708570Y-136967312D01*
X267404722Y-136841144D01*
X267075721Y-136840857D01*
X266771654Y-136966495D01*
X266739648Y-136998445D01*
X266708570Y-136967312D01*
X266404722Y-136841144D01*
X266075721Y-136840857D01*
X265771654Y-136966495D01*
X265739648Y-136998445D01*
X265708570Y-136967312D01*
X265404722Y-136841144D01*
X265075721Y-136840857D01*
X264771654Y-136966495D01*
X264538812Y-137198930D01*
X264412644Y-137502778D01*
X264412357Y-137831779D01*
X232277000Y-137831779D01*
X232277000Y-130373436D01*
X240297827Y-130373436D01*
X240450051Y-130741846D01*
X240731672Y-131023959D01*
X241099816Y-131176825D01*
X241498436Y-131177173D01*
X241866846Y-131024949D01*
X242148959Y-130743328D01*
X242301825Y-130375184D01*
X242302173Y-129976564D01*
X242149949Y-129608154D01*
X241868328Y-129326041D01*
X241500184Y-129173175D01*
X241101564Y-129172827D01*
X240733154Y-129325051D01*
X240451041Y-129606672D01*
X240298175Y-129974816D01*
X240297827Y-130373436D01*
X232277000Y-130373436D01*
X232277000Y-122753436D01*
X246647827Y-122753436D01*
X246800051Y-123121846D01*
X247081672Y-123403959D01*
X247449816Y-123556825D01*
X247848436Y-123557173D01*
X248173536Y-123422844D01*
X255678000Y-123422844D01*
X255678000Y-125497156D01*
X255785863Y-126039418D01*
X256093030Y-126499126D01*
X256552738Y-126806293D01*
X257095000Y-126914156D01*
X257637262Y-126806293D01*
X258096970Y-126499126D01*
X258404137Y-126039418D01*
X258512000Y-125497156D01*
X258512000Y-123422844D01*
X258404137Y-122880582D01*
X258096970Y-122420874D01*
X257637262Y-122113707D01*
X257095000Y-122005844D01*
X256552738Y-122113707D01*
X256093030Y-122420874D01*
X255785863Y-122880582D01*
X255678000Y-123422844D01*
X248173536Y-123422844D01*
X248216846Y-123404949D01*
X248498959Y-123123328D01*
X248651825Y-122755184D01*
X248652173Y-122356564D01*
X248499949Y-121988154D01*
X248218328Y-121706041D01*
X247850184Y-121553175D01*
X247451564Y-121552827D01*
X247083154Y-121705051D01*
X246801041Y-121986672D01*
X246648175Y-122354816D01*
X246647827Y-122753436D01*
X232277000Y-122753436D01*
X232277000Y-116707000D01*
X269373000Y-116707000D01*
X269373000Y-271913000D01*
X269373000Y-271913000D01*
G37*
X269373000Y-271913000D02*
X232277000Y-271913000D01*
X232277000Y-259873828D01*
X246212861Y-259873828D01*
X246334701Y-260168703D01*
X246560110Y-260394506D01*
X246854772Y-260516860D01*
X247173828Y-260517139D01*
X247468703Y-260395299D01*
X247694506Y-260169890D01*
X247816860Y-259875228D01*
X247817139Y-259556172D01*
X247695299Y-259261297D01*
X247469890Y-259035494D01*
X247175228Y-258913140D01*
X246856172Y-258912861D01*
X246561297Y-259034701D01*
X246335494Y-259260110D01*
X246213140Y-259554772D01*
X246212861Y-259873828D01*
X232277000Y-259873828D01*
X232277000Y-256396024D01*
X247201878Y-256396024D01*
X247308526Y-256654132D01*
X247505830Y-256851780D01*
X247583007Y-256883826D01*
X247582992Y-256900072D01*
X247506868Y-256931526D01*
X247309220Y-257128830D01*
X247202122Y-257386751D01*
X247201878Y-257666024D01*
X247308526Y-257924132D01*
X247505830Y-258121780D01*
X247763751Y-258228878D01*
X248043024Y-258229122D01*
X248301132Y-258122474D01*
X248498780Y-257925170D01*
X248605878Y-257667249D01*
X248606008Y-257518928D01*
X248682132Y-257487474D01*
X248879780Y-257290170D01*
X248986878Y-257032249D01*
X248987122Y-256752976D01*
X248880474Y-256494868D01*
X248683170Y-256297220D01*
X248605993Y-256265174D01*
X248606122Y-256117976D01*
X248499474Y-255859868D01*
X248302170Y-255662220D01*
X248044249Y-255555122D01*
X247764976Y-255554878D01*
X247506868Y-255661526D01*
X247309220Y-255858830D01*
X247202122Y-256116751D01*
X247201878Y-256396024D01*
X232277000Y-256396024D01*
X232277000Y-254246926D01*
X244230869Y-254246926D01*
X244345113Y-254523418D01*
X244556470Y-254735143D01*
X244832762Y-254849870D01*
X245131926Y-254850131D01*
X245408418Y-254735887D01*
X245416118Y-254728200D01*
X258090330Y-254728200D01*
X260873565Y-257511435D01*
X261009373Y-257602858D01*
X261175500Y-257636500D01*
X264589630Y-257636500D01*
X261570130Y-260656000D01*
X260896064Y-260656000D01*
X260920878Y-260618863D01*
X260965363Y-260552287D01*
X261005601Y-260350000D01*
X261005600Y-260349995D01*
X261005600Y-259207005D01*
X261005601Y-259207000D01*
X260965363Y-259004713D01*
X260850777Y-258833223D01*
X260163040Y-258145486D01*
X260163122Y-258051976D01*
X260056474Y-257793868D01*
X259859170Y-257596220D01*
X259601249Y-257489122D01*
X259321976Y-257488878D01*
X259063868Y-257595526D01*
X258866220Y-257792830D01*
X258759122Y-258050751D01*
X258758878Y-258330024D01*
X258865526Y-258588132D01*
X258912721Y-258635410D01*
X258866220Y-258681830D01*
X258759122Y-258939751D01*
X258758878Y-259219024D01*
X258865526Y-259477132D01*
X258912721Y-259524410D01*
X258866220Y-259570830D01*
X258800584Y-259728900D01*
X251269505Y-259728900D01*
X251269500Y-259728899D01*
X251067213Y-259769137D01*
X251047780Y-259782122D01*
X250895723Y-259883723D01*
X250895721Y-259883726D01*
X249001486Y-261777960D01*
X248907976Y-261777878D01*
X248649868Y-261884526D01*
X248452220Y-262081830D01*
X248345122Y-262339751D01*
X248344878Y-262619024D01*
X248451526Y-262877132D01*
X248648830Y-263074780D01*
X248654720Y-263077226D01*
X248249722Y-263482224D01*
X248135136Y-263653714D01*
X248094898Y-263856001D01*
X248094899Y-263856006D01*
X248094899Y-265571720D01*
X247951368Y-265631026D01*
X247753720Y-265828330D01*
X247646622Y-266086251D01*
X247646378Y-266365524D01*
X247753026Y-266623632D01*
X247807218Y-266677918D01*
X247710122Y-266911751D01*
X247709878Y-267191024D01*
X247816526Y-267449132D01*
X248013830Y-267646780D01*
X248271751Y-267753878D01*
X248551024Y-267754122D01*
X248809132Y-267647474D01*
X249006780Y-267450170D01*
X249113878Y-267192249D01*
X249113961Y-267097593D01*
X249547774Y-266663779D01*
X249547777Y-266663777D01*
X249605070Y-266578032D01*
X249618877Y-266557368D01*
X249618835Y-266605534D01*
X249763463Y-266955560D01*
X250031031Y-267223596D01*
X250380805Y-267368835D01*
X250759534Y-267369165D01*
X251109560Y-267224537D01*
X251377596Y-266956969D01*
X251522835Y-266607195D01*
X251523165Y-266228466D01*
X251378537Y-265878440D01*
X251110969Y-265610404D01*
X250761195Y-265465165D01*
X250382466Y-265464835D01*
X250032440Y-265609463D01*
X249764404Y-265877031D01*
X249702600Y-266025871D01*
X249702600Y-264222954D01*
X252186953Y-261738600D01*
X252423030Y-261738600D01*
X251412065Y-262749565D01*
X251320642Y-262885373D01*
X251287000Y-263051500D01*
X251287000Y-265020000D01*
X251318384Y-265180677D01*
X251412065Y-265321935D01*
X251729565Y-265639435D01*
X251865373Y-265730858D01*
X252031500Y-265764500D01*
X262890000Y-265764500D01*
X263050677Y-265733116D01*
X263191935Y-265639435D01*
X264779435Y-264051935D01*
X264870858Y-263916127D01*
X264904500Y-263750000D01*
X264904500Y-261831894D01*
X265098738Y-262122592D01*
X265517439Y-262402359D01*
X266011330Y-262500600D01*
X266372670Y-262500600D01*
X266866561Y-262402359D01*
X267285262Y-262122592D01*
X267565029Y-261703891D01*
X267663270Y-261210000D01*
X267565029Y-260716109D01*
X267285262Y-260297408D01*
X267038704Y-260132663D01*
X267065435Y-260114935D01*
X267763935Y-259416435D01*
X267855358Y-259280627D01*
X267889000Y-259114500D01*
X267889000Y-258225500D01*
X267857616Y-258064823D01*
X267763935Y-257923565D01*
X267364218Y-257523848D01*
X267382935Y-257511435D01*
X267763935Y-257130435D01*
X267855358Y-256994627D01*
X267889000Y-256828500D01*
X267889000Y-255431500D01*
X267857616Y-255270823D01*
X267763935Y-255129565D01*
X267443709Y-254809339D01*
X267511567Y-254765673D01*
X267609064Y-254622981D01*
X267643365Y-254453600D01*
X267643365Y-252726400D01*
X267613591Y-252568163D01*
X267520073Y-252422833D01*
X267377381Y-252325336D01*
X267208000Y-252291035D01*
X265176000Y-252291035D01*
X265017763Y-252320809D01*
X264872433Y-252414327D01*
X264774936Y-252557019D01*
X264740635Y-252726400D01*
X264740635Y-254328765D01*
X264650500Y-254238630D01*
X264650500Y-250542000D01*
X264619116Y-250381323D01*
X264525435Y-250240065D01*
X263001435Y-248716065D01*
X262865627Y-248624642D01*
X262699500Y-248591000D01*
X252539500Y-248591000D01*
X252378823Y-248622384D01*
X252237565Y-248716065D01*
X251412065Y-249541565D01*
X251320642Y-249677373D01*
X251287000Y-249843500D01*
X251287000Y-251812000D01*
X251318384Y-251972677D01*
X251412065Y-252113935D01*
X252765930Y-253467800D01*
X245416461Y-253467800D01*
X245409530Y-253460857D01*
X245133238Y-253346130D01*
X244834074Y-253345869D01*
X244557582Y-253460113D01*
X244345857Y-253671470D01*
X244231130Y-253947762D01*
X244230869Y-254246926D01*
X232277000Y-254246926D01*
X232277000Y-242831779D01*
X264412357Y-242831779D01*
X264537995Y-243135846D01*
X264770430Y-243368688D01*
X265074278Y-243494856D01*
X265403279Y-243495143D01*
X265707346Y-243369505D01*
X265739352Y-243337555D01*
X265770430Y-243368688D01*
X266074278Y-243494856D01*
X266403279Y-243495143D01*
X266707346Y-243369505D01*
X266739352Y-243337555D01*
X266770430Y-243368688D01*
X267074278Y-243494856D01*
X267403279Y-243495143D01*
X267707346Y-243369505D01*
X267940188Y-243137070D01*
X268066356Y-242833222D01*
X268066643Y-242504221D01*
X267941005Y-242200154D01*
X267708570Y-241967312D01*
X267404722Y-241841144D01*
X267075721Y-241840857D01*
X266771654Y-241966495D01*
X266739648Y-241998445D01*
X266708570Y-241967312D01*
X266404722Y-241841144D01*
X266075721Y-241840857D01*
X265771654Y-241966495D01*
X265739648Y-241998445D01*
X265708570Y-241967312D01*
X265404722Y-241841144D01*
X265075721Y-241840857D01*
X264771654Y-241966495D01*
X264538812Y-242198930D01*
X264412644Y-242502778D01*
X264412357Y-242831779D01*
X232277000Y-242831779D01*
X232277000Y-224948828D01*
X246212861Y-224948828D01*
X246334701Y-225243703D01*
X246560110Y-225469506D01*
X246854772Y-225591860D01*
X247173828Y-225592139D01*
X247468703Y-225470299D01*
X247694506Y-225244890D01*
X247816860Y-224950228D01*
X247817139Y-224631172D01*
X247695299Y-224336297D01*
X247469890Y-224110494D01*
X247175228Y-223988140D01*
X246856172Y-223987861D01*
X246561297Y-224109701D01*
X246335494Y-224335110D01*
X246213140Y-224629772D01*
X246212861Y-224948828D01*
X232277000Y-224948828D01*
X232277000Y-221119024D01*
X235263878Y-221119024D01*
X235370526Y-221377132D01*
X235567830Y-221574780D01*
X235825751Y-221681878D01*
X235945859Y-221681983D01*
X235965756Y-221695278D01*
X235899122Y-221855751D01*
X235898878Y-222135024D01*
X236005526Y-222393132D01*
X236202830Y-222590780D01*
X236460751Y-222697878D01*
X236740024Y-222698122D01*
X236998132Y-222591474D01*
X237169304Y-222420600D01*
X237423072Y-222420600D01*
X237422878Y-222643024D01*
X237529526Y-222901132D01*
X237726830Y-223098780D01*
X237984751Y-223205878D01*
X238264024Y-223206122D01*
X238522132Y-223099474D01*
X238566082Y-223055600D01*
X247439765Y-223055600D01*
X247505830Y-223121780D01*
X247763751Y-223228878D01*
X248043024Y-223229122D01*
X248301132Y-223122474D01*
X248498780Y-222925170D01*
X248605878Y-222667249D01*
X248606008Y-222518928D01*
X248682132Y-222487474D01*
X248879780Y-222290170D01*
X248986878Y-222032249D01*
X248987122Y-221752976D01*
X248880474Y-221494868D01*
X248683170Y-221297220D01*
X248605993Y-221265174D01*
X248606122Y-221117976D01*
X248499474Y-220859868D01*
X248302170Y-220662220D01*
X248044249Y-220555122D01*
X247764976Y-220554878D01*
X247506868Y-220661526D01*
X247439877Y-220728400D01*
X236621607Y-220728400D01*
X236561474Y-220582868D01*
X236364170Y-220385220D01*
X236106249Y-220278122D01*
X235826976Y-220277878D01*
X235568868Y-220384526D01*
X235371220Y-220581830D01*
X235264122Y-220839751D01*
X235263878Y-221119024D01*
X232277000Y-221119024D01*
X232277000Y-219246926D01*
X244230869Y-219246926D01*
X244345113Y-219523418D01*
X244556470Y-219735143D01*
X244832762Y-219849870D01*
X245131926Y-219850131D01*
X245408418Y-219735887D01*
X245416118Y-219728200D01*
X258090330Y-219728200D01*
X260873565Y-222511435D01*
X261009373Y-222602858D01*
X261175500Y-222636500D01*
X264589630Y-222636500D01*
X261570130Y-225656000D01*
X260878600Y-225656000D01*
X260878600Y-223901005D01*
X260878601Y-223901000D01*
X260838363Y-223698713D01*
X260723777Y-223527223D01*
X260723774Y-223527221D01*
X260290040Y-223093487D01*
X260290122Y-222999976D01*
X260183474Y-222741868D01*
X259986170Y-222544220D01*
X259728249Y-222437122D01*
X259448976Y-222436878D01*
X259190868Y-222543526D01*
X258993220Y-222740830D01*
X258886122Y-222998751D01*
X258885878Y-223278024D01*
X258992526Y-223536132D01*
X259039832Y-223583520D01*
X258866220Y-223756830D01*
X258759122Y-224014751D01*
X258758878Y-224294024D01*
X258865526Y-224552132D01*
X258976221Y-224663020D01*
X258910227Y-224728900D01*
X251269505Y-224728900D01*
X251269500Y-224728899D01*
X251067213Y-224769137D01*
X250981469Y-224826430D01*
X250895723Y-224883723D01*
X250895721Y-224883726D01*
X249001486Y-226777960D01*
X248907976Y-226777878D01*
X248649868Y-226884526D01*
X248452220Y-227081830D01*
X248345122Y-227339751D01*
X248344878Y-227619024D01*
X248451526Y-227877132D01*
X248648830Y-228074780D01*
X248654720Y-228077226D01*
X247974723Y-228757223D01*
X247860137Y-228928713D01*
X247819899Y-229131000D01*
X247819900Y-229131005D01*
X247819900Y-230762265D01*
X247753720Y-230828330D01*
X247646622Y-231086251D01*
X247646378Y-231365524D01*
X247753026Y-231623632D01*
X247807218Y-231677918D01*
X247710122Y-231911751D01*
X247709878Y-232191024D01*
X247816526Y-232449132D01*
X248013830Y-232646780D01*
X248271751Y-232753878D01*
X248551024Y-232754122D01*
X248809132Y-232647474D01*
X249006780Y-232450170D01*
X249113878Y-232192249D01*
X249113961Y-232097593D01*
X249547774Y-231663779D01*
X249547777Y-231663777D01*
X249605070Y-231578031D01*
X249618877Y-231557368D01*
X249618835Y-231605534D01*
X249763463Y-231955560D01*
X250031031Y-232223596D01*
X250380805Y-232368835D01*
X250759534Y-232369165D01*
X251109560Y-232224537D01*
X251377596Y-231956969D01*
X251522835Y-231607195D01*
X251523165Y-231228466D01*
X251378537Y-230878440D01*
X251110969Y-230610404D01*
X250761195Y-230465165D01*
X250382466Y-230464835D01*
X250032440Y-230609463D01*
X249764404Y-230877031D01*
X249702600Y-231025871D01*
X249702600Y-229222954D01*
X252186953Y-226738600D01*
X252423030Y-226738600D01*
X251412065Y-227749565D01*
X251320642Y-227885373D01*
X251287000Y-228051500D01*
X251287000Y-230020000D01*
X251318384Y-230180677D01*
X251412065Y-230321935D01*
X251729565Y-230639435D01*
X251865373Y-230730858D01*
X252031500Y-230764500D01*
X262890000Y-230764500D01*
X263050677Y-230733116D01*
X263191935Y-230639435D01*
X264779435Y-229051935D01*
X264870858Y-228916127D01*
X264904500Y-228750000D01*
X264904500Y-226831894D01*
X265098738Y-227122592D01*
X265517439Y-227402359D01*
X266011330Y-227500600D01*
X266372670Y-227500600D01*
X266866561Y-227402359D01*
X267285262Y-227122592D01*
X267565029Y-226703891D01*
X267663270Y-226210000D01*
X267565029Y-225716109D01*
X267285262Y-225297408D01*
X267038704Y-225132663D01*
X267065435Y-225114935D01*
X267763935Y-224416435D01*
X267855358Y-224280627D01*
X267889000Y-224114500D01*
X267889000Y-223225500D01*
X267857616Y-223064823D01*
X267763935Y-222923565D01*
X267364218Y-222523848D01*
X267382935Y-222511435D01*
X267763935Y-222130435D01*
X267855358Y-221994627D01*
X267889000Y-221828500D01*
X267889000Y-220431500D01*
X267857616Y-220270823D01*
X267763935Y-220129565D01*
X267443709Y-219809339D01*
X267511567Y-219765673D01*
X267609064Y-219622981D01*
X267643365Y-219453600D01*
X267643365Y-217726400D01*
X267613591Y-217568163D01*
X267520073Y-217422833D01*
X267377381Y-217325336D01*
X267208000Y-217291035D01*
X265176000Y-217291035D01*
X265017763Y-217320809D01*
X264872433Y-217414327D01*
X264774936Y-217557019D01*
X264740635Y-217726400D01*
X264740635Y-219328765D01*
X264650500Y-219238630D01*
X264650500Y-215542000D01*
X264619116Y-215381323D01*
X264525435Y-215240065D01*
X263001435Y-213716065D01*
X262865627Y-213624642D01*
X262699500Y-213591000D01*
X252539500Y-213591000D01*
X252378823Y-213622384D01*
X252237565Y-213716065D01*
X251412065Y-214541565D01*
X251320642Y-214677373D01*
X251287000Y-214843500D01*
X251287000Y-216812000D01*
X251318384Y-216972677D01*
X251412065Y-217113935D01*
X252765930Y-218467800D01*
X245416461Y-218467800D01*
X245409530Y-218460857D01*
X245133238Y-218346130D01*
X244834074Y-218345869D01*
X244557582Y-218460113D01*
X244345857Y-218671470D01*
X244231130Y-218947762D01*
X244230869Y-219246926D01*
X232277000Y-219246926D01*
X232277000Y-207831779D01*
X264412357Y-207831779D01*
X264537995Y-208135846D01*
X264770430Y-208368688D01*
X265074278Y-208494856D01*
X265403279Y-208495143D01*
X265707346Y-208369505D01*
X265739352Y-208337555D01*
X265770430Y-208368688D01*
X266074278Y-208494856D01*
X266403279Y-208495143D01*
X266707346Y-208369505D01*
X266739352Y-208337555D01*
X266770430Y-208368688D01*
X267074278Y-208494856D01*
X267403279Y-208495143D01*
X267707346Y-208369505D01*
X267940188Y-208137070D01*
X268066356Y-207833222D01*
X268066643Y-207504221D01*
X267941005Y-207200154D01*
X267708570Y-206967312D01*
X267404722Y-206841144D01*
X267075721Y-206840857D01*
X266771654Y-206966495D01*
X266739648Y-206998445D01*
X266708570Y-206967312D01*
X266404722Y-206841144D01*
X266075721Y-206840857D01*
X265771654Y-206966495D01*
X265739648Y-206998445D01*
X265708570Y-206967312D01*
X265404722Y-206841144D01*
X265075721Y-206840857D01*
X264771654Y-206966495D01*
X264538812Y-207198930D01*
X264412644Y-207502778D01*
X264412357Y-207831779D01*
X232277000Y-207831779D01*
X232277000Y-189896828D01*
X246212861Y-189896828D01*
X246334701Y-190191703D01*
X246560110Y-190417506D01*
X246854772Y-190539860D01*
X247173828Y-190540139D01*
X247468703Y-190418299D01*
X247694506Y-190192890D01*
X247816860Y-189898228D01*
X247817139Y-189579172D01*
X247695299Y-189284297D01*
X247469890Y-189058494D01*
X247175228Y-188936140D01*
X246856172Y-188935861D01*
X246561297Y-189057701D01*
X246335494Y-189283110D01*
X246213140Y-189577772D01*
X246212861Y-189896828D01*
X232277000Y-189896828D01*
X232277000Y-186448024D01*
X235263878Y-186448024D01*
X235370526Y-186706132D01*
X235567830Y-186903780D01*
X235825751Y-187010878D01*
X235899052Y-187010942D01*
X235898878Y-187210024D01*
X236005526Y-187468132D01*
X236202830Y-187665780D01*
X236460751Y-187772878D01*
X236740024Y-187773122D01*
X236998132Y-187666474D01*
X237195780Y-187469170D01*
X237215948Y-187420600D01*
X237430659Y-187420600D01*
X237423122Y-187438751D01*
X237422878Y-187718024D01*
X237529526Y-187976132D01*
X237726830Y-188173780D01*
X237984751Y-188280878D01*
X238264024Y-188281122D01*
X238522132Y-188174474D01*
X238589123Y-188107600D01*
X242465995Y-188107600D01*
X242466000Y-188107601D01*
X242668287Y-188067363D01*
X242685892Y-188055600D01*
X247439765Y-188055600D01*
X247505830Y-188121780D01*
X247763751Y-188228878D01*
X248043024Y-188229122D01*
X248301132Y-188122474D01*
X248498780Y-187925170D01*
X248605878Y-187667249D01*
X248606008Y-187518928D01*
X248682132Y-187487474D01*
X248879780Y-187290170D01*
X248986878Y-187032249D01*
X248987122Y-186752976D01*
X248880474Y-186494868D01*
X248683170Y-186297220D01*
X248605993Y-186265174D01*
X248606122Y-186117976D01*
X248499474Y-185859868D01*
X248302170Y-185662220D01*
X248044249Y-185555122D01*
X247764976Y-185554878D01*
X247506868Y-185661526D01*
X247439877Y-185728400D01*
X236378325Y-185728400D01*
X236364170Y-185714220D01*
X236106249Y-185607122D01*
X235826976Y-185606878D01*
X235568868Y-185713526D01*
X235371220Y-185910830D01*
X235264122Y-186168751D01*
X235263878Y-186448024D01*
X232277000Y-186448024D01*
X232277000Y-184246926D01*
X244230869Y-184246926D01*
X244345113Y-184523418D01*
X244556470Y-184735143D01*
X244832762Y-184849870D01*
X245131926Y-184850131D01*
X245408418Y-184735887D01*
X245416118Y-184728200D01*
X258090330Y-184728200D01*
X260873565Y-187511435D01*
X261009373Y-187602858D01*
X261175500Y-187636500D01*
X264589630Y-187636500D01*
X261570130Y-190656000D01*
X260911432Y-190656000D01*
X260943930Y-190607363D01*
X260965363Y-190575287D01*
X261005601Y-190373000D01*
X261005600Y-190372995D01*
X261005600Y-188976005D01*
X261005601Y-188976000D01*
X260965363Y-188773713D01*
X260850777Y-188602223D01*
X260290040Y-188041486D01*
X260290122Y-187947976D01*
X260183474Y-187689868D01*
X259986170Y-187492220D01*
X259728249Y-187385122D01*
X259448976Y-187384878D01*
X259190868Y-187491526D01*
X258993220Y-187688830D01*
X258886122Y-187946751D01*
X258885878Y-188226024D01*
X258992526Y-188484132D01*
X259039832Y-188531520D01*
X258866220Y-188704830D01*
X258759122Y-188962751D01*
X258758878Y-189242024D01*
X258865526Y-189500132D01*
X258912721Y-189547410D01*
X258866220Y-189593830D01*
X258810134Y-189728900D01*
X251269505Y-189728900D01*
X251269500Y-189728899D01*
X251067213Y-189769137D01*
X251013358Y-189805122D01*
X250895723Y-189883723D01*
X250895721Y-189883726D01*
X249001486Y-191777960D01*
X248907976Y-191777878D01*
X248649868Y-191884526D01*
X248452220Y-192081830D01*
X248345122Y-192339751D01*
X248344878Y-192619024D01*
X248451526Y-192877132D01*
X248648830Y-193074780D01*
X248654720Y-193077226D01*
X248249722Y-193482224D01*
X248135136Y-193653714D01*
X248094898Y-193856001D01*
X248094899Y-193856006D01*
X248094899Y-195571720D01*
X247951368Y-195631026D01*
X247753720Y-195828330D01*
X247646622Y-196086251D01*
X247646378Y-196365524D01*
X247753026Y-196623632D01*
X247807218Y-196677918D01*
X247710122Y-196911751D01*
X247709878Y-197191024D01*
X247816526Y-197449132D01*
X248013830Y-197646780D01*
X248271751Y-197753878D01*
X248551024Y-197754122D01*
X248809132Y-197647474D01*
X249006780Y-197450170D01*
X249113878Y-197192249D01*
X249113961Y-197097593D01*
X249547774Y-196663779D01*
X249547777Y-196663777D01*
X249605070Y-196578031D01*
X249618877Y-196557368D01*
X249618835Y-196605534D01*
X249763463Y-196955560D01*
X250031031Y-197223596D01*
X250380805Y-197368835D01*
X250759534Y-197369165D01*
X251109560Y-197224537D01*
X251377596Y-196956969D01*
X251522835Y-196607195D01*
X251523165Y-196228466D01*
X251378537Y-195878440D01*
X251110969Y-195610404D01*
X250761195Y-195465165D01*
X250382466Y-195464835D01*
X250032440Y-195609463D01*
X249764404Y-195877031D01*
X249702600Y-196025871D01*
X249702600Y-194222954D01*
X252186953Y-191738600D01*
X252423030Y-191738600D01*
X251412065Y-192749565D01*
X251320642Y-192885373D01*
X251287000Y-193051500D01*
X251287000Y-195020000D01*
X251318384Y-195180677D01*
X251412065Y-195321935D01*
X251729565Y-195639435D01*
X251865373Y-195730858D01*
X252031500Y-195764500D01*
X262890000Y-195764500D01*
X263050677Y-195733116D01*
X263191935Y-195639435D01*
X264779435Y-194051935D01*
X264870858Y-193916127D01*
X264904500Y-193750000D01*
X264904500Y-191831894D01*
X265098738Y-192122592D01*
X265517439Y-192402359D01*
X266011330Y-192500600D01*
X266372670Y-192500600D01*
X266866561Y-192402359D01*
X267285262Y-192122592D01*
X267565029Y-191703891D01*
X267663270Y-191210000D01*
X267565029Y-190716109D01*
X267285262Y-190297408D01*
X267038704Y-190132663D01*
X267065435Y-190114935D01*
X267763935Y-189416435D01*
X267855358Y-189280627D01*
X267889000Y-189114500D01*
X267889000Y-188225500D01*
X267857616Y-188064823D01*
X267763935Y-187923565D01*
X267364218Y-187523848D01*
X267382935Y-187511435D01*
X267763935Y-187130435D01*
X267855358Y-186994627D01*
X267889000Y-186828500D01*
X267889000Y-185431500D01*
X267857616Y-185270823D01*
X267763935Y-185129565D01*
X267443709Y-184809339D01*
X267511567Y-184765673D01*
X267609064Y-184622981D01*
X267643365Y-184453600D01*
X267643365Y-182726400D01*
X267613591Y-182568163D01*
X267520073Y-182422833D01*
X267377381Y-182325336D01*
X267208000Y-182291035D01*
X265176000Y-182291035D01*
X265017763Y-182320809D01*
X264872433Y-182414327D01*
X264774936Y-182557019D01*
X264740635Y-182726400D01*
X264740635Y-184328765D01*
X264650500Y-184238630D01*
X264650500Y-180542000D01*
X264619116Y-180381323D01*
X264525435Y-180240065D01*
X263001435Y-178716065D01*
X262865627Y-178624642D01*
X262699500Y-178591000D01*
X252539500Y-178591000D01*
X252378823Y-178622384D01*
X252237565Y-178716065D01*
X251412065Y-179541565D01*
X251320642Y-179677373D01*
X251287000Y-179843500D01*
X251287000Y-181812000D01*
X251318384Y-181972677D01*
X251412065Y-182113935D01*
X252765930Y-183467800D01*
X245416461Y-183467800D01*
X245409530Y-183460857D01*
X245133238Y-183346130D01*
X244834074Y-183345869D01*
X244557582Y-183460113D01*
X244345857Y-183671470D01*
X244231130Y-183947762D01*
X244230869Y-184246926D01*
X232277000Y-184246926D01*
X232277000Y-177304024D01*
X232850878Y-177304024D01*
X232957526Y-177562132D01*
X233154830Y-177759780D01*
X233404912Y-177863623D01*
X233155868Y-177966526D01*
X232958220Y-178163830D01*
X232851122Y-178421751D01*
X232850878Y-178701024D01*
X232957526Y-178959132D01*
X233131721Y-179133631D01*
X232958220Y-179306830D01*
X232851122Y-179564751D01*
X232850878Y-179844024D01*
X232957526Y-180102132D01*
X233154830Y-180299780D01*
X233404912Y-180403623D01*
X233155868Y-180506526D01*
X232958220Y-180703830D01*
X232851122Y-180961751D01*
X232850878Y-181241024D01*
X232957526Y-181499132D01*
X233154830Y-181696780D01*
X233251610Y-181736966D01*
X233155868Y-181776526D01*
X232958220Y-181973830D01*
X232851122Y-182231751D01*
X232850878Y-182511024D01*
X232957526Y-182769132D01*
X233131721Y-182943631D01*
X232958220Y-183116830D01*
X232851122Y-183374751D01*
X232850878Y-183654024D01*
X232957526Y-183912132D01*
X233154830Y-184109780D01*
X233412751Y-184216878D01*
X233692024Y-184217122D01*
X233950132Y-184110474D01*
X234147780Y-183913170D01*
X234207810Y-183768601D01*
X240301436Y-183768601D01*
X240462714Y-183876363D01*
X240665000Y-183916600D01*
X240962765Y-183916600D01*
X241028830Y-183982780D01*
X241286751Y-184089878D01*
X241566024Y-184090122D01*
X241824132Y-183983474D01*
X242021780Y-183786170D01*
X242128878Y-183528249D01*
X242129122Y-183248976D01*
X242067157Y-183099009D01*
X242078132Y-183094474D01*
X242275780Y-182897170D01*
X242382878Y-182639249D01*
X242383122Y-182359976D01*
X242276474Y-182101868D01*
X242079170Y-181904220D01*
X241821249Y-181797122D01*
X241541976Y-181796878D01*
X241283868Y-181903526D01*
X241086220Y-182100830D01*
X241026190Y-182245399D01*
X234255111Y-182245399D01*
X234255122Y-182232976D01*
X234148474Y-181974868D01*
X233951170Y-181777220D01*
X233854390Y-181737034D01*
X233950132Y-181697474D01*
X234147780Y-181500170D01*
X234254878Y-181242249D01*
X234254961Y-181147593D01*
X234533953Y-180868600D01*
X241343986Y-180868600D01*
X241536830Y-181061780D01*
X241794751Y-181168878D01*
X242074024Y-181169122D01*
X242332132Y-181062474D01*
X242529780Y-180865170D01*
X242636878Y-180607249D01*
X242637122Y-180327976D01*
X242530474Y-180069868D01*
X242333170Y-179872220D01*
X242075249Y-179765122D01*
X241795976Y-179764878D01*
X241641340Y-179828772D01*
X241554000Y-179811399D01*
X241553995Y-179811400D01*
X234315005Y-179811400D01*
X234315000Y-179811399D01*
X234254897Y-179823354D01*
X234254961Y-179750593D01*
X234279953Y-179725600D01*
X242351046Y-179725600D01*
X242883960Y-180258513D01*
X242883878Y-180352024D01*
X242990526Y-180610132D01*
X243187830Y-180807780D01*
X243445751Y-180914878D01*
X243725024Y-180915122D01*
X243983132Y-180808474D01*
X244180780Y-180611170D01*
X244287878Y-180353249D01*
X244288122Y-180073976D01*
X244181474Y-179815868D01*
X243984170Y-179618220D01*
X243726249Y-179511122D01*
X243631592Y-179511039D01*
X242960642Y-178840088D01*
X243017878Y-178702249D01*
X243017959Y-178609448D01*
X243064751Y-178628878D01*
X243344024Y-178629122D01*
X243602132Y-178522474D01*
X243799780Y-178325170D01*
X243906878Y-178067249D01*
X243907122Y-177787976D01*
X243800474Y-177529868D01*
X243603170Y-177332220D01*
X243345249Y-177225122D01*
X243065976Y-177224878D01*
X242953384Y-177271400D01*
X238851953Y-177271400D01*
X238646776Y-177066222D01*
X238635369Y-177058600D01*
X241851765Y-177058600D01*
X241917830Y-177124780D01*
X242175751Y-177231878D01*
X242455024Y-177232122D01*
X242713132Y-177125474D01*
X242910780Y-176928170D01*
X243017878Y-176670249D01*
X243018122Y-176390976D01*
X242911474Y-176132868D01*
X242714170Y-175935220D01*
X242456249Y-175828122D01*
X242176976Y-175827878D01*
X241918868Y-175934526D01*
X241851877Y-176001400D01*
X234406953Y-176001400D01*
X234382040Y-175976487D01*
X234382122Y-175882976D01*
X234275474Y-175624868D01*
X234078170Y-175427220D01*
X233820249Y-175320122D01*
X233540976Y-175319878D01*
X233282868Y-175426526D01*
X233085220Y-175623830D01*
X232978122Y-175881751D01*
X232977878Y-176161024D01*
X233084526Y-176419132D01*
X233211650Y-176546477D01*
X233155868Y-176569526D01*
X232958220Y-176766830D01*
X232851122Y-177024751D01*
X232850878Y-177304024D01*
X232277000Y-177304024D01*
X232277000Y-172831779D01*
X264412357Y-172831779D01*
X264537995Y-173135846D01*
X264770430Y-173368688D01*
X265074278Y-173494856D01*
X265403279Y-173495143D01*
X265707346Y-173369505D01*
X265739352Y-173337555D01*
X265770430Y-173368688D01*
X266074278Y-173494856D01*
X266403279Y-173495143D01*
X266707346Y-173369505D01*
X266739352Y-173337555D01*
X266770430Y-173368688D01*
X267074278Y-173494856D01*
X267403279Y-173495143D01*
X267707346Y-173369505D01*
X267940188Y-173137070D01*
X268066356Y-172833222D01*
X268066643Y-172504221D01*
X267941005Y-172200154D01*
X267708570Y-171967312D01*
X267404722Y-171841144D01*
X267075721Y-171840857D01*
X266771654Y-171966495D01*
X266739648Y-171998445D01*
X266708570Y-171967312D01*
X266404722Y-171841144D01*
X266075721Y-171840857D01*
X265771654Y-171966495D01*
X265739648Y-171998445D01*
X265708570Y-171967312D01*
X265404722Y-171841144D01*
X265075721Y-171840857D01*
X264771654Y-171966495D01*
X264538812Y-172198930D01*
X264412644Y-172502778D01*
X264412357Y-172831779D01*
X232277000Y-172831779D01*
X232277000Y-168668024D01*
X235877858Y-168668024D01*
X235984506Y-168926132D01*
X236181810Y-169123780D01*
X236439731Y-169230878D01*
X236719004Y-169231122D01*
X236977112Y-169124474D01*
X237174760Y-168927170D01*
X237281858Y-168669249D01*
X237282071Y-168424910D01*
X237345830Y-168488780D01*
X237603751Y-168595878D01*
X237883024Y-168596122D01*
X238141132Y-168489474D01*
X238316075Y-168314835D01*
X238315835Y-168590534D01*
X238460463Y-168940560D01*
X238728031Y-169208596D01*
X239077805Y-169353835D01*
X239456534Y-169354165D01*
X239806560Y-169209537D01*
X240074596Y-168941969D01*
X240219835Y-168592195D01*
X240220165Y-168213466D01*
X240096676Y-167914600D01*
X240156995Y-167914600D01*
X240157000Y-167914601D01*
X240359287Y-167874363D01*
X240530777Y-167759777D01*
X241914400Y-166376153D01*
X241914400Y-169580046D01*
X241381486Y-170112960D01*
X241287976Y-170112878D01*
X241029868Y-170219526D01*
X240832220Y-170416830D01*
X240725122Y-170674751D01*
X240724878Y-170954024D01*
X240831526Y-171212132D01*
X241028830Y-171409780D01*
X241286751Y-171516878D01*
X241566024Y-171517122D01*
X241824132Y-171410474D01*
X242021780Y-171213170D01*
X242128878Y-170955249D01*
X242128961Y-170860593D01*
X242816777Y-170172777D01*
X242931363Y-170001287D01*
X242971601Y-169799000D01*
X242971600Y-169798995D01*
X242971600Y-158206954D01*
X246096220Y-155082333D01*
X246207463Y-155351560D01*
X246475031Y-155619596D01*
X246824805Y-155764835D01*
X247203534Y-155765165D01*
X247553560Y-155620537D01*
X247821596Y-155352969D01*
X247966835Y-155003195D01*
X247967165Y-154624466D01*
X247822537Y-154274440D01*
X247554969Y-154006404D01*
X247284470Y-153894083D01*
X247949513Y-153229040D01*
X248043024Y-153229122D01*
X248301132Y-153122474D01*
X248498780Y-152925170D01*
X248605878Y-152667249D01*
X248606008Y-152518928D01*
X248682132Y-152487474D01*
X248879780Y-152290170D01*
X248986878Y-152032249D01*
X248987122Y-151752976D01*
X248880474Y-151494868D01*
X248683170Y-151297220D01*
X248605993Y-151265174D01*
X248606122Y-151117976D01*
X248499474Y-150859868D01*
X248302170Y-150662220D01*
X248044249Y-150555122D01*
X247764976Y-150554878D01*
X247506868Y-150661526D01*
X247421161Y-150747084D01*
X247312806Y-150768637D01*
X247141315Y-150883223D01*
X247141313Y-150883226D01*
X241053223Y-156971315D01*
X240938637Y-157142805D01*
X240898399Y-157345092D01*
X240898400Y-157345097D01*
X240898400Y-165262047D01*
X239684046Y-166476400D01*
X237715077Y-166476400D01*
X237715072Y-166476399D01*
X237512785Y-166516637D01*
X237427041Y-166573930D01*
X237341295Y-166631223D01*
X237341293Y-166631226D01*
X236206203Y-167766315D01*
X236091617Y-167937805D01*
X236070075Y-168046103D01*
X235985200Y-168130830D01*
X235878102Y-168388751D01*
X235877858Y-168668024D01*
X232277000Y-168668024D01*
X232277000Y-149246926D01*
X244230869Y-149246926D01*
X244345113Y-149523418D01*
X244556470Y-149735143D01*
X244832762Y-149849870D01*
X245131926Y-149850131D01*
X245408418Y-149735887D01*
X245416118Y-149728200D01*
X258090330Y-149728200D01*
X260873565Y-152511435D01*
X261009373Y-152602858D01*
X261175500Y-152636500D01*
X264589630Y-152636500D01*
X261570130Y-155656000D01*
X261003687Y-155656000D01*
X261092363Y-155523287D01*
X261132601Y-155321000D01*
X261132600Y-155320995D01*
X261132600Y-154305005D01*
X261132601Y-154305000D01*
X261092363Y-154102713D01*
X261007504Y-153975713D01*
X260977777Y-153931223D01*
X260977774Y-153931221D01*
X260236776Y-153190222D01*
X260158003Y-153137588D01*
X260056474Y-152891868D01*
X259859170Y-152694220D01*
X259601249Y-152587122D01*
X259321976Y-152586878D01*
X259063868Y-152693526D01*
X258866220Y-152890830D01*
X258759122Y-153148751D01*
X258758878Y-153428024D01*
X258865526Y-153686132D01*
X258912721Y-153733410D01*
X258866220Y-153779830D01*
X258759122Y-154037751D01*
X258759017Y-154157400D01*
X257556000Y-154157400D01*
X257353713Y-154197637D01*
X257182223Y-154312223D01*
X256765546Y-154728900D01*
X251269505Y-154728900D01*
X251269500Y-154728899D01*
X251067213Y-154769137D01*
X251001568Y-154813000D01*
X250895723Y-154883723D01*
X250895721Y-154883726D01*
X249001486Y-156777960D01*
X248907976Y-156777878D01*
X248649868Y-156884526D01*
X248452220Y-157081830D01*
X248345122Y-157339751D01*
X248344878Y-157619024D01*
X248451526Y-157877132D01*
X248648830Y-158074780D01*
X248654720Y-158077226D01*
X248249722Y-158482224D01*
X248135136Y-158653714D01*
X248094898Y-158856001D01*
X248094899Y-158856006D01*
X248094899Y-160571720D01*
X247951368Y-160631026D01*
X247753720Y-160828330D01*
X247646622Y-161086251D01*
X247646378Y-161365524D01*
X247753026Y-161623632D01*
X247807218Y-161677918D01*
X247710122Y-161911751D01*
X247709878Y-162191024D01*
X247816526Y-162449132D01*
X248013830Y-162646780D01*
X248271751Y-162753878D01*
X248551024Y-162754122D01*
X248809132Y-162647474D01*
X249006780Y-162450170D01*
X249113878Y-162192249D01*
X249113961Y-162097593D01*
X249547774Y-161663779D01*
X249547777Y-161663777D01*
X249605070Y-161578032D01*
X249618877Y-161557368D01*
X249618835Y-161605534D01*
X249763463Y-161955560D01*
X250031031Y-162223596D01*
X250380805Y-162368835D01*
X250759534Y-162369165D01*
X251109560Y-162224537D01*
X251377596Y-161956969D01*
X251522835Y-161607195D01*
X251523165Y-161228466D01*
X251378537Y-160878440D01*
X251110969Y-160610404D01*
X250761195Y-160465165D01*
X250382466Y-160464835D01*
X250032440Y-160609463D01*
X249764404Y-160877031D01*
X249702600Y-161025871D01*
X249702600Y-159222954D01*
X252186953Y-156738600D01*
X252423030Y-156738600D01*
X251412065Y-157749565D01*
X251320642Y-157885373D01*
X251287000Y-158051500D01*
X251287000Y-160020000D01*
X251318384Y-160180677D01*
X251412065Y-160321935D01*
X251729565Y-160639435D01*
X251865373Y-160730858D01*
X252031500Y-160764500D01*
X262890000Y-160764500D01*
X263050677Y-160733116D01*
X263191935Y-160639435D01*
X264779435Y-159051935D01*
X264870858Y-158916127D01*
X264904500Y-158750000D01*
X264904500Y-156831894D01*
X265098738Y-157122592D01*
X265517439Y-157402359D01*
X266011330Y-157500600D01*
X266372670Y-157500600D01*
X266866561Y-157402359D01*
X267285262Y-157122592D01*
X267565029Y-156703891D01*
X267663270Y-156210000D01*
X267565029Y-155716109D01*
X267285262Y-155297408D01*
X267038704Y-155132663D01*
X267065435Y-155114935D01*
X267763935Y-154416435D01*
X267855358Y-154280627D01*
X267889000Y-154114500D01*
X267889000Y-153225500D01*
X267857616Y-153064823D01*
X267763935Y-152923565D01*
X267364218Y-152523848D01*
X267382935Y-152511435D01*
X267763935Y-152130435D01*
X267855358Y-151994627D01*
X267889000Y-151828500D01*
X267889000Y-150431500D01*
X267857616Y-150270823D01*
X267763935Y-150129565D01*
X267443709Y-149809339D01*
X267511567Y-149765673D01*
X267609064Y-149622981D01*
X267643365Y-149453600D01*
X267643365Y-147726400D01*
X267613591Y-147568163D01*
X267520073Y-147422833D01*
X267377381Y-147325336D01*
X267208000Y-147291035D01*
X265176000Y-147291035D01*
X265017763Y-147320809D01*
X264872433Y-147414327D01*
X264774936Y-147557019D01*
X264740635Y-147726400D01*
X264740635Y-149328765D01*
X264650500Y-149238630D01*
X264650500Y-145542000D01*
X264619116Y-145381323D01*
X264525435Y-145240065D01*
X263001435Y-143716065D01*
X262865627Y-143624642D01*
X262699500Y-143591000D01*
X252539500Y-143591000D01*
X252378823Y-143622384D01*
X252237565Y-143716065D01*
X251412065Y-144541565D01*
X251320642Y-144677373D01*
X251287000Y-144843500D01*
X251287000Y-146812000D01*
X251318384Y-146972677D01*
X251412065Y-147113935D01*
X252765930Y-148467800D01*
X245416461Y-148467800D01*
X245409530Y-148460857D01*
X245133238Y-148346130D01*
X244834074Y-148345869D01*
X244557582Y-148460113D01*
X244345857Y-148671470D01*
X244231130Y-148947762D01*
X244230869Y-149246926D01*
X232277000Y-149246926D01*
X232277000Y-137831779D01*
X264412357Y-137831779D01*
X264537995Y-138135846D01*
X264770430Y-138368688D01*
X265074278Y-138494856D01*
X265403279Y-138495143D01*
X265707346Y-138369505D01*
X265739352Y-138337555D01*
X265770430Y-138368688D01*
X266074278Y-138494856D01*
X266403279Y-138495143D01*
X266707346Y-138369505D01*
X266739352Y-138337555D01*
X266770430Y-138368688D01*
X267074278Y-138494856D01*
X267403279Y-138495143D01*
X267707346Y-138369505D01*
X267940188Y-138137070D01*
X268066356Y-137833222D01*
X268066643Y-137504221D01*
X267941005Y-137200154D01*
X267708570Y-136967312D01*
X267404722Y-136841144D01*
X267075721Y-136840857D01*
X266771654Y-136966495D01*
X266739648Y-136998445D01*
X266708570Y-136967312D01*
X266404722Y-136841144D01*
X266075721Y-136840857D01*
X265771654Y-136966495D01*
X265739648Y-136998445D01*
X265708570Y-136967312D01*
X265404722Y-136841144D01*
X265075721Y-136840857D01*
X264771654Y-136966495D01*
X264538812Y-137198930D01*
X264412644Y-137502778D01*
X264412357Y-137831779D01*
X232277000Y-137831779D01*
X232277000Y-130373436D01*
X240297827Y-130373436D01*
X240450051Y-130741846D01*
X240731672Y-131023959D01*
X241099816Y-131176825D01*
X241498436Y-131177173D01*
X241866846Y-131024949D01*
X242148959Y-130743328D01*
X242301825Y-130375184D01*
X242302173Y-129976564D01*
X242149949Y-129608154D01*
X241868328Y-129326041D01*
X241500184Y-129173175D01*
X241101564Y-129172827D01*
X240733154Y-129325051D01*
X240451041Y-129606672D01*
X240298175Y-129974816D01*
X240297827Y-130373436D01*
X232277000Y-130373436D01*
X232277000Y-122753436D01*
X246647827Y-122753436D01*
X246800051Y-123121846D01*
X247081672Y-123403959D01*
X247449816Y-123556825D01*
X247848436Y-123557173D01*
X248173536Y-123422844D01*
X255678000Y-123422844D01*
X255678000Y-125497156D01*
X255785863Y-126039418D01*
X256093030Y-126499126D01*
X256552738Y-126806293D01*
X257095000Y-126914156D01*
X257637262Y-126806293D01*
X258096970Y-126499126D01*
X258404137Y-126039418D01*
X258512000Y-125497156D01*
X258512000Y-123422844D01*
X258404137Y-122880582D01*
X258096970Y-122420874D01*
X257637262Y-122113707D01*
X257095000Y-122005844D01*
X256552738Y-122113707D01*
X256093030Y-122420874D01*
X255785863Y-122880582D01*
X255678000Y-123422844D01*
X248173536Y-123422844D01*
X248216846Y-123404949D01*
X248498959Y-123123328D01*
X248651825Y-122755184D01*
X248652173Y-122356564D01*
X248499949Y-121988154D01*
X248218328Y-121706041D01*
X247850184Y-121553175D01*
X247451564Y-121552827D01*
X247083154Y-121705051D01*
X246801041Y-121986672D01*
X246648175Y-122354816D01*
X246647827Y-122753436D01*
X232277000Y-122753436D01*
X232277000Y-116707000D01*
X269373000Y-116707000D01*
X269373000Y-271913000D01*
M02*
